<?xml version="1.0" encoding="UTF-8"?>
<svg id="Layer_2" data-name="Layer 2" xmlns="http://www.w3.org/2000/svg" viewBox="0 0 136.98 134.89">
  <defs>
    <style>
      .cls-1, .cls-2, .cls-3, .cls-4, .cls-5, .cls-6 {
        stroke-width: 0px;
      }

      .cls-2 {
        fill: #65391b;
      }

      .cls-3 {
        fill: #8a593b;
      }

      .cls-4 {
        fill: #d09e81;
      }

      .cls-5 {
        fill: #b17f5d;
      }

      .cls-6 {
        fill: #fff;
      }
    </style>
  </defs>
  <g id="sad_head" data-name="sad head">
    <g>
      <g id="head">
        <path class="cls-5" d="m21.72,99.26c-2.39-1.02-5.24,2.76-6.93,1.62-1.47-.99-1.52-3.54-1.32-5.59-1.87-.12-3.16-2.1-3.21-3.97-.05-1.87.82-3.62,1.66-5.29-2.25.03-4.38-1.78-4.71-4-.33-2.22,1.17-4.58,3.33-5.21C2.55,66.75-1.57,52.44,3.95,40.82c2.13-4.48,5.52-8.27,7.72-12.72l3.04.76c-2.31.02-4.53-1.61-5.21-3.82-.68-2.2.23-4.8,2.15-6.09.47-.32,1.03-.6,1.27-1.12.27-.58.05-1.26-.08-1.89-.37-1.84.16-3.85,1.4-5.26,2.62-3,7.31-2.76,11.2-1.91,7.76,1.7,15.2,4.88,21.79,9.33,2.97,2,5.94,4.32,9.48,4.8,0,0,19.08.45,27.16-4.81C94.15,11.39,104.56,1.97,117.08,1.5c.89-.03,1.81,0,2.61.37,2.9,1.36,2.23,5.63,1.1,8.62,1.83-.79,4.21.1,5.07,1.9.86,1.8.06,4.21-1.7,5.13l.78-.41c7.11,10.82,8.69,25.08,4.12,37.19l-.15,1.56c1.7-.75,3.91-.03,4.86,1.57.94,1.6.49,3.88-.99,5.01-.83.63-1.97,1-2.33,1.97-.37,1.01.34,2.11,1.21,2.74.87.63,1.93.99,2.73,1.7,1.08.95,1.57,2.51,1.24,3.91-.33,1.4-1.47,2.57-2.86,2.95-.67.18-1.51.27-1.8.9-.41.91.71,1.69,1.41,2.39,1.33,1.31.95,3.97-.05,5.07-.73.8-1.59.34-2.67.82-2.4,1.05-2.74,5.08-3,7-.16,1.19-1.77,5.12-5,13-3.32,8.11-9.03,13.3-12,16-12.07,10.98-26.54,12.65-31,13-12.29.96-35.62-8.48-38-10-5.3-3.38-8.85-7.26-11-10-3.24-5.42-4.98-9.24-6-12-.3-.82-.76-2.14-1.93-2.64Z"/>
        <g id="head_stroke" data-name="head stroke">
          <path class="cls-3" d="m21.31,98.56c-1.82.93-4.76,2.46-6.74,1.1-.97-.67-1.85-2.67-.55-3.43,1.01-.59.45-1.88-.55-2.01-1.32-.18-2.03-1.7-2.08-2.89-.07-1.66.82-3.26,1.55-4.69.42-.82-.1-1.76-1.03-1.8-3.84-.15-4.75-5.52-1.03-6.73.72-.24,1.35-1.23.79-1.95C3.79,65.9-.54,51.33,6.33,39.43c2.08-3.61,4.73-6.86,6.62-10.58l-1.68.68,3.04.77.4-2.93c-2.27-.07-4.22-2.04-3.91-4.37.14-1.08.73-2.1,1.6-2.75,1.03-.77,2-1.36,2.12-2.77.11-1.28-.49-2.44-.19-3.74.26-1.17.95-2.19,1.94-2.88,1.94-1.34,4.6-1.29,6.84-.98,5.61.76,11.26,2.89,16.3,5.41,2.62,1.31,5.14,2.81,7.56,4.46,2.27,1.55,4.53,3.16,7.15,4.07,2.13.74,4.23.62,6.44.56,3.72-.1,7.44-.4,11.13-.94,3.89-.57,7.85-1.42,11.39-3.18,2.04-1.02,3.9-2.44,5.77-3.74,2.2-1.54,4.39-3.1,6.62-4.61,4.9-3.32,10.08-6.49,15.85-8.03,1.37-.37,2.77-.65,4.19-.79,1.22-.12,3.12-.48,4.08.49,1.53,1.55.39,4.8-.23,6.51-.37,1.02.8,2.21,1.83,1.83,1.2-.45,2.7-.17,3.35,1.05s0,2.68-1.09,3.33c-1.57.93-.18,3.3,1.43,2.44l.78-.42-1.93-.51c3.87,5.9,6.12,12.76,6.5,19.82.19,3.51-.04,7.05-.76,10.49-.36,1.71-.83,3.4-1.41,5.06-.31.89-.38,1.74-.48,2.67-.08.81.92,1.57,1.68,1.28,1.5-.58,3.43.07,3.66,1.84.27,2.03-1.42,2.52-2.67,3.58-1.39,1.18-1.55,3-.51,4.49,1.09,1.57,3.37,1.82,4.3,3.43,1.02,1.77-.14,3.55-1.92,4.04-1.55.43-3.05,1.46-2.39,3.3.58,1.62,2.69,2.19,2.27,4.19-.37,1.78-2.63,2.15-3.84.95s-2.96.64-1.8,1.8c2.43,2.44,6.83,1.82,8.03-1.58.53-1.52.31-3.3-.66-4.6-.21-.28-1.37-1.58-1.52-1.38.11-.15,1.06-.27,1.24-.34.44-.16.87-.37,1.26-.64,3.04-2.13,3-6.6.02-8.75-.76-.55-1.73-.85-2.44-1.47-.97-.84-.56-1.35.34-1.91,1.39-.87,2.46-1.97,2.81-3.63.82-3.95-3.09-7.34-6.89-5.89l1.68,1.28c.04-.4.05-.83.12-1.22.12-.62.45-1.25.65-1.89.53-1.67.96-3.37,1.27-5.09.65-3.57.86-7.21.6-10.82-.52-7.24-2.8-14.32-6.73-20.43-.43-.66-1.23-.87-1.93-.51l-.78.41,1.43,2.44c2.36-1.38,3.43-4.38,2.31-6.91s-4.22-3.73-6.78-2.77l1.83,1.83c.81-2.19,1.4-4.74.79-7.05-.74-2.79-3.21-3.91-5.93-3.83-5.77.16-11.31,2.3-16.3,5.06s-9.9,6.42-14.75,9.77c-1.83,1.26-3.63,2.56-5.7,3.4-1.96.79-4.02,1.32-6.09,1.74-4.09.84-8.28,1.2-12.45,1.37-2.37.09-4.79.37-7.06-.47-2.87-1.07-5.3-3.14-7.86-4.78-2.72-1.75-5.58-3.29-8.54-4.61s-5.97-2.42-9.07-3.29c-2.69-.75-5.49-1.44-8.3-1.47s-5.85.71-7.79,2.91c-1.01,1.14-1.65,2.55-1.86,4.06-.11.77-.1,1.52.02,2.3.04.24.3.9.21,1.12-.12.33-.52.46-.79.66-2.37,1.69-3.56,4.87-2.7,7.69s3.67,4.83,6.66,4.91c1.67.05,2.03-2.52.4-2.93-1.01-.25-2.03-.5-3.04-.76-.61-.15-1.38.09-1.68.68-1.78,3.54-4.23,6.65-6.25,10.04-1.84,3.08-3.16,6.43-3.74,9.98-1.12,6.89.21,13.86,2.96,20.22,1.59,3.68,3.74,7.05,6.24,10.18l.59-2.22c-2.69.93-4.6,3.59-4.24,6.49s3.04,5.14,5.98,5.19l-1.03-1.8c-1.08,2.2-2.24,4.68-1.58,7.18.53,2.02,2.07,3.52,4.16,3.76l-.55-2.01c-2.33,1.43-1.95,4.6-.22,6.37,2.64,2.71,6.73.79,9.41-.78.9-.53.11-1.86-.81-1.39h0Z"/>
        </g>
        <path id="white" class="cls-6" d="m46.65,126.89c-5.4-11.61-8.16-18.22-11-22-.48-.64-3.94-3.88-4-8-.04-2.81,1.07-4,1.33-4.26.87-.87,1.92-1.13,2.45-1.26,7.35-1.68,10.21-1.48,10.21-1.48,9.09.61,15.48,1.03,21,0,2.92-.55,7.14-1.79,12-5,5.16,1.19,9.61,1.73,13,2,1.88.15,3.37.27,5.44.23,3.6-.06,5.64-.52,10.56-1.23,1.9-.27,4.65-.64,8-1,1.11-.12,2.98-.15,4,1,1.33,1.5.51,4.2.09,5.48-3.66,11.4-14.09,33.52-14.09,33.52h0c-2.93,1.95-6.94,4.21-12,6-5.9,2.08-13.15,4-17,4-5,0-9-2-14-3-6.31-1.26-11.66-3.2-16-5Z"/>
      </g>
      <path class="cls-3" d="m21.11,99.42c.12.59.49.85.87,1.28.31.35.56.79.82,1.21.65,1.05,1.14,2.17,1.54,3.34.44,1.25.8,2.54,1.13,3.82.31,1.21.47,2.7,1.32,3.66.58.65,1.56.24,1.81-.48s.07-1.46-.04-2.19c-.09-.64-.28-1.27-.45-1.89-.4-1.45-.9-2.87-1.5-4.25-.55-1.26-1.18-2.56-2.07-3.63-.65-.78-1.88-2.09-2.98-1.64-.33.13-.52.41-.44.78h0Z"/>
      <path class="cls-3" d="m128.88,84.26c-2.25,1.31-3.38,4.72-4.25,7.02-1.03,2.75-1.81,5.56-2.63,8.37-.33,1.11-.69,2.21-1.01,3.33-.47,1.64-1.19,3.65-.98,5.35.14,1.13,1.49,1.62,2.18.59.97-1.45,1.13-3.44,1.62-5.1.3-1.04.66-2.06.97-3.1.8-2.62,1.47-5.28,2.32-7.89.43-1.33.9-2.65,1.41-3.95s1.27-2.64,1.36-4.06c.03-.51-.58-.81-.99-.57h0Z"/>
      <g id="left_ear" data-name="left ear">
        <path class="cls-4" d="m36.94,31.58c-5.47,8.94-20.01,36.94-21.09,35.95-1.97-1.8.94-36.31,9.91-42.19,8.97-5.88,12.91,3.43,11.2,6.24h-.01Z"/>
        <path class="cls-3" d="m21.16,55.87c3.46-5.49,6.64-10.63,9.73-15.83,1.78-3,3.38-6.13,5.2-9.1.4-.66,1.62-1.47,2.13-1.29,2.02.74.78,2.13.21,3.15-2.58,4.58-5.18,9.14-7.88,13.65-4.03,6.69-8.14,13.34-12.26,19.96-.42.68-1.16,1.15-1.76,1.72-.25-.93-.97-2.07-.64-2.74,1.5-3.15,3.27-6.17,5.26-9.54h0Z"/>
      </g>
      <g id="right_ear" data-name="right ear">
        <path class="cls-4" d="m98.93,22.87c-.22,3.59,21.66,24.24,22.6,23.13,2.51-2.94-5.75-26.65-13.28-29.51-7.53-2.86-9.14,3.36-9.33,6.38Z"/>
        <path class="cls-3" d="m119.95,48.32c-6.69-6.69-13.05-13.05-19.43-19.43-.89-.89-2.02-1.65-2.59-2.71-.42-.77-.1-1.93-.12-2.92.74.46,1.6.79,2.2,1.39,6.4,6.34,12.79,12.69,19.11,19.12,1.24,1.26,2.13,2.86,3.11,4.36.14.21-.21.74-.33,1.13-.55-.21-1.08-.42-1.94-.94h0Z"/>
      </g>
      <path class="cls-2" d="m89.96,88.93c-1.29.42-2.11-1.08-4.84-2.2-1.96-.8-3.53-.85-3.85-.86-.37,0-2.06-.02-4.15.86-3.88,1.63-4.91,4.57-6.76,4.08-.52-.14-1.1-.55-1.24-1.08-.04-.16-.17-.81,1-2,1.69-1.73,4.12-2.58,6-3-.51-.17-1.23-.46-2-1-2.36-1.65-4.18-4.95-3.2-6.74.16-.29.52-.76,3.44-1.49,5.34-1.33,8.77-.91,9.77-.77,2.18.31,3.28.49,3.79,1.33.86,1.42-.26,4.04-2.79,6.67-.91.52-1.03.83-1,1,.16.8,3.75-.09,6,2,.27.25,1.19,1.1,1,2-.11.54-.61,1.02-1.16,1.2Z"/>
      <path class="cls-2" d="m48.16,55.73c2.75-1.49,5.16-2.69,7.62-3.83,1.22-.57,2.47-1.16,3.76-1.46.62-.14,1.39.4,2.08.62-.44.45-.82.99-1.34,1.31-3,1.81-5.96,3.7-9.1,5.24-1.22.59-3.4,1.41-3.04-1.88h.01Z"/>
      <path class="cls-2" d="m98.18,51.64c-3.74.3-6.49-.88-9.11-2.28-.54-.28-.64-1.36-.95-2.07.85,0,1.73-.15,2.55,0,2.9.56,5.78,1.23,8.67,1.82,1.07.21,2.9-.58,2.48,1.5-.11.52-1.96.69-3.63,1.03Z"/>
      <path class="cls-1" d="m58.49,62.61l-5.82,3.36c-.19.69-.32,1.44-.32,2.22,0,3.34,1.98,6.04,4.43,6.04s4.43-2.71,4.43-6.04c0-2.51-1.12-4.67-2.72-5.57Z"/>
      <path class="cls-1" d="m94.21,59.92c-1.04,1.1-1.73,2.81-1.73,4.76,0,3.34,1.99,6.04,4.43,6.04s4.43-2.71,4.43-6.04c0-1.05-.21-2.02-.56-2.87l-6.59-1.88Z"/>
    </g>
  </g>
</svg>