<?xml version="1.0" encoding="utf-8"?>
<!-- Generator: Adobe Illustrator 27.9.2, SVG Export Plug-In . SVG Version: 6.00 Build 0)  -->
<svg version="1.1" id="Layer_2_00000082351423644986523750000008349926556349666946_"
	 xmlns="http://www.w3.org/2000/svg" xmlns:xlink="http://www.w3.org/1999/xlink" x="0px" y="0px" viewBox="0 0 137 134.9"
	 style="enable-background:new 0 0 137 134.9;" xml:space="preserve">
<style type="text/css">
	.st0{fill:#B17F5D;}
	.st1{fill:#8A593B;}
	.st2{fill:#FFFFFF;}
	.st3{fill:#D09E81;}
	.st4{fill:#F3C5DC;}
	.st5{fill:#65391B;}
</style>
<g id="happy_head">
	<g>
		<g id="head">
			<path class="st0" d="M21.7,99.3c-2.4-1-5.2,2.8-6.9,1.6c-1.5-1-1.5-3.5-1.3-5.6c-1.9-0.1-3.2-2.1-3.2-4s0.8-3.6,1.7-5.3
				c-2.2,0-4.4-1.8-4.7-4s1.2-4.6,3.3-5.2c-8-10.1-12.1-24.4-6.6-36c2.1-4.5,5.5-8.3,7.7-12.7l3,0.8c-2.3,0-4.5-1.6-5.2-3.8
				s0.2-4.8,2.1-6.1c0.5-0.3,1-0.6,1.3-1.1c0.3-0.6,0.1-1.3-0.1-1.9c-0.4-1.8,0.2-3.8,1.4-5.3c2.6-3,7.3-2.8,11.2-1.9
				c7.8,1.7,15.2,4.9,21.8,9.3c3,2,5.9,4.3,9.5,4.8c0,0,19.1,0.5,27.2-4.8C94.2,11.4,104.6,2,117.1,1.5c0.9,0,1.8,0,2.6,0.4
				c2.9,1.4,2.2,5.6,1.1,8.6c1.8-0.8,4.2,0.1,5.1,1.9s0.1,4.2-1.7,5.1l0.8-0.4c7.1,10.8,8.7,25.1,4.1,37.2l-0.1,1.6
				c1.7-0.8,3.9,0,4.9,1.6c0.9,1.6,0.5,3.9-1,5c-0.8,0.6-2,1-2.3,2c-0.4,1,0.3,2.1,1.2,2.7s1.9,1,2.7,1.7c1.1,0.9,1.6,2.5,1.2,3.9
				s-1.5,2.6-2.9,2.9c-0.7,0.2-1.5,0.3-1.8,0.9c-0.4,0.9,0.7,1.7,1.4,2.4c1.3,1.3,0.9,4-0.1,5.1c-0.7,0.8-1.6,0.3-2.7,0.8
				c-2.4,1.1-2.7,5.1-3,7c-0.2,1.2-1.8,5.1-5,13c-3.3,8.1-9,13.3-12,16c-12.1,11-26.5,12.6-31,13c-12.3,1-35.6-8.5-38-10
				c-5.3-3.4-9.9-7.3-12-10c-3.2-5.4-4-9.2-5-12C23.4,101.1,22.9,99.8,21.7,99.3L21.7,99.3z"/>
			<g id="head_stroke">
				<path class="st1" d="M21.3,98.6c-1.8,0.9-4.8,2.5-6.7,1.1c-1-0.7-1.9-2.7-0.6-3.4c1-0.6,0.4-1.9-0.6-2c-1.3-0.2-2-1.7-2.1-2.9
					c-0.1-1.7,0.8-3.3,1.6-4.7c0.4-0.8-0.1-1.8-1-1.8c-3.8-0.2-4.8-5.5-1-6.7c0.7-0.2,1.4-1.2,0.8-1.9c-7.9-10.4-12.2-25-5.4-36.9
					c2.1-3.6,4.7-6.9,6.6-10.6l-1.7,0.7l3,0.8l0.4-2.9c-2.3-0.1-4.2-2-3.9-4.4c0.1-1.1,0.7-2.1,1.6-2.8c1-0.8,2-1.4,2.1-2.8
					c0.1-1.3-0.5-2.4-0.2-3.7c0.3-1.2,0.9-2.2,1.9-2.9c1.9-1.3,4.6-1.3,6.8-1c5.6,0.8,11.3,2.9,16.3,5.4c2.6,1.3,5.1,2.8,7.6,4.5
					c2.3,1.5,4.5,3.2,7.2,4.1c2.1,0.7,4.2,0.6,6.4,0.6c3.7-0.1,7.4-0.4,11.1-0.9c3.9-0.6,7.8-1.4,11.4-3.2c2-1,3.9-2.4,5.8-3.7
					c2.2-1.5,4.4-3.1,6.6-4.6c4.9-3.3,10.1-6.5,15.8-8c1.4-0.4,2.8-0.7,4.2-0.8c1.2-0.1,3.1-0.5,4.1,0.5c1.5,1.5,0.4,4.8-0.2,6.5
					c-0.4,1,0.8,2.2,1.8,1.8c1.2-0.4,2.7-0.2,3.3,1.1s0,2.7-1.1,3.3c-1.6,0.9-0.2,3.3,1.4,2.4l0.8-0.4l-1.9-0.5
					c3.9,5.9,6.1,12.8,6.5,19.8c0.2,3.5,0,7-0.8,10.5c-0.4,1.7-0.8,3.4-1.4,5.1c-0.3,0.9-0.4,1.7-0.5,2.7c-0.1,0.8,0.9,1.6,1.7,1.3
					c1.5-0.6,3.4,0.1,3.7,1.8c0.3,2-1.4,2.5-2.7,3.6c-1.4,1.2-1.6,3-0.5,4.5c1.1,1.6,3.4,1.8,4.3,3.4c1,1.8-0.1,3.6-1.9,4
					c-1.6,0.4-3.1,1.5-2.4,3.3c0.6,1.6,2.7,2.2,2.3,4.2c-0.4,1.8-2.6,2.2-3.8,0.9s-3,0.6-1.8,1.8c2.4,2.4,6.8,1.8,8-1.6
					c0.5-1.5,0.3-3.3-0.7-4.6c-0.2-0.3-1.4-1.6-1.5-1.4c0.1-0.2,1.1-0.3,1.2-0.3c0.4-0.2,0.9-0.4,1.3-0.6c3-2.1,3-6.6,0-8.8
					c-0.8-0.6-1.7-0.8-2.4-1.5c-1-0.8-0.6-1.3,0.3-1.9c1.4-0.9,2.5-2,2.8-3.6c0.8-4-3.1-7.3-6.9-5.9l1.7,1.3c0-0.4,0.1-0.8,0.1-1.2
					c0.1-0.6,0.4-1.2,0.6-1.9c0.5-1.7,1-3.4,1.3-5.1c0.6-3.6,0.9-7.2,0.6-10.8c-0.5-7.2-2.8-14.3-6.7-20.4c-0.4-0.7-1.2-0.9-1.9-0.5
					l-0.8,0.4l1.4,2.4c2.4-1.4,3.4-4.4,2.3-6.9S123,8.1,120.4,9l1.8,1.8c0.8-2.2,1.4-4.7,0.8-7.1c-0.7-2.8-3.2-3.9-5.9-3.8
					c-5.8,0.2-11.3,2.3-16.3,5.1s-9.9,6.4-14.8,9.8c-1.8,1.3-3.6,2.6-5.7,3.4c-2,0.8-4,1.3-6.1,1.7c-4.1,0.8-8.3,1.2-12.5,1.4
					c-2.4,0.1-4.8,0.4-7.1-0.5c-2.9-1.1-5.3-3.1-7.9-4.8c-2.7-1.8-5.6-3.3-8.5-4.6s-6-2.4-9.1-3.3c-2.7-0.8-5.5-1.4-8.3-1.5
					S14.9,7.3,13,9.5c-1,1.1-1.6,2.6-1.9,4.1c-0.1,0.8-0.1,1.5,0,2.3c0,0.2,0.3,0.9,0.2,1.1c-0.1,0.3-0.5,0.5-0.8,0.7
					c-2.4,1.7-3.6,4.9-2.7,7.7s3.7,4.8,6.7,4.9c1.7,0,2-2.5,0.4-2.9l-3-0.8c-0.6-0.1-1.4,0.1-1.7,0.7C8.4,30.8,6,33.9,4,37.3
					c-1.8,3.1-3.2,6.4-3.7,10c-1.1,6.9,0.2,13.9,3,20.2c1.6,3.7,3.7,7.1,6.2,10.2l0.6-2.2c-2.6,1-4.5,3.6-4.1,6.5s3,5.1,6,5.2
					l-1-1.8c-1.1,2.2-2.2,4.7-1.6,7.2c0.5,2,2.1,3.5,4.2,3.8l-0.6-2c-2.3,1.4-1.9,4.6-0.2,6.4c2.6,2.7,6.7,0.8,9.4-0.8
					C23,99.4,22.2,98.1,21.3,98.6L21.3,98.6L21.3,98.6z"/>
			</g>
			<path id="white" class="st2" d="M46.7,126.9c-5.4-11.6-8.2-18.2-11-22c-0.5-0.6-3.9-3.9-4-8c0-2.8,1.1-4,1.3-4.3
				c0.9-0.9,1.9-1.1,2.5-1.3c7.3-1.7,10.2-1.5,10.2-1.5c9.1,0.6,15.5,1,21,0c2.9-0.6,7.1-1.8,12-5c5.2,1.2,9.6,1.7,13,2
				c1.9,0.2,3.4,0.3,5.4,0.2c3.6-0.1,5.6-0.5,10.6-1.2c1.9-0.3,4.7-0.6,8-1c1.1-0.1,3-0.2,4,1c1.3,1.5,0.5,4.2,0.1,5.5
				c-3.7,11.4-14.1,33.5-14.1,33.5l0,0c-2.9,1.9-6.9,4.2-12,6c-5.9,2.1-13.2,4-17,4c-5,0-9-2-14-3C56.3,130.6,51,128.7,46.7,126.9
				L46.7,126.9z"/>
		</g>
		<path class="st1" d="M20.5,100.6c0.2,0.4,0.3,0.7,0.7,0.9c0.2,0.2,0.5,0.3,0.7,0.5c0.5,0.4,0.8,0.9,1.2,1.4
			c0.7,1.1,1.1,2.2,1.5,3.4s0.6,2.6,0.9,3.8c0.2,1.1,0.5,3.3,1.6,3.9c0.6,0.4,1.3,0,1.5-0.6s0-1.7-0.1-2.4s-0.3-1.3-0.4-1.9
			c-0.3-1.4-0.7-2.8-1.2-4.1c-0.5-1.4-1.2-2.8-2.2-4c-0.5-0.6-1-1-1.7-1.4s-1.4-0.7-2.2-0.3C20.6,100,20.4,100.3,20.5,100.6
			L20.5,100.6L20.5,100.6z"/>
		<path class="st1" d="M128.9,84.3c-2.2,1.4-3.4,4.7-4.2,7.1c-1,2.8-1.8,5.6-2.7,8.4c-0.5,1.5-1,3-1.4,4.6c-0.6,1.9-1.5,3.4-1.3,5.4
			c0.1,1.1,1.5,1.6,2.2,0.6c1.1-1.7,1.3-3.1,1.9-5c0.5-1.5,1-2.9,1.4-4.4c0.8-2.6,1.5-5.3,2.3-7.9c0.5-1.4,0.9-2.8,1.5-4.2
			c0.5-1.3,1.1-2.5,1.3-3.9C129.9,84.3,129.3,84,128.9,84.3L128.9,84.3L128.9,84.3z"/>
		<g id="left_ear">
			<path class="st3" d="M36.9,31.6c-5.5,8.9-20,36.9-21.1,35.9c-2-1.8,0.9-36.3,9.9-42.2S38.7,28.8,36.9,31.6L36.9,31.6L36.9,31.6z"
				/>
			<path class="st1" d="M21.2,55.9c3.5-5.5,6.6-10.6,9.7-15.8c1.8-3,3.4-6.1,5.2-9.1c0.4-0.7,1.6-1.5,2.1-1.3c2,0.7,0.8,2.1,0.2,3.2
				c-2.6,4.6-5.2,9.1-7.9,13.7c-4,6.7-8.1,13.3-12.3,20c-0.4,0.7-1.2,1.2-1.8,1.7c-0.2-0.9-1-2.1-0.6-2.7
				C17.4,62.2,19.2,59.2,21.2,55.9L21.2,55.9L21.2,55.9z"/>
		</g>
		<g id="right_ear">
			<path class="st3" d="M98.9,22.9c-0.2,3.6,21.7,24.2,22.6,23.1c2.5-2.9-5.8-26.6-13.3-29.5S99.1,19.9,98.9,22.9L98.9,22.9z"/>
			<path class="st1" d="M119.9,48.3c-6.7-6.7-13.1-13-19.4-19.4c-0.9-0.9-2-1.6-2.6-2.7c-0.4-0.8-0.1-1.9-0.1-2.9
				c0.7,0.5,1.6,0.8,2.2,1.4c6.4,6.3,12.8,12.7,19.1,19.1c1.2,1.3,2.1,2.9,3.1,4.4c0.1,0.2-0.2,0.7-0.3,1.1
				C121.3,49.1,120.8,48.8,119.9,48.3L119.9,48.3L119.9,48.3z"/>
		</g>
		<g id="mouth_happy">
			<path class="st4" d="M69,90.3c-0.3,2.6,2.5,4.7,3.1,5.1c4.1,2.9,10.6,2.7,13.5-1.5c0.1-0.2,2.8-3.9,1.5-6.5
				c-0.3-0.6-2.2-1.2-4.2-1.7c-2.3-0.5-4.7-0.8-5.3-0.8C77.2,84.9,69.2,88.8,69,90.3z"/>
			<path class="st5" d="M68.2,90.3c-0.1,2.2,2.5,4.6,4.1,5.6c2,1.3,4.5,2,6.9,1.8s4.5-1.1,6-2.9c1.6-2,2.9-4.8,2.8-7.4
				c-0.1-1.3-2.1-1.1-1.8,0.2c0.2,0.9-0.3,2-0.6,2.8c-0.4,1.1-1,2.3-1.9,3.2c-1.3,1.3-3,2-4.8,2c-1.9,0-3.8-0.6-5.4-1.7
				c-0.9-0.6-1.8-1.3-2.6-2.1c-0.5-0.6-0.8-1.3-1.3-2S68.3,89.5,68.2,90.3L68.2,90.3L68.2,90.3z"/>
		</g>
		<g id="nose">
			<path class="st5" d="M51.9,90.6c1.2,1.7,3.5,1.7,5.4,1.7c2.7,0,5.3-0.3,7.9-0.7c2.4-0.3,4.6-0.9,6.8-1.9c1.8-0.9,4.5-2.3,5.5-4.2
				c0.5-1-0.5-2.1-1.5-1.5c-0.9,0.5-1.5,1.3-2.3,2c-0.7,0.5-1.5,1-2.3,1.4c-1.9,1-3.9,1.8-6,2.2c-2.3,0.6-4.6,0.7-7,0.8
				c-2.1,0.1-3.8,0-5.8-0.8C52.1,89.4,51.5,90.1,51.9,90.6L51.9,90.6L51.9,90.6z"/>
			<path class="st5" d="M77.8,84.3L77.8,84.3c-0.1,0.4,0,0.8,0.2,1c3.2,2.8,8.4,2.9,12.4,2.9c2.4,0,4.8-0.2,7.2-0.5s4.7-0.6,6.9-1.4
				c1.1-0.4,0.6-2.1-0.5-1.7c-2.2,0.8-4.5,1.3-6.9,1.3c-2.1,0.1-4.2-0.2-6.3-0.2s-4,0-6-0.3c-2.1-0.3-3.9-1-5.9-1.7
				c-0.3-0.1-0.7,0-0.9,0.2C77.9,84.1,77.8,84.1,77.8,84.3L77.8,84.3L77.8,84.3z"/>
			<path class="st5" d="M68.6,79c0,0-0.6-3.5,5.2-4.3s8.8,0.2,8.8,0.2s5,1,3,4s-4,7-8,7C72.6,85.9,68.6,79,68.6,79z"/>
		</g>
		<path id="right-eye" d="M95.1,71c2.5,0,4.5-2.8,4.5-6.2s-2-6.2-4.5-6.2s-4.5,2.8-4.5,6.2C90.6,68.2,92.7,71,95.1,71z"/>
		<path id="left-eye" d="M54.9,74.5c2.5,0,4.5-2.8,4.5-6.2s-2-6.2-4.5-6.2s-4.5,2.8-4.5,6.2S52.4,74.5,54.9,74.5z"/>
	</g>
</g>
</svg>
