<svg width="355" height="249" viewBox="0 0 355 249" fill="none" xmlns="http://www.w3.org/2000/svg">
<path d="M43 149C43 149 45.8699 161.405 60.9349 161.405C76 161.405 76 176 76 176" stroke="#EC0A0A" stroke-opacity="0.5" stroke-width="7"/>
<path d="M44 66C44 66 46.8699 78.4054 61.9349 78.4054C77 78.4054 77 93 77 93" stroke="#EC0A0A" stroke-opacity="0.5" stroke-width="7"/>
<path d="M334.36 111.213C334.36 111.213 327.673 122.289 314.548 117.692C301.423 113.095 296.498 127.156 296.498 127.156" stroke="#EC0A0A" stroke-opacity="0.5" stroke-width="7"/>
<ellipse cx="7.5" cy="98" rx="7.5" ry="7" fill="#F19428"/>
<circle cx="135" cy="72" r="7" fill="#F19428"/>
<circle cx="207.5" cy="7.5" r="7.5" fill="#F19428"/>
<circle cx="330.5" cy="154.5" r="7.5" fill="#F19428"/>
<circle cx="330.5" cy="79.5" r="7.5" fill="#F19428"/>
<ellipse cx="77" cy="28.5" rx="7" ry="7.5" fill="#F19428"/>
<circle cx="348" cy="242" r="7" fill="#F19428"/>
</svg>
