<svg width="251" height="251" viewBox="0 0 251 251" fill="none" xmlns="http://www.w3.org/2000/svg">
<mask id="mask0_1497_2743" style="mask-type:alpha" maskUnits="userSpaceOnUse" x="0" y="0" width="251" height="251">
<path d="M117.263 2.90325C122.009 -0.967752 128.823 -0.967752 133.569 2.90325L143.802 11.2498C147.024 13.876 151.311 14.7904 155.322 13.7061L168.036 10.2697C173.941 8.67384 180.153 11.4433 182.914 16.9011L188.921 28.7814C190.792 32.4786 194.323 35.0526 198.415 35.7009L211.481 37.7709C217.501 38.7248 222.033 43.763 222.345 49.8509L223.033 63.2541C223.244 67.3751 225.416 71.1465 228.873 73.3998L240.052 80.6867C245.142 84.0054 247.227 90.4278 245.055 96.1041L240.245 108.673C238.773 112.518 239.226 116.834 241.462 120.29L248.763 131.573C252.062 136.673 251.357 143.382 247.071 147.685L237.615 157.178C234.707 160.098 233.368 164.23 234.013 168.3L236.117 181.585C237.068 187.595 233.69 193.453 228.011 195.641L215.614 200.414C211.756 201.9 208.843 205.145 207.781 209.141L204.349 222.064C202.781 227.967 197.29 231.961 191.192 231.635L178.022 230.93C173.877 230.708 169.88 232.494 167.279 235.728L158.974 246.058C155.138 250.83 148.476 252.248 143.028 249.451L131.307 243.433C127.609 241.535 123.223 241.535 119.525 243.433L107.803 249.451C102.356 252.248 95.6946 250.83 91.8582 246.058L83.5529 235.728C80.9524 232.494 76.9546 230.708 72.8102 230.93L59.6404 231.635C53.5424 231.961 48.051 227.967 46.4834 222.064L43.0504 209.141C41.989 205.145 39.0766 201.9 35.2182 200.414L22.8212 195.641C17.142 193.453 13.7636 187.595 14.7153 181.585L16.8189 168.3C17.4633 164.23 16.1248 160.098 13.217 157.178L3.76087 147.685C-0.525205 143.382 -1.2296 136.673 2.06944 131.573L9.36957 120.29C11.606 116.834 12.0582 112.518 10.5868 108.673L5.77706 96.1041C3.6049 90.4278 5.68928 84.0054 10.7807 80.6867L21.9598 73.3998C25.4168 71.1465 27.5871 67.3751 27.7985 63.2541L28.4863 49.8509C28.7988 43.763 33.33 38.7248 39.3508 37.7709L52.4173 35.7009C56.5091 35.0526 60.0406 32.4786 61.9104 28.7814L67.9185 16.9011C70.6786 11.4433 76.8919 8.67382 82.7961 10.2697L95.5098 13.7061C99.5211 14.7904 103.809 13.876 107.029 11.2498L117.263 2.90325Z" fill="#FBD46C"/>
</mask>
<g mask="url(#mask0_1497_2743)">
<g filter="url(#filter0_ddd_1497_2743)">
<path d="M72.674 39.6216C92.7112 37.7707 101.467 50.9031 101.467 50.9031L75.1997 83.4005C75.1997 83.4005 68.9697 71.5233 68.9697 59.8272C68.9697 59.1537 65.6021 58.6486 65.6021 55.1126C65.6021 50.9031 68.9697 49.3877 68.9697 49.3877C68.9697 49.3877 66.6059 46.866 66.444 44.8414C66.1072 40.6319 69.656 39.9004 72.674 39.6216Z" fill="#A47251"/>
<path d="M98.9414 50.5672C76.2101 61.1754 71.6639 85.5902 71.6639 85.5902C71.6639 85.5902 65.8941 84.58 65.4338 90.1364C65.0293 95.0195 71.6639 95.5246 71.6639 95.5246C71.6639 95.5246 65.4338 96.3666 66.4441 101.25C67.2105 104.954 71.6639 104.112 71.6639 104.112C71.6639 104.112 69.5176 108.26 70.4852 110.679C72.169 114.888 77.7255 113.204 77.7255 113.204C77.7255 113.204 83.9559 142.489 81.5983 151.258C63.5816 218.274 66.1073 224.335 66.1073 224.335L181.448 238.984C181.448 238.984 184.848 215.834 184.479 200.931C184.197 189.562 182.386 183.302 181.448 171.969C177.885 128.914 191.046 103.336 181.616 61.1754C180.133 54.5449 176.565 45.0109 176.565 45.0109C176.565 45.0109 178.721 38.4441 177.07 35.918C174.837 32.5024 171.008 32.382 171.008 32.382C171.008 32.382 172.692 28.8464 169.998 26.3203C168.16 24.5973 162.62 25.2342 159.222 26.3203C142.889 31.5406 129.418 47.3678 129.418 47.3678C129.418 47.3678 109.684 45.554 98.9414 50.5672Z" fill="#B27F5D"/>
<path d="M84.4158 113.254C83.9472 108.232 87.6595 99.0606 96.5837 102.597C106.093 106.364 113.758 102.597 116.621 102.597C117.8 102.597 127.229 108.827 136.658 100.913C140.27 97.8819 150.888 96.323 154.507 100.913C161.41 109.669 149.455 120.109 150.97 134.253C152.568 149.16 153.121 144.105 154.507 150.416C165.114 198.742 160.737 235.112 160.737 235.112L78.9161 227.754C78.9161 227.754 78.6599 196.523 87.4158 164.254C93.8484 140.546 85.5943 125.883 84.4158 113.254Z" fill="white"/>
<path d="M103.656 84.4118C103.656 87.1087 102.073 89.2949 100.12 89.2949C98.1676 89.2949 96.5845 87.1087 96.5845 84.4118C96.5845 81.715 98.1676 79.5288 100.12 79.5288C102.073 79.5288 103.656 81.715 103.656 84.4118Z" fill="black"/>
<path fill-rule="evenodd" clip-rule="evenodd" d="M132.494 84.5405C130.81 84.9358 129.371 85.8014 128.535 86.7033C128.092 87.1807 127.347 87.209 126.869 86.7665C126.392 86.324 126.363 85.5783 126.806 85.1008C127.995 83.8178 129.866 82.736 131.955 82.2455C134.061 81.7512 136.481 81.8372 138.721 83.0283C139.296 83.334 139.514 84.0477 139.208 84.6224C138.902 85.1971 138.189 85.4152 137.614 85.1096C135.977 84.2389 134.162 84.149 132.494 84.5405Z" fill="black"/>
<path d="M124.185 93.4256C124.041 91.6985 109.045 92.0664 109.045 94.1055C109.044 98.4248 115.849 101.818 117.04 101.754C118.231 101.691 124.526 97.5057 124.185 93.4256Z" fill="#3C210C"/>
<path fill-rule="evenodd" clip-rule="evenodd" d="M116.838 100.341L117.414 100.792C123.168 105.302 130.752 103.652 135.475 100.884C135.956 100.602 136.575 100.763 136.857 101.244C137.14 101.726 136.978 102.345 136.497 102.627C131.598 105.499 123.361 107.52 116.747 102.815C108.937 107.646 100.759 105.566 96.943 103.484C96.4531 103.217 96.2726 102.603 96.5398 102.113C96.807 101.624 97.4207 101.443 97.9105 101.71C101.405 103.616 109.064 105.523 116.23 100.746L116.838 100.341Z" fill="#3C210C"/>
<path d="M148.794 44.9663C144.015 43.8608 139.561 47.3649 141.628 50.1329C143.832 53.0855 153.02 57.8838 159.818 68.7698C161.471 71.417 160.886 47.7639 148.794 44.9663Z" fill="#D8A482"/>
<path d="M59.6995 171.262L67.4256 162.656C67.4256 162.656 69.6185 165.548 66.4091 169.195C63.1032 172.952 59.6995 171.262 59.6995 171.262Z" fill="#F2F2F2"/>
<path d="M45.3238 140.025L35.2428 149.312L59.6993 171.262L67.4255 162.656L45.3238 140.025Z" fill="white"/>
<mask id="mask1_1497_2743" style="mask-type:alpha" maskUnits="userSpaceOnUse" x="35" y="140" width="33" height="32">
<path d="M45.3285 140.018L35.2528 149.311L59.6932 171.268L67.4154 162.658L45.3285 140.018Z" fill="white"/>
</mask>
<g mask="url(#mask1_1497_2743)">
<path d="M42.5246 150.104L63.2021 169.661L58.5911 175.051L35.0157 157.599L42.5246 150.104Z" fill="#E9EDEE"/>
</g>
<mask id="mask2_1497_2743" style="mask-type:alpha" maskUnits="userSpaceOnUse" x="59" y="162" width="10" height="10">
<path d="M59.7009 171.264L67.4243 162.653C67.4243 162.653 69.6159 165.546 66.4077 169.196C63.103 172.956 59.7009 171.264 59.7009 171.264Z" fill="#F2F2F2"/>
</mask>
<g mask="url(#mask2_1497_2743)">
<path d="M66.5433 169.977C66.544 169.65 64.4142 170.912 62.1588 168.692C59.8603 166.429 54.9066 172.611 54.9066 172.611L64.9808 174.204C64.9808 174.204 66.5394 171.738 66.5433 169.977Z" fill="#DEE2E3"/>
</g>
<path d="M22.6604 144.161C25.8635 152.637 34.7631 155.584 44.1627 152.115C53.5625 148.645 58.8836 139.609 56.0477 131.933C53.212 124.256 43.2931 120.846 33.8935 124.315C24.4938 127.785 19.8735 135.552 22.6604 144.161Z" fill="#E4E4E4"/>
<path d="M44.2649 135.765C46.9839 141.728 53.5634 144.566 58.9606 142.104C64.3578 139.641 66.529 132.811 63.81 126.848C61.091 120.885 54.5115 118.047 49.1143 120.509C43.7172 122.971 41.546 129.801 44.2649 135.765Z" fill="white"/>
<path d="M56.7746 129.492C57.9371 132.042 60.0062 133.595 61.396 132.961C62.7857 132.327 62.97 129.746 61.8074 127.196C60.6449 124.647 58.5759 123.094 57.1861 123.728C55.7963 124.362 55.6121 126.943 56.7746 129.492Z" fill="#3D3D3D"/>
<path d="M149.284 70.6002C146.228 71.8595 145.891 76.8595 148.026 79.6385C149.09 81.0241 151.261 83.2161 151.261 83.2161C132.8 123.948 139.836 153.096 146.282 166.503C152.728 179.91 162.337 216.254 162.337 216.254L173.013 197.802V170.962C173.013 170.962 185.416 131.523 185.416 105.435C185.416 100.035 185.416 87.7953 176.788 67.9641C174.801 63.3978 171.395 58.9259 166.721 60.6206C162.616 62.1092 164.384 69.0939 164.384 69.0939C164.384 69.0939 162.047 63.6744 157.553 65.5163C153.419 67.2109 155.396 73.0481 155.396 73.0481C155.396 73.0481 152.94 69.0939 149.284 70.6002Z" fill="#B27F5D" fill-opacity="0.18"/>
<path fill-rule="evenodd" clip-rule="evenodd" d="M173.275 63.0356C173.098 59.9762 172.901 56.5736 173.416 53.2535C173.85 49.2937 175.222 46.5287 176.21 44.5379C177.875 41.1822 178.449 40.0257 171.599 39.0538C168.18 38.5687 164.852 38.8739 161.848 39.8162C160.854 39.2482 159.767 38.8212 158.603 38.563C151.753 37.0426 144.839 41.9455 143.161 49.5138C141.483 57.0822 145.676 64.45 152.527 65.9704C152.587 65.9837 152.647 65.9965 152.706 66.0088C153.434 66.9435 154.259 67.8194 155.171 68.6232L151.075 75.1085L140.778 91.3889L140.776 91.388C140.776 91.388 140.633 91.6943 140.528 92.2109C140.259 93.5327 140.242 96.2383 143.562 98.7075C143.633 98.7602 143.703 98.8116 143.774 98.8615C146.257 100.627 148.389 100.672 149.835 100.332L154.048 103.558L177.028 77.5649L170.745 73.4944L170.798 73.4227C172.139 72.8363 172.835 71.6973 173.167 70.1711L174.725 68.0332L173.435 67.2688C173.445 65.9758 173.363 64.5476 173.275 63.0356Z" fill="#995B32" fill-opacity="0.18"/>
<path d="M154.533 101.356L143.686 93.4546C143.686 93.4546 141.896 97.2664 146.419 100.631C151.078 104.097 154.533 101.356 154.533 101.356Z" fill="#F2F2F2"/>
<path d="M163.306 62.4335L176.99 70.5402L154.533 101.356L143.686 93.4547L163.306 62.4335Z" fill="white"/>
<mask id="mask3_1497_2743" style="mask-type:alpha" maskUnits="userSpaceOnUse" x="143" y="62" width="34" height="40">
<path d="M163.299 62.4267L176.978 70.5405L154.541 101.362L143.698 93.4545L163.299 62.4267Z" fill="white"/>
</mask>
<g mask="url(#mask3_1497_2743)">
<path d="M168.917 73.1963L150.171 100.385L156.706 105.389L179.248 79.8903L168.917 73.1963Z" fill="#E9EDEE"/>
</g>
<mask id="mask4_1497_2743" style="mask-type:alpha" maskUnits="userSpaceOnUse" x="143" y="93" width="12" height="10">
<path d="M154.532 101.36L143.687 93.4507C143.687 93.4507 141.898 97.2641 146.421 100.632C151.079 104.101 154.532 101.36 154.532 101.36Z" fill="#F2F2F2"/>
</mask>
<g mask="url(#mask4_1497_2743)">
<path d="M146.455 101.55C146.375 101.179 149.097 102.098 151.121 99.0332C153.183 95.9098 160.298 101.73 160.298 101.73L149.249 105.971C149.249 105.971 146.885 103.549 146.455 101.55Z" fill="#DEE2E3"/>
</g>
<path d="M170.362 57.7743C168.716 65.1986 161.934 70.0081 155.214 68.5168C148.494 67.0253 144.381 59.7977 146.027 52.3733C147.673 44.949 154.455 40.1394 161.175 41.6309C167.895 43.1223 172.008 50.35 170.362 57.7743Z" fill="white"/>
<path d="M190.027 61.6557C188.415 72.0449 179.592 77.6438 168.885 76.1245C158.179 74.6054 150.627 65.76 152.018 56.3677C153.41 46.9755 163.217 40.5931 173.923 42.1123C184.629 43.6314 191.17 51.2238 190.027 61.6557Z" fill="#E4E4E4"/>
<path d="M155.19 64.5059C152.327 65.632 152.011 70.1031 154.011 72.5882C155.008 73.8272 157.042 75.7874 157.042 75.7874C139.749 112.211 150.694 141.341 152.378 150.265C154.062 159.189 160.915 180.52 160.915 180.52L177.416 178.254V154.252C177.416 154.252 189.034 118.985 189.034 95.6562C189.034 90.827 189.034 79.8822 180.952 62.1486C179.091 58.0653 175.9 54.0663 171.523 55.5818C167.677 56.9129 169.334 63.1589 169.334 63.1589C169.334 63.1589 167.145 58.3126 162.935 59.9596C159.062 61.4751 160.915 66.6949 160.915 66.6949C160.915 66.6949 158.614 63.1589 155.19 64.5059Z" fill="#B27F5D"/>
</g>
</g>
<defs>
<filter id="filter0_ddd_1497_2743" x="6.41602" y="23.2537" width="197.468" height="241.731" filterUnits="userSpaceOnUse" color-interpolation-filters="sRGB">
<feFlood flood-opacity="0" result="BackgroundImageFix"/>
<feColorMatrix in="SourceAlpha" type="matrix" values="0 0 0 0 0 0 0 0 0 0 0 0 0 0 0 0 0 0 127 0" result="hardAlpha"/>
<feOffset dy="2"/>
<feGaussianBlur stdDeviation="2"/>
<feColorMatrix type="matrix" values="0 0 0 0 0 0 0 0 0 0 0 0 0 0 0 0 0 0 0.01 0"/>
<feBlend mode="normal" in2="BackgroundImageFix" result="effect1_dropShadow_1497_2743"/>
<feColorMatrix in="SourceAlpha" type="matrix" values="0 0 0 0 0 0 0 0 0 0 0 0 0 0 0 0 0 0 127 0" result="hardAlpha"/>
<feOffset dy="7"/>
<feGaussianBlur stdDeviation="3.5"/>
<feColorMatrix type="matrix" values="0 0 0 0 0 0 0 0 0 0 0 0 0 0 0 0 0 0 0.01 0"/>
<feBlend mode="normal" in2="effect1_dropShadow_1497_2743" result="effect2_dropShadow_1497_2743"/>
<feColorMatrix in="SourceAlpha" type="matrix" values="0 0 0 0 0 0 0 0 0 0 0 0 0 0 0 0 0 0 127 0" result="hardAlpha"/>
<feOffset dy="16"/>
<feGaussianBlur stdDeviation="5"/>
<feColorMatrix type="matrix" values="0 0 0 0 0 0 0 0 0 0 0 0 0 0 0 0 0 0 0.01 0"/>
<feBlend mode="normal" in2="effect2_dropShadow_1497_2743" result="effect3_dropShadow_1497_2743"/>
<feBlend mode="normal" in="SourceGraphic" in2="effect3_dropShadow_1497_2743" result="shape"/>
</filter>
</defs>
</svg>
