<svg width="250" height="250" viewBox="0 0 250 250" fill="none" xmlns="http://www.w3.org/2000/svg">
<mask id="mask0_1599_5335" style="mask-type:alpha" maskUnits="userSpaceOnUse" x="0" y="0" width="250" height="250">
<path d="M116.853 2.89312C121.583 -0.964372 128.373 -0.964372 133.102 2.89312L143.3 11.2105C146.51 13.8276 150.783 14.7387 154.78 13.6583L167.45 10.2338C173.333 8.64355 179.524 11.4034 182.275 16.842L188.262 28.6809C190.126 32.3652 193.644 34.9303 197.722 35.5762L210.743 37.639C216.742 38.5895 221.258 43.6102 221.569 49.6768L222.254 63.0332C222.465 67.1399 224.628 70.898 228.074 73.1435L239.214 80.4049C244.286 83.7121 246.364 90.1121 244.199 95.7685L239.407 108.293C237.94 112.125 238.391 116.426 240.619 119.87L247.895 131.114C251.182 136.195 250.48 142.881 246.208 147.17L236.785 156.63C233.888 159.539 232.554 163.656 233.196 167.712L235.293 180.951C236.24 186.94 232.874 192.778 227.215 194.958L214.861 199.714C211.016 201.195 208.114 204.428 207.056 208.411L203.635 221.289C202.073 227.171 196.601 231.151 190.524 230.826L177.401 230.124C173.27 229.903 169.287 231.682 166.695 234.905L158.419 245.199C154.596 249.954 147.958 251.367 142.529 248.58L130.849 242.583C127.163 240.692 122.793 240.692 119.107 242.583L107.427 248.58C101.999 251.367 95.3604 249.954 91.5375 245.199L83.2612 234.905C80.6698 231.682 76.6859 229.903 72.556 230.124L59.4321 230.826C53.3554 231.151 47.8832 227.171 46.3211 221.289L42.9001 208.411C41.8424 204.428 38.9402 201.195 35.0952 199.714L22.7415 194.958C17.0821 192.778 13.7155 186.94 14.664 180.951L16.7602 167.712C17.4023 163.656 16.0685 159.539 13.1708 156.63L3.74774 147.17C-0.523371 142.881 -1.2253 136.195 2.06221 131.114L9.33686 119.87C11.5655 116.426 12.0161 112.125 10.5499 108.293L5.75689 95.7685C3.59231 90.1121 5.66941 83.7121 10.7431 80.4049L21.8832 73.1435C25.328 70.898 27.4908 67.1399 27.7015 63.0332L28.3869 49.6768C28.6982 43.6102 33.2137 38.5895 39.2134 37.639L52.2342 35.5762C56.3118 34.9303 59.831 32.3652 61.6942 28.6809L67.6814 16.842C70.4318 11.4034 76.6234 8.64354 82.507 10.2338L95.1764 13.6583C99.1736 14.7387 103.447 13.8276 106.655 11.2105L116.853 2.89312Z" fill="#FBD46C"/>
</mask>
<g mask="url(#mask0_1599_5335)">
<g filter="url(#filter0_ddd_1599_5335)">
<path d="M79.2679 57.9239C100.288 55.9822 109.473 69.7587 109.473 69.7587L81.9175 103.85C81.9175 103.85 75.3818 91.3903 75.3818 79.1206C75.3818 78.414 71.849 77.8841 71.849 74.1747C71.849 69.7587 75.3818 68.1689 75.3818 68.1689C75.3818 68.1689 72.9021 65.5235 72.7322 63.3997C72.379 58.9836 76.1019 58.2163 79.2679 57.9239Z" fill="#A47251"/>
<path d="M106.824 69.4057C82.9775 80.5343 78.2082 106.147 78.2082 106.147C78.2082 106.147 72.1555 105.087 71.6726 110.916C71.2482 116.039 78.2082 116.568 78.2082 116.568C78.2082 116.568 71.6726 117.452 72.7324 122.574C73.5364 126.46 78.2082 125.577 78.2082 125.577C78.2082 125.577 75.9567 129.928 76.9718 132.466C78.7381 136.882 84.5672 135.115 84.5672 135.115C84.5672 135.115 91.1032 165.836 88.6299 175.036C69.7295 245.338 72.3791 251.697 72.3791 251.697L193.377 267.065C193.377 267.065 196.944 242.779 196.557 227.144C196.261 215.218 194.361 208.652 193.377 196.762C189.639 151.596 203.446 124.763 193.554 80.5343C191.998 73.5786 188.254 63.5769 188.254 63.5769C188.254 63.5769 190.517 56.688 188.784 54.038C186.442 50.4549 182.425 50.3286 182.425 50.3286C182.425 50.3286 184.192 46.6195 181.366 43.9696C179.438 42.162 173.626 42.8301 170.061 43.9696C152.927 49.4459 138.795 66.0495 138.795 66.0495C138.795 66.0495 118.093 64.1467 106.824 69.4057Z" fill="#B27F5D"/>
<path d="M91.5857 135.167C91.0941 129.9 94.9885 120.278 104.35 123.987C114.326 127.94 122.368 123.987 125.371 123.987C126.607 123.987 136.499 130.523 146.391 122.221C150.179 119.041 161.318 117.406 165.114 122.221C172.357 131.407 159.815 142.359 161.405 157.196C163.081 172.835 163.661 167.532 165.114 174.153C176.243 224.849 171.65 263.003 171.65 263.003L85.8162 255.284C85.8162 255.284 85.5475 222.521 94.7328 188.669C101.481 163.799 92.822 148.416 91.5857 135.167Z" fill="white"/>
<path d="M111.77 104.912C111.77 107.741 110.109 110.034 108.061 110.034C106.012 110.034 104.351 107.741 104.351 104.912C104.351 102.083 106.012 99.7891 108.061 99.7891C110.109 99.7891 111.77 102.083 111.77 104.912Z" fill="black"/>
<path fill-rule="evenodd" clip-rule="evenodd" d="M142.022 105.046C140.255 105.461 138.746 106.369 137.869 107.315C137.405 107.816 136.622 107.846 136.121 107.382C135.621 106.918 135.591 106.135 136.055 105.634C137.302 104.288 139.265 103.153 141.457 102.639C143.666 102.12 146.205 102.211 148.554 103.46C149.157 103.781 149.386 104.53 149.066 105.132C148.745 105.735 147.996 105.964 147.393 105.644C145.676 104.73 143.771 104.636 142.022 105.046Z" fill="black"/>
<path d="M133.306 114.367C133.155 112.556 117.423 112.941 117.423 115.081C117.422 119.612 124.561 123.172 125.811 123.105C127.06 123.038 133.663 118.648 133.306 114.367Z" fill="#3C210C"/>
<path fill-rule="evenodd" clip-rule="evenodd" d="M125.599 121.622L126.202 122.095C132.239 126.827 140.195 125.096 145.149 122.192C145.654 121.896 146.304 122.065 146.6 122.57C146.896 123.075 146.726 123.724 146.221 124.02C141.082 127.033 132.441 129.153 125.503 124.218C117.31 129.285 108.731 127.103 104.727 124.92C104.213 124.639 104.024 123.995 104.304 123.482C104.585 122.968 105.228 122.778 105.742 123.059C109.408 125.058 117.443 127.059 124.96 122.047L125.599 121.622Z" fill="#3C210C"/>
<path d="M159.121 63.53C154.108 62.3703 149.436 66.0462 151.604 68.9501C153.916 72.0474 163.555 77.0811 170.686 88.5011C172.42 91.2781 171.807 66.4648 159.121 63.53Z" fill="#D8A482"/>
<path d="M65.6568 196.019L73.7619 186.991C73.7619 186.991 76.0623 190.025 72.6955 193.851C69.2274 197.792 65.6568 196.019 65.6568 196.019Z" fill="#F2F2F2"/>
<path d="M50.576 163.25L40.0006 172.993L65.6567 196.019L73.7618 186.991L50.576 163.25Z" fill="white"/>
<mask id="mask1_1599_5335" style="mask-type:alpha" maskUnits="userSpaceOnUse" x="40" y="163" width="34" height="34">
<path d="M50.581 163.242L40.0111 172.991L65.6503 196.026L73.7513 186.993L50.581 163.242Z" fill="white"/>
</mask>
<g mask="url(#mask1_1599_5335)">
<path d="M47.6396 173.822L69.3313 194.339L64.4941 199.993L39.7624 181.686L47.6396 173.822Z" fill="#E9EDEE"/>
</g>
<mask id="mask2_1599_5335" style="mask-type:alpha" maskUnits="userSpaceOnUse" x="65" y="186" width="10" height="11">
<path d="M65.6584 196.022L73.7606 186.988C73.7606 186.988 76.0597 190.024 72.6941 193.853C69.2273 197.797 65.6584 196.022 65.6584 196.022Z" fill="#F2F2F2"/>
</mask>
<g mask="url(#mask2_1599_5335)">
<path d="M72.8363 194.672C72.8371 194.329 70.6027 195.653 68.2368 193.324C65.8255 190.95 60.6288 197.435 60.6288 197.435L71.1971 199.107C71.1971 199.107 72.8322 196.52 72.8363 194.672Z" fill="#DEE2E3"/>
</g>
<path d="M26.8009 167.59C30.1612 176.482 39.4973 179.573 49.3579 175.934C59.2188 172.294 64.8009 162.815 61.8259 154.762C58.8511 146.709 48.4457 143.131 38.585 146.771C28.7243 150.41 23.8773 158.559 26.8009 167.59Z" fill="#E4E4E4"/>
<path d="M49.4653 158.782C52.3177 165.037 59.2199 168.014 64.8819 165.431C70.5438 162.848 72.8214 155.683 69.9691 149.427C67.1167 143.172 60.2145 140.194 54.5526 142.777C48.8907 145.361 46.6131 152.526 49.4653 158.782Z" fill="white"/>
<path d="M62.5886 152.201C63.8081 154.876 65.9786 156.505 67.4366 155.84C68.8945 155.175 69.0878 152.467 67.8682 149.793C66.6487 147.118 64.4782 145.489 63.0202 146.154C61.5623 146.819 61.369 149.527 62.5886 152.201Z" fill="#3D3D3D"/>
<path d="M159.636 90.4215C156.43 91.7425 156.076 96.9878 158.316 99.903C159.433 101.357 161.71 103.656 161.71 103.656C142.343 146.386 149.725 176.964 156.487 191.028C163.249 205.092 173.329 243.219 173.329 243.219L184.528 223.863V195.706C184.528 195.706 197.54 154.333 197.54 126.965C197.54 121.3 197.54 108.46 188.488 87.656C186.404 82.8658 182.831 78.1745 177.928 79.9523C173.621 81.5139 175.476 88.8412 175.476 88.8412C175.476 88.8412 173.025 83.1559 168.311 85.0881C163.973 86.8659 166.047 92.9894 166.047 92.9894C166.047 92.9894 163.471 88.8412 159.636 90.4215Z" fill="#B27F5D" fill-opacity="0.18"/>
<path fill-rule="evenodd" clip-rule="evenodd" d="M184.804 82.4856C184.618 79.2762 184.411 75.7066 184.951 72.2237C185.407 68.0696 186.846 65.1691 187.882 63.0805C189.629 59.5602 190.231 58.3471 183.045 57.3274C179.459 56.8185 175.967 57.1387 172.816 58.1272C171.773 57.5314 170.633 57.0835 169.412 56.8126C162.226 55.2176 154.973 60.361 153.213 68.3005C151.452 76.2402 155.851 83.9694 163.038 85.5644C163.1 85.5783 163.163 85.5917 163.226 85.6046C163.989 86.5852 164.855 87.5041 165.812 88.3474L161.721 94.8238L150.712 112.23L150.711 112.229C150.711 112.229 150.571 112.526 150.463 113.031C150.171 114.383 150.1 117.229 153.542 119.839C153.573 119.862 153.603 119.885 153.634 119.908C156.333 121.918 158.654 121.979 160.214 121.612L164.633 124.996L188.74 97.7279L182.15 93.4576L182.205 93.3822C183.612 92.767 184.341 91.5722 184.69 89.9711L186.325 87.7283L184.971 86.9264C184.982 85.57 184.895 84.0718 184.804 82.4856Z" fill="#995B32" fill-opacity="0.18"/>
<path d="M165.142 122.685L153.763 114.396C153.763 114.396 151.885 118.395 156.63 121.924C161.518 125.56 165.142 122.685 165.142 122.685Z" fill="#F2F2F2"/>
<path d="M174.346 81.8533L188.701 90.3577L165.142 122.685L153.763 114.396L174.346 81.8533Z" fill="white"/>
<mask id="mask3_1599_5335" style="mask-type:alpha" maskUnits="userSpaceOnUse" x="153" y="81" width="36" height="42">
<path d="M174.338 81.8463L188.688 90.3581L165.151 122.692L153.776 114.396L174.338 81.8463Z" fill="white"/>
</mask>
<g mask="url(#mask3_1599_5335)">
<path d="M180.231 93.1443L160.566 121.667L167.421 126.916L191.07 100.167L180.231 93.1443Z" fill="#E9EDEE"/>
</g>
<mask id="mask4_1599_5335" style="mask-type:alpha" maskUnits="userSpaceOnUse" x="153" y="114" width="13" height="10">
<path d="M165.141 122.689L153.764 114.392C153.764 114.392 151.888 118.392 156.632 121.925C161.519 125.564 165.141 122.689 165.141 122.689Z" fill="#F2F2F2"/>
</mask>
<g mask="url(#mask4_1599_5335)">
<path d="M156.668 122.889C156.584 122.5 159.44 123.463 161.563 120.248C163.726 116.972 171.19 123.078 171.19 123.078L159.599 127.526C159.599 127.526 157.119 124.985 156.668 122.889Z" fill="#DEE2E3"/>
</g>
<path d="M181.748 76.9662C180.021 84.7547 172.906 89.8001 165.856 88.2356C158.807 86.671 154.492 79.0888 156.219 71.3003C157.945 63.5118 165.06 58.4663 172.11 60.0309C179.159 61.5955 183.474 69.1777 181.748 76.9662Z" fill="white"/>
<path d="M202.377 81.0374C200.686 91.9362 191.43 97.8097 180.198 96.216C168.967 94.6223 161.045 85.3431 162.504 75.49C163.964 65.6372 174.252 58.9417 185.483 60.5354C196.715 62.1291 203.576 70.0939 202.377 81.0374Z" fill="#E4E4E4"/>
<path d="M165.831 84.0283C162.828 85.2097 162.497 89.9001 164.595 92.507C165.641 93.8069 167.774 95.8632 167.774 95.8632C149.633 134.074 161.115 164.632 162.881 173.994C164.648 183.356 171.837 205.733 171.837 205.733L189.148 203.355V178.177C189.148 178.177 201.336 141.18 201.336 116.707C201.336 111.64 201.336 100.159 192.857 81.5554C190.905 77.2718 187.558 73.0767 182.965 74.6665C178.931 76.0629 180.669 82.6152 180.669 82.6152C180.669 82.6152 178.372 77.5312 173.957 79.2591C169.894 80.8488 171.837 86.3247 171.837 86.3247C171.837 86.3247 169.423 82.6152 165.831 84.0283Z" fill="#B27F5D"/>
</g>
</g>
<defs>
<filter id="filter0_ddd_1599_5335" x="10.2504" y="40.8506" width="206.173" height="252.214" filterUnits="userSpaceOnUse" color-interpolation-filters="sRGB">
<feFlood flood-opacity="0" result="BackgroundImageFix"/>
<feColorMatrix in="SourceAlpha" type="matrix" values="0 0 0 0 0 0 0 0 0 0 0 0 0 0 0 0 0 0 127 0" result="hardAlpha"/>
<feOffset dy="2"/>
<feGaussianBlur stdDeviation="2"/>
<feColorMatrix type="matrix" values="0 0 0 0 0 0 0 0 0 0 0 0 0 0 0 0 0 0 0.01 0"/>
<feBlend mode="normal" in2="BackgroundImageFix" result="effect1_dropShadow_1599_5335"/>
<feColorMatrix in="SourceAlpha" type="matrix" values="0 0 0 0 0 0 0 0 0 0 0 0 0 0 0 0 0 0 127 0" result="hardAlpha"/>
<feOffset dy="7"/>
<feGaussianBlur stdDeviation="3.5"/>
<feColorMatrix type="matrix" values="0 0 0 0 0 0 0 0 0 0 0 0 0 0 0 0 0 0 0.01 0"/>
<feBlend mode="normal" in2="effect1_dropShadow_1599_5335" result="effect2_dropShadow_1599_5335"/>
<feColorMatrix in="SourceAlpha" type="matrix" values="0 0 0 0 0 0 0 0 0 0 0 0 0 0 0 0 0 0 127 0" result="hardAlpha"/>
<feOffset dy="16"/>
<feGaussianBlur stdDeviation="5"/>
<feColorMatrix type="matrix" values="0 0 0 0 0 0 0 0 0 0 0 0 0 0 0 0 0 0 0.01 0"/>
<feBlend mode="normal" in2="effect2_dropShadow_1599_5335" result="effect3_dropShadow_1599_5335"/>
<feBlend mode="normal" in="SourceGraphic" in2="effect3_dropShadow_1599_5335" result="shape"/>
</filter>
</defs>
</svg>
