<svg width="24" height="24" viewBox="0 0 24 24" fill="none" xmlns="http://www.w3.org/2000/svg">
<path d="M11.8439 0C12.3674 0.0870775 12.3674 0.0870775 12.769 0.501667C13.2157 1.15641 13.4149 1.73993 13.6449 2.49726C14.6292 5.40993 15.5723 7.62162 18.4217 9.06842C19.8062 9.72271 21.2334 10.2785 22.6789 10.7824C23.3358 11.034 23.3358 11.034 23.7346 11.432C23.8593 11.8923 23.8593 11.8923 23.7346 12.4272C22.7929 13.126 21.8687 13.5376 20.7658 13.9332C18.1806 14.8854 16.0743 15.7185 14.851 18.3181C14.4472 19.2541 14.098 20.2079 13.7748 21.1744C13.4465 22.1199 13.0851 23.0558 12.3674 23.7721C11.8813 23.8468 11.8813 23.8468 11.3702 23.7721C10.8456 23.187 10.5413 22.5332 10.2181 21.8222C10.0644 21.4866 10.0644 21.4866 9.90766 21.1443C9.80213 20.9113 9.69661 20.6783 9.58788 20.4383C9.37856 19.979 9.16901 19.5198 8.95922 19.0606C8.86695 18.8572 8.77468 18.6538 8.67961 18.4443C8.58036 18.232 8.48111 18.0198 8.37886 17.8011C8.3273 17.6684 8.27574 17.5358 8.22262 17.3991C7.72263 16.2161 7.10939 15.8241 5.9468 15.3342C5.78952 15.2628 5.63225 15.1913 5.4702 15.1177C4.97101 14.8919 4.46912 14.6731 3.96657 14.4549C3.46321 14.2319 2.96056 14.0075 2.45866 13.7813C2.14712 13.6414 1.83464 13.5035 1.52116 13.368C0.810251 13.0528 0.443847 12.8882 0.00298011 12.2282C-0.00636797 11.7391 -0.00636797 11.7391 0.202406 11.233C0.656445 10.934 1.05738 10.7188 1.54853 10.4991C1.68786 10.4316 1.8272 10.3641 1.97075 10.2946C2.79552 9.89878 3.62986 9.54371 4.48071 9.20766C6.96006 8.22529 6.96006 8.22529 8.52843 6.1825C8.69935 5.76947 8.85555 5.35462 9.00421 4.93309C9.26735 4.21971 9.58617 3.53338 9.90201 2.84197C10.064 2.48714 10.2234 2.13114 10.3799 1.77391C10.4868 1.53083 10.4868 1.53083 10.5959 1.28284C10.6903 1.06621 10.6903 1.06621 10.7867 0.845215C11.0597 0.312971 11.2482 0.109515 11.8439 0Z" fill="white"/>
</svg>
