<svg width="104" height="104" viewBox="0 0 104 104" fill="none" xmlns="http://www.w3.org/2000/svg">
<g clip-path="url(#clip0_1648_4960)">
<rect x="3" y="3" width="98" height="98" rx="49" fill="#FFF8E6"/>
<g clip-path="url(#clip1_1648_4960)">
<path d="M26.4374 28.2701C27.5404 26.0704 29.2324 25.5798 31.7864 26.243C35.058 27.0948 38.0832 28.5612 41.1513 29.9198C41.4565 30.0546 41.7082 30.3888 42.0187 30.4427C43.5769 30.6961 43.9892 33.381 46.3719 32.1949C47.7694 31.4994 49.622 31.7528 51.2658 31.5479C52.4652 31.397 53.67 31.2676 54.8426 30.9819C55.8117 30.7446 56.8291 30.4481 57.6483 29.909C58.4675 28.696 59.8971 28.2108 60.8931 27.2188C62.901 25.2186 65.3158 24.0325 68.0037 23.3425C68.7427 23.1538 69.4816 22.7548 70.2258 22.8195C72.3944 23.0082 72.8923 22.771 73.1761 24.9005C73.2404 25.3857 72.9352 25.9357 73.2189 26.3346C74.7343 26.9923 74.9752 27.5422 73.7972 28.7229C73.7276 28.793 74.2684 29.5909 74.6272 29.9467C76.6458 31.9523 77.3901 34.5509 77.4918 37.2195C77.5935 39.775 78.0486 42.4059 77.0367 44.9344C76.6833 45.8185 77.465 46.3577 77.9041 47.0316C78.2789 47.603 78.8732 48.3363 77.8452 49.1503C77.1812 49.6733 76.8707 50.6437 77.9416 51.4039C78.7715 51.9969 79.1142 52.8002 78.1825 53.6358C77.4864 54.2612 77.4757 54.8111 77.8398 55.7276C78.3592 57.0377 78.6644 58.5419 76.6244 59.081C76.3459 59.1565 75.9765 59.5824 75.9551 59.8627C75.7891 62.6877 73.6527 64.7795 73.2136 67.4859C72.7852 70.1007 71.5859 72.5537 71.1575 75.0876C70.2794 80.3009 70.0545 85.5358 71.361 90.8785C72.6621 96.1835 74.9431 101.095 76.5066 106.276C77.3633 109.112 78.1022 111.931 78.1022 114.913C78.1022 116.918 78.0112 118.935 78.1236 120.935C78.2949 123.9 77.2508 126.536 76.0568 129.113C75.0984 131.183 73.9043 133.14 72.8174 135.151C72.5764 135.599 72.1266 136.073 72.1588 136.499C72.3355 138.596 72.0303 140.419 70.1562 141.739C69.9313 141.896 70.0331 142.715 70.1723 143.168C70.5685 144.511 71.5216 145.686 70.5685 147.282C70.2472 147.815 70.9915 148.904 71.0076 149.745C71.0665 153.029 71.4948 156.404 70.8844 159.568C70.4186 161.989 71.1789 164.534 69.9688 166.82C69.8189 167.105 70.0063 167.547 69.9367 167.903C69.7118 169.073 70.5685 169.278 71.195 168.938C73.9953 167.413 77.0474 166.733 80.1154 166.178C82.6749 165.714 85.1272 165.046 87.9276 165.536C90.7226 166.022 93.539 166.243 96.1948 167.342C98.3633 168.243 100.628 168.83 101.94 171.24C102.85 172.917 104.949 173.181 106.074 174.766C106.952 176.006 106.213 177.796 104.762 178.508C103.755 179.004 102.925 179.462 103.075 180.81C103.102 181.031 102.652 181.424 102.347 181.554C99.0755 182.918 95.5683 183.063 92.2218 182.551C89.3625 182.114 86.5568 182.276 83.7297 182.125C81.5344 182.007 79.4033 182.206 77.3419 183.106C76.7315 183.371 75.9283 183.187 75.2108 183.214C72.3462 183.322 71.2806 184.832 72.1213 187.57C73.2082 191.129 74.3862 194.671 75.3286 198.272C75.7677 199.954 75.7462 201.755 75.9283 203.501C76.1103 205.248 76.3834 206.995 76.4477 208.747C76.5387 211.2 76.4905 213.61 75.939 216.042C75.3928 218.457 74.4505 220.834 73.7437 223.212C73.5295 223.94 73.2404 224.641 72.9566 225.347C72.298 226.991 73.144 227.563 74.8681 227.697C76.4102 227.821 77.2937 228.7 77.4382 230.075C77.5721 231.326 76.9242 232.846 75.591 233.601C75.0234 233.924 74.0435 234.318 73.6794 234.064C72.2284 233.04 71.2807 233.908 70.2258 234.657C69.8135 234.949 69.3477 235.164 68.9193 235.439C67.9663 236.054 67.0346 236.059 66.3385 235.127C65.3319 233.773 64.5823 234.183 63.6345 235.218C63.1473 235.746 62.3655 236.081 61.6534 236.296C59.5652 236.938 57.9696 235.806 58.007 233.655C58.0285 232.172 57.6215 230.991 56.722 229.789C54.7623 227.174 54.4999 223.799 53.1238 220.899C52.8775 220.381 52.8882 219.546 53.1238 219.017C54.018 217.028 53.4611 214.958 53.6325 212.931C53.8038 210.909 54.0233 208.887 54.1679 206.86C54.4731 202.515 53.3219 198.418 51.994 194.358C51.4264 192.622 50.6233 192.417 48.9259 193.118C46.3772 194.169 45.4456 196.089 45.4616 198.719C45.4777 201.361 45.8846 203.933 46.5379 206.483C46.6931 207.081 46.5593 207.755 46.5593 208.391C46.5593 212.225 46.5379 216.058 46.5646 219.885C46.5914 223.681 45.2849 226.991 42.8754 229.832C42.1847 230.646 42.0776 231.401 42.2918 232.275C42.9665 235.024 42.6291 235.844 40.0162 236.555C38.8489 236.873 37.5478 236.933 36.3377 236.809C35.3364 236.706 34.7688 235.892 34.5761 234.798C34.2227 232.819 34.0513 232.781 32.4129 233.86C30.0248 235.434 27.4547 234.981 25.7734 232.598C24.9917 231.487 23.7548 231.072 22.6678 230.921C20.8634 230.668 20.419 229.326 19.9799 228.096C19.6426 227.147 22.1163 224.355 23.2354 224.306C24.3331 224.258 25.2969 224.01 26.8389 224.56C27.0531 224.835 27.1977 224.711 27.6903 224.77C27.6742 224.274 27.9848 224.231 27.8242 223.789C27.626 223.239 27.3101 222.657 26.8764 222.279C24.483 220.198 23.8244 217.147 22.7107 214.424C21.597 211.696 21.0936 208.709 20.3708 205.825C20.1406 204.903 20.0067 203.949 19.9264 203C19.7497 200.903 19.0697 200.143 17.0296 200.191C12.1089 200.31 7.53625 199.054 3.20987 196.768C0.232813 195.194 -1.49666 192.697 -1.79116 189.339C-1.88754 188.255 -1.56627 187.096 -1.27178 186.018C-0.281211 182.346 1.13236 178.988 3.7935 176.055C7.63263 171.823 11.9751 168.318 16.7619 165.305C17.3402 164.938 17.8435 164.377 18.47 164.178C20.1084 163.644 20.3226 162.496 20.5314 160.932C20.9705 157.681 21.2061 154.393 22.0307 151.185C22.6357 148.845 22.8285 146.397 23.1765 143.993C23.7334 140.117 24.1992 136.224 24.8525 132.364C25.0613 131.135 25.8216 130.094 25.5699 128.671C26.1643 122.805 25.2433 123.474 24.4187 120.848C23.4442 117.732 23.1283 114.417 23.5567 110.88C24.4187 103.726 27.5671 97.5852 30.4692 91.2721C31.931 88.0966 32.9912 84.7864 33.5052 81.3199C33.7087 79.9397 33.955 78.5595 34.0353 77.1686C34.2816 73.1198 32.8091 69.567 30.6834 66.2621C30.1747 65.4696 29.4733 64.855 28.2525 64.8981C26.6569 64.9574 25.9715 64.1434 25.934 62.4236C25.918 61.5825 25.752 61.1512 24.9274 60.9302C24.6543 60.8601 24.2581 60.2132 24.2956 60.17C25.5485 58.736 23.8512 57.2048 24.3652 55.9864C24.7721 55.0106 24.2153 54.617 23.9904 54.0456C22.036 51.7327 21.9236 48.5142 22.1217 45.5382C22.3412 42.2819 23.123 39.0202 24.9221 36.3461C25.843 34.9768 25.9287 33.9902 25.3076 32.8634C24.6543 31.6827 24.9488 31.0088 25.8323 30.1893C26.2125 29.8389 26.2446 29.1057 26.4374 28.2755M18.4914 185.468C18.6734 184.907 18.9894 184.352 19.0108 183.786C19.0804 181.969 18.9679 180.147 19.059 178.335C19.1179 177.133 19.0911 175.968 19.1661 174.766C19.1928 174.319 19.2571 173.515 18.9572 173.435C18.5342 173.321 17.806 173.569 17.5062 173.92C16.1462 175.505 14.7594 177.09 13.6349 178.842C12.4998 180.616 12.7407 183.306 13.999 184.174C15.2466 185.031 16.5317 185.991 18.4914 185.462V185.468Z" fill="#B27F5D"/>
<path d="M36.423 35.7202C34.0564 39.6127 27.7703 51.8023 27.3044 51.371C26.4531 50.5893 27.7114 35.5639 31.588 33.003C35.4646 30.4422 37.1673 34.4964 36.4284 35.7202H36.423Z" fill="#D29F82"/>
<path d="M63.2273 31.93C63.1309 33.4935 72.5922 42.4807 72.9991 42.0009C74.0861 40.7231 70.5147 30.3989 67.2592 29.1535C64.0037 27.9082 63.3076 30.6146 63.2273 31.93Z" fill="#D29F82"/>
<path d="M45.2684 61.2907C40.4762 60.8918 39.1375 61.4309 36.7281 61.4579C35.791 61.4686 32.6533 62.7787 34.779 65.5983C37.2421 68.86 36.8619 69.2698 37.4348 70.4073C39.8176 75.1031 41.124 78.0521 42.4252 82.3759C44.0154 87.6647 44.0583 94.835 43.0034 104.874C42.7411 107.391 44.6419 111.834 46.018 114.707C50.2587 123.576 50.9922 126.676 49.2467 131.754C48.9897 132.504 49.8571 134.056 50.1462 134.8C50.5585 135.862 52.0471 136.784 50.7781 139.733C50.4514 140.488 48.3043 140.159 47.619 140.607C44.9043 142.375 44.1868 140.607 43.2658 141.27C41.2151 142.758 39.507 144.122 38.5057 142.731C37.6919 141.599 37.815 148.09 37.815 148.09C37.815 148.09 36.7174 166.474 39.3142 171.806C46.2696 186.076 59.0453 179.262 61.5351 171.693C62.4882 168.797 62.9915 161.212 63.0236 157.638C63.0558 154.37 62.1883 150.413 63.9018 144.591C64.0945 143.933 65.1279 141.324 64.3569 141.394C61.7064 141.626 63.4252 138.677 62.5792 138.31C61.8724 138.003 59.993 138.472 59.5325 137.798C58.9757 136.973 59.2381 134.644 59.7039 133.765C61.2299 130.886 60.6195 125.527 60.0198 122.546C59.4736 119.85 60.2286 114.351 60.8123 111.564C61.669 107.477 61.5994 99.0025 60.6516 94.8512C59.5914 90.1824 64.2873 81.1574 65.915 76.6773C67.1465 73.2755 69.6149 68.0891 71.7406 63.6575C72.6991 61.6519 73.3684 57.5007 68.3995 59.517C67.184 60.013 64.5014 59.9429 63.2378 59.9052C59.6878 59.8027 58.1779 59.4685 56.4805 59.1666C55.0991 58.924 54.5904 58.6975 51.0244 60.4874C49.6376 61.1829 47.4851 61.4902 45.2684 61.3069V61.2907Z" fill="white"/>
<path d="M78.0965 231.379C76.9132 234.495 76.6776 234.646 73.7166 234.668C72.4048 234.679 71.2375 234.679 70.0167 235.671C68.8708 236.598 67.0878 237.04 65.7171 235.595C65.0424 234.884 64.7158 235.347 64.1804 235.757C63.3772 236.377 62.5258 237.132 61.5888 237.347C59.1847 237.903 56.9894 236.134 56.9572 233.32C56.9358 231.444 56.0363 230.236 55.1849 228.818C53.6321 226.225 52.4328 223.492 52.5077 220.349C52.5613 218.16 52.2507 215.928 52.5773 213.788C53.0967 210.391 53.1717 206.995 53.0164 203.604C52.8772 200.638 52.3471 197.695 51.9669 194.746C51.8331 193.716 51.0674 193.398 50.216 193.608C49.2469 193.845 48.2563 194.18 47.4157 194.708C46.5268 195.269 45.8575 196.029 45.9539 197.35C46.227 201.102 45.986 204.924 46.6232 208.607C47.3889 213.033 46.998 217.421 47.0034 221.815C47.0034 224.85 45.3917 227.508 43.7639 230.015C43.2071 230.878 42.9126 231.557 43.2071 232.657C43.6783 234.398 42.4842 236.463 40.1015 237.574C38.4042 238.366 36.0214 238.016 34.7578 236.781C34.5008 236.528 34.0457 236.258 34.0457 236C34.0831 233.541 32.9748 234.458 31.6951 235.034C28.793 236.339 27.358 235.784 25.1627 233.245C24.563 232.549 23.4064 232.29 22.464 231.945C20.6435 231.277 19.3531 229.681 19.321 227.907C19.2835 226.144 20.3276 224.505 22.1267 223.956C23.1173 223.654 24.2417 223.664 25.2912 223.74C26.4852 223.826 26.3674 223.46 25.8534 222.694C23.3689 218.996 21.9768 214.812 20.7506 210.591C20.0546 208.202 19.1871 205.825 19.2942 203.237C19.3692 201.469 19.0908 201.442 17.2863 201.226C13.2866 200.746 9.20114 200.714 5.3995 199.064C2.71158 197.9 0.457366 196.261 -1.04187 193.646C-1.63086 192.627 -1.82362 191.603 -1.93071 190.444C-2.5304 183.791 0.478783 178.594 4.77303 174.081C7.5841 171.132 10.786 168.555 13.9184 165.935C15.0749 164.97 16.4617 164.226 17.8485 163.622C18.8766 163.175 19.2086 162.431 19.3049 161.509C19.9153 155.929 21.1308 150.489 22.5176 145.055C23.2458 142.197 23.3047 139.167 23.6741 136.213C23.8455 134.828 23.9954 133.437 24.2257 132.062C24.5523 130.105 25.0609 128.175 25.2537 126.212C25.3501 125.226 25.168 124.05 24.7022 123.188C22.2606 118.697 22.2552 113.807 22.6782 109.014C23.0798 104.432 25.2216 100.28 27.1224 96.1077C29.0768 91.8162 30.9026 87.4547 32.4982 83.0177C34.2866 78.047 33.9654 73.1356 31.3524 68.4182C30.5225 66.9195 29.7086 65.8304 27.7756 65.8951C26.2496 65.9437 24.8896 64.6875 24.911 63.4691C24.9324 62.0081 23.6367 61.291 23.717 60.0888C23.7973 58.9512 23.642 57.8298 23.6795 56.7085C23.7223 55.4631 23.5189 54.3687 22.8281 53.2203C21.8536 51.5976 21.4414 49.7538 21.4521 47.759C21.4681 44.4003 21.4788 41.0847 23.1333 38.0332C23.2565 37.8122 23.3475 37.5642 23.5028 37.3647C24.7236 35.8066 25.7302 34.2755 24.2792 32.2322C24.0008 31.8387 24.4184 30.9006 24.6005 30.2375C24.7772 29.5905 25.1359 28.9921 25.2965 28.3398C25.7677 26.3827 26.86 25.4932 28.9429 25.3961C31.9414 25.256 34.6721 26.3558 37.3493 27.4448C39.368 28.2643 41.3652 29.2832 43.1053 30.5771C44.0102 31.251 44.8081 31.5368 45.7665 31.4074C47.7209 31.1432 49.6645 30.755 51.6082 30.4262C51.9562 30.3669 52.3203 30.2914 52.6576 30.3453C55.1046 30.7496 56.7752 29.569 58.51 27.957C60.6946 25.9299 63.1095 24.0591 65.9955 23.0887C68.0784 22.3878 70.2094 21.3042 72.4369 22.6736C72.9134 22.9647 73.6845 23.423 73.663 23.7626C73.5667 25.1589 73.9415 26.2372 75.082 27.0405C75.1569 27.0944 75.2801 27.1968 75.264 27.2292C74.1503 29.9248 76.9025 31.3481 77.3576 33.5962C78.0804 37.1437 78.0537 40.6695 78.0804 44.2277C76.9185 45.1766 77.9037 45.6996 78.4606 46.3627C78.7765 46.7401 79.1942 47.3061 79.1138 47.6943C78.9318 48.5893 78.0751 49.5112 78.2357 50.2605C78.4124 51.0854 79.5261 51.6946 79.162 52.8214C78.9211 53.5546 78.4178 54.2716 78.4124 54.9941C78.4124 55.7003 79.0978 56.4066 79.1138 57.1182C79.1299 57.8352 78.8622 59.0375 78.4178 59.2046C75.6013 60.2559 75.5317 63.0809 74.9749 65.1619C74.1556 68.1972 72.8813 71.1031 72.3351 74.2138C71.6766 77.9284 70.5468 81.6322 71.0608 85.433C71.5748 89.2284 72.6725 92.916 73.904 96.5551C75.3657 100.879 76.9721 105.186 78.0108 109.618C79.1031 114.276 78.9479 119.15 78.5195 123.878C78.1608 127.846 76.3456 131.507 74.1396 134.892C73.647 135.647 73.2508 136.623 73.24 137.502C73.224 139.043 72.6778 140.208 71.6177 141.232C70.8787 141.944 70.4129 142.435 70.8787 143.852C71.5748 145.977 71.4463 148.403 71.5373 150.699C71.6284 152.98 71.5373 155.26 71.5641 157.546C71.5909 160.457 71.2696 163.32 70.4932 166.134C70.354 166.641 70.3808 167.25 70.5146 167.763C70.5789 168.011 71.1893 168.388 71.3285 168.313C74.5679 166.496 78.2304 165.886 81.7375 165.266C84.6236 164.76 87.7345 164.921 90.7918 165.461C93.5173 165.94 95.9696 166.997 98.5451 167.822C99.8622 168.242 100.815 169.051 101.731 170.005C102.791 171.111 103.771 172.345 104.986 173.235C107.658 175.192 107.68 177.337 104.933 178.933C104.274 179.316 103.402 179.629 103.6 180.815C103.659 181.176 102.973 181.985 102.561 182.033C101.351 182.184 100.558 182.648 99.5945 183.483C98.8181 184.152 97.0405 183.678 95.7072 183.64C95.4074 183.634 95.1182 183.219 94.813 183.203C90.1761 182.993 85.5285 182.583 80.8969 182.734C78.5088 182.81 76.1529 183.899 73.7755 184.513C72.5386 184.831 72.4422 185.796 72.6725 186.734C73.3686 189.538 74.2681 192.287 74.9213 195.096C75.5424 197.781 76.0297 200.504 76.4313 203.226C76.7365 205.323 76.9239 207.448 76.9774 209.566C77.122 215.103 76.1529 220.44 73.8772 225.519C73.5131 226.333 73.4756 226.915 74.7875 227.066C77.3897 227.363 78.0644 228.349 78.0858 231.395M19.3317 186.729C19.5298 190.303 19.2407 193.862 19.7547 197.468C20.1991 200.579 20.2259 203.787 20.9969 206.849C22.4105 212.44 23.9954 217.998 27.3794 222.807C27.706 223.276 27.8881 223.88 28.0166 224.451C28.1558 225.077 27.8238 225.708 27.192 225.266C25.9177 224.371 24.5683 224.84 23.2886 224.861C21.7894 224.888 20.5043 226.349 20.4133 227.692C20.333 228.867 21.4628 230.371 22.7585 230.835C24.2846 231.374 24.5951 231.298 24.729 229.859C24.9003 228.053 26.3353 227.411 27.4651 226.489C27.6311 226.355 28.1933 226.71 28.5734 226.84C28.3914 227.077 28.2629 227.406 28.0219 227.535C26.3567 228.43 25.5857 229.719 25.8266 231.687C26.0301 233.374 28.0701 234.603 29.821 234.29C32.3858 233.832 33.6816 232.565 33.4888 229.886C33.4727 229.665 33.6601 229.428 33.7565 229.196C33.8422 229.433 33.9332 229.67 34.0189 229.907C34.3402 230.808 34.3187 230.781 35.1219 230.08C35.3307 229.897 35.7002 229.891 36 229.81C36 230.123 36.1232 230.5 35.9947 230.732C35.5717 231.476 34.7953 232.112 34.6239 232.894C34.3294 234.247 34.7846 235.536 36.0429 236.301C37.3975 237.121 38.8754 237.164 40.1925 236.291C41.4776 235.433 42.6181 234.08 42.088 232.56C41.5954 231.137 42.1255 230.387 42.7734 229.39C43.5605 228.182 44.3154 226.937 44.8723 225.616C45.7986 223.416 46.0931 221.093 46.0074 218.688C45.9111 215.955 46.4412 213.114 45.8843 210.494C44.9312 205.986 44.7545 201.485 44.958 196.962C45.0704 194.503 46.1038 192.239 48.6525 191.193C49.1023 191.01 49.8948 190.751 50.0768 190.95C51.1423 192.104 52.5666 193.247 52.9468 194.643C53.675 197.312 54.0712 200.153 54.0819 202.924C54.098 208.779 53.7607 214.639 53.6214 220.5C53.6054 221.26 53.8838 222.025 54.0284 222.786C54.5692 225.621 55.8971 228.064 57.6533 230.323C58.071 230.856 58.51 231.87 58.2798 232.328C57.4124 234.064 58.5047 234.97 59.4899 235.929C60.5608 236.975 61.5995 235.994 62.6115 235.714C63.993 235.336 64.1054 234.247 63.9448 233.04C63.8966 232.679 63.9448 232.312 63.9341 231.945C63.918 231.465 63.0399 230.878 64.0144 230.565C64.2018 230.506 64.7158 231.185 64.9353 231.6C65.2084 232.112 65.3905 232.695 65.519 233.272C65.6582 233.897 65.4279 234.479 66.4399 234.819C68.1801 235.401 69.2189 235.396 70.1773 234.145C71.0929 232.948 71.0287 231.908 69.9149 230.571C69.6258 230.22 69.2403 229.951 68.9779 229.584C68.8548 229.411 68.9244 229.104 68.903 228.856C69.0957 228.91 69.2885 228.964 69.4812 229.029C71.1518 229.595 71.88 230.872 72.1049 232.544C72.1477 232.883 72.1424 233.352 72.3512 233.52C73.133 234.134 75.853 233.255 76.4688 232.35C77.1863 231.288 77.2398 230.226 76.6562 229.147C75.9654 227.864 74.7072 228.069 73.556 228.123C73.1008 228.144 72.6618 228.366 72.212 228.495C72.1959 227.88 72.0567 227.239 72.2013 226.667C72.3887 225.945 72.8706 225.303 73.1222 224.592C74.5894 220.44 75.7084 216.192 75.8744 211.782C76.0511 207.102 75.355 202.498 74.2842 197.948C73.2615 193.619 72.4958 189.22 71.3285 184.934C70.2201 180.88 69.2242 176.852 69.3634 172.609C69.4384 170.237 69.0797 167.811 69.4598 165.504C69.8721 163.008 70.4397 160.528 70.4343 158.004C70.4343 153.514 70.7502 149.012 69.9631 144.532C69.5937 142.413 68.0088 141.124 65.7385 141.534C65.1227 141.647 64.4695 141.534 63.8377 141.556C62.8578 141.588 62.226 141.119 62.3331 140.154C62.4884 138.763 61.7334 138.693 60.7535 138.817C59.5381 138.973 58.9866 138.095 58.5207 137.254C58.087 136.466 57.7604 135.793 58.4136 134.666C60.2556 131.49 60.0414 127.776 59.4417 124.417C58.842 121.058 59.0669 117.775 59.1311 114.486C59.1793 112.055 60.4965 109.656 60.5822 107.219C60.716 103.289 60.7214 99.2561 59.9771 95.4283C59.4738 92.8513 60.1164 90.6301 60.5554 88.3443C61.0427 85.7942 61.9261 83.2603 63.0399 80.9151C63.9822 78.9365 64.6087 76.683 66.4346 75.2058C66.6166 75.0602 66.8201 74.9362 67.0128 74.8015C67.0128 75.1142 67.1039 75.4754 66.9807 75.7288C66.0491 77.6265 64.9621 79.4487 64.1375 81.3896C62.5954 85.0233 60.8874 88.6246 61.1979 92.7705C61.4335 95.8866 61.1605 98.992 61.6584 102.146C62.3384 106.443 61.0052 110.669 60.3038 114.918C59.8486 117.7 60.2716 120.643 60.4537 123.501C60.5768 125.501 61.2676 127.506 61.1176 129.469C60.9838 131.269 60.1271 133.038 59.4792 134.779C58.9491 136.208 59.4363 137.518 60.8124 137.685C61.4764 137.766 62.1778 137.518 62.8632 137.421C63.1737 137.378 63.4843 137.34 63.7895 137.302C63.6878 137.679 63.6128 138.062 63.4843 138.429C63.329 138.876 62.8899 139.61 63.0024 139.701C63.4361 140.062 64.0197 140.332 64.5819 140.418C64.9407 140.472 65.353 140.143 65.7492 139.998C66.4881 139.734 67.0878 139.378 67.8749 140.235C69.0154 141.48 70.2523 141.34 71.1625 139.971C71.6605 139.221 71.9871 138.251 72.0514 137.356C72.137 136.175 72.5065 135.226 73.0848 134.208C74.8035 131.194 76.4848 128.239 77.1006 124.633C77.9466 119.689 77.7485 114.804 76.8382 110.044C75.9869 105.596 74.1289 101.343 72.7314 96.9972C71.5588 93.3419 70.4397 89.6543 69.9578 85.8427C69.4384 81.7562 70.3112 77.7181 71.2107 73.7771C72.1531 69.6582 73.5292 65.631 74.8571 61.6145C75.2533 60.4123 75.3765 58.9512 77.0577 58.4229C78.0697 58.1048 78.2946 57.1505 77.5664 56.0993C77.1059 55.4361 76.4313 54.6059 77.4058 53.781C78.557 52.8052 78.2411 51.921 77.2184 51.1447C76.4741 50.5786 76.3991 50.1635 77.2077 49.5705C78.4285 48.6755 78.4445 47.6674 77.2184 46.7508C76.2439 46.023 76.3188 45.1335 76.6348 44.1253C76.8114 43.5538 77.0149 42.9392 76.9774 42.3624C76.8596 40.5186 76.9025 38.6909 76.5973 36.8148C76.185 34.2647 75.5799 31.9681 74.1075 29.8655C73.8397 29.4827 73.6202 28.6363 73.813 28.4422C74.8142 27.434 74.0539 27.2669 73.2989 26.8518C72.7314 26.5391 71.4088 26.5391 72.544 25.1104C73.1972 24.2909 72.3191 23.148 71.1251 23.272C69.4438 23.4445 67.7143 23.7518 66.1454 24.361C63.1469 25.5309 60.5982 27.4933 58.3119 29.7523C57.1018 30.9437 55.806 31.4289 54.1033 31.499C52.0526 31.5853 50.034 32.1999 47.9832 32.4155C46.061 32.615 44.3101 33.2188 42.3129 31.5476C39.0628 28.8304 34.8917 27.6389 30.8223 26.5337C28.9483 26.0269 27.5989 26.5714 26.935 27.7306C26.587 28.3398 25.9765 28.8843 26.9136 29.4881C26.3835 30.0757 25.6339 30.5879 25.3822 31.2834C25.1894 31.8279 25.3983 32.8199 25.8052 33.2188C26.7797 34.1569 26.3888 34.9225 25.8588 35.7851C25.5 36.3673 25.1091 36.928 24.7772 37.5264C23.0156 40.6426 22.2927 43.9851 22.5818 47.5703C22.6996 49.0475 22.5176 50.4816 23.4546 51.8887C23.9472 52.6273 24.0811 53.6516 24.8735 54.2932C26.0783 55.2744 24.1882 56.1424 24.7504 57.1775C25.0663 57.7544 25.4946 58.7949 25.2483 59.0698C23.8723 60.6333 26.2121 60.8112 26.0943 61.5983C25.9284 62.7359 25.6178 63.7386 26.8118 64.4341C27.1706 64.6444 27.615 64.8816 27.9898 64.8385C30.3886 64.5473 31.4273 66.1108 32.4233 67.8899C35.2451 72.9469 35.3789 78.2734 33.5905 83.573C32.0056 88.2742 30.0138 92.8513 28.0059 97.3962C26.421 100.971 24.8039 104.443 24.1293 108.405C23.4546 112.341 23.6795 116.039 24.6487 119.84C25.3715 122.692 26.7101 125.247 28.2147 127.657C29.6979 130.029 31.4702 132.38 33.612 134.116C35.5342 135.674 36.9156 136.93 36.8353 139.674C36.7657 142.203 39.3144 143.443 41.1885 142.09C41.5579 141.825 41.7025 141.265 42.0345 140.92C42.5164 140.413 42.859 139.539 43.8282 140.602C44.1816 140.99 45.6594 140.925 46.0878 140.51C46.7624 139.858 46.9177 139.092 48.1439 139.852C49.0541 140.413 49.6485 139.189 50.2696 138.596C50.4141 138.461 50.3285 138.084 50.3499 137.82C50.473 136.504 49.9965 135.437 49.0755 134.509C48.7168 134.148 48.1224 133.442 48.2242 133.286C49.0381 132.029 48.2938 130.547 48.7757 129.393C49.8198 126.886 48.9524 124.487 48.2456 122.341C47.0623 118.762 45.1882 115.408 43.5391 111.99C42.6984 110.249 42.0505 108.513 42.1737 106.529C42.3343 103.957 42.4735 101.364 42.5913 98.8087C42.7948 94.3501 43.0839 89.8484 42.2754 85.3306C41.5151 81.0769 40.4067 77.0334 38.3827 73.2434C38.024 72.5695 37.6278 71.9172 37.3172 71.2217C37.2315 71.0276 37.3922 70.7257 37.4404 70.4723C37.6331 70.5801 37.9008 70.6394 38.0079 70.8066C38.8754 72.1759 39.9677 73.4698 40.5085 74.9632C41.7453 78.3812 42.8698 81.8586 43.7265 85.3899C44.2405 87.514 44.5564 89.8322 44.2512 91.9618C43.9995 93.7247 43.8764 95.4661 43.8282 97.229C43.8014 98.2318 43.9995 99.2777 43.7693 100.221C42.6074 104.928 43.1428 109.392 45.4666 113.613C47.4371 117.193 49.702 120.562 49.9858 124.913C50.1036 126.741 50.3552 128.423 49.9644 130.288C49.6056 132.003 49.1719 133.997 51.0513 135.512C51.7956 136.116 51.651 137.313 51.5011 138.423C51.0674 141.685 47.587 140.262 46.2484 142.073C46.0396 142.354 45.4077 142.397 44.9687 142.408C44.6635 142.413 44.294 142.24 44.0531 142.036C43.3945 141.47 43.1428 141.195 42.6234 142.343C42.2968 143.06 40.9636 143.572 40.0158 143.696C37.692 143.998 35.6788 142.052 35.7002 139.572C35.7109 138.132 35.561 136.86 34.2652 136.051C30.8812 133.954 28.9322 130.655 26.9511 127.366C26.8065 127.123 26.5227 126.962 26.3085 126.762C26.164 127.037 25.9177 127.296 25.8909 127.582C25.6821 129.787 25.5268 131.997 25.3287 134.202C25.168 135.954 25.1038 137.728 24.7611 139.448C24.14 142.542 23.1012 145.572 22.6729 148.688C22.0464 153.244 20.7239 157.659 20.3544 162.28C20.0706 165.87 19.3906 169.439 19.3585 173.062C19.321 177.445 19.3478 181.828 19.3478 186.756M74.5572 183.171C76.5062 182.621 78.4285 181.753 80.4043 181.597C83.7347 181.332 87.0973 181.429 90.4438 181.564C92.3286 181.64 94.3472 181.737 96.0338 182.454C98.454 183.483 99.5677 180.874 101.533 180.977C101.624 180.977 101.747 181.014 101.801 180.971C102.068 180.734 102.577 180.421 102.539 180.238C102.186 178.621 103.509 178.324 104.424 177.774C106.031 176.814 106.534 175.612 105.136 174.669C102.909 173.165 101.356 170.981 99.1822 169.499C98.438 168.986 97.517 168.717 96.6603 168.383C94.6042 167.585 92.5267 166.975 90.3099 166.604C87.3971 166.113 84.6182 166.134 81.7215 166.587C78.5142 167.089 75.4728 168.151 72.3351 168.841C70.8198 169.175 70.5628 169.725 70.4397 171.073C70.097 174.841 71.1357 178.437 71.5855 182.103C71.7515 183.467 72.4797 183.731 74.5572 183.176M16.3386 174.949C17.9877 173.812 18.5125 172.232 18.2715 170.27C18.1752 169.499 18.3947 168.69 18.4429 167.897C18.4964 166.975 18.5178 166.054 18.5553 165.126C17.6933 165.423 16.8258 165.714 15.9638 166.016C15.8888 166.043 15.8406 166.156 15.771 166.205C11.7231 168.787 8.13561 171.946 4.94973 175.515C1.42652 179.462 -1.08471 183.893 -0.849113 189.516C-0.752734 191.775 -0.0352411 193.565 1.52825 195.112C3.80388 197.371 6.62566 198.482 9.68839 199.048C11.9747 199.468 14.2771 199.776 16.5688 200.159C18.127 200.417 19.2514 199.528 18.732 198.094C17.8271 195.608 18.4536 193.118 18.2555 190.643C18.1484 189.301 18.5982 187.656 17.977 186.686C17.4416 185.85 15.7389 185.769 14.5449 185.365C11.8195 184.438 11.2465 182.837 12.1728 180.173C12.9332 177.995 14.7055 176.82 16.3386 174.955M18.2448 175.224C16.0976 176.443 14.336 178.41 13.2866 180.761C12.4995 182.529 12.6226 183.182 14.0362 184.109C14.5127 184.427 15.0803 184.653 15.6372 184.794C18.127 185.408 18.2287 185.327 18.2394 182.837C18.2501 180.481 18.2394 178.125 18.2394 175.224M49.8037 192.756C49.6592 192.481 49.4182 191.958 49.3914 191.969C48.7864 192.223 48.2028 192.519 47.6352 192.853C47.5709 192.891 47.662 193.182 47.678 193.36C48.2938 193.252 48.9095 193.139 49.7984 192.756H49.8037Z" fill="#8A593B"/>
<path d="M50.4307 61.0858L52.219 60.2178L53.6701 59.1611H55.0837L57.2415 59.5978L58.4569 60.0022L58.2535 61.9538L56.4437 64.1265L54.9766 64.6009L52.4172 64.0887L51.025 62.6439L50.4307 61.0858Z" fill="#FFBDE2"/>
<path d="M52.8343 59.2097C52.2346 58.7569 51.5278 58.2555 51.0459 57.7002C50.6229 57.2096 50.1678 56.4925 50.2053 55.9103C50.2588 55.1663 50.9924 54.9291 51.8116 54.8913C53.1877 54.8267 54.5584 54.4331 55.9345 54.4061C57.7711 54.3738 58.1673 55.2526 57.1714 56.8699C57.0322 57.0964 56.8073 57.2743 56.5985 57.4522C55.4312 58.4603 55.7525 58.6005 56.3843 58.9348" fill="#65381A"/>
<path d="M29.6019 46.2931C31.0958 43.9048 32.4719 41.6674 33.8105 39.4031C34.5815 38.0984 35.2723 36.7344 36.0594 35.4405C36.2307 35.1548 36.7608 34.799 36.9803 34.8798C37.8531 35.2033 37.3176 35.8071 37.0713 36.2492C35.9576 38.244 34.8332 40.2279 33.6659 42.1904C31.9257 45.1016 30.1481 47.9967 28.365 50.881C28.183 51.1775 27.8617 51.3824 27.6047 51.6304C27.4976 51.2261 27.1871 50.7301 27.3263 50.439C27.9742 49.0696 28.7399 47.7541 29.6019 46.2877V46.2931Z" fill="#8A593B"/>
<path d="M72.3138 43.0095C69.4224 40.0983 66.6702 37.3272 63.9127 34.5507C63.5272 34.1625 63.0399 33.8336 62.7936 33.37C62.6116 33.0357 62.7508 32.529 62.7401 32.0977C63.0614 32.2971 63.4308 32.4427 63.6932 32.7015C66.4614 35.4618 69.2243 38.2275 71.955 41.0255C72.4905 41.5755 72.876 42.2709 73.299 42.9233C73.3579 43.0149 73.208 43.2467 73.1544 43.4139C72.9188 43.3222 72.6886 43.2306 72.3138 43.0041V43.0095Z" fill="#8A593B"/>
<path d="M55.7638 58.6602C56.5242 58.8327 57.2631 59.1454 58.0288 59.2694C59.0782 59.4419 60.1438 59.4958 61.3592 59.6036C62.6443 59.6899 63.6616 59.2586 64.7057 58.9243C64.8878 58.865 65.0431 58.6871 65.2251 58.6655C65.4018 58.6494 65.5892 58.7626 65.7713 58.8219C65.6856 58.9782 65.632 59.2047 65.5035 59.2694C64.438 59.7977 63.3832 60.3099 62.1195 60.2506C60.374 60.1697 58.6177 60.353 56.8936 59.9217C56.7491 59.884 56.5456 59.9487 56.4439 59.8732C55.0142 58.768 53.7077 59.361 52.5191 60.256C51.4214 61.0862 50.1256 61.5768 48.8941 61.7386C47.0468 61.9973 46.0295 62.062 44.2518 61.6577C44.209 61.6361 43.9788 61.5768 43.9573 61.5445C43.5665 61.2749 43.1863 61.2749 42.8008 61C43.2559 60.9568 43.7699 60.7627 44.1554 60.9029C45.3602 61.3504 46.4846 61.0646 47.6947 60.9622C49.0922 60.8436 50.2863 60.3314 51.5446 59.9055C51.9997 59.7546 52.4066 59.4419 52.8082 59.1615" fill="#65381A"/>
<path d="M44.1766 54.4009C45.2471 54.4009 46.1149 53.1989 46.1149 51.7161C46.1149 50.2333 45.2471 49.0312 44.1766 49.0312C43.1061 49.0312 42.2383 50.2333 42.2383 51.7161C42.2383 53.1989 43.1061 54.4009 44.1766 54.4009Z" fill="black"/>
<path d="M61.5838 52.8755C62.6543 52.8755 63.5221 51.6735 63.5221 50.1907C63.5221 48.7079 62.6543 47.5059 61.5838 47.5059C60.5133 47.5059 59.6455 48.7079 59.6455 50.1907C59.6455 51.6735 60.5133 52.8755 61.5838 52.8755Z" fill="black"/>
<path d="M50.7834 60.7683C50.7834 60.7683 51.5116 62.4342 52.1595 63.0973C52.6147 63.5664 53.9426 63.9653 54.6547 63.9707C55.0884 63.9707 55.7095 63.7335 56.1164 63.4585C56.6305 63.1189 57.8406 61.7333 57.9584 61.1295C58.0708 60.558 57.9209 59.5283 57.9209 59.5283L58.8633 59.7062C58.8633 59.7062 58.5848 61.3613 58.3974 61.8897C58.1511 62.5798 57.1445 63.8575 56.6894 64.2618C56.2342 64.6662 55.1794 64.7902 55.1794 64.7902C55.1794 64.7902 53.6159 64.8117 53.1287 64.6554C52.4701 64.4451 51.3564 63.5286 50.9334 63.0272C50.7031 62.7577 50.2052 61.8304 50.2052 61.8304L49.6055 61.0486L50.7781 60.7683H50.7834Z" fill="#65381A"/>
</g>
</g>
<rect x="3" y="3" width="98" height="98" rx="49" stroke="white" stroke-width="6"/>
<circle cx="88" cy="88" r="14.5" fill="#FFF1CC" stroke="white" stroke-width="3"/>
<path fill-rule="evenodd" clip-rule="evenodd" d="M85.75 84.5C84.0931 84.5 82.75 85.8431 82.75 87.5C82.75 88.0523 82.3023 88.5 81.75 88.5C81.1977 88.5 80.75 88.0523 80.75 87.5C80.75 84.7386 82.9886 82.5 85.75 82.5H92.75C93.3023 82.5 93.75 82.9477 93.75 83.5C93.75 84.0523 93.3023 84.5 92.75 84.5H85.75Z" fill="#936C01"/>
<path d="M91.25 85.1268V81.8742C91.25 81.7144 91.428 81.6191 91.5609 81.7078L94.0004 83.3341C94.1191 83.4132 94.1191 83.5877 94.0004 83.6669L91.5609 85.2932C91.428 85.3818 91.25 85.2865 91.25 85.1268Z" fill="#936C01"/>
<path fill-rule="evenodd" clip-rule="evenodd" d="M91.75 82.4346V84.5661L93.3486 83.5003L91.75 82.4346ZM90.75 81.874C90.75 81.3149 91.3731 80.9815 91.8383 81.2916L94.2777 82.9179C94.6933 83.195 94.6933 83.8057 94.2777 84.0828L91.8383 85.7091C91.3731 86.0192 90.75 85.6857 90.75 85.1266V81.874Z" fill="#936C01"/>
<path fill-rule="evenodd" clip-rule="evenodd" d="M90.25 91.501C91.9069 91.501 93.25 90.1578 93.25 88.501C93.25 87.9487 93.6977 87.501 94.25 87.501C94.8023 87.501 95.25 87.9487 95.25 88.501C95.25 91.2624 93.0114 93.501 90.25 93.501H83.25C82.6977 93.501 82.25 93.0533 82.25 92.501C82.25 91.9487 82.6977 91.501 83.25 91.501H90.25Z" fill="#936C01"/>
<path d="M84.75 90.8742V94.1268C84.75 94.2866 84.572 94.3818 84.4391 94.2932L81.9996 92.6669C81.8809 92.5878 81.8809 92.4133 81.9996 92.3341L84.4391 90.7078C84.572 90.6192 84.75 90.7145 84.75 90.8742Z" fill="#936C01"/>
<path fill-rule="evenodd" clip-rule="evenodd" d="M84.25 93.5664V91.4349L82.6514 92.5007L84.25 93.5664ZM85.25 94.1269C85.25 94.686 84.6269 95.0195 84.1617 94.7094L81.7223 93.0831C81.3067 92.806 81.3067 92.1953 81.7223 91.9182L84.1617 90.2919C84.6269 89.9818 85.25 90.3153 85.25 90.8744V94.1269Z" fill="#936C01"/>
<defs>
<clipPath id="clip0_1648_4960">
<rect x="3" y="3" width="98" height="98" rx="49" fill="white"/>
</clipPath>
<clipPath id="clip1_1648_4960">
<rect width="109" height="216" fill="white" transform="translate(-2 22)"/>
</clipPath>
</defs>
</svg>
