<svg width="124" height="126" viewBox="0 0 124 126" fill="none" xmlns="http://www.w3.org/2000/svg">
<path d="M55.5862 4.703C59.5551 2.41158 64.4449 2.41158 68.4138 4.70301L109.28 28.297C113.249 30.5884 115.694 34.8232 115.694 39.406V86.594C115.694 91.1768 113.249 95.4116 109.28 97.703L68.4138 121.297C64.4449 123.588 59.5551 123.588 55.5862 121.297L14.7202 97.703C10.7513 95.4116 8.30642 91.1768 8.30642 86.594V39.406C8.30642 34.8232 10.7513 30.5884 14.7202 28.297L55.5862 4.703Z" fill="url(#paint0_linear_4_4207)" stroke="#7FCDC6" stroke-width="4"/>
<path d="M61.4013 72.0482C59.862 72.0482 58.2657 71.8487 56.6124 71.4496C54.959 71.0505 53.5195 70.4519 52.2937 69.6537C51.7236 69.2831 51.3388 68.8555 51.1393 68.371C50.9397 67.8864 50.8827 67.4303 50.9682 67.0027C51.0822 66.5466 51.296 66.1618 51.6096 65.8482C51.9517 65.5346 52.365 65.3493 52.8496 65.2923C53.3627 65.2353 53.9186 65.3636 54.5172 65.6772C55.6859 66.3043 56.8119 66.7604 57.8951 67.0454C58.9783 67.302 60.0901 67.4303 61.2303 67.4303C62.4845 67.4303 63.5393 67.2592 64.3944 66.9172C65.2496 66.5751 65.891 66.062 66.3186 65.3778C66.7747 64.6937 67.0027 63.867 67.0027 62.8978C67.0027 61.4726 66.5181 60.4178 65.5489 59.7337C64.6082 59.0211 63.2257 58.6647 61.4013 58.6647H58.6648C57.8666 58.6647 57.2537 58.4652 56.8262 58.0661C56.4271 57.667 56.2275 57.1112 56.2275 56.3985C56.2275 55.6859 56.4271 55.13 56.8262 54.7309C57.2537 54.3319 57.8666 54.1323 58.6648 54.1323H60.8882C61.9714 54.1323 62.8979 53.9613 63.6675 53.6192C64.4372 53.2487 65.0358 52.7355 65.4634 52.0799C65.891 51.4243 66.1048 50.6261 66.1048 49.6854C66.1048 48.3742 65.6629 47.3765 64.7793 46.6923C63.9241 46.0082 62.6698 45.6661 61.0165 45.6661C59.9618 45.6661 58.9641 45.7944 58.0234 46.0509C57.1112 46.279 56.0993 46.7208 54.9875 47.3765C54.4744 47.69 53.9756 47.8183 53.491 47.7613C53.0349 47.7043 52.6501 47.519 52.3365 47.2054C52.0229 46.8919 51.8091 46.5213 51.6951 46.0937C51.5811 45.6376 51.6096 45.1815 51.7806 44.7254C51.9517 44.2408 52.308 43.8275 52.8496 43.4854C54.0754 42.6873 55.4294 42.0886 56.9117 41.6896C58.394 41.262 59.919 41.0482 61.4868 41.0482C63.5678 41.0482 65.3494 41.376 66.8317 42.0316C68.314 42.6588 69.44 43.5709 70.2096 44.7682C71.0078 45.9369 71.4068 47.3622 71.4068 49.0441C71.4068 50.2413 71.1788 51.3388 70.7227 52.3365C70.2666 53.3057 69.6252 54.1323 68.7986 54.8165C67.9719 55.5006 66.9742 55.9852 65.8055 56.2703V55.7572C67.8579 56.0992 69.4542 56.9544 70.5944 58.3227C71.7347 59.6624 72.3048 61.3443 72.3048 63.3682C72.3048 65.1355 71.8629 66.6749 70.9793 67.9861C70.0956 69.2974 68.8413 70.3093 67.2165 71.022C65.5917 71.7061 63.6533 72.0482 61.4013 72.0482Z" fill="white"/>
<path d="M0 79.5576H38.4128V97.7532H13.4782L0 79.5576Z" fill="#A0DAD5"/>
<path d="M7.413 72.8186L0 79.5577H7.413V72.8186Z" fill="#20514D"/>
<path d="M124 79.5576H85.5872V97.7532H110.522L124 79.5576Z" fill="#A0DAD5"/>
<path d="M116.587 72.8186L124 79.5577H116.587V72.8186Z" fill="#20514D"/>
<rect x="27.6304" y="82.9268" width="68.7387" height="21.5651" fill="#3AA199"/>
<circle cx="62" cy="92.9311" r="12.8276" fill="#56BDB5" stroke="white" stroke-width="2.13793"/>
<path fill-rule="evenodd" clip-rule="evenodd" d="M61.2156 87.0634C61.5056 86.3353 62.4948 86.3353 62.7848 87.0634L64.1326 90.4478L67.6309 90.7412C68.3844 90.8041 68.69 91.7857 68.1158 92.2995L65.4506 94.684L66.2643 98.2488C66.4398 99.0169 65.6403 99.6233 64.9955 99.2122L62.0002 97.3017L59.0049 99.2122C58.3602 99.6233 57.5607 99.0162 57.7361 98.2488L58.5498 94.684L55.8847 92.2995C55.3105 91.7857 55.616 90.8041 56.3695 90.7412L59.8678 90.4478L61.2156 87.0634Z" fill="#FFBC00"/>
<defs>
<linearGradient id="paint0_linear_4_4207" x1="62" y1="1" x2="62" y2="125" gradientUnits="userSpaceOnUse">
<stop stop-color="#3AA199"/>
<stop offset="1" stop-color="#105B55"/>
</linearGradient>
</defs>
</svg>
