<svg width="332" height="128" viewBox="0 0 332 128" fill="none" xmlns="http://www.w3.org/2000/svg">
<g opacity="0.65" filter="url(#filter0_d_4_3582)">
<rect x="18" y="16" width="292" height="88" rx="16" fill="white"/>
</g>
<rect x="30" y="28" width="64" height="64" rx="9.14286" fill="url(#paint0_linear_4_3582)"/>
<rect x="30.1875" y="28.1875" width="63.625" height="63.625" rx="8.95536" stroke="url(#paint1_linear_4_3582)" stroke-opacity="0.2" stroke-width="0.375"/>
<g opacity="0.9">
<g filter="url(#filter1_di_4_3582)">
<path d="M77.6207 59.9303C76.6018 59.8592 75.6893 59.5192 74.8832 58.9102C74.0928 58.3022 73.4816 57.5072 73.0495 56.5251C72.6175 55.543 72.4452 54.4561 72.5327 53.2645C72.6213 52.0577 72.9507 51.0058 73.5208 50.109C74.1076 49.1979 74.8517 48.5051 75.7532 48.0306C76.6703 47.5571 77.6696 47.3581 78.7512 47.4336C79.3939 47.4784 79.975 47.6111 80.4945 47.8316C81.0141 48.052 81.4574 48.344 81.8246 48.7074C82.2086 49.0567 82.5103 49.4539 82.7297 49.8991C82.9648 50.3455 83.0957 50.8152 83.1225 51.3085L82.5952 51.0874L82.8241 47.971L85.2694 48.1416L84.3859 60.1718L81.9405 60.0013L82.1509 57.1369L82.727 57.0159C82.6026 57.4218 82.3769 57.8129 82.0499 58.1893C81.7397 58.5516 81.3461 58.8696 80.8691 59.1434C80.4077 59.4183 79.896 59.6283 79.3339 59.7734C78.7874 59.9195 78.2164 59.9718 77.6207 59.9303ZM78.4155 57.7976C79.1522 57.849 79.8157 57.7187 80.4058 57.4067C80.9959 57.0947 81.4702 56.6441 81.8286 56.0549C82.2037 55.4516 82.4205 54.7527 82.4789 53.9583C82.5361 53.1792 82.4225 52.4727 82.1382 51.8386C81.8696 51.2057 81.466 50.6939 80.9275 50.3032C80.389 49.9124 79.7514 49.6914 79.0146 49.64C78.2935 49.5897 77.6379 49.7205 77.0478 50.0325C76.4734 50.3456 75.9991 50.7962 75.625 51.3843C75.2666 51.9735 75.0588 52.6577 75.0016 53.4368C74.9433 54.2311 75.0479 54.9524 75.3154 55.6006C75.5997 56.2347 76.0032 56.7465 76.5261 57.1361C77.0646 57.5268 77.6944 57.7473 78.4155 57.7976Z" fill="url(#paint2_radial_4_3582)"/>
<path d="M74.7303 59.1084L74.732 59.1097C75.577 59.7481 76.5357 60.1052 77.6024 60.1796C78.2237 60.2229 78.8223 60.1686 79.3966 60.0151C79.9789 59.8647 80.5121 59.6464 80.9948 59.359C81.2831 59.1934 81.5442 59.0112 81.7772 58.812L81.6911 59.9839C81.681 60.1216 81.7844 60.241 81.9222 60.2506L84.3676 60.4212C84.5053 60.4308 84.6252 60.3269 84.6353 60.1892L85.5188 48.159C85.5289 48.0213 85.4255 47.9019 85.2878 47.8923L82.8424 47.7217C82.7046 47.7121 82.5848 47.8159 82.5747 47.9536L82.4936 49.0579C82.3455 48.8698 82.18 48.6924 81.9971 48.5258C81.6063 48.14 81.1371 47.8324 80.593 47.6014L80.4952 47.8301L80.593 47.6014C80.0448 47.3688 79.436 47.2307 78.7696 47.1842C77.6447 47.1058 76.5992 47.3129 75.6391 47.8086L75.6391 47.8086L75.6373 47.8095C74.6951 48.3055 73.9194 49.0292 73.3106 49.9742L73.3106 49.9742L73.3098 49.9755C72.7146 50.912 72.3746 52.0049 72.2833 53.2472C72.1932 54.4748 72.3703 55.603 72.8205 56.6264C73.2681 57.6437 73.9043 58.4732 74.7303 59.1084ZM81.908 51.9369L81.9079 51.937L81.91 51.9415C82.1754 52.5334 82.284 53.198 82.2295 53.9409C82.1737 54.6999 81.9675 55.3587 81.6163 55.9236L81.615 55.9257C81.2794 56.4775 80.8382 56.8958 80.2895 57.1859C79.7451 57.4737 79.1291 57.5968 78.4338 57.5483C77.7558 57.501 77.172 57.295 76.6747 56.9346C76.1897 56.5728 75.8129 56.097 75.5452 55.5012C75.2954 54.8942 75.1952 54.2136 75.251 53.4542C75.3056 52.7102 75.503 52.0662 75.8373 51.5157C76.1895 50.9627 76.6322 50.5436 77.1655 50.2526C77.7104 49.9649 78.3183 49.842 78.9963 49.8893C79.6916 49.9378 80.2834 50.1452 80.7801 50.5056C81.2808 50.8689 81.6564 51.3442 81.908 51.9369Z" stroke="url(#paint3_radial_4_3582)" stroke-width="0.5" stroke-linejoin="round"/>
</g>
<g filter="url(#filter2_di_4_3582)">
<path d="M65.2796 59.4267C64.0099 59.3381 62.9003 58.9997 61.9509 58.4114C61.0183 57.8089 60.3035 57.0297 59.8065 56.0738C59.3252 55.1189 59.1283 54.0457 59.2158 52.8541C59.2853 51.907 59.5055 51.0548 59.8762 50.2976C60.247 49.5403 60.7274 48.8982 61.3176 48.3713C61.9245 47.8301 62.6233 47.4336 63.4138 47.1816C64.2211 46.9155 65.0794 46.8141 65.9886 46.8775C66.788 46.9333 67.5214 47.138 68.1887 47.4916C68.8571 47.83 69.423 48.2764 69.8865 48.8308C70.3657 49.3863 70.7121 50.0323 70.9259 50.7689C71.1564 51.4913 71.233 52.272 71.1556 53.1111L71.058 54.1178L60.9708 53.4141L60.568 51.4974L69.1034 52.0928L68.722 52.4577L68.7624 51.9078C68.7524 51.4004 68.6131 50.9377 68.3444 50.5197C68.0758 50.1018 67.7226 49.7623 67.2848 49.5015C66.847 49.2406 66.3617 49.0916 65.8287 49.0544C64.9822 48.9954 64.2572 49.106 63.6536 49.3864C63.0512 49.6515 62.5786 50.0792 62.2359 50.6694C61.8943 51.2444 61.691 51.975 61.6259 52.861C61.5642 53.7012 61.6906 54.4471 62.0052 55.0985C62.3208 55.7348 62.7955 56.2439 63.4292 56.6259C64.0629 57.0079 64.8108 57.2289 65.673 57.2891C66.2843 57.3317 66.8559 57.2718 67.3878 57.1093C67.9353 56.9479 68.5339 56.6288 69.1834 56.152L70.2832 57.9101C69.8801 58.2505 69.3941 58.539 68.8252 58.7757C68.2721 59.0135 67.6836 59.1951 67.06 59.3205C66.4531 59.4317 65.8596 59.4671 65.2796 59.4267Z" fill="url(#paint4_radial_4_3582)"/>
<path d="M61.8146 58.6214L61.8146 58.6215L61.8186 58.6239C62.8069 59.2363 63.9568 59.585 65.2613 59.676C65.8634 59.718 66.4779 59.6811 67.1042 59.5664L67.1042 59.5664L67.1084 59.5655C67.7477 59.437 68.3524 59.2506 68.922 59.0058C69.5101 58.761 70.0187 58.46 70.4442 58.1008C70.5394 58.0203 70.5613 57.8823 70.4954 57.777L69.3955 56.019C69.3587 55.9602 69.2991 55.9194 69.2308 55.9065C69.1626 55.8935 69.0919 55.9096 69.0358 55.9508C68.4009 56.4168 67.8286 56.719 67.3179 56.8696L67.3178 56.8696L67.3155 56.8703C66.8158 57.023 66.2752 57.0805 65.6913 57.0398C64.862 56.9819 64.1536 56.7702 63.5589 56.4117C62.9644 56.0534 62.5236 55.5794 62.2299 54.9881C62.0458 54.6064 61.9295 54.1872 61.8834 53.7284L71.0397 54.3671C71.1752 54.3765 71.2938 54.2761 71.3069 54.141L71.4045 53.1344L71.4046 53.1332C71.4846 52.2656 71.4061 51.452 71.1651 50.6953C70.942 49.9279 70.5796 49.2513 70.0774 48.6686C69.5922 48.0887 69.0003 47.6223 68.3044 47.2696C67.6051 46.8994 66.8382 46.6862 66.0069 46.6282C65.0682 46.5627 64.1775 46.6671 63.3374 46.9439C62.5145 47.2063 61.785 47.6202 61.1515 48.185L61.1513 48.1851C60.5354 48.7351 60.0357 49.4039 59.6517 50.1884C59.2652 50.9778 59.038 51.8617 58.9664 52.8367C58.876 54.068 59.0792 55.1872 59.5831 56.1869L59.5831 56.1869L59.5845 56.1896C60.1021 57.1851 60.8469 57.9963 61.8146 58.6214ZM68.5078 51.8006L62.1834 51.3595C62.2598 51.1552 62.3491 50.9677 62.4508 50.7965L62.4508 50.7965L62.4521 50.7943C62.7691 50.2482 63.2019 49.8579 63.7537 49.6151L63.7537 49.6151L63.7584 49.613C64.3142 49.3548 64.9947 49.2469 65.8104 49.3038C66.3062 49.3384 66.7535 49.4764 67.1562 49.7163C67.5617 49.958 67.8866 50.2706 68.1339 50.6554C68.3572 51.0027 68.4818 51.383 68.5078 51.8006Z" stroke="url(#paint5_radial_4_3582)" stroke-width="0.5" stroke-linejoin="round"/>
</g>
<g filter="url(#filter3_di_4_3582)">
<path d="M70.7748 80.8551L66.4449 64.7546L68.8208 64.1828L69.5183 66.7762L69.1004 66.6696C69.0756 66.2154 69.2241 65.7425 69.5459 65.2508C69.8639 64.7448 70.2945 64.296 70.8379 63.9044C71.3926 63.4948 71.9974 63.2112 72.6523 63.0536C73.7337 62.7934 74.761 62.8146 75.7343 63.1173C76.7076 63.4199 77.5561 63.9521 78.2798 64.7136C79.0036 65.4752 79.5185 66.4251 79.8246 67.5633C80.1268 68.6871 80.1544 69.7543 79.9072 70.7649C79.6714 71.7574 79.2044 72.6137 78.5062 73.334C77.8042 74.0399 76.9277 74.5193 75.8768 74.7722C75.1762 74.9408 74.4635 74.9742 73.7389 74.8725C73.0104 74.7563 72.3614 74.5443 71.7922 74.2365C71.2229 73.9286 70.8249 73.5642 70.5982 73.1432L71.1108 72.6977L73.1508 80.2833L70.7748 80.8551ZM74.9363 72.8125C75.6369 72.6439 76.2168 72.328 76.6759 71.8646C77.1351 71.4013 77.4471 70.843 77.612 70.1897C77.7768 69.5364 77.7605 68.8424 77.5629 68.1076C77.3653 67.3728 77.031 66.763 76.56 66.278C76.1004 65.775 75.5519 65.4238 74.9145 65.2244C74.2771 65.025 73.6005 65.0114 72.8846 65.1837C72.1688 65.3559 71.5813 65.6737 71.1221 66.1371C70.659 66.586 70.3451 67.1371 70.1802 67.7904C70.0154 68.4437 70.0318 69.1377 70.2294 69.8725C70.427 70.6073 70.7632 71.2243 71.238 71.7237C71.7128 72.223 72.269 72.5724 72.9064 72.7718C73.5438 72.9712 74.2204 72.9848 74.9363 72.8125Z" fill="url(#paint6_radial_4_3582)"/>
<path d="M70.5318 80.9136C70.5676 81.047 70.7055 81.1289 70.8398 81.0966L73.2157 80.5248C73.35 80.4925 73.4297 80.3582 73.3938 80.2249L71.8686 74.5533C72.4185 74.823 73.0312 75.0104 73.7045 75.1177L73.7044 75.1177L73.7092 75.1184C74.4653 75.2245 75.2101 75.1897 75.9417 75.0136C77.0337 74.7508 77.9515 74.2504 78.6877 73.5102L78.6878 73.5102L78.6899 73.5079C79.4186 72.7562 79.9063 71.8614 80.152 70.8277C80.4098 69.7733 80.3794 68.6642 80.0677 67.5048C79.7521 66.3314 79.2183 65.3424 78.4614 64.5459C77.7082 63.7533 76.8217 63.1967 75.8048 62.8805C74.7828 62.5627 73.7084 62.5424 72.5874 62.8122C71.8997 62.9777 71.2652 63.2755 70.6854 63.7034C70.1208 64.1104 69.6684 64.5804 69.3325 65.1145C69.3319 65.1153 69.3314 65.1161 69.3309 65.1169L69.0639 64.1243C69.0281 63.9909 68.8902 63.909 68.7559 63.9413L66.38 64.5131C66.2457 64.5454 66.166 64.6797 66.2018 64.8131L70.5318 80.9136ZM76.375 66.4421L76.3749 66.4421L76.3804 66.4478C76.817 66.8973 77.1318 67.4671 77.3198 68.1661C77.5077 68.865 77.5213 69.5161 77.3678 70.1244C77.2131 70.7373 76.922 71.2571 76.4941 71.6888C76.0697 72.117 75.5316 72.4122 74.8713 72.5711C74.1948 72.7339 73.5655 72.7192 72.9773 72.5352C72.3834 72.3493 71.865 72.0243 71.4195 71.5559C70.9774 71.091 70.6604 70.5129 70.4724 69.814C70.2845 69.1151 70.2709 68.464 70.4244 67.8557C70.5788 67.2438 70.871 66.7327 71.3005 66.3163L71.3005 66.3163L71.3039 66.3129C71.7276 65.8854 72.273 65.5879 72.9495 65.4251C73.6261 65.2623 74.2554 65.277 74.8436 65.4611C75.4363 65.6465 75.9456 65.9721 76.375 66.4421Z" stroke="url(#paint7_radial_4_3582)" stroke-width="0.5" stroke-linejoin="round"/>
</g>
<g filter="url(#filter4_di_4_3582)">
<path d="M53.7585 80.2339C49.6608 79.7774 50.4187 75.7165 51.5537 70.548C51.9975 68.5729 52.8825 65.3564 51.3005 65.0513C49.7184 64.7462 49.1992 68.3003 48.8998 69.6967L46.7589 69.266C47.369 66.3285 48.862 62.3982 51.9552 62.9308C55.7601 63.5997 54.3058 68.3248 53.7415 70.9674C53.2118 73.4598 52.0551 77.7113 54.4765 77.7908C56.4923 77.8496 56.8261 72.2116 57.0459 70.054C57.3165 67.4347 57.2066 62.4711 60.338 62.3088C63.5457 62.1517 62.8515 65.9844 62.5397 69.938C62.4114 71.506 61.7478 75.6388 63.2296 75.8498C64.141 75.9852 64.5125 74.9498 64.7284 73.2424L66.9504 73.4172C66.6618 75.9698 65.4905 78.2146 62.6807 77.9921C59.3829 77.7215 60.2166 72.1761 60.4176 69.7628C60.5236 68.4839 61.112 64.6293 60.3479 64.5767C59.5308 64.5132 59.4645 68.1712 59.2675 70.1342C58.9639 73.2817 58.4736 80.7546 53.7585 80.2339Z" fill="url(#paint8_radial_4_3582)"/>
<path d="M59.5179 70.164C59.5587 69.757 59.5931 69.2919 59.6291 68.8059C59.6824 68.0866 59.739 67.3215 59.8249 66.6315C59.8962 66.0583 59.9849 65.5663 60.1007 65.2263C60.1591 65.0548 60.2182 64.9411 60.2717 64.876C60.2972 64.845 60.3158 64.8321 60.325 64.8273C60.3309 64.8348 60.3393 64.8477 60.3498 64.8686C60.3877 64.9437 60.4225 65.0707 60.4465 65.2554C60.4941 65.6202 60.4901 66.1278 60.4579 66.6901C60.416 67.4204 60.3302 68.1978 60.2597 68.8367C60.2207 69.1893 60.1865 69.4997 60.1668 69.7367C60.1502 69.9359 60.1291 70.1586 60.1061 70.3996C59.9923 71.5959 59.8355 73.2426 59.9868 74.7006C60.0778 75.5773 60.2823 76.4167 60.696 77.061C61.1184 77.7188 61.7549 78.1649 62.6657 78.2397L62.6664 78.2397C64.155 78.3576 65.2297 77.8172 65.96 76.9018C66.6799 75.9996 67.0536 74.7492 67.2004 73.4504C67.208 73.3828 67.1871 73.3144 67.1425 73.2613C67.0979 73.2081 67.0335 73.175 66.9645 73.1696L64.7425 72.9948C64.6104 72.9844 64.495 73.0768 64.4787 73.206C64.3711 74.0576 64.2278 74.7061 64.0149 75.1208C63.9098 75.3253 63.7965 75.4554 63.6792 75.5293C63.5675 75.5996 63.4349 75.63 63.2613 75.6042L63.2598 75.604C63.0363 75.5722 62.8512 75.3947 62.7179 74.9864C62.5861 74.5827 62.5341 74.0286 62.5324 73.408C62.5301 72.5017 62.6334 71.5136 62.715 70.7325C62.7453 70.4429 62.7726 70.1817 62.7904 69.9637L62.7905 69.963C62.8212 69.5741 62.8559 69.1828 62.8903 68.795C62.9425 68.2072 62.9939 67.6276 63.0294 67.0774C63.0884 66.161 63.1056 65.2966 63.0081 64.5556C62.9111 63.818 62.6963 63.1669 62.2602 62.7104C61.8138 62.2431 61.1744 62.0188 60.3197 62.0607L60.3189 62.0607C59.459 62.1053 58.8168 62.4836 58.3437 63.06C57.8771 63.6284 57.5777 64.3851 57.3748 65.1951C57.078 66.3807 56.9759 67.7438 56.89 68.8907C56.8592 69.302 56.8305 69.6855 56.7956 70.0231L56.7955 70.0234C56.7761 70.2141 56.7559 70.4304 56.7339 70.6664C56.6299 71.7798 56.485 73.331 56.1887 74.6961C56.0089 75.5244 55.7776 76.2622 55.478 76.7838C55.175 77.3113 54.8428 77.5529 54.4785 77.5425C54.2147 77.5337 54.0156 77.4692 53.8624 77.3701C53.7089 77.2709 53.5861 77.127 53.4909 76.9361C53.2958 76.545 53.2279 75.9794 53.2538 75.2991C53.2969 74.1675 53.5919 72.8283 53.8443 71.6826C53.8946 71.4543 53.9432 71.2336 53.9878 71.0238C54.0359 70.7988 54.0911 70.5561 54.1494 70.3C54.4271 69.08 54.7734 67.5582 54.7383 66.2084C54.717 65.3872 54.555 64.5972 54.1273 63.9628C53.6931 63.3187 53.0045 62.864 51.9937 62.6863L51.9937 62.6863L51.9928 62.6861C50.3042 62.3954 49.0746 63.3376 48.2134 64.6593C47.3531 65.9795 46.8198 67.7307 46.5124 69.2107C46.4989 69.2758 46.5127 69.3443 46.5507 69.4005C46.5886 69.4567 46.6476 69.4959 46.7142 69.5093L48.8551 69.9401C48.989 69.967 49.1179 69.8844 49.146 69.7536C49.1779 69.6044 49.2119 69.4338 49.2489 69.248C49.3894 68.5426 49.5734 67.6188 49.8567 66.8232C50.0358 66.3204 50.2459 65.8955 50.4913 65.6178C50.7309 65.3467 50.9779 65.2411 51.2578 65.2951C51.5428 65.35 51.7226 65.5267 51.8326 65.838C51.9478 66.1644 51.9746 66.6159 51.9359 67.1499C51.8709 68.0456 51.6305 69.0873 51.4219 69.9911C51.3823 70.1626 51.3439 70.3292 51.308 70.4888L51.3078 70.4899C50.7431 73.0613 50.2577 75.4116 50.4436 77.1779C50.5373 78.0682 50.8038 78.8398 51.342 79.4201C51.8829 80.0035 52.6686 80.3618 53.7361 80.4807L53.7364 80.4807C54.9932 80.6196 55.9793 80.2224 56.7422 79.4992C57.4962 78.7845 58.0251 77.7594 58.4059 76.6439C59.1027 74.6028 59.3294 72.1772 59.4783 70.5826C59.4921 70.4357 59.5051 70.2958 59.5179 70.164ZM59.5179 70.164C59.5178 70.1641 59.5178 70.1643 59.5178 70.1644L59.2675 70.1342M59.5179 70.164C59.5179 70.1638 59.5179 70.1636 59.5179 70.1635L59.2675 70.1342M59.2675 70.1342C59.2547 70.2663 59.2416 70.406 59.2279 70.5525C58.9153 73.8949 58.2757 80.7328 53.7585 80.2339L62.6807 77.9921C59.6616 77.7444 60.1052 73.0757 60.3559 70.4367C60.3791 70.1931 60.4006 69.9668 60.4176 69.7628C60.4362 69.5385 60.4696 69.2349 60.508 68.8866C60.6884 67.2487 60.978 64.6201 60.3479 64.5767C59.6942 64.5259 59.521 66.8573 59.377 68.7968C59.341 69.2815 59.3069 69.7417 59.2675 70.1342ZM60.3152 64.8174C60.3152 64.8172 60.3164 64.8178 60.3188 64.8201C60.3163 64.8188 60.3151 64.8177 60.3152 64.8174Z" stroke="url(#paint9_radial_4_3582)" stroke-width="0.5" stroke-linejoin="round"/>
</g>
<g filter="url(#filter5_di_4_3582)">
<path d="M44.5047 61.8615C40.4594 62.4374 38.8904 58.0952 38.963 53.1297C38.9993 49.4151 39.9572 45.3583 41.4618 42.6842L43.6613 43.6491C42.1328 46.4829 41.4131 49.9536 41.3462 52.9214C41.2684 56.4098 42.1038 59.2203 43.5718 59.5348C44.8151 59.7847 46.402 57.8483 47.0682 56.6948C45.9679 54.7604 45.0863 51.6986 44.9489 48.922C44.8178 45.5997 45.7421 42.6638 48.6825 42.5918C52.0188 42.5026 52.5359 46.0428 51.9324 49.8563C51.5226 52.2616 50.705 54.764 49.8354 56.5493C50.5476 57.3846 51.3941 57.9371 52.4651 57.8281C55.0241 57.5633 55.8466 53.3486 55.4601 49.2151C55.2065 46.0957 54.243 43.0223 52.8528 41.6829L54.577 40.0597C56.682 42.1042 57.8633 46.0731 57.9624 49.9456C58.1145 54.9757 56.4773 59.8252 52.6787 60.1506C51.5516 60.2435 50.0458 60.0134 48.6087 58.7081C47.5761 60.1848 46.2156 61.615 44.5047 61.8615ZM47.3709 49.07C47.5485 50.9061 48.0419 52.8687 48.4116 53.8674C48.7658 52.898 49.3902 50.7924 49.6979 48.8457C50.0342 46.7644 49.9809 44.8807 48.793 44.9323C47.4246 45.0154 47.1942 46.9485 47.3709 49.07Z" fill="url(#paint10_radial_4_3582)"/>
<path d="M44.5425 62.1086L44.5421 62.1086C43.4824 62.2595 42.5687 62.0895 41.8 61.6553C41.0339 61.2227 40.4307 60.5386 39.9697 59.6912C39.0514 58.0026 38.6761 55.6263 38.7126 53.1245C38.7493 49.378 39.714 45.2785 41.2432 42.5607C41.3058 42.4495 41.4431 42.4042 41.5611 42.4559L43.7605 43.4207C43.8248 43.449 43.8746 43.5026 43.8977 43.5688C43.9208 43.6349 43.9151 43.7074 43.882 43.7687C42.3759 46.5612 41.6628 49.9917 41.5965 52.9291C41.558 54.6554 41.7462 56.2002 42.1175 57.3433C42.4958 58.508 43.0314 59.1631 43.6208 59.2904C43.858 59.3376 44.1319 59.2846 44.4366 59.1347C44.741 58.9849 45.0566 58.7475 45.3639 58.4588C45.9354 57.9217 46.4501 57.2336 46.7796 56.6896C45.6912 54.7126 44.835 51.6836 44.6989 48.9322L44.6987 48.9297L44.6987 48.9297C44.6324 47.2496 44.8306 45.6366 45.4398 44.4247C46.0574 43.1962 47.1 42.3809 48.674 42.3423C49.5545 42.3188 50.2704 42.5351 50.8316 42.9535C51.3905 43.3703 51.7741 43.9712 52.0213 44.6804C52.5127 46.0898 52.4836 47.9775 52.1797 49.8972L52.1793 49.9001L52.1793 49.9001C51.777 52.2612 50.9858 54.7148 50.1326 56.5106C50.7919 57.2415 51.5329 57.6717 52.4372 57.5798L44.5425 62.1086ZM44.5425 62.1086C46.2725 61.8593 47.6336 60.4844 48.6539 59.0776C50.0879 60.2754 51.5747 60.4922 52.7014 60.3994L52.7022 60.3993C54.7224 60.2262 56.143 58.847 57.0298 56.9179C57.9157 54.9909 58.2894 52.48 58.2127 49.9405C58.1625 47.9828 57.8389 45.9982 57.2597 44.241C56.6813 42.4862 55.8426 40.9419 54.751 39.8816C54.6544 39.7878 54.5015 39.786 54.4043 39.8775L52.6801 41.5008C52.6306 41.5474 52.6025 41.6123 52.6024 41.6805C52.6023 41.7486 52.6302 41.8141 52.6796 41.8617C53.3322 42.4905 53.9044 43.5494 54.3454 44.8591C54.7844 46.163 55.0852 47.6909 55.2105 49.2332L55.2108 49.2362M44.5425 62.1086L55.2108 49.2362M55.2108 49.2362C55.4023 51.2836 55.2923 53.3364 54.8271 54.8995M55.2108 49.2362L54.8271 54.8995M54.8271 54.8995C54.3576 56.4769 53.5599 57.4634 52.4376 57.5798L54.8271 54.8995ZM49.4507 48.804L49.4506 48.8048C49.2069 50.3465 48.7618 51.9917 48.4144 53.0785C48.0994 52.0236 47.7604 50.4968 47.6203 49.0498C47.5328 47.9979 47.5494 47.0199 47.7442 46.304C47.8414 45.9471 47.9782 45.673 48.1525 45.4865C48.321 45.3062 48.5322 45.1988 48.8081 45.1816C49.026 45.1726 49.1748 45.2475 49.2901 45.387C49.4163 45.5398 49.5134 45.7853 49.57 46.1277C49.6829 46.8111 49.6178 47.7697 49.4507 48.804Z" stroke="url(#paint11_radial_4_3582)" stroke-width="0.5" stroke-linejoin="round"/>
</g>
</g>
<path d="M273.057 46.084C272.897 46.084 272.777 46.04 272.697 45.952C272.617 45.864 272.577 45.74 272.577 45.58V40.576C272.577 40.416 272.617 40.296 272.697 40.216C272.777 40.128 272.893 40.084 273.045 40.084C273.197 40.084 273.313 40.128 273.393 40.216C273.481 40.296 273.525 40.416 273.525 40.576V41.608L273.393 41.464C273.561 41 273.833 40.652 274.209 40.42C274.593 40.18 275.033 40.06 275.529 40.06C275.993 40.06 276.377 40.144 276.681 40.312C276.993 40.48 277.225 40.736 277.377 41.08C277.529 41.416 277.605 41.844 277.605 42.364V45.58C277.605 45.74 277.561 45.864 277.473 45.952C277.393 46.04 277.277 46.084 277.125 46.084C276.965 46.084 276.841 46.04 276.753 45.952C276.673 45.864 276.633 45.74 276.633 45.58V42.424C276.633 41.88 276.525 41.484 276.309 41.236C276.101 40.98 275.765 40.852 275.301 40.852C274.765 40.852 274.337 41.02 274.017 41.356C273.705 41.684 273.549 42.124 273.549 42.676V45.58C273.549 45.916 273.385 46.084 273.057 46.084ZM281.821 46.108C281.253 46.108 280.761 45.984 280.345 45.736C279.929 45.488 279.605 45.14 279.373 44.692C279.149 44.236 279.037 43.7 279.037 43.084C279.037 42.62 279.101 42.204 279.229 41.836C279.357 41.46 279.545 41.14 279.793 40.876C280.041 40.612 280.333 40.412 280.669 40.276C281.013 40.132 281.397 40.06 281.821 40.06C282.389 40.06 282.881 40.184 283.297 40.432C283.713 40.68 284.033 41.032 284.257 41.488C284.489 41.936 284.605 42.468 284.605 43.084C284.605 43.548 284.541 43.964 284.413 44.332C284.285 44.7 284.097 45.02 283.849 45.292C283.601 45.556 283.305 45.76 282.961 45.904C282.625 46.04 282.245 46.108 281.821 46.108ZM281.821 45.328C282.181 45.328 282.497 45.24 282.769 45.064C283.041 44.888 283.249 44.632 283.393 44.296C283.545 43.96 283.621 43.556 283.621 43.084C283.621 42.356 283.457 41.8 283.129 41.416C282.809 41.032 282.373 40.84 281.821 40.84C281.453 40.84 281.133 40.928 280.861 41.104C280.597 41.272 280.389 41.524 280.237 41.86C280.093 42.188 280.021 42.596 280.021 43.084C280.021 43.804 280.185 44.36 280.513 44.752C280.841 45.136 281.277 45.328 281.821 45.328ZM287.999 46.084C287.863 46.084 287.743 46.048 287.639 45.976C287.535 45.904 287.451 45.788 287.387 45.628L285.599 40.768C285.551 40.632 285.535 40.512 285.551 40.408C285.575 40.304 285.627 40.224 285.707 40.168C285.787 40.112 285.887 40.084 286.007 40.084C286.127 40.084 286.223 40.112 286.295 40.168C286.375 40.224 286.439 40.328 286.487 40.48L288.167 45.28H287.879L289.607 40.48C289.663 40.336 289.731 40.236 289.811 40.18C289.899 40.116 290.011 40.084 290.147 40.084C290.275 40.084 290.383 40.116 290.471 40.18C290.559 40.244 290.627 40.344 290.675 40.48L292.367 45.28H292.091L293.795 40.456C293.851 40.312 293.919 40.216 293.999 40.168C294.079 40.112 294.175 40.084 294.287 40.084C294.415 40.084 294.511 40.116 294.575 40.18C294.647 40.244 294.687 40.328 294.695 40.432C294.703 40.536 294.683 40.648 294.635 40.768L292.847 45.628C292.791 45.78 292.707 45.896 292.595 45.976C292.491 46.048 292.371 46.084 292.235 46.084C292.099 46.084 291.979 46.048 291.875 45.976C291.771 45.896 291.691 45.78 291.635 45.628L289.859 40.756H290.375L288.611 45.628C288.555 45.78 288.475 45.896 288.371 45.976C288.267 46.048 288.143 46.084 287.999 46.084Z" fill="#A6A3A0"/>
<path d="M106.525 48.136C106.219 48.136 105.97 48.0623 105.777 47.915C105.596 47.7677 105.448 47.5353 105.335 47.218L101.782 37.171C101.657 36.8083 101.68 36.5023 101.85 36.253C102.031 36.0037 102.332 35.879 102.751 35.879C103.057 35.879 103.295 35.9527 103.465 36.1C103.635 36.236 103.771 36.457 103.873 36.763L106.933 45.841H106.253L109.449 36.78C109.562 36.474 109.704 36.2473 109.874 36.1C110.044 35.9527 110.265 35.879 110.537 35.879C110.809 35.879 111.024 35.9527 111.183 36.1C111.342 36.2473 111.478 36.4797 111.591 36.797L114.685 45.841H114.09L117.201 36.763C117.303 36.4683 117.439 36.2473 117.609 36.1C117.779 35.9527 118.011 35.879 118.306 35.879C118.669 35.879 118.935 36.0037 119.105 36.253C119.275 36.5023 119.298 36.8083 119.173 37.171L115.586 47.235C115.473 47.541 115.325 47.7677 115.144 47.915C114.963 48.0623 114.719 48.136 114.413 48.136C114.107 48.136 113.863 48.0623 113.682 47.915C113.501 47.7677 113.353 47.5353 113.24 47.218L110.282 38.786H110.673L107.681 47.235C107.568 47.541 107.42 47.7677 107.239 47.915C107.069 48.0623 106.831 48.136 106.525 48.136ZM124.065 48.17C123.125 48.17 122.314 47.9943 121.634 47.643C120.954 47.2917 120.427 46.793 120.053 46.147C119.691 45.501 119.509 44.736 119.509 43.852C119.509 42.9907 119.685 42.237 120.036 41.591C120.399 40.945 120.892 40.4407 121.515 40.078C122.15 39.704 122.87 39.517 123.674 39.517C124.264 39.517 124.791 39.6133 125.255 39.806C125.731 39.9987 126.134 40.2763 126.462 40.639C126.802 41.0017 127.057 41.4437 127.227 41.965C127.409 42.475 127.499 43.053 127.499 43.699C127.499 43.903 127.426 44.0617 127.278 44.175C127.142 44.277 126.944 44.328 126.683 44.328H121.226V43.104H126.003L125.731 43.359C125.731 42.8377 125.652 42.4013 125.493 42.05C125.346 41.6987 125.125 41.4323 124.83 41.251C124.547 41.0583 124.19 40.962 123.759 40.962C123.283 40.962 122.875 41.0753 122.535 41.302C122.207 41.5173 121.952 41.829 121.77 42.237C121.6 42.6337 121.515 43.1097 121.515 43.665V43.784C121.515 44.7133 121.731 45.4103 122.161 45.875C122.603 46.3283 123.249 46.555 124.099 46.555C124.394 46.555 124.723 46.521 125.085 46.453C125.459 46.3737 125.811 46.2433 126.139 46.062C126.377 45.926 126.587 45.8693 126.768 45.892C126.95 45.9033 127.091 45.9657 127.193 46.079C127.307 46.1923 127.375 46.334 127.397 46.504C127.42 46.6627 127.386 46.827 127.295 46.997C127.216 47.167 127.074 47.3143 126.87 47.439C126.474 47.6883 126.015 47.8753 125.493 48C124.983 48.1133 124.507 48.17 124.065 48.17ZM131.919 48.17C131.318 48.17 130.78 48.0567 130.304 47.83C129.839 47.592 129.471 47.2747 129.199 46.878C128.938 46.4813 128.808 46.0337 128.808 45.535C128.808 44.923 128.967 44.4413 129.284 44.09C129.601 43.7273 130.117 43.4667 130.831 43.308C131.545 43.1493 132.503 43.07 133.704 43.07H134.554V44.294H133.721C133.018 44.294 132.457 44.328 132.038 44.396C131.619 44.464 131.318 44.583 131.137 44.753C130.967 44.9117 130.882 45.1383 130.882 45.433C130.882 45.807 131.012 46.113 131.273 46.351C131.534 46.589 131.896 46.708 132.361 46.708C132.735 46.708 133.064 46.623 133.347 46.453C133.642 46.2717 133.874 46.028 134.044 45.722C134.214 45.416 134.299 45.0647 134.299 44.668V42.713C134.299 42.1463 134.174 41.7383 133.925 41.489C133.676 41.2397 133.256 41.115 132.667 41.115C132.338 41.115 131.981 41.1547 131.596 41.234C131.222 41.3133 130.825 41.4493 130.406 41.642C130.191 41.744 129.998 41.7723 129.828 41.727C129.669 41.6817 129.545 41.591 129.454 41.455C129.363 41.3077 129.318 41.149 129.318 40.979C129.318 40.809 129.363 40.6447 129.454 40.486C129.545 40.316 129.698 40.1913 129.913 40.112C130.434 39.8967 130.933 39.7437 131.409 39.653C131.896 39.5623 132.338 39.517 132.735 39.517C133.551 39.517 134.22 39.6417 134.741 39.891C135.274 40.1403 135.67 40.52 135.931 41.03C136.192 41.5287 136.322 42.1747 136.322 42.968V47.048C136.322 47.3993 136.237 47.6713 136.067 47.864C135.897 48.0453 135.653 48.136 135.336 48.136C135.019 48.136 134.769 48.0453 134.588 47.864C134.418 47.6713 134.333 47.3993 134.333 47.048V46.232H134.469C134.39 46.6287 134.231 46.9743 133.993 47.269C133.766 47.5523 133.477 47.7733 133.126 47.932C132.775 48.0907 132.372 48.17 131.919 48.17ZM143.664 48.17C142.837 48.17 142.106 48.0623 141.471 47.847C140.848 47.6317 140.321 47.3143 139.89 46.895C139.459 46.4643 139.136 45.9317 138.921 45.297C138.706 44.6623 138.598 43.9257 138.598 43.087V36.984C138.598 36.61 138.689 36.3323 138.87 36.151C139.063 35.9697 139.335 35.879 139.686 35.879C140.037 35.879 140.304 35.9697 140.485 36.151C140.678 36.3323 140.774 36.61 140.774 36.984V43.07C140.774 44.1467 141.018 44.957 141.505 45.501C142.004 46.0337 142.723 46.3 143.664 46.3C144.605 46.3 145.319 46.0337 145.806 45.501C146.293 44.957 146.537 44.1467 146.537 43.07V36.984C146.537 36.61 146.628 36.3323 146.809 36.151C147.002 35.9697 147.274 35.879 147.625 35.879C147.965 35.879 148.226 35.9697 148.407 36.151C148.6 36.3323 148.696 36.61 148.696 36.984V43.087C148.696 44.1977 148.503 45.1327 148.118 45.892C147.744 46.6513 147.183 47.2237 146.435 47.609C145.687 47.983 144.763 48.17 143.664 48.17ZM152.084 51.196C151.744 51.196 151.483 51.1053 151.302 50.924C151.12 50.7427 151.03 50.4763 151.03 50.125V40.622C151.03 40.2707 151.12 40.0043 151.302 39.823C151.483 39.6417 151.738 39.551 152.067 39.551C152.407 39.551 152.667 39.6417 152.849 39.823C153.03 40.0043 153.121 40.2707 153.121 40.622V41.948L152.934 41.438C153.104 40.86 153.449 40.3953 153.971 40.044C154.503 39.6927 155.121 39.517 155.824 39.517C156.549 39.517 157.184 39.6927 157.728 40.044C158.283 40.3953 158.714 40.894 159.02 41.54C159.326 42.1747 159.479 42.9397 159.479 43.835C159.479 44.719 159.326 45.4897 159.02 46.147C158.714 46.793 158.289 47.2917 157.745 47.643C157.201 47.9943 156.56 48.17 155.824 48.17C155.132 48.17 154.526 48 154.005 47.66C153.483 47.3087 153.132 46.8553 152.951 46.3H153.155V50.125C153.155 50.4763 153.058 50.7427 152.866 50.924C152.684 51.1053 152.424 51.196 152.084 51.196ZM155.229 46.555C155.648 46.555 156.016 46.453 156.334 46.249C156.651 46.045 156.895 45.7447 157.065 45.348C157.246 44.94 157.337 44.4357 157.337 43.835C157.337 42.9283 157.144 42.254 156.759 41.812C156.373 41.3587 155.863 41.132 155.229 41.132C154.809 41.132 154.441 41.234 154.124 41.438C153.806 41.6307 153.557 41.931 153.376 42.339C153.206 42.7357 153.121 43.2343 153.121 43.835C153.121 44.7303 153.313 45.4103 153.699 45.875C154.084 46.3283 154.594 46.555 155.229 46.555Z" fill="black"/>
<path d="M102.536 67.084C102.376 67.084 102.252 67.04 102.164 66.952C102.084 66.856 102.044 66.728 102.044 66.568V58.972C102.044 58.804 102.084 58.676 102.164 58.588C102.252 58.5 102.376 58.456 102.536 58.456C102.696 58.456 102.816 58.5 102.896 58.588C102.984 58.676 103.028 58.804 103.028 58.972V62.284H108.104V58.972C108.104 58.804 108.144 58.676 108.224 58.588C108.312 58.5 108.436 58.456 108.596 58.456C108.756 58.456 108.876 58.5 108.956 58.588C109.044 58.676 109.088 58.804 109.088 58.972V66.568C109.088 66.728 109.044 66.856 108.956 66.952C108.876 67.04 108.756 67.084 108.596 67.084C108.436 67.084 108.312 67.04 108.224 66.952C108.144 66.856 108.104 66.728 108.104 66.568V63.136H103.028V66.568C103.028 66.728 102.988 66.856 102.908 66.952C102.828 67.04 102.704 67.084 102.536 67.084ZM113.669 67.108C113.053 67.108 112.521 66.988 112.073 66.748C111.633 66.5 111.289 66.152 111.041 65.704C110.801 65.256 110.681 64.72 110.681 64.096C110.681 63.488 110.801 62.96 111.041 62.512C111.281 62.056 111.609 61.7 112.025 61.444C112.449 61.188 112.937 61.06 113.489 61.06C113.881 61.06 114.233 61.128 114.545 61.264C114.857 61.392 115.121 61.58 115.337 61.828C115.561 62.076 115.729 62.376 115.841 62.728C115.961 63.08 116.021 63.476 116.021 63.916C116.021 64.044 115.985 64.14 115.913 64.204C115.841 64.26 115.737 64.288 115.601 64.288H111.425V63.652H115.373L115.181 63.808C115.181 63.376 115.117 63.012 114.989 62.716C114.861 62.412 114.673 62.18 114.425 62.02C114.185 61.86 113.881 61.78 113.513 61.78C113.105 61.78 112.757 61.876 112.469 62.068C112.189 62.252 111.977 62.512 111.833 62.848C111.689 63.176 111.617 63.56 111.617 64V64.072C111.617 64.808 111.793 65.368 112.145 65.752C112.505 66.136 113.013 66.328 113.669 66.328C113.941 66.328 114.209 66.292 114.473 66.22C114.745 66.148 115.009 66.028 115.265 65.86C115.377 65.788 115.477 65.756 115.565 65.764C115.661 65.764 115.737 65.792 115.793 65.848C115.849 65.896 115.885 65.96 115.901 66.04C115.925 66.112 115.917 66.192 115.877 66.28C115.845 66.368 115.777 66.444 115.673 66.508C115.409 66.7 115.097 66.848 114.737 66.952C114.377 67.056 114.021 67.108 113.669 67.108ZM118.653 69.244C118.533 69.244 118.437 69.212 118.365 69.148C118.293 69.084 118.249 68.996 118.233 68.884C118.225 68.78 118.245 68.672 118.293 68.56L119.121 66.7V67.12L116.817 61.768C116.769 61.648 116.753 61.536 116.769 61.432C116.785 61.328 116.833 61.244 116.913 61.18C116.993 61.116 117.105 61.084 117.249 61.084C117.377 61.084 117.477 61.112 117.549 61.168C117.621 61.224 117.685 61.324 117.741 61.468L119.709 66.292H119.385L121.377 61.468C121.441 61.324 121.509 61.224 121.581 61.168C121.653 61.112 121.757 61.084 121.893 61.084C122.021 61.084 122.117 61.116 122.181 61.18C122.253 61.244 122.293 61.328 122.301 61.432C122.317 61.528 122.301 61.636 122.253 61.756L119.181 68.86C119.117 69.004 119.045 69.104 118.965 69.16C118.893 69.216 118.789 69.244 118.653 69.244ZM123.511 68.14C123.431 68.244 123.347 68.304 123.259 68.32C123.171 68.336 123.095 68.32 123.031 68.272C122.967 68.224 122.931 68.156 122.923 68.068C122.923 67.98 122.963 67.884 123.043 67.78C123.171 67.612 123.259 67.44 123.307 67.264C123.355 67.096 123.379 66.94 123.379 66.796L123.427 67.048C123.219 67.048 123.051 66.988 122.923 66.868C122.803 66.74 122.743 66.58 122.743 66.388C122.743 66.196 122.799 66.04 122.911 65.92C123.031 65.792 123.187 65.728 123.379 65.728C123.587 65.728 123.751 65.8 123.871 65.944C123.991 66.08 124.051 66.28 124.051 66.544C124.051 66.712 124.035 66.884 124.003 67.06C123.971 67.244 123.915 67.428 123.835 67.612C123.755 67.796 123.647 67.972 123.511 68.14ZM129.24 67.084C129.08 67.084 128.96 67.04 128.88 66.952C128.8 66.864 128.76 66.74 128.76 66.58V58.948C128.76 58.788 128.8 58.668 128.88 58.588C128.96 58.5 129.08 58.456 129.24 58.456C129.392 58.456 129.512 58.5 129.6 58.588C129.688 58.668 129.732 58.788 129.732 58.948V62.464H129.576C129.744 62 130.016 61.652 130.392 61.42C130.776 61.18 131.216 61.06 131.712 61.06C132.176 61.06 132.56 61.144 132.864 61.312C133.176 61.48 133.408 61.736 133.56 62.08C133.712 62.416 133.788 62.844 133.788 63.364V66.58C133.788 66.74 133.744 66.864 133.656 66.952C133.576 67.04 133.46 67.084 133.308 67.084C133.148 67.084 133.024 67.04 132.936 66.952C132.856 66.864 132.816 66.74 132.816 66.58V63.424C132.816 62.88 132.708 62.484 132.492 62.236C132.284 61.98 131.948 61.852 131.484 61.852C130.948 61.852 130.52 62.02 130.2 62.356C129.888 62.684 129.732 63.124 129.732 63.676V66.58C129.732 66.916 129.568 67.084 129.24 67.084ZM138.208 67.108C137.592 67.108 137.06 66.988 136.612 66.748C136.172 66.5 135.828 66.152 135.58 65.704C135.34 65.256 135.22 64.72 135.22 64.096C135.22 63.488 135.34 62.96 135.58 62.512C135.82 62.056 136.148 61.7 136.564 61.444C136.988 61.188 137.476 61.06 138.028 61.06C138.42 61.06 138.772 61.128 139.084 61.264C139.396 61.392 139.66 61.58 139.876 61.828C140.1 62.076 140.268 62.376 140.38 62.728C140.5 63.08 140.56 63.476 140.56 63.916C140.56 64.044 140.524 64.14 140.452 64.204C140.38 64.26 140.276 64.288 140.14 64.288H135.964V63.652H139.912L139.72 63.808C139.72 63.376 139.656 63.012 139.528 62.716C139.4 62.412 139.212 62.18 138.964 62.02C138.724 61.86 138.42 61.78 138.052 61.78C137.644 61.78 137.296 61.876 137.008 62.068C136.728 62.252 136.516 62.512 136.372 62.848C136.228 63.176 136.156 63.56 136.156 64V64.072C136.156 64.808 136.332 65.368 136.684 65.752C137.044 66.136 137.552 66.328 138.208 66.328C138.48 66.328 138.748 66.292 139.012 66.22C139.284 66.148 139.548 66.028 139.804 65.86C139.916 65.788 140.016 65.756 140.104 65.764C140.2 65.764 140.276 65.792 140.332 65.848C140.388 65.896 140.424 65.96 140.44 66.04C140.464 66.112 140.456 66.192 140.416 66.28C140.384 66.368 140.316 66.444 140.212 66.508C139.948 66.7 139.636 66.848 139.276 66.952C138.916 67.056 138.56 67.108 138.208 67.108ZM143.803 67.108C143.403 67.108 143.043 67.032 142.723 66.88C142.411 66.72 142.163 66.504 141.979 66.232C141.795 65.96 141.703 65.656 141.703 65.32C141.703 64.888 141.811 64.548 142.027 64.3C142.251 64.052 142.615 63.876 143.119 63.772C143.631 63.668 144.327 63.616 145.207 63.616H145.747V64.252H145.219C144.571 64.252 144.059 64.284 143.683 64.348C143.315 64.404 143.055 64.504 142.903 64.648C142.759 64.792 142.687 64.996 142.687 65.26C142.687 65.588 142.799 65.856 143.023 66.064C143.255 66.272 143.567 66.376 143.959 66.376C144.279 66.376 144.559 66.3 144.799 66.148C145.047 65.996 145.239 65.788 145.375 65.524C145.519 65.26 145.591 64.956 145.591 64.612V63.244C145.591 62.748 145.491 62.392 145.291 62.176C145.091 61.952 144.763 61.84 144.307 61.84C144.027 61.84 143.747 61.876 143.467 61.948C143.187 62.02 142.891 62.136 142.579 62.296C142.467 62.352 142.371 62.372 142.291 62.356C142.211 62.332 142.147 62.288 142.099 62.224C142.051 62.16 142.023 62.088 142.015 62.008C142.007 61.92 142.023 61.836 142.063 61.756C142.111 61.676 142.183 61.612 142.279 61.564C142.631 61.388 142.979 61.26 143.323 61.18C143.667 61.1 143.995 61.06 144.307 61.06C144.811 61.06 145.227 61.144 145.555 61.312C145.883 61.472 146.127 61.72 146.287 62.056C146.447 62.384 146.527 62.808 146.527 63.328V66.58C146.527 66.74 146.487 66.864 146.407 66.952C146.335 67.04 146.227 67.084 146.083 67.084C145.931 67.084 145.815 67.04 145.735 66.952C145.655 66.864 145.615 66.74 145.615 66.58V65.644H145.723C145.659 65.948 145.535 66.208 145.351 66.424C145.175 66.64 144.955 66.808 144.691 66.928C144.427 67.048 144.131 67.108 143.803 67.108ZM150.55 67.108C150.03 67.108 149.574 66.984 149.182 66.736C148.798 66.488 148.498 66.14 148.282 65.692C148.074 65.236 147.97 64.7 147.97 64.084C147.97 63.46 148.074 62.924 148.282 62.476C148.498 62.02 148.798 61.672 149.182 61.432C149.574 61.184 150.03 61.06 150.55 61.06C151.078 61.06 151.53 61.192 151.906 61.456C152.282 61.72 152.534 62.076 152.662 62.524H152.53V58.948C152.53 58.788 152.57 58.668 152.65 58.588C152.738 58.5 152.862 58.456 153.022 58.456C153.174 58.456 153.29 58.5 153.37 58.588C153.458 58.668 153.502 58.788 153.502 58.948V66.58C153.502 66.74 153.462 66.864 153.382 66.952C153.302 67.04 153.182 67.084 153.022 67.084C152.87 67.084 152.75 67.04 152.662 66.952C152.582 66.864 152.542 66.74 152.542 66.58V65.44L152.674 65.608C152.546 66.064 152.29 66.428 151.906 66.7C151.53 66.972 151.078 67.108 150.55 67.108ZM150.754 66.328C151.114 66.328 151.43 66.24 151.702 66.064C151.974 65.888 152.182 65.632 152.326 65.296C152.478 64.96 152.554 64.556 152.554 64.084C152.554 63.356 152.39 62.8 152.062 62.416C151.742 62.032 151.306 61.84 150.754 61.84C150.386 61.84 150.066 61.928 149.794 62.104C149.53 62.272 149.322 62.524 149.17 62.86C149.026 63.188 148.954 63.596 148.954 64.084C148.954 64.804 149.118 65.36 149.446 65.752C149.774 66.136 150.21 66.328 150.754 66.328ZM157.294 67.108C156.934 67.108 156.57 67.064 156.202 66.976C155.842 66.888 155.506 66.736 155.194 66.52C155.114 66.464 155.058 66.4 155.026 66.328C154.994 66.248 154.982 66.172 154.99 66.1C155.006 66.02 155.038 65.952 155.086 65.896C155.142 65.84 155.206 65.808 155.278 65.8C155.358 65.784 155.446 65.8 155.542 65.848C155.854 66.04 156.154 66.176 156.442 66.256C156.738 66.328 157.03 66.364 157.318 66.364C157.774 66.364 158.118 66.28 158.35 66.112C158.582 65.944 158.698 65.716 158.698 65.428C158.698 65.204 158.622 65.028 158.47 64.9C158.318 64.764 158.078 64.66 157.75 64.588L156.658 64.348C156.154 64.244 155.778 64.064 155.53 63.808C155.29 63.552 155.17 63.22 155.17 62.812C155.17 62.452 155.262 62.144 155.446 61.888C155.638 61.624 155.906 61.42 156.25 61.276C156.594 61.132 156.994 61.06 157.45 61.06C157.802 61.06 158.134 61.108 158.446 61.204C158.766 61.292 159.054 61.436 159.31 61.636C159.39 61.692 159.442 61.76 159.466 61.84C159.498 61.912 159.502 61.988 159.478 62.068C159.462 62.14 159.426 62.204 159.37 62.26C159.314 62.308 159.246 62.336 159.166 62.344C159.086 62.352 159.002 62.328 158.914 62.272C158.674 62.112 158.43 61.996 158.182 61.924C157.934 61.844 157.69 61.804 157.45 61.804C157.002 61.804 156.662 61.892 156.43 62.068C156.198 62.244 156.082 62.476 156.082 62.764C156.082 62.988 156.154 63.172 156.298 63.316C156.442 63.46 156.666 63.564 156.97 63.628L158.062 63.856C158.582 63.968 158.97 64.148 159.226 64.396C159.49 64.636 159.622 64.964 159.622 65.38C159.622 65.908 159.41 66.328 158.986 66.64C158.562 66.952 157.998 67.108 157.294 67.108ZM166.261 67.108C165.789 67.108 165.397 67.024 165.085 66.856C164.781 66.68 164.549 66.42 164.389 66.076C164.237 65.732 164.161 65.304 164.161 64.792V61.576C164.161 61.408 164.201 61.284 164.281 61.204C164.369 61.124 164.489 61.084 164.641 61.084C164.801 61.084 164.921 61.124 165.001 61.204C165.089 61.284 165.133 61.408 165.133 61.576V64.78C165.133 65.292 165.237 65.676 165.445 65.932C165.661 66.18 165.997 66.304 166.453 66.304C166.949 66.304 167.353 66.136 167.665 65.8C167.977 65.464 168.133 65.024 168.133 64.48V61.576C168.133 61.408 168.173 61.284 168.253 61.204C168.341 61.124 168.465 61.084 168.625 61.084C168.777 61.084 168.893 61.124 168.973 61.204C169.061 61.284 169.105 61.408 169.105 61.576V66.58C169.105 66.916 168.949 67.084 168.637 67.084C168.485 67.084 168.365 67.04 168.277 66.952C168.197 66.864 168.157 66.74 168.157 66.58V65.488L168.313 65.656C168.153 66.128 167.889 66.488 167.521 66.736C167.161 66.984 166.741 67.108 166.261 67.108ZM171.404 69.244C171.244 69.244 171.124 69.2 171.044 69.112C170.964 69.032 170.924 68.912 170.924 68.752V61.576C170.924 61.416 170.964 61.296 171.044 61.216C171.124 61.128 171.24 61.084 171.392 61.084C171.552 61.084 171.672 61.128 171.752 61.216C171.84 61.296 171.884 61.416 171.884 61.576V62.716L171.752 62.548C171.88 62.092 172.132 61.732 172.508 61.468C172.892 61.196 173.348 61.06 173.876 61.06C174.396 61.06 174.848 61.184 175.232 61.432C175.624 61.672 175.924 62.02 176.132 62.476C176.348 62.924 176.456 63.46 176.456 64.084C176.456 64.7 176.348 65.236 176.132 65.692C175.924 66.14 175.628 66.488 175.244 66.736C174.86 66.984 174.404 67.108 173.876 67.108C173.348 67.108 172.896 66.976 172.52 66.712C172.144 66.44 171.888 66.08 171.752 65.632H171.896V68.752C171.896 68.912 171.852 69.032 171.764 69.112C171.676 69.2 171.556 69.244 171.404 69.244ZM173.672 66.328C174.04 66.328 174.356 66.24 174.62 66.064C174.892 65.888 175.1 65.632 175.244 65.296C175.396 64.96 175.472 64.556 175.472 64.084C175.472 63.356 175.308 62.8 174.98 62.416C174.66 62.032 174.224 61.84 173.672 61.84C173.312 61.84 172.996 61.928 172.724 62.104C172.452 62.272 172.24 62.524 172.088 62.86C171.944 63.188 171.872 63.596 171.872 64.084C171.872 64.804 172.036 65.36 172.364 65.752C172.692 66.136 173.128 66.328 173.672 66.328ZM178.388 64.852C178.292 64.852 178.212 64.82 178.148 64.756C178.092 64.692 178.06 64.596 178.052 64.468L177.812 59.092C177.804 58.9 177.848 58.748 177.944 58.636C178.048 58.516 178.196 58.456 178.388 58.456C178.572 58.456 178.712 58.516 178.808 58.636C178.904 58.748 178.948 58.9 178.94 59.092L178.7 64.468C178.7 64.596 178.672 64.692 178.616 64.756C178.56 64.82 178.484 64.852 178.388 64.852ZM178.388 67.048C178.188 67.048 178.028 66.988 177.908 66.868C177.788 66.74 177.728 66.58 177.728 66.388C177.728 66.196 177.788 66.04 177.908 65.92C178.028 65.792 178.188 65.728 178.388 65.728C178.588 65.728 178.744 65.792 178.856 65.92C178.976 66.04 179.036 66.196 179.036 66.388C179.036 66.58 178.976 66.74 178.856 66.868C178.744 66.988 178.588 67.048 178.388 67.048ZM186.444 67.084C186.292 67.084 186.172 67.04 186.084 66.952C185.996 66.856 185.952 66.728 185.952 66.568V59.392H183.252C183.108 59.392 182.996 59.352 182.916 59.272C182.836 59.192 182.796 59.088 182.796 58.96C182.796 58.824 182.836 58.72 182.916 58.648C182.996 58.576 183.108 58.54 183.252 58.54H189.648C189.792 58.54 189.904 58.576 189.984 58.648C190.064 58.72 190.104 58.824 190.104 58.96C190.104 59.096 190.064 59.204 189.984 59.284C189.904 59.356 189.792 59.392 189.648 59.392H186.948V66.568C186.948 66.728 186.904 66.856 186.816 66.952C186.736 67.04 186.612 67.084 186.444 67.084ZM191.747 67.06C191.587 67.06 191.467 67.016 191.387 66.928C191.307 66.832 191.267 66.7 191.267 66.532V61.624C191.267 61.456 191.307 61.328 191.387 61.24C191.467 61.152 191.587 61.108 191.747 61.108C191.899 61.108 192.019 61.152 192.107 61.24C192.195 61.328 192.239 61.456 192.239 61.624V66.532C192.239 66.7 192.195 66.832 192.107 66.928C192.027 67.016 191.907 67.06 191.747 67.06ZM191.747 59.764C191.547 59.764 191.391 59.712 191.279 59.608C191.167 59.496 191.111 59.348 191.111 59.164C191.111 58.972 191.167 58.828 191.279 58.732C191.391 58.628 191.547 58.576 191.747 58.576C191.955 58.576 192.111 58.628 192.215 58.732C192.327 58.828 192.383 58.972 192.383 59.164C192.383 59.348 192.327 59.496 192.215 59.608C192.111 59.712 191.955 59.764 191.747 59.764ZM194.561 67.084C194.401 67.084 194.281 67.04 194.201 66.952C194.121 66.864 194.081 66.74 194.081 66.58V61.576C194.081 61.416 194.121 61.296 194.201 61.216C194.281 61.128 194.397 61.084 194.549 61.084C194.701 61.084 194.817 61.128 194.897 61.216C194.985 61.296 195.029 61.416 195.029 61.576V62.632L194.897 62.464C195.049 62.016 195.293 61.672 195.629 61.432C195.973 61.184 196.381 61.06 196.853 61.06C197.349 61.06 197.749 61.18 198.053 61.42C198.365 61.652 198.573 62.016 198.677 62.512H198.497C198.641 62.064 198.897 61.712 199.265 61.456C199.641 61.192 200.077 61.06 200.573 61.06C201.013 61.06 201.373 61.144 201.653 61.312C201.941 61.48 202.157 61.736 202.301 62.08C202.445 62.416 202.517 62.844 202.517 63.364V66.58C202.517 66.74 202.473 66.864 202.385 66.952C202.305 67.04 202.185 67.084 202.025 67.084C201.873 67.084 201.753 67.04 201.665 66.952C201.585 66.864 201.545 66.74 201.545 66.58V63.412C201.545 62.876 201.453 62.484 201.269 62.236C201.085 61.98 200.773 61.852 200.333 61.852C199.853 61.852 199.473 62.02 199.193 62.356C198.921 62.684 198.785 63.132 198.785 63.7V66.58C198.785 66.74 198.741 66.864 198.653 66.952C198.573 67.04 198.453 67.084 198.293 67.084C198.141 67.084 198.021 67.04 197.933 66.952C197.853 66.864 197.813 66.74 197.813 66.58V63.412C197.813 62.876 197.717 62.484 197.525 62.236C197.341 61.98 197.033 61.852 196.601 61.852C196.121 61.852 195.741 62.02 195.461 62.356C195.189 62.684 195.053 63.132 195.053 63.7V66.58C195.053 66.916 194.889 67.084 194.561 67.084ZM206.962 67.108C206.346 67.108 205.814 66.988 205.366 66.748C204.926 66.5 204.582 66.152 204.334 65.704C204.094 65.256 203.974 64.72 203.974 64.096C203.974 63.488 204.094 62.96 204.334 62.512C204.574 62.056 204.902 61.7 205.318 61.444C205.742 61.188 206.23 61.06 206.782 61.06C207.174 61.06 207.526 61.128 207.838 61.264C208.15 61.392 208.414 61.58 208.63 61.828C208.854 62.076 209.022 62.376 209.134 62.728C209.254 63.08 209.314 63.476 209.314 63.916C209.314 64.044 209.278 64.14 209.206 64.204C209.134 64.26 209.03 64.288 208.894 64.288H204.718V63.652H208.666L208.474 63.808C208.474 63.376 208.41 63.012 208.282 62.716C208.154 62.412 207.966 62.18 207.718 62.02C207.478 61.86 207.174 61.78 206.806 61.78C206.398 61.78 206.05 61.876 205.762 62.068C205.482 62.252 205.27 62.512 205.126 62.848C204.982 63.176 204.91 63.56 204.91 64V64.072C204.91 64.808 205.086 65.368 205.438 65.752C205.798 66.136 206.306 66.328 206.962 66.328C207.234 66.328 207.502 66.292 207.766 66.22C208.038 66.148 208.302 66.028 208.558 65.86C208.67 65.788 208.77 65.756 208.858 65.764C208.954 65.764 209.03 65.792 209.086 65.848C209.142 65.896 209.178 65.96 209.194 66.04C209.218 66.112 209.21 66.192 209.17 66.28C209.138 66.368 209.07 66.444 208.966 66.508C208.702 66.7 208.39 66.848 208.03 66.952C207.67 67.056 207.314 67.108 206.962 67.108ZM216.154 67.108C215.698 67.108 215.314 67.028 215.002 66.868C214.698 66.7 214.47 66.46 214.318 66.148C214.166 65.828 214.09 65.44 214.09 64.984V61.924H213.286C213.15 61.924 213.046 61.892 212.974 61.828C212.902 61.756 212.866 61.66 212.866 61.54C212.866 61.42 212.902 61.328 212.974 61.264C213.046 61.2 213.15 61.168 213.286 61.168H214.09V59.788C214.09 59.628 214.134 59.508 214.222 59.428C214.31 59.34 214.43 59.296 214.582 59.296C214.734 59.296 214.85 59.34 214.93 59.428C215.018 59.508 215.062 59.628 215.062 59.788V61.168H216.574C216.71 61.168 216.814 61.2 216.886 61.264C216.958 61.328 216.994 61.42 216.994 61.54C216.994 61.66 216.958 61.756 216.886 61.828C216.814 61.892 216.71 61.924 216.574 61.924H215.062V64.888C215.062 65.344 215.158 65.692 215.35 65.932C215.542 66.164 215.854 66.28 216.286 66.28C216.438 66.28 216.566 66.264 216.67 66.232C216.782 66.2 216.874 66.184 216.946 66.184C217.018 66.176 217.078 66.2 217.126 66.256C217.174 66.312 217.198 66.408 217.198 66.544C217.198 66.64 217.178 66.728 217.138 66.808C217.106 66.888 217.046 66.944 216.958 66.976C216.862 67.008 216.734 67.036 216.574 67.06C216.422 67.092 216.282 67.108 216.154 67.108ZM220.375 67.108C219.807 67.108 219.315 66.984 218.899 66.736C218.483 66.488 218.159 66.14 217.927 65.692C217.703 65.236 217.591 64.7 217.591 64.084C217.591 63.62 217.655 63.204 217.783 62.836C217.911 62.46 218.099 62.14 218.347 61.876C218.595 61.612 218.887 61.412 219.223 61.276C219.567 61.132 219.951 61.06 220.375 61.06C220.943 61.06 221.435 61.184 221.851 61.432C222.267 61.68 222.587 62.032 222.811 62.488C223.043 62.936 223.159 63.468 223.159 64.084C223.159 64.548 223.095 64.964 222.967 65.332C222.839 65.7 222.651 66.02 222.403 66.292C222.155 66.556 221.859 66.76 221.515 66.904C221.179 67.04 220.799 67.108 220.375 67.108ZM220.375 66.328C220.735 66.328 221.051 66.24 221.323 66.064C221.595 65.888 221.803 65.632 221.947 65.296C222.099 64.96 222.175 64.556 222.175 64.084C222.175 63.356 222.011 62.8 221.683 62.416C221.363 62.032 220.927 61.84 220.375 61.84C220.007 61.84 219.687 61.928 219.415 62.104C219.151 62.272 218.943 62.524 218.791 62.86C218.647 63.188 218.575 63.596 218.575 64.084C218.575 64.804 218.739 65.36 219.067 65.752C219.395 66.136 219.831 66.328 220.375 66.328ZM229.681 67.108C229.321 67.108 228.957 67.064 228.589 66.976C228.229 66.888 227.893 66.736 227.581 66.52C227.501 66.464 227.445 66.4 227.413 66.328C227.381 66.248 227.369 66.172 227.377 66.1C227.393 66.02 227.425 65.952 227.473 65.896C227.529 65.84 227.593 65.808 227.665 65.8C227.745 65.784 227.833 65.8 227.929 65.848C228.241 66.04 228.541 66.176 228.829 66.256C229.125 66.328 229.417 66.364 229.705 66.364C230.161 66.364 230.505 66.28 230.737 66.112C230.969 65.944 231.085 65.716 231.085 65.428C231.085 65.204 231.009 65.028 230.857 64.9C230.705 64.764 230.465 64.66 230.137 64.588L229.045 64.348C228.541 64.244 228.165 64.064 227.917 63.808C227.677 63.552 227.557 63.22 227.557 62.812C227.557 62.452 227.649 62.144 227.833 61.888C228.025 61.624 228.293 61.42 228.637 61.276C228.981 61.132 229.381 61.06 229.837 61.06C230.189 61.06 230.521 61.108 230.833 61.204C231.153 61.292 231.441 61.436 231.697 61.636C231.777 61.692 231.829 61.76 231.853 61.84C231.885 61.912 231.889 61.988 231.865 62.068C231.849 62.14 231.813 62.204 231.757 62.26C231.701 62.308 231.633 62.336 231.553 62.344C231.473 62.352 231.389 62.328 231.301 62.272C231.061 62.112 230.817 61.996 230.569 61.924C230.321 61.844 230.077 61.804 229.837 61.804C229.389 61.804 229.049 61.892 228.817 62.068C228.585 62.244 228.469 62.476 228.469 62.764C228.469 62.988 228.541 63.172 228.685 63.316C228.829 63.46 229.053 63.564 229.357 63.628L230.449 63.856C230.969 63.968 231.357 64.148 231.613 64.396C231.877 64.636 232.009 64.964 232.009 65.38C232.009 65.908 231.797 66.328 231.373 66.64C230.949 66.952 230.385 67.108 229.681 67.108ZM233.97 67.06C233.81 67.06 233.69 67.016 233.61 66.928C233.53 66.832 233.49 66.7 233.49 66.532V61.624C233.49 61.456 233.53 61.328 233.61 61.24C233.69 61.152 233.81 61.108 233.97 61.108C234.122 61.108 234.242 61.152 234.33 61.24C234.418 61.328 234.462 61.456 234.462 61.624V66.532C234.462 66.7 234.418 66.832 234.33 66.928C234.25 67.016 234.13 67.06 233.97 67.06ZM233.97 59.764C233.77 59.764 233.614 59.712 233.502 59.608C233.39 59.496 233.334 59.348 233.334 59.164C233.334 58.972 233.39 58.828 233.502 58.732C233.614 58.628 233.77 58.576 233.97 58.576C234.178 58.576 234.334 58.628 234.438 58.732C234.55 58.828 234.606 58.972 234.606 59.164C234.606 59.348 234.55 59.496 234.438 59.608C234.334 59.712 234.178 59.764 233.97 59.764ZM238.619 67.108C238.163 67.108 237.779 67.028 237.467 66.868C237.163 66.7 236.935 66.46 236.783 66.148C236.631 65.828 236.555 65.44 236.555 64.984V61.924H235.751C235.615 61.924 235.511 61.892 235.439 61.828C235.367 61.756 235.331 61.66 235.331 61.54C235.331 61.42 235.367 61.328 235.439 61.264C235.511 61.2 235.615 61.168 235.751 61.168H236.555V59.788C236.555 59.628 236.599 59.508 236.687 59.428C236.775 59.34 236.895 59.296 237.047 59.296C237.199 59.296 237.315 59.34 237.395 59.428C237.483 59.508 237.527 59.628 237.527 59.788V61.168H239.039C239.175 61.168 239.279 61.2 239.351 61.264C239.423 61.328 239.459 61.42 239.459 61.54C239.459 61.66 239.423 61.756 239.351 61.828C239.279 61.892 239.175 61.924 239.039 61.924H237.527V64.888C237.527 65.344 237.623 65.692 237.815 65.932C238.007 66.164 238.319 66.28 238.751 66.28C238.903 66.28 239.031 66.264 239.135 66.232C239.247 66.2 239.339 66.184 239.411 66.184C239.483 66.176 239.543 66.2 239.591 66.256C239.639 66.312 239.663 66.408 239.663 66.544C239.663 66.64 239.643 66.728 239.603 66.808C239.571 66.888 239.511 66.944 239.423 66.976C239.327 67.008 239.199 67.036 239.039 67.06C238.887 67.092 238.747 67.108 238.619 67.108ZM245.632 67.108C245.16 67.108 244.768 67.024 244.456 66.856C244.152 66.68 243.92 66.42 243.76 66.076C243.608 65.732 243.532 65.304 243.532 64.792V61.576C243.532 61.408 243.572 61.284 243.652 61.204C243.74 61.124 243.86 61.084 244.012 61.084C244.172 61.084 244.292 61.124 244.372 61.204C244.46 61.284 244.504 61.408 244.504 61.576V64.78C244.504 65.292 244.608 65.676 244.816 65.932C245.032 66.18 245.368 66.304 245.824 66.304C246.32 66.304 246.724 66.136 247.036 65.8C247.348 65.464 247.504 65.024 247.504 64.48V61.576C247.504 61.408 247.544 61.284 247.624 61.204C247.712 61.124 247.836 61.084 247.996 61.084C248.148 61.084 248.264 61.124 248.344 61.204C248.432 61.284 248.476 61.408 248.476 61.576V66.58C248.476 66.916 248.32 67.084 248.008 67.084C247.856 67.084 247.736 67.04 247.648 66.952C247.568 66.864 247.528 66.74 247.528 66.58V65.488L247.684 65.656C247.524 66.128 247.26 66.488 246.892 66.736C246.532 66.984 246.112 67.108 245.632 67.108ZM250.775 69.244C250.615 69.244 250.495 69.2 250.415 69.112C250.335 69.032 250.295 68.912 250.295 68.752V61.576C250.295 61.416 250.335 61.296 250.415 61.216C250.495 61.128 250.611 61.084 250.763 61.084C250.923 61.084 251.043 61.128 251.123 61.216C251.211 61.296 251.255 61.416 251.255 61.576V62.716L251.123 62.548C251.251 62.092 251.503 61.732 251.879 61.468C252.263 61.196 252.719 61.06 253.247 61.06C253.767 61.06 254.219 61.184 254.603 61.432C254.995 61.672 255.295 62.02 255.503 62.476C255.719 62.924 255.827 63.46 255.827 64.084C255.827 64.7 255.719 65.236 255.503 65.692C255.295 66.14 254.999 66.488 254.615 66.736C254.231 66.984 253.775 67.108 253.247 67.108C252.719 67.108 252.267 66.976 251.891 66.712C251.515 66.44 251.259 66.08 251.123 65.632H251.267V68.752C251.267 68.912 251.223 69.032 251.135 69.112C251.047 69.2 250.927 69.244 250.775 69.244ZM253.043 66.328C253.411 66.328 253.727 66.24 253.991 66.064C254.263 65.888 254.471 65.632 254.615 65.296C254.767 64.96 254.843 64.556 254.843 64.084C254.843 63.356 254.679 62.8 254.351 62.416C254.031 62.032 253.595 61.84 253.043 61.84C252.683 61.84 252.367 61.928 252.095 62.104C251.823 62.272 251.611 62.524 251.459 62.86C251.315 63.188 251.243 63.596 251.243 64.084C251.243 64.804 251.407 65.36 251.735 65.752C252.063 66.136 252.499 66.328 253.043 66.328ZM103.88 85.108C103.52 85.108 103.156 85.064 102.788 84.976C102.428 84.888 102.092 84.736 101.78 84.52C101.7 84.464 101.644 84.4 101.612 84.328C101.58 84.248 101.568 84.172 101.576 84.1C101.592 84.02 101.624 83.952 101.672 83.896C101.728 83.84 101.792 83.808 101.864 83.8C101.944 83.784 102.032 83.8 102.128 83.848C102.44 84.04 102.74 84.176 103.028 84.256C103.324 84.328 103.616 84.364 103.904 84.364C104.36 84.364 104.704 84.28 104.936 84.112C105.168 83.944 105.284 83.716 105.284 83.428C105.284 83.204 105.208 83.028 105.056 82.9C104.904 82.764 104.664 82.66 104.336 82.588L103.244 82.348C102.74 82.244 102.364 82.064 102.116 81.808C101.876 81.552 101.756 81.22 101.756 80.812C101.756 80.452 101.848 80.144 102.032 79.888C102.224 79.624 102.492 79.42 102.836 79.276C103.18 79.132 103.58 79.06 104.036 79.06C104.388 79.06 104.72 79.108 105.032 79.204C105.352 79.292 105.64 79.436 105.896 79.636C105.976 79.692 106.028 79.76 106.052 79.84C106.084 79.912 106.088 79.988 106.064 80.068C106.048 80.14 106.012 80.204 105.956 80.26C105.9 80.308 105.832 80.336 105.752 80.344C105.672 80.352 105.588 80.328 105.5 80.272C105.26 80.112 105.016 79.996 104.768 79.924C104.52 79.844 104.276 79.804 104.036 79.804C103.588 79.804 103.248 79.892 103.016 80.068C102.784 80.244 102.668 80.476 102.668 80.764C102.668 80.988 102.74 81.172 102.884 81.316C103.028 81.46 103.252 81.564 103.556 81.628L104.648 81.856C105.168 81.968 105.556 82.148 105.812 82.396C106.076 82.636 106.208 82.964 106.208 83.38C106.208 83.908 105.996 84.328 105.572 84.64C105.148 84.952 104.584 85.108 103.88 85.108ZM109.971 85.108C109.515 85.108 109.131 85.028 108.819 84.868C108.515 84.7 108.287 84.46 108.135 84.148C107.983 83.828 107.907 83.44 107.907 82.984V79.924H107.103C106.967 79.924 106.863 79.892 106.791 79.828C106.719 79.756 106.683 79.66 106.683 79.54C106.683 79.42 106.719 79.328 106.791 79.264C106.863 79.2 106.967 79.168 107.103 79.168H107.907V77.788C107.907 77.628 107.951 77.508 108.039 77.428C108.127 77.34 108.247 77.296 108.399 77.296C108.551 77.296 108.667 77.34 108.747 77.428C108.835 77.508 108.879 77.628 108.879 77.788V79.168H110.391C110.527 79.168 110.631 79.2 110.703 79.264C110.775 79.328 110.811 79.42 110.811 79.54C110.811 79.66 110.775 79.756 110.703 79.828C110.631 79.892 110.527 79.924 110.391 79.924H108.879V82.888C108.879 83.344 108.975 83.692 109.167 83.932C109.359 84.164 109.671 84.28 110.103 84.28C110.255 84.28 110.383 84.264 110.487 84.232C110.599 84.2 110.691 84.184 110.763 84.184C110.835 84.176 110.895 84.2 110.943 84.256C110.991 84.312 111.015 84.408 111.015 84.544C111.015 84.64 110.995 84.728 110.955 84.808C110.923 84.888 110.863 84.944 110.775 84.976C110.679 85.008 110.551 85.036 110.391 85.06C110.239 85.092 110.099 85.108 109.971 85.108ZM112.318 85.084C112.158 85.084 112.034 85.04 111.946 84.952C111.866 84.864 111.826 84.74 111.826 84.58V79.576C111.826 79.416 111.866 79.296 111.946 79.216C112.026 79.128 112.142 79.084 112.294 79.084C112.446 79.084 112.562 79.128 112.642 79.216C112.73 79.296 112.774 79.416 112.774 79.576V80.548H112.654C112.782 80.076 113.026 79.712 113.386 79.456C113.746 79.2 114.19 79.064 114.718 79.048C114.838 79.04 114.934 79.068 115.006 79.132C115.078 79.188 115.118 79.288 115.126 79.432C115.134 79.568 115.102 79.676 115.03 79.756C114.958 79.836 114.846 79.884 114.694 79.9L114.502 79.924C113.958 79.972 113.538 80.148 113.242 80.452C112.954 80.748 112.81 81.156 112.81 81.676V84.58C112.81 84.74 112.766 84.864 112.678 84.952C112.598 85.04 112.478 85.084 112.318 85.084ZM117.904 85.108C117.504 85.108 117.144 85.032 116.824 84.88C116.512 84.72 116.264 84.504 116.08 84.232C115.896 83.96 115.804 83.656 115.804 83.32C115.804 82.888 115.912 82.548 116.128 82.3C116.352 82.052 116.716 81.876 117.22 81.772C117.732 81.668 118.428 81.616 119.308 81.616H119.848V82.252H119.32C118.672 82.252 118.16 82.284 117.784 82.348C117.416 82.404 117.156 82.504 117.004 82.648C116.86 82.792 116.788 82.996 116.788 83.26C116.788 83.588 116.9 83.856 117.124 84.064C117.356 84.272 117.668 84.376 118.06 84.376C118.38 84.376 118.66 84.3 118.9 84.148C119.148 83.996 119.34 83.788 119.476 83.524C119.62 83.26 119.692 82.956 119.692 82.612V81.244C119.692 80.748 119.592 80.392 119.392 80.176C119.192 79.952 118.864 79.84 118.408 79.84C118.128 79.84 117.848 79.876 117.568 79.948C117.288 80.02 116.992 80.136 116.68 80.296C116.568 80.352 116.472 80.372 116.392 80.356C116.312 80.332 116.248 80.288 116.2 80.224C116.152 80.16 116.124 80.088 116.116 80.008C116.108 79.92 116.124 79.836 116.164 79.756C116.212 79.676 116.284 79.612 116.38 79.564C116.732 79.388 117.08 79.26 117.424 79.18C117.768 79.1 118.096 79.06 118.408 79.06C118.912 79.06 119.328 79.144 119.656 79.312C119.984 79.472 120.228 79.72 120.388 80.056C120.548 80.384 120.628 80.808 120.628 81.328V84.58C120.628 84.74 120.588 84.864 120.508 84.952C120.436 85.04 120.328 85.084 120.184 85.084C120.032 85.084 119.916 85.04 119.836 84.952C119.756 84.864 119.716 84.74 119.716 84.58V83.644H119.824C119.76 83.948 119.636 84.208 119.452 84.424C119.276 84.64 119.056 84.808 118.792 84.928C118.528 85.048 118.232 85.108 117.904 85.108ZM122.912 85.06C122.752 85.06 122.632 85.016 122.552 84.928C122.472 84.832 122.432 84.7 122.432 84.532V79.624C122.432 79.456 122.472 79.328 122.552 79.24C122.632 79.152 122.752 79.108 122.912 79.108C123.064 79.108 123.184 79.152 123.272 79.24C123.36 79.328 123.404 79.456 123.404 79.624V84.532C123.404 84.7 123.36 84.832 123.272 84.928C123.192 85.016 123.072 85.06 122.912 85.06ZM122.912 77.764C122.712 77.764 122.556 77.712 122.444 77.608C122.332 77.496 122.276 77.348 122.276 77.164C122.276 76.972 122.332 76.828 122.444 76.732C122.556 76.628 122.712 76.576 122.912 76.576C123.12 76.576 123.276 76.628 123.38 76.732C123.492 76.828 123.548 76.972 123.548 77.164C123.548 77.348 123.492 77.496 123.38 77.608C123.276 77.712 123.12 77.764 122.912 77.764ZM127.801 87.268C127.377 87.268 126.961 87.216 126.553 87.112C126.153 87.016 125.789 86.86 125.461 86.644C125.365 86.588 125.301 86.52 125.269 86.44C125.245 86.36 125.241 86.28 125.257 86.2C125.273 86.128 125.309 86.06 125.365 85.996C125.421 85.94 125.485 85.904 125.557 85.888C125.637 85.872 125.717 85.884 125.797 85.924C126.149 86.14 126.485 86.288 126.805 86.368C127.125 86.448 127.441 86.488 127.753 86.488C128.321 86.488 128.749 86.336 129.037 86.032C129.333 85.728 129.481 85.288 129.481 84.712V83.356H129.601C129.481 83.82 129.225 84.188 128.833 84.46C128.449 84.732 127.997 84.868 127.477 84.868C126.941 84.868 126.477 84.748 126.085 84.508C125.693 84.26 125.389 83.916 125.173 83.476C124.965 83.036 124.861 82.528 124.861 81.952C124.861 81.52 124.921 81.128 125.041 80.776C125.161 80.416 125.333 80.112 125.557 79.864C125.789 79.608 126.065 79.412 126.385 79.276C126.713 79.132 127.077 79.06 127.477 79.06C128.005 79.06 128.461 79.196 128.845 79.468C129.229 79.732 129.477 80.092 129.589 80.548L129.469 80.692V79.576C129.469 79.416 129.509 79.296 129.589 79.216C129.677 79.128 129.797 79.084 129.949 79.084C130.109 79.084 130.229 79.128 130.309 79.216C130.389 79.296 130.429 79.416 130.429 79.576V84.58C130.429 85.468 130.205 86.136 129.757 86.584C129.317 87.04 128.665 87.268 127.801 87.268ZM127.657 84.076C128.033 84.076 128.357 83.992 128.629 83.824C128.901 83.648 129.109 83.4 129.253 83.08C129.405 82.76 129.481 82.384 129.481 81.952C129.481 81.304 129.317 80.792 128.989 80.416C128.661 80.032 128.217 79.84 127.657 79.84C127.289 79.84 126.969 79.928 126.697 80.104C126.425 80.272 126.213 80.516 126.061 80.836C125.917 81.148 125.845 81.52 125.845 81.952C125.845 82.6 126.009 83.116 126.337 83.5C126.665 83.884 127.105 84.076 127.657 84.076ZM132.732 85.084C132.572 85.084 132.452 85.04 132.372 84.952C132.292 84.864 132.252 84.74 132.252 84.58V76.948C132.252 76.788 132.292 76.668 132.372 76.588C132.452 76.5 132.572 76.456 132.732 76.456C132.884 76.456 133.004 76.5 133.092 76.588C133.18 76.668 133.224 76.788 133.224 76.948V80.464H133.068C133.236 80 133.508 79.652 133.884 79.42C134.268 79.18 134.708 79.06 135.204 79.06C135.668 79.06 136.052 79.144 136.356 79.312C136.668 79.48 136.9 79.736 137.052 80.08C137.204 80.416 137.28 80.844 137.28 81.364V84.58C137.28 84.74 137.236 84.864 137.148 84.952C137.068 85.04 136.952 85.084 136.8 85.084C136.64 85.084 136.516 85.04 136.428 84.952C136.348 84.864 136.308 84.74 136.308 84.58V81.424C136.308 80.88 136.2 80.484 135.984 80.236C135.776 79.98 135.44 79.852 134.976 79.852C134.44 79.852 134.012 80.02 133.692 80.356C133.38 80.684 133.224 81.124 133.224 81.676V84.58C133.224 84.916 133.06 85.084 132.732 85.084ZM141.412 85.108C140.956 85.108 140.572 85.028 140.26 84.868C139.956 84.7 139.728 84.46 139.576 84.148C139.424 83.828 139.348 83.44 139.348 82.984V79.924H138.544C138.408 79.924 138.304 79.892 138.232 79.828C138.16 79.756 138.124 79.66 138.124 79.54C138.124 79.42 138.16 79.328 138.232 79.264C138.304 79.2 138.408 79.168 138.544 79.168H139.348V77.788C139.348 77.628 139.392 77.508 139.48 77.428C139.568 77.34 139.688 77.296 139.84 77.296C139.992 77.296 140.108 77.34 140.188 77.428C140.276 77.508 140.32 77.628 140.32 77.788V79.168H141.832C141.968 79.168 142.072 79.2 142.144 79.264C142.216 79.328 142.252 79.42 142.252 79.54C142.252 79.66 142.216 79.756 142.144 79.828C142.072 79.892 141.968 79.924 141.832 79.924H140.32V82.888C140.32 83.344 140.416 83.692 140.608 83.932C140.8 84.164 141.112 84.28 141.544 84.28C141.696 84.28 141.824 84.264 141.928 84.232C142.04 84.2 142.132 84.184 142.204 84.184C142.276 84.176 142.336 84.2 142.384 84.256C142.432 84.312 142.456 84.408 142.456 84.544C142.456 84.64 142.436 84.728 142.396 84.808C142.364 84.888 142.304 84.944 142.216 84.976C142.12 85.008 141.992 85.036 141.832 85.06C141.68 85.092 141.54 85.108 141.412 85.108ZM148.197 85.108C147.797 85.108 147.437 85.032 147.117 84.88C146.805 84.72 146.557 84.504 146.373 84.232C146.189 83.96 146.097 83.656 146.097 83.32C146.097 82.888 146.205 82.548 146.421 82.3C146.645 82.052 147.009 81.876 147.513 81.772C148.025 81.668 148.721 81.616 149.601 81.616H150.141V82.252H149.613C148.965 82.252 148.453 82.284 148.077 82.348C147.709 82.404 147.449 82.504 147.297 82.648C147.153 82.792 147.081 82.996 147.081 83.26C147.081 83.588 147.193 83.856 147.417 84.064C147.649 84.272 147.961 84.376 148.353 84.376C148.673 84.376 148.953 84.3 149.193 84.148C149.441 83.996 149.633 83.788 149.769 83.524C149.913 83.26 149.985 82.956 149.985 82.612V81.244C149.985 80.748 149.885 80.392 149.685 80.176C149.485 79.952 149.157 79.84 148.701 79.84C148.421 79.84 148.141 79.876 147.861 79.948C147.581 80.02 147.285 80.136 146.973 80.296C146.861 80.352 146.765 80.372 146.685 80.356C146.605 80.332 146.541 80.288 146.493 80.224C146.445 80.16 146.417 80.088 146.409 80.008C146.401 79.92 146.417 79.836 146.457 79.756C146.505 79.676 146.577 79.612 146.673 79.564C147.025 79.388 147.373 79.26 147.717 79.18C148.061 79.1 148.389 79.06 148.701 79.06C149.205 79.06 149.621 79.144 149.949 79.312C150.277 79.472 150.521 79.72 150.681 80.056C150.841 80.384 150.921 80.808 150.921 81.328V84.58C150.921 84.74 150.881 84.864 150.801 84.952C150.729 85.04 150.621 85.084 150.477 85.084C150.325 85.084 150.209 85.04 150.129 84.952C150.049 84.864 150.009 84.74 150.009 84.58V83.644H150.117C150.053 83.948 149.929 84.208 149.745 84.424C149.569 84.64 149.349 84.808 149.085 84.928C148.821 85.048 148.525 85.108 148.197 85.108ZM153.205 85.084C153.045 85.084 152.925 85.04 152.845 84.952C152.765 84.864 152.725 84.74 152.725 84.58V79.576C152.725 79.416 152.765 79.296 152.845 79.216C152.925 79.128 153.041 79.084 153.193 79.084C153.345 79.084 153.461 79.128 153.541 79.216C153.629 79.296 153.673 79.416 153.673 79.576V80.608L153.541 80.464C153.709 80 153.981 79.652 154.357 79.42C154.741 79.18 155.181 79.06 155.677 79.06C156.141 79.06 156.525 79.144 156.829 79.312C157.141 79.48 157.373 79.736 157.525 80.08C157.677 80.416 157.753 80.844 157.753 81.364V84.58C157.753 84.74 157.709 84.864 157.621 84.952C157.541 85.04 157.425 85.084 157.273 85.084C157.113 85.084 156.989 85.04 156.901 84.952C156.821 84.864 156.781 84.74 156.781 84.58V81.424C156.781 80.88 156.673 80.484 156.457 80.236C156.249 79.98 155.913 79.852 155.449 79.852C154.913 79.852 154.485 80.02 154.165 80.356C153.853 80.684 153.697 81.124 153.697 81.676V84.58C153.697 84.916 153.533 85.084 153.205 85.084ZM161.765 85.108C161.245 85.108 160.789 84.984 160.397 84.736C160.013 84.488 159.713 84.14 159.497 83.692C159.289 83.236 159.185 82.7 159.185 82.084C159.185 81.46 159.289 80.924 159.497 80.476C159.713 80.02 160.013 79.672 160.397 79.432C160.789 79.184 161.245 79.06 161.765 79.06C162.293 79.06 162.745 79.192 163.121 79.456C163.497 79.72 163.749 80.076 163.877 80.524H163.745V76.948C163.745 76.788 163.785 76.668 163.865 76.588C163.953 76.5 164.077 76.456 164.237 76.456C164.389 76.456 164.505 76.5 164.585 76.588C164.673 76.668 164.717 76.788 164.717 76.948V84.58C164.717 84.74 164.677 84.864 164.597 84.952C164.517 85.04 164.397 85.084 164.237 85.084C164.085 85.084 163.965 85.04 163.877 84.952C163.797 84.864 163.757 84.74 163.757 84.58V83.44L163.889 83.608C163.761 84.064 163.505 84.428 163.121 84.7C162.745 84.972 162.293 85.108 161.765 85.108ZM161.969 84.328C162.329 84.328 162.645 84.24 162.917 84.064C163.189 83.888 163.397 83.632 163.541 83.296C163.693 82.96 163.769 82.556 163.769 82.084C163.769 81.356 163.605 80.8 163.277 80.416C162.957 80.032 162.521 79.84 161.969 79.84C161.601 79.84 161.281 79.928 161.009 80.104C160.745 80.272 160.537 80.524 160.385 80.86C160.241 81.188 160.169 81.596 160.169 82.084C160.169 82.804 160.333 83.36 160.661 83.752C160.989 84.136 161.425 84.328 161.969 84.328ZM171.603 85.108C171.243 85.108 170.879 85.064 170.511 84.976C170.151 84.888 169.815 84.736 169.503 84.52C169.423 84.464 169.367 84.4 169.335 84.328C169.303 84.248 169.291 84.172 169.299 84.1C169.315 84.02 169.347 83.952 169.395 83.896C169.451 83.84 169.515 83.808 169.587 83.8C169.667 83.784 169.755 83.8 169.851 83.848C170.163 84.04 170.463 84.176 170.751 84.256C171.047 84.328 171.339 84.364 171.627 84.364C172.083 84.364 172.427 84.28 172.659 84.112C172.891 83.944 173.007 83.716 173.007 83.428C173.007 83.204 172.931 83.028 172.779 82.9C172.627 82.764 172.387 82.66 172.059 82.588L170.967 82.348C170.463 82.244 170.087 82.064 169.839 81.808C169.599 81.552 169.479 81.22 169.479 80.812C169.479 80.452 169.571 80.144 169.755 79.888C169.947 79.624 170.215 79.42 170.559 79.276C170.903 79.132 171.303 79.06 171.759 79.06C172.111 79.06 172.443 79.108 172.755 79.204C173.075 79.292 173.363 79.436 173.619 79.636C173.699 79.692 173.751 79.76 173.775 79.84C173.807 79.912 173.811 79.988 173.787 80.068C173.771 80.14 173.735 80.204 173.679 80.26C173.623 80.308 173.555 80.336 173.475 80.344C173.395 80.352 173.311 80.328 173.223 80.272C172.983 80.112 172.739 79.996 172.491 79.924C172.243 79.844 171.999 79.804 171.759 79.804C171.311 79.804 170.971 79.892 170.739 80.068C170.507 80.244 170.391 80.476 170.391 80.764C170.391 80.988 170.463 81.172 170.607 81.316C170.751 81.46 170.975 81.564 171.279 81.628L172.371 81.856C172.891 81.968 173.279 82.148 173.535 82.396C173.799 82.636 173.931 82.964 173.931 83.38C173.931 83.908 173.719 84.328 173.295 84.64C172.871 84.952 172.307 85.108 171.603 85.108ZM175.892 85.084C175.732 85.084 175.612 85.04 175.532 84.952C175.452 84.864 175.412 84.74 175.412 84.58V76.948C175.412 76.788 175.452 76.668 175.532 76.588C175.612 76.5 175.732 76.456 175.892 76.456C176.044 76.456 176.164 76.5 176.252 76.588C176.34 76.668 176.384 76.788 176.384 76.948V80.464H176.228C176.396 80 176.668 79.652 177.044 79.42C177.428 79.18 177.868 79.06 178.364 79.06C178.828 79.06 179.212 79.144 179.516 79.312C179.828 79.48 180.06 79.736 180.212 80.08C180.364 80.416 180.44 80.844 180.44 81.364V84.58C180.44 84.74 180.396 84.864 180.308 84.952C180.228 85.04 180.112 85.084 179.96 85.084C179.8 85.084 179.676 85.04 179.588 84.952C179.508 84.864 179.468 84.74 179.468 84.58V81.424C179.468 80.88 179.36 80.484 179.144 80.236C178.936 79.98 178.6 79.852 178.136 79.852C177.6 79.852 177.172 80.02 176.852 80.356C176.54 80.684 176.384 81.124 176.384 81.676V84.58C176.384 84.916 176.22 85.084 175.892 85.084ZM182.712 85.06C182.552 85.06 182.432 85.016 182.352 84.928C182.272 84.832 182.232 84.7 182.232 84.532V79.624C182.232 79.456 182.272 79.328 182.352 79.24C182.432 79.152 182.552 79.108 182.712 79.108C182.864 79.108 182.984 79.152 183.072 79.24C183.16 79.328 183.204 79.456 183.204 79.624V84.532C183.204 84.7 183.16 84.832 183.072 84.928C182.992 85.016 182.872 85.06 182.712 85.06ZM182.712 77.764C182.512 77.764 182.356 77.712 182.244 77.608C182.132 77.496 182.076 77.348 182.076 77.164C182.076 76.972 182.132 76.828 182.244 76.732C182.356 76.628 182.512 76.576 182.712 76.576C182.92 76.576 183.076 76.628 183.18 76.732C183.292 76.828 183.348 76.972 183.348 77.164C183.348 77.348 183.292 77.496 183.18 77.608C183.076 77.712 182.92 77.764 182.712 77.764ZM185.501 85.084C185.341 85.084 185.221 85.04 185.141 84.952C185.061 84.864 185.021 84.74 185.021 84.58V79.576C185.021 79.416 185.061 79.296 185.141 79.216C185.221 79.128 185.337 79.084 185.489 79.084C185.641 79.084 185.757 79.128 185.837 79.216C185.925 79.296 185.969 79.416 185.969 79.576V80.608L185.837 80.464C186.005 80 186.277 79.652 186.653 79.42C187.037 79.18 187.477 79.06 187.973 79.06C188.437 79.06 188.821 79.144 189.125 79.312C189.437 79.48 189.669 79.736 189.821 80.08C189.973 80.416 190.049 80.844 190.049 81.364V84.58C190.049 84.74 190.005 84.864 189.917 84.952C189.837 85.04 189.721 85.084 189.569 85.084C189.409 85.084 189.285 85.04 189.197 84.952C189.117 84.864 189.077 84.74 189.077 84.58V81.424C189.077 80.88 188.969 80.484 188.753 80.236C188.545 79.98 188.209 79.852 187.745 79.852C187.209 79.852 186.781 80.02 186.461 80.356C186.149 80.684 185.993 81.124 185.993 81.676V84.58C185.993 84.916 185.829 85.084 185.501 85.084ZM194.47 85.108C193.854 85.108 193.322 84.988 192.874 84.748C192.434 84.5 192.09 84.152 191.842 83.704C191.602 83.256 191.482 82.72 191.482 82.096C191.482 81.488 191.602 80.96 191.842 80.512C192.082 80.056 192.41 79.7 192.826 79.444C193.25 79.188 193.738 79.06 194.29 79.06C194.682 79.06 195.034 79.128 195.346 79.264C195.658 79.392 195.922 79.58 196.138 79.828C196.362 80.076 196.53 80.376 196.642 80.728C196.762 81.08 196.822 81.476 196.822 81.916C196.822 82.044 196.786 82.14 196.714 82.204C196.642 82.26 196.538 82.288 196.402 82.288H192.226V81.652H196.174L195.982 81.808C195.982 81.376 195.918 81.012 195.79 80.716C195.662 80.412 195.474 80.18 195.226 80.02C194.986 79.86 194.682 79.78 194.314 79.78C193.906 79.78 193.558 79.876 193.27 80.068C192.99 80.252 192.778 80.512 192.634 80.848C192.49 81.176 192.418 81.56 192.418 82V82.072C192.418 82.808 192.594 83.368 192.946 83.752C193.306 84.136 193.814 84.328 194.47 84.328C194.742 84.328 195.01 84.292 195.274 84.22C195.546 84.148 195.81 84.028 196.066 83.86C196.178 83.788 196.278 83.756 196.366 83.764C196.462 83.764 196.538 83.792 196.594 83.848C196.65 83.896 196.686 83.96 196.702 84.04C196.726 84.112 196.718 84.192 196.678 84.28C196.646 84.368 196.578 84.444 196.474 84.508C196.21 84.7 195.898 84.848 195.538 84.952C195.178 85.056 194.822 85.108 194.47 85.108ZM198.696 82.852C198.6 82.852 198.52 82.82 198.456 82.756C198.4 82.692 198.368 82.596 198.36 82.468L198.12 77.092C198.112 76.9 198.156 76.748 198.252 76.636C198.356 76.516 198.504 76.456 198.696 76.456C198.88 76.456 199.02 76.516 199.116 76.636C199.212 76.748 199.256 76.9 199.248 77.092L199.008 82.468C199.008 82.596 198.98 82.692 198.924 82.756C198.868 82.82 198.792 82.852 198.696 82.852ZM198.696 85.048C198.496 85.048 198.336 84.988 198.216 84.868C198.096 84.74 198.036 84.58 198.036 84.388C198.036 84.196 198.096 84.04 198.216 83.92C198.336 83.792 198.496 83.728 198.696 83.728C198.896 83.728 199.052 83.792 199.164 83.92C199.284 84.04 199.344 84.196 199.344 84.388C199.344 84.58 199.284 84.74 199.164 84.868C199.052 84.988 198.896 85.048 198.696 85.048Z" fill="#7F7C76"/>
<defs>
<filter id="filter0_d_4_3582" x="0" y="0" width="332" height="128" filterUnits="userSpaceOnUse" color-interpolation-filters="sRGB">
<feFlood flood-opacity="0" result="BackgroundImageFix"/>
<feColorMatrix in="SourceAlpha" type="matrix" values="0 0 0 0 0 0 0 0 0 0 0 0 0 0 0 0 0 0 127 0" result="hardAlpha"/>
<feOffset dx="2" dy="4"/>
<feGaussianBlur stdDeviation="10"/>
<feComposite in2="hardAlpha" operator="out"/>
<feColorMatrix type="matrix" values="0 0 0 0 0.329412 0 0 0 0 0.372549 0 0 0 0 0.443137 0 0 0 0.05 0"/>
<feBlend mode="normal" in2="BackgroundImageFix" result="effect1_dropShadow_4_3582"/>
<feBlend mode="normal" in="SourceGraphic" in2="effect1_dropShadow_4_3582" result="shape"/>
</filter>
<filter id="filter1_di_4_3582" x="71.5105" y="46.293" width="14.509" height="14.7539" filterUnits="userSpaceOnUse" color-interpolation-filters="sRGB">
<feFlood flood-opacity="0" result="BackgroundImageFix"/>
<feColorMatrix in="SourceAlpha" type="matrix" values="0 0 0 0 0 0 0 0 0 0 0 0 0 0 0 0 0 0 127 0" result="hardAlpha"/>
<feOffset dx="0.25" dy="0.375"/>
<feComposite in2="hardAlpha" operator="out"/>
<feColorMatrix type="matrix" values="0 0 0 0 0.94902 0 0 0 0 0.619608 0 0 0 0 0.223529 0 0 0 0.41 0"/>
<feBlend mode="normal" in2="BackgroundImageFix" result="effect1_dropShadow_4_3582"/>
<feBlend mode="normal" in="SourceGraphic" in2="effect1_dropShadow_4_3582" result="shape"/>
<feColorMatrix in="SourceAlpha" type="matrix" values="0 0 0 0 0 0 0 0 0 0 0 0 0 0 0 0 0 0 127 0" result="hardAlpha"/>
<feOffset dx="-0.5" dy="-0.625"/>
<feGaussianBlur stdDeviation="0.3875"/>
<feComposite in2="hardAlpha" operator="arithmetic" k2="-1" k3="1"/>
<feColorMatrix type="matrix" values="0 0 0 0 1 0 0 0 0 1 0 0 0 0 1 0 0 0 0.25 0"/>
<feBlend mode="normal" in2="shape" result="effect2_innerShadow_4_3582"/>
</filter>
<filter id="filter2_di_4_3582" x="58.1956" y="45.7344" width="13.7393" height="14.5835" filterUnits="userSpaceOnUse" color-interpolation-filters="sRGB">
<feFlood flood-opacity="0" result="BackgroundImageFix"/>
<feColorMatrix in="SourceAlpha" type="matrix" values="0 0 0 0 0 0 0 0 0 0 0 0 0 0 0 0 0 0 127 0" result="hardAlpha"/>
<feOffset dx="0.25" dy="0.375"/>
<feComposite in2="hardAlpha" operator="out"/>
<feColorMatrix type="matrix" values="0 0 0 0 0.94902 0 0 0 0 0.619608 0 0 0 0 0.223529 0 0 0 0.41 0"/>
<feBlend mode="normal" in2="BackgroundImageFix" result="effect1_dropShadow_4_3582"/>
<feBlend mode="normal" in="SourceGraphic" in2="effect1_dropShadow_4_3582" result="shape"/>
<feColorMatrix in="SourceAlpha" type="matrix" values="0 0 0 0 0 0 0 0 0 0 0 0 0 0 0 0 0 0 127 0" result="hardAlpha"/>
<feOffset dx="-0.5" dy="-0.625"/>
<feGaussianBlur stdDeviation="0.3875"/>
<feComposite in2="hardAlpha" operator="arithmetic" k2="-1" k3="1"/>
<feColorMatrix type="matrix" values="0 0 0 0 1 0 0 0 0 1 0 0 0 0 1 0 0 0 0.25 0"/>
<feBlend mode="normal" in2="shape" result="effect2_innerShadow_4_3582"/>
</filter>
<filter id="filter3_di_4_3582" x="65.4417" y="61.7515" width="15.3855" height="19.9756" filterUnits="userSpaceOnUse" color-interpolation-filters="sRGB">
<feFlood flood-opacity="0" result="BackgroundImageFix"/>
<feColorMatrix in="SourceAlpha" type="matrix" values="0 0 0 0 0 0 0 0 0 0 0 0 0 0 0 0 0 0 127 0" result="hardAlpha"/>
<feOffset dx="0.25" dy="0.375"/>
<feComposite in2="hardAlpha" operator="out"/>
<feColorMatrix type="matrix" values="0 0 0 0 0.94902 0 0 0 0 0.619608 0 0 0 0 0.223529 0 0 0 0.41 0"/>
<feBlend mode="normal" in2="BackgroundImageFix" result="effect1_dropShadow_4_3582"/>
<feBlend mode="normal" in="SourceGraphic" in2="effect1_dropShadow_4_3582" result="shape"/>
<feColorMatrix in="SourceAlpha" type="matrix" values="0 0 0 0 0 0 0 0 0 0 0 0 0 0 0 0 0 0 127 0" result="hardAlpha"/>
<feOffset dx="-0.5" dy="-0.625"/>
<feGaussianBlur stdDeviation="0.3875"/>
<feComposite in2="hardAlpha" operator="arithmetic" k2="-1" k3="1"/>
<feColorMatrix type="matrix" values="0 0 0 0 1 0 0 0 0 1 0 0 0 0 1 0 0 0 0.25 0"/>
<feBlend mode="normal" in2="shape" result="effect2_innerShadow_4_3582"/>
</filter>
<filter id="filter4_di_4_3582" x="45.7559" y="61.1821" width="21.9478" height="19.9497" filterUnits="userSpaceOnUse" color-interpolation-filters="sRGB">
<feFlood flood-opacity="0" result="BackgroundImageFix"/>
<feColorMatrix in="SourceAlpha" type="matrix" values="0 0 0 0 0 0 0 0 0 0 0 0 0 0 0 0 0 0 127 0" result="hardAlpha"/>
<feOffset dx="0.25" dy="0.375"/>
<feComposite in2="hardAlpha" operator="out"/>
<feColorMatrix type="matrix" values="0 0 0 0 0.94902 0 0 0 0 0.619608 0 0 0 0 0.223529 0 0 0 0.41 0"/>
<feBlend mode="normal" in2="BackgroundImageFix" result="effect1_dropShadow_4_3582"/>
<feBlend mode="normal" in="SourceGraphic" in2="effect1_dropShadow_4_3582" result="shape"/>
<feColorMatrix in="SourceAlpha" type="matrix" values="0 0 0 0 0 0 0 0 0 0 0 0 0 0 0 0 0 0 127 0" result="hardAlpha"/>
<feOffset dx="-0.5" dy="-0.625"/>
<feGaussianBlur stdDeviation="0.3875"/>
<feComposite in2="hardAlpha" operator="arithmetic" k2="-1" k3="1"/>
<feColorMatrix type="matrix" values="0 0 0 0 1 0 0 0 0 1 0 0 0 0 1 0 0 0 0.25 0"/>
<feBlend mode="normal" in2="shape" result="effect2_innerShadow_4_3582"/>
</filter>
<filter id="filter5_di_4_3582" x="37.9597" y="38.9355" width="20.7632" height="23.8516" filterUnits="userSpaceOnUse" color-interpolation-filters="sRGB">
<feFlood flood-opacity="0" result="BackgroundImageFix"/>
<feColorMatrix in="SourceAlpha" type="matrix" values="0 0 0 0 0 0 0 0 0 0 0 0 0 0 0 0 0 0 127 0" result="hardAlpha"/>
<feOffset dx="0.25" dy="0.375"/>
<feComposite in2="hardAlpha" operator="out"/>
<feColorMatrix type="matrix" values="0 0 0 0 0.94902 0 0 0 0 0.619608 0 0 0 0 0.223529 0 0 0 0.41 0"/>
<feBlend mode="normal" in2="BackgroundImageFix" result="effect1_dropShadow_4_3582"/>
<feBlend mode="normal" in="SourceGraphic" in2="effect1_dropShadow_4_3582" result="shape"/>
<feColorMatrix in="SourceAlpha" type="matrix" values="0 0 0 0 0 0 0 0 0 0 0 0 0 0 0 0 0 0 127 0" result="hardAlpha"/>
<feOffset dx="-0.5" dy="-0.625"/>
<feGaussianBlur stdDeviation="0.3875"/>
<feComposite in2="hardAlpha" operator="arithmetic" k2="-1" k3="1"/>
<feColorMatrix type="matrix" values="0 0 0 0 1 0 0 0 0 1 0 0 0 0 1 0 0 0 0.25 0"/>
<feBlend mode="normal" in2="shape" result="effect2_innerShadow_4_3582"/>
</filter>
<linearGradient id="paint0_linear_4_3582" x1="37.5" y1="32.25" x2="86.4375" y2="90.3125" gradientUnits="userSpaceOnUse">
<stop stop-color="#FDF7D3"/>
<stop offset="1" stop-color="#FCE5A8"/>
</linearGradient>
<linearGradient id="paint1_linear_4_3582" x1="86.5" y1="85.875" x2="24.0625" y2="19.875" gradientUnits="userSpaceOnUse">
<stop stop-color="#FEF0C7"/>
<stop offset="1" stop-color="white"/>
</linearGradient>
<radialGradient id="paint2_radial_4_3582" cx="0" cy="0" r="1" gradientUnits="userSpaceOnUse" gradientTransform="translate(80.5241 54.5732) rotate(146.596) scale(8.81304 10.5328)">
<stop offset="1" stop-color="#F19428"/>
</radialGradient>
<radialGradient id="paint3_radial_4_3582" cx="0" cy="0" r="1" gradientUnits="userSpaceOnUse" gradientTransform="translate(78.6798 53.7164) rotate(94.2005) scale(6.27257 6.16363)">
<stop offset="1" stop-color="#F19428"/>
</radialGradient>
<radialGradient id="paint4_radial_4_3582" cx="0" cy="0" r="1" gradientUnits="userSpaceOnUse" gradientTransform="translate(66.959 53.974) rotate(145.633) scale(8.64049 10.4141)">
<stop offset="1" stop-color="#F19428"/>
</radialGradient>
<radialGradient id="paint5_radial_4_3582" cx="0" cy="0" r="1" gradientUnits="userSpaceOnUse" gradientTransform="translate(65.1762 53.1202) rotate(94.2005) scale(6.28406 5.96391)">
<stop offset="1" stop-color="#F19428"/>
</radialGradient>
<radialGradient id="paint6_radial_4_3582" cx="0" cy="0" r="1" gradientUnits="userSpaceOnUse" gradientTransform="translate(76.5955 71.7841) rotate(119.492) scale(9.84368 12.544)">
<stop offset="1" stop-color="#F19428"/>
</radialGradient>
<radialGradient id="paint7_radial_4_3582" cx="0" cy="0" r="1" gradientUnits="userSpaceOnUse" gradientTransform="translate(74.5122 71.2809) rotate(74.9475) scale(8.43703 6.09559)">
<stop offset="1" stop-color="#F19428"/>
</radialGradient>
<radialGradient id="paint8_radial_4_3582" cx="0" cy="0" r="1" gradientUnits="userSpaceOnUse" gradientTransform="translate(59.7003 70.9782) rotate(129.994) scale(12.7294 15.412)">
<stop offset="1" stop-color="#F19428"/>
</radialGradient>
<radialGradient id="paint9_radial_4_3582" cx="0" cy="0" r="1" gradientUnits="userSpaceOnUse" gradientTransform="translate(56.669 70.6513) rotate(74.9475) scale(8.87172 9.21027)">
<stop offset="1" stop-color="#F19428"/>
</radialGradient>
<radialGradient id="paint10_radial_4_3582" cx="0" cy="0" r="1" gradientUnits="userSpaceOnUse" gradientTransform="translate(51.5641 51.7693) rotate(133.136) scale(14.0097 16.8338)">
<stop offset="1" stop-color="#F19428"/>
</radialGradient>
<radialGradient id="paint11_radial_4_3582" cx="0" cy="0" r="1" gradientUnits="userSpaceOnUse" gradientTransform="translate(48.3332 51.172) rotate(79.5939) scale(9.87469 9.94716)">
<stop offset="1" stop-color="#F19428"/>
</radialGradient>
</defs>
</svg>
