<svg width="30" height="76" viewBox="0 0 30 76" fill="none" xmlns="http://www.w3.org/2000/svg">
<path d="M16.7974 0.408993L23.8609 50.859L11.0431 53.0105L1.21288 3.02479L16.7974 0.408993ZM21.214 74.3485C18.9026 74.7365 16.7809 74.2524 14.8489 72.8963C12.913 71.5168 11.7627 69.6694 11.3981 67.3541C10.9907 65.07 11.4787 62.9716 12.8621 61.059C14.2454 59.1465 16.0928 57.9962 18.4043 57.6082C20.6223 57.2359 22.709 57.7259 24.6643 59.0781C26.6197 60.4303 27.801 62.2484 28.2084 64.5326C28.4437 66.0774 28.2722 67.5586 27.6939 68.9759C27.1351 70.366 26.2899 71.5521 25.1585 72.5342C24.0231 73.4929 22.7083 74.0977 21.214 74.3485Z" fill="#C43939"/>
</svg>
