<svg width="19" height="39" viewBox="0 0 19 39" fill="none" xmlns="http://www.w3.org/2000/svg">
<path d="M11.5531 27.2935C10.9165 27.4625 10.3605 27.3949 9.88522 27.0906C9.44344 26.7775 9.09122 26.2612 8.82856 25.5418L2.22506 6.74275C1.7955 5.52968 1.80121 4.47009 2.24219 3.56398C2.67427 2.62436 3.51019 1.99003 4.74993 1.66099C5.95617 1.34084 6.96312 1.48605 7.77077 2.09663C8.60305 2.66481 9.13344 3.58211 9.36197 4.84853L12.9499 24.448C13.112 25.194 13.0622 25.817 12.8003 26.3169C12.5719 26.8079 12.1562 27.1335 11.5531 27.2935ZM14.3277 37.7476C13.1885 38.05 12.1737 37.9427 11.2833 37.4258C10.4264 36.9 9.85123 36.0843 9.55776 34.9786C9.27318 33.9064 9.37703 32.9463 9.8693 32.0983C10.3862 31.2079 11.2142 30.6115 12.3535 30.3091C13.5262 29.9979 14.5242 30.1096 15.3476 30.6443C16.1956 31.1365 16.7619 31.9188 17.0465 32.991C17.34 34.0967 17.245 35.0903 16.7616 35.9718C16.3117 36.8444 15.5004 37.4363 14.3277 37.7476Z" fill="#C79512"/>
</svg>
