<svg width="285" height="285" viewBox="0 0 285 285" fill="none" xmlns="http://www.w3.org/2000/svg">
<g clip-path="url(#clip0_1497_2814)">
<path d="M105.22 63.4897C126.188 63.4897 134.117 74.6326 134.117 74.6326L104.515 108.78C104.515 108.78 97.4669 94.8779 97.4669 82.592C97.4669 81.8845 95 81.5308 95 77.8165C95 73.3947 97.9955 73.0518 97.9955 73.0518C97.9955 73.0518 97.1077 71.4533 96.9383 69.3267C96.5859 64.9048 102.048 63.4897 105.22 63.4897Z" fill="#A47251"/>
<path d="M122.312 80.6463C106.982 93.381 103.458 108.061 103.458 108.061C103.458 108.061 97.9955 107.531 97.8193 112.129C97.6635 116.197 102.401 116.197 102.401 116.197C102.401 116.197 97.4669 117.966 98.5242 123.095C99.3382 127.045 104.163 126.102 104.163 126.102C104.163 126.102 101.872 128.844 102.401 130.701C103.458 134.415 106.982 132.823 106.982 132.823C106.982 132.823 114.895 163.798 108.744 181.993C92.1809 230.986 96.4097 256.633 96.4097 256.633L207.771 259.993C207.771 259.993 211.119 233.639 197.199 165.721C195.495 157.408 192.089 136.361 199.313 126.102C200.666 124.181 203.314 123.626 203.366 120.442C203.419 117.259 199.313 116.374 199.313 116.374C199.313 116.374 203.366 114.782 203.366 112.306C203.366 108.589 198.785 108.592 198.785 108.592C198.785 108.592 203.903 106.646 203.366 103.816C202.661 100.102 197.199 101.517 197.199 101.517C197.199 101.517 203.366 94.0884 199.313 73.3946C198.874 71.1498 202.661 71.9796 202.133 68.2653C201.722 65.3776 197.199 65.7891 197.199 65.7891C197.199 65.7891 200.723 63.136 199.313 58.8912C198.304 55.8523 194.556 54.9998 191.032 55C177.676 55.0006 160.548 70.5646 160.548 70.5646C160.548 70.5646 137.642 67.9116 122.312 80.6463Z" fill="#B27F5D"/>
<path d="M179.756 71.9779C175.173 70.9182 170.902 74.277 172.884 76.9302C174.998 79.7603 183.809 84.3596 190.328 94.7942C191.913 97.3315 191.353 74.6594 179.756 71.9779Z" fill="#D8A482"/>
<path d="M131.29 113.681C133.145 113.428 134.338 110.919 133.953 108.077C133.569 105.236 131.754 103.137 129.899 103.389C128.044 103.642 126.852 106.15 127.236 108.992C127.62 111.834 129.435 113.933 131.29 113.681Z" fill="black"/>
<path d="M163.007 110.851C164.862 110.598 166.054 108.089 165.67 105.248C165.286 102.406 163.471 100.307 161.616 100.559C159.761 100.812 158.569 103.32 158.953 106.162C159.337 109.004 161.152 111.103 163.007 110.851Z" fill="black"/>
<path d="M114.761 138.985C114.029 133.739 118.319 124.301 127.819 127.579C137.941 131.072 145.773 126.748 148.765 126.609C149.997 126.552 160.155 132.633 169.63 123.872C173.259 120.517 179.683 119.182 183.631 123.872C189.974 131.408 184.061 142.464 185.922 157.408C186.803 164.483 189.478 170.789 190.855 176.864C205.237 240.293 201.78 258.755 201.78 258.755L112.268 256.102C112.268 256.102 109.385 239.995 118.918 202.534C130.199 179.348 116.602 152.18 114.761 138.985Z" fill="white"/>
<path d="M147.333 126.504C143.623 128.614 142.128 127.596 142.988 129.452C144.172 132.006 146.34 134.971 149.504 134.758C152.667 134.544 155.699 129.475 154.442 129.058C148.517 127.093 148.715 125.718 147.333 126.504Z" fill="#FFA3A3" stroke="#FF7474" stroke-width="2" stroke-linecap="round" stroke-linejoin="round"/>
<path d="M155.273 117.725C155.042 115.919 139.381 117.005 139.476 119.145C139.676 123.678 146.948 126.921 148.19 126.799C149.433 126.676 155.819 121.991 155.273 117.725Z" fill="#3C210C"/>
<path fill-rule="evenodd" clip-rule="evenodd" d="M168.804 124.464C169.122 124.956 168.981 125.613 168.491 125.931C163.504 129.173 154.986 131.679 147.853 127.051C139.913 132.484 131.267 130.683 127.18 128.677C126.656 128.419 126.439 127.783 126.695 127.257C126.952 126.73 127.585 126.512 128.109 126.77C131.851 128.607 139.947 130.251 147.216 124.904L147.833 124.45L148.456 124.896C154.681 129.361 162.533 127.276 167.342 124.15C167.832 123.831 168.487 123.972 168.804 124.464Z" fill="#3C210C"/>
<path fill-rule="evenodd" clip-rule="evenodd" d="M117.367 143.552C112.98 144.448 110.148 148.744 111.04 153.147L111.682 156.312C110.729 156.674 110.15 157.686 110.36 158.72L112.327 168.426C112.537 169.46 113.463 170.164 114.481 170.124L121.086 202.717C121.979 207.12 126.258 209.963 130.645 209.068L135.65 208.046C147.79 232.909 172.256 244.844 179.75 246.488C180.655 246.687 181.68 246.965 182.794 247.267C191.27 249.567 204.82 253.242 208.638 233.577C213.624 207.891 197.902 167.441 197.902 167.441L188.036 143.259C176.407 152.81 170.768 179.34 170.768 179.34C170.768 179.34 171.023 170.393 155.134 161.774L154.169 157.011C154.059 156.467 153.75 156.014 153.333 155.712L152.851 153.335C153.118 152.895 153.226 152.356 153.115 151.812L152.413 148.345C152.303 147.801 151.993 147.347 151.577 147.046L151.153 144.956C150.261 140.553 145.981 137.709 141.595 138.605L117.367 143.552Z" fill="#AB6C40" fill-opacity="0.18"/>
<path d="M137.894 136.659L113.667 141.606C109.28 142.502 106.448 146.798 107.34 151.201L117.386 200.771C118.278 205.174 122.558 208.017 126.945 207.122L151.172 202.174C155.559 201.279 158.391 196.983 157.499 192.58L147.453 143.01C146.56 138.607 142.281 135.763 137.894 136.659Z" fill="#C92C45"/>
<path d="M109.001 154.13L108.31 154.271C107.166 154.505 106.427 155.625 106.66 156.774L108.627 166.48C108.86 167.629 109.976 168.37 111.12 168.137L111.811 167.996C112.955 167.762 113.694 166.641 113.462 165.493L111.495 155.787C111.262 154.638 110.145 153.896 109.001 154.13Z" fill="#C92C45"/>
<path d="M146.982 144.569L146.291 144.71C145.147 144.944 144.408 146.064 144.641 147.213L145.343 150.68C145.576 151.828 146.692 152.57 147.837 152.336L148.527 152.195C149.672 151.962 150.411 150.841 150.178 149.692L149.475 146.226C149.243 145.077 148.126 144.335 146.982 144.569Z" fill="#C92C45"/>
<path d="M148.738 153.236L148.047 153.377C146.903 153.61 146.164 154.731 146.397 155.88L148.013 163.852C148.245 165.001 149.362 165.743 150.506 165.509L151.197 165.368C152.341 165.134 153.08 164.014 152.847 162.865L151.232 154.892C150.999 153.744 149.882 153.002 148.738 153.236Z" fill="#C92C45"/>
<path d="M123.622 144.647L113.607 146.692C111.891 147.042 110.782 148.723 111.132 150.446L113.169 160.499C113.518 162.222 115.193 163.335 116.909 162.984L126.924 160.939C128.64 160.588 129.749 158.908 129.4 157.185L127.362 147.132C127.013 145.409 125.339 144.296 123.622 144.647Z" fill="#B61C35"/>
<path d="M129.532 169.612C125.254 172.185 129.523 177.399 129.532 177.571C131.861 223.218 173.542 241.579 183.631 243.19C191.384 244.428 208.299 250.972 211.291 228.864C214.745 203.341 197.018 164.483 197.018 164.483L186.979 142.728C174.821 166.429 176.935 180.047 176.935 180.047C176.935 180.047 170.767 168.739 154.204 161.122C153.992 161.024 151.034 155.109 146.448 158.292C144.428 159.694 145.214 164.483 145.214 164.483C145.214 164.483 142.399 160.415 137.994 162.361C133.652 164.278 135.523 170.143 135.523 170.143C135.523 170.143 133.06 167.49 129.532 169.612Z" fill="#B27F5D"/>
<path fill-rule="evenodd" clip-rule="evenodd" d="M176.567 179.775C176.815 179.473 177.259 179.43 177.56 179.678C179.157 180.999 181.456 184.099 183.616 187.661C185.791 191.247 187.889 195.409 189.057 198.926C189.18 199.297 188.981 199.697 188.611 199.821C188.242 199.944 187.843 199.744 187.72 199.373C186.597 195.993 184.555 191.93 182.412 188.397C180.255 184.84 178.061 181.926 176.663 180.771C176.363 180.522 176.32 180.076 176.567 179.775Z" fill="#3C210C"/>
</g>
<defs>
<clipPath id="clip0_1497_2814">
<rect width="117" height="208" fill="white" transform="translate(95 55)"/>
</clipPath>
</defs>
</svg>
