<svg width="352" height="148" viewBox="0 0 352 148" fill="none" xmlns="http://www.w3.org/2000/svg">
<path d="M19.8224 34.679C19.8224 34.679 20.9462 49.1117 39.0311 53.1665L41.3591 58.5913C41.3591 58.5913 31.6791 57.3278 25.7867 53.9562C19.8944 50.5858 18 44.8978 18 44.8978L19.8224 34.679Z" fill="#F24C83"/>
<path d="M48.6091 80.4752C48.6091 80.4752 50.7718 81.1059 53.4658 80.4752C55.6285 79.9692 57.6623 76.9877 60.8886 76.3838C63.1898 75.953 65.6304 76.2033 68.3727 76.7276C65.815 74.9828 62.8903 72.59 62.8903 72.59C62.8903 72.59 58.785 72.127 56.4334 72.7856C52.4623 73.8998 47.1055 77.9707 43.6624 76.1217C43.6624 76.1217 47.1903 80.3667 48.6091 80.4752Z" fill="#F24C83"/>
<path d="M39.0311 53.1665C39.0311 53.1665 45.1897 58.1432 44.7013 66.456C44.213 74.7699 46.0043 78.6819 48.6091 80.4751C48.6091 80.4751 40.5262 78.5186 39.0311 71.6724C37.536 64.8261 41.9913 61.72 39.0311 53.1665Z" fill="#FF83A6"/>
<path d="M62.8906 72.5889C62.8906 72.5889 76.8541 76.9306 79.4955 88.1691L72.1574 92.1734C72.1574 92.1734 70.2062 77.6677 62.8906 72.5889Z" fill="#FF83A6"/>
<path d="M317.145 111.062C317.145 111.062 307.956 111.757 299.273 105.594C290.59 99.4305 287.7 101.529 287.7 101.529C287.7 101.529 294.436 94.4563 302.196 97.2646C309.957 100.072 319.33 112.053 323.69 107.652L317.145 111.062Z" fill="#3B53FF"/>
<path d="M276.937 118.514L277.955 120.472C280.34 125.559 286.589 125.045 286.589 125.045L289.718 123.419C286.136 122.881 283.728 119.199 282.242 117.156C281.5 116.135 277.721 116.945 276.937 118.515L276.937 118.514Z" fill="#3B53FF"/>
<path d="M345.225 61.6222C345.225 61.6222 339.455 67.6263 337.835 87.0256C336.341 104.92 323.885 112.16 317.146 111.063C317.146 111.063 329.688 104.735 328.763 83.132C328.508 77.1968 332.686 66.5034 334.962 63.2304C338.478 61.1901 343.45 60.76 345.225 61.6237L345.225 61.6222Z" fill="#5F7AFF"/>
<path d="M295.315 97.0308C295.315 97.0308 290.928 98.1547 287.7 101.529C284.472 104.903 286.111 112.399 287.798 117.163C289.978 122.883 286.59 125.044 286.59 125.044C286.59 125.044 291.988 122.998 292.982 120.956C296.926 112.844 290.707 107.586 291.616 103.431C292.411 99.7898 293.817 98.4103 295.315 97.0299L295.315 97.0308Z" fill="#5F7AFF"/>
<path d="M282.242 117.154C280.085 115.459 277.694 119.625 277.694 119.625C276.003 123.808 279.195 128.725 279.195 128.725C278.197 129.815 275.136 129.666 273.984 129.478C272.951 128.338 272.187 126.272 272.49 123.48C272.257 120.906 276.006 118.163 276.006 118.163C276.006 118.163 280.2 115.183 282.242 117.153L282.242 117.154Z" fill="#5F7AFF"/>
<path d="M6.97316 69.2456L0 72.7665C0 72.7665 4.51211 84.6099 11.6484 84.3466L17.6867 81.9227C17.6867 81.9227 8.33624 76.9385 6.97316 69.2456Z" fill="#6CDCFF"/>
<path d="M165.912 49.358C168.544 49.358 170.677 47.2222 170.677 44.5876C170.677 41.9529 168.544 39.8171 165.912 39.8171C163.28 39.8171 161.146 41.9529 161.146 44.5876C161.146 47.2222 163.28 49.358 165.912 49.358Z" fill="#FF83A6"/>
<path d="M249.765 56.5409C252.397 56.5409 254.531 54.4051 254.531 51.7704C254.531 49.1358 252.397 47 249.765 47C247.134 47 245 49.1358 245 51.7704C245 54.4051 247.134 56.5409 249.765 56.5409Z" fill="#FF83A6"/>
<path d="M324.973 0.245605L318 3.76649C318 3.76649 322.512 15.6099 329.648 15.3466L335.687 12.9227C335.687 12.9227 326.336 7.93847 324.973 0.245605Z" fill="#97A6EF"/>
<path d="M23.2102 128.082L17.3672 138.235L33.2283 133.465L23.2102 128.082Z" fill="#FEC343"/>
<path d="M81.834 24.2767L67.3135 22L76.0275 34.9296L81.834 24.2767Z" fill="#5F7AFF"/>
<path d="M98.366 124.64L108.407 124.738C108.407 124.738 112.709 136.661 108.407 141.679H95.4971C95.4971 141.679 103.387 135.608 98.366 124.64Z" fill="#F24C83"/>
<path d="M303.714 40L310.687 43.5209C310.687 43.5209 306.175 55.3642 299.038 55.101L293 52.6771C293 52.6771 302.351 47.6929 303.714 40Z" fill="#E15858"/>
</svg>
