<svg width="340" height="340" viewBox="0 0 150 150" fill="none" xmlns="http://www.w3.org/2000/svg">
<path d="M70.1243 1.73587C72.9626 -0.578623 77.0373 -0.578623 79.8754 1.73587L85.9952 6.72633C87.9214 8.29653 90.4857 8.84323 92.884 8.19495L100.487 6.14029C104.018 5.18613 107.733 6.84202 109.384 10.1052L112.977 17.2086C114.095 19.4191 116.207 20.9582 118.654 21.3457L126.468 22.5834C130.068 23.1537 132.778 26.1661 132.965 29.8061L133.376 37.8199C133.502 40.2839 134.801 42.5388 136.868 43.8861L143.553 48.243C146.597 50.2273 147.844 54.0673 146.545 57.4611L143.669 64.9759C142.789 67.2748 143.06 69.8556 144.396 71.9222L148.763 78.6683C150.735 81.7173 150.314 85.7288 147.751 88.3018L142.096 93.9778C140.357 95.7233 139.556 98.1937 139.942 100.627L141.2 108.571C141.769 112.164 139.749 115.667 136.353 116.975L128.939 119.829C126.632 120.717 124.89 122.657 124.255 125.046L122.202 132.773C121.265 136.303 117.981 138.691 114.334 138.496L106.459 138.074C103.98 137.942 101.59 139.009 100.034 140.943L95.068 147.119C92.7737 149.972 88.7901 150.82 85.5323 149.148L78.5231 145.55C76.3114 144.415 73.6884 144.415 71.4769 145.55L64.4672 149.148C61.2101 150.82 57.2262 149.972 54.9321 147.119L49.9654 140.943C48.4103 139.009 46.0196 137.942 43.5412 138.074L35.6655 138.496C32.0188 138.691 28.7349 136.303 27.7975 132.773L25.7446 125.046C25.1098 122.657 23.3682 120.717 21.0608 119.829L13.6473 116.975C10.251 115.667 8.23074 112.164 8.7999 108.571L10.0579 100.627C10.4432 98.1937 9.64277 95.7233 7.90389 93.9778L2.24904 88.3018C-0.314077 85.7288 -0.73531 81.7173 1.23754 78.6683L5.60309 71.9222C6.94052 69.8556 7.21091 67.2748 6.33101 64.9759L3.45474 57.4611C2.15576 54.0673 3.40224 50.2273 6.44696 48.243L13.1322 43.8861C15.1995 42.5388 16.4973 40.2839 16.6238 37.8199L17.0351 29.8061C17.2219 26.1661 19.9317 23.1537 23.5322 22.5834L31.346 21.3457C33.793 20.9582 35.9049 19.4191 37.023 17.2086L40.6159 10.1052C42.2665 6.84202 45.9821 5.18612 49.5128 6.14029L57.1158 8.19495C59.5145 8.84323 62.0788 8.29653 64.0043 6.72633L70.1243 1.73587Z" fill="#FFF6DD"/>
</svg>
