<svg width="61" height="54" viewBox="0 0 61 54" fill="none" xmlns="http://www.w3.org/2000/svg">
<path d="M22.7403 0C23.7454 0.167189 23.7454 0.167189 24.5164 0.963201C25.3741 2.22031 25.7567 3.34067 26.1983 4.79473C28.088 10.3871 29.8988 14.6335 35.3697 17.4114C38.0278 18.6676 40.7682 19.7346 43.5436 20.7022C44.8047 21.1852 44.8047 21.1852 45.5705 21.9495C45.8098 22.8332 45.8098 22.8332 45.5705 23.8602C43.7623 25.2018 41.988 25.9923 39.8704 26.7517C34.9067 28.58 30.8626 30.1794 28.5139 35.1707C27.7386 36.9679 27.0682 38.7991 26.4477 40.6548C25.8173 42.4703 25.1234 44.2672 23.7454 45.6425C22.812 45.7858 22.812 45.7858 21.8309 45.6425C20.8235 44.5191 20.2393 43.2638 19.6187 41.8987C19.3237 41.2544 19.3237 41.2544 19.0227 40.597C18.8201 40.1497 18.6175 39.7024 18.4087 39.2416C18.0068 38.3597 17.6045 37.4779 17.2017 36.5964C17.0245 36.2059 16.8474 35.8154 16.6648 35.413C16.4743 35.0055 16.2837 34.598 16.0874 34.1782C15.9884 33.9234 15.8894 33.6687 15.7874 33.4062C14.8274 31.135 13.65 30.3824 11.4179 29.4416C11.1159 29.3045 10.8139 29.1673 10.5028 29.026C9.54434 28.5925 8.58071 28.1724 7.61581 27.7533C6.64936 27.3253 5.68428 26.8945 4.72063 26.4602C4.12248 26.1915 3.52251 25.9267 2.92063 25.6665C1.55568 25.0614 0.852187 24.7453 0.00572181 23.4781C-0.0122265 22.5391 -0.0122265 22.5391 0.388619 21.5673C1.26037 20.9933 2.03018 20.5801 2.97318 20.1582C3.2407 20.0286 3.50822 19.8991 3.78384 19.7656C5.3674 19.0057 6.96932 18.3239 8.60297 17.6787C13.3633 15.7926 13.3633 15.7926 16.3746 11.8704C16.7027 11.0774 17.0027 10.2809 17.2881 9.47154C17.7933 8.10184 18.4054 6.78409 19.0119 5.45658C19.3228 4.77531 19.6289 4.09178 19.9295 3.40591C20.1347 2.93919 20.1347 2.93919 20.3442 2.46305C20.5255 2.04713 20.5255 2.04713 20.7104 1.62281C21.2347 0.600905 21.5966 0.210269 22.7403 0Z" fill="white"/>
<path d="M49.0158 29.5469C49.5393 29.634 49.5393 29.634 49.9408 30.0485C50.3876 30.7033 50.5868 31.2868 50.8168 32.0441C51.8011 34.9568 52.7442 37.1685 55.5936 38.6153C56.978 39.2696 58.4053 39.8253 59.8508 40.3293C60.5077 40.5808 60.5077 40.5808 60.9065 40.9789C61.0312 41.4392 61.0312 41.4392 60.9065 41.9741C59.9648 42.6728 59.0406 43.0845 57.9377 43.48C55.3524 44.4323 53.2462 45.2653 52.0229 47.865C51.6191 48.801 51.2699 49.7548 50.9467 50.7213C50.6184 51.6668 50.257 52.6027 49.5393 53.319C49.0532 53.3937 49.0532 53.3937 48.5421 53.319C48.0175 52.7339 47.7132 52.0801 47.39 51.3691C47.2363 51.0335 47.2363 51.0335 47.0795 50.6911C46.974 50.4582 46.8685 50.2252 46.7598 49.9852C46.5504 49.5259 46.3409 49.0666 46.1311 48.6075C46.0388 48.4041 45.9466 48.2007 45.8515 47.9912C45.7522 47.7789 45.653 47.5667 45.5507 47.348C45.4992 47.2153 45.4476 47.0827 45.3945 46.946C44.8945 45.763 44.2813 45.371 43.1187 44.8811C42.9614 44.8096 42.8041 44.7382 42.6421 44.6646C42.1429 44.4388 41.641 44.22 41.1384 44.0017C40.6351 43.7788 40.1324 43.5544 39.6305 43.3282C39.319 43.1883 39.0065 43.0504 38.693 42.9148C37.9821 42.5997 37.6157 42.435 37.1749 41.775C37.1655 41.286 37.1655 41.286 37.3743 40.7799C37.8283 40.4809 38.2293 40.2657 38.7204 40.0459C38.8597 39.9785 38.9991 39.911 39.1426 39.8415C39.9674 39.4457 40.8017 39.0906 41.6526 38.7545C44.1319 37.7722 44.1319 37.7722 45.7003 35.7294C45.8712 35.3163 46.0274 34.9015 46.1761 34.48C46.4392 33.7666 46.758 33.0803 47.0739 32.3888C47.2358 32.034 47.3952 31.678 47.5518 31.3208C47.6587 31.0777 47.6587 31.0777 47.7678 30.8297C47.8622 30.6131 47.8622 30.6131 47.9585 30.3921C48.2316 29.8598 48.4201 29.6564 49.0158 29.5469Z" fill="white"/>
</svg>
