<svg width="33" height="32" viewBox="0 0 33 32" fill="none" xmlns="http://www.w3.org/2000/svg">
<path d="M4.121 29.0372C4.61471 29.5722 6.64828 28.6391 8.25339 27.891C9.45613 27.332 14.2693 25.3572 16.6617 24.3328C17.3077 24.0565 18.2472 23.6955 18.9237 22.8059C19.5239 22.0143 21.116 18.6518 17.9101 15.2458C14.6564 11.7877 11.3048 12.7425 10.0521 13.6299C9.31476 14.1518 8.71447 15.3285 8.44478 15.9266C7.30511 18.4539 5.68043 23.0843 5.01925 24.9048C4.53423 26.2467 3.63163 28.5065 4.121 29.0372Z" fill="#FFC107"/>
<path d="M8.12297 16.688C8.15342 17.0664 8.22955 17.6819 8.49054 18.8673C8.66888 19.6807 8.96033 20.5333 9.1974 21.0966C9.9086 22.7909 10.9069 23.4738 11.9182 24.0219C13.6365 24.9528 14.8044 25.1268 14.8044 25.1268L13.4037 25.6988C13.4037 25.6988 12.5555 25.5226 11.3984 24.9528C10.2957 24.409 9.14737 23.489 8.30784 21.6882C7.94463 20.9074 7.73366 20.1505 7.61186 19.5502C7.46179 18.8064 7.43787 18.3844 7.43787 18.3844L8.12297 16.688Z" fill="#FF8F00"/>
<path d="M6.40255 21.0989C6.40255 21.0989 6.57654 22.5104 7.74231 24.2917C9.10818 26.3753 11.0156 26.7168 11.0156 26.7168L9.74761 27.2387C9.74761 27.2387 8.33172 26.8059 6.98543 24.9681C6.1459 23.8219 5.91101 22.4517 5.91101 22.4517L6.40255 21.0989Z" fill="#FF8F00"/>
<path d="M5.19547 24.4438C5.19547 24.4438 5.51301 25.6618 6.20899 26.5709C7.03765 27.6562 8.0925 27.9716 8.0925 27.9716L7.1203 28.4022C7.1203 28.4022 6.38299 28.2478 5.57609 27.2256C4.96275 26.4491 4.78876 25.5574 4.78876 25.5574L5.19547 24.4438Z" fill="#FF8F00"/>
<path opacity="0.44" d="M4.66688 27.5364C4.62338 27.4386 4.62338 27.3276 4.66905 27.2319L10.2086 15.7439L11.1199 19.1694L5.29109 27.5886C5.13449 27.8235 4.78215 27.7931 4.66688 27.5364Z" fill="#FFFDE7"/>
<path d="M11.5593 20.3201C14.1475 23.3477 17.0945 22.9692 18.0754 22.2036C19.0585 21.4359 19.8349 18.7977 17.2576 15.8202C14.5564 12.7013 11.4984 13.5909 10.7915 14.2651C10.0847 14.9393 9.18425 17.5427 11.5593 20.3201Z" fill="url(#paint0_linear_661_1730)"/>
<path d="M20.4482 21.5664C19.5043 20.7747 19.0019 20.9161 18.3277 21.1967C17.4577 21.5577 16.0896 21.8252 14.2322 21.1967L14.7912 19.8504C15.8939 20.2223 16.6921 20.0418 17.3816 19.635C18.2689 19.1131 19.4826 18.3975 21.3704 19.983C22.1577 20.6442 22.9646 21.0836 23.5562 20.8835C23.9869 20.7399 24.2152 20.0983 24.3305 19.5872C24.3414 19.5415 24.3588 19.411 24.3718 19.2958C24.4762 18.4976 24.6502 16.775 25.9334 15.8941C27.3058 14.9524 28.7478 14.9524 28.7478 14.9524L29.0088 17.5449C28.3454 17.4471 27.8844 17.5819 27.495 17.7972C26.0291 18.6128 27.3058 21.7447 25.0243 22.7974C22.8298 23.8175 21.0355 22.0579 20.4482 21.5664Z" fill="#03A9F4"/>
<path d="M12.3748 18.2604L11.4309 17.4143C13.1644 15.4786 12.7076 14.0562 12.3748 13.0209C12.3074 12.8122 12.2444 12.6142 12.203 12.425C12.0551 11.7551 12.0247 11.1722 12.0704 10.6633C11.4048 9.83465 11.1112 8.96685 11.0916 8.90813C10.6871 7.68363 10.9916 6.48959 11.6897 5.3695C13.1013 3.09668 15.6568 3.09668 15.6568 3.09668L16.5094 5.37819C15.8613 5.3521 13.7364 5.38472 13.0839 6.41347C12.2596 7.70973 12.8011 8.51011 12.8403 8.60146C12.9991 8.39484 13.16 8.22955 13.3035 8.10122C14.3453 7.17687 15.2501 7.0442 15.8265 7.0964C16.4746 7.15512 17.0618 7.48136 17.4816 8.0164C17.9405 8.60364 18.1297 9.36704 17.984 10.0608C17.8427 10.7373 17.3924 11.3093 16.716 11.6725C15.535 12.3076 14.552 12.2206 13.893 12.0009C13.8973 12.0161 13.8995 12.0335 13.9038 12.0487C13.9278 12.1575 13.9756 12.3097 14.0322 12.4859C14.4171 13.6778 15.1327 15.57 12.3748 18.2604ZM13.9734 10.0978C14.0996 10.1892 14.2322 10.2653 14.3693 10.3197C14.826 10.5024 15.3241 10.4415 15.8896 10.137C16.2223 9.95862 16.2615 9.76723 16.2745 9.70416C16.3137 9.51494 16.2484 9.27352 16.107 9.093C15.9831 8.93423 15.8395 8.85158 15.6677 8.83418C15.3415 8.8059 14.9 9.01252 14.4584 9.40619C14.2475 9.59541 14.0865 9.82813 13.9734 10.0978Z" fill="#F44336"/>
<path d="M16.1528 18.6149L14.8021 18.578C14.8021 18.578 15.4437 14.9545 17.5208 14.3455C17.9101 14.2324 18.3364 14.1172 18.7649 14.0541C19.0193 14.0149 19.4217 13.9562 19.6196 13.8823C19.6653 13.5408 19.5217 13.1058 19.3608 12.6121C19.2347 12.2293 19.1042 11.8356 19.0346 11.405C18.8997 10.5655 19.1237 9.82382 19.6653 9.3127C20.3265 8.69285 21.3944 8.49493 22.5993 8.76897C23.2866 8.92556 23.7933 9.26268 24.2392 9.55847C24.8765 9.98259 25.2484 10.1979 26.027 9.67374C26.9688 9.03866 25.7377 6.5527 25.0831 5.11724L27.5255 4.09937C27.854 4.8171 29.4395 8.51015 28.3933 10.6177C28.041 11.3267 27.4342 11.7965 26.6382 11.9727C24.9069 12.3598 23.8934 11.6856 23.1539 11.194C22.8037 10.9613 22.4971 10.7786 22.1643 10.6829C19.8523 10.0239 23.08 13.4255 21.5684 14.9545C20.6614 15.8702 18.4452 16.1116 18.3016 16.1464C16.8748 16.49 16.1528 18.6149 16.1528 18.6149Z" fill="#F48FB1"/>
<path d="M12.0682 10.6633C12.0269 11.1418 12.0073 11.4267 12.1313 12.0488C12.7294 12.4881 14.0322 12.4881 14.0322 12.4881C13.9757 12.3119 13.9256 12.1597 13.9039 12.0509C13.8995 12.0357 13.8974 12.0183 13.893 12.0031C12.5685 11.3419 12.0682 10.6633 12.0682 10.6633Z" fill="#C92B27"/>
<path d="M9.3582 12.8056L7.10931 11.7029L8.22941 10.0847L9.99329 11.2527L9.3582 12.8056Z" fill="#FFC107"/>
<path d="M6.04361 9.752C4.89524 9.59758 3.72512 8.62321 3.5968 8.51228L4.7256 7.18774C5.06706 7.47701 5.79132 7.96202 6.27633 8.02727L6.04361 9.752Z" fill="#FB8C00"/>
<path d="M8.07068 6.85272L6.41772 6.31116C6.60694 5.73262 6.65697 5.10841 6.5591 4.50595L8.2773 4.22974C8.41867 5.10406 8.3469 6.01101 8.07068 6.85272Z" fill="#03A9F4"/>
<path d="M18.3936 5.55981L20.0933 5.18799L20.5841 7.43167L18.8844 7.8035L18.3936 5.55981Z" fill="#FB8C00"/>
<path d="M22.6102 6.09153L21.4139 4.82789C22.0403 4.23413 22.1839 3.45767 22.1839 3.44897L23.9021 3.72954C23.8803 3.86656 23.6607 5.09758 22.6102 6.09153Z" fill="#FFC107"/>
<path d="M23.2749 12.793L24.7945 12.3181L25.3136 13.9788L23.7939 14.4538L23.2749 12.793Z" fill="#FB8C00"/>
<path d="M23.7172 26.81L21.9881 26.6056C22.062 25.9901 21.6031 25.2354 21.477 25.0679L22.869 24.0239C22.9734 24.1609 23.8803 25.4159 23.7172 26.81Z" fill="#F44336"/>
<path d="M28.6804 24.6048C28.0301 24.5069 27.3646 24.4677 26.7078 24.4917L26.649 22.7517C27.4125 22.7256 28.1846 22.7691 28.9393 22.8844L28.6804 24.6048Z" fill="#FB8C00"/>
<path d="M26.341 26.9998L27.5635 25.7616L29.2458 27.4227L28.0233 28.6608L26.341 26.9998Z" fill="#F48FB1"/>
<path d="M22.7491 16.001L24.0062 17.4383L22.5689 18.6954L21.3118 17.2581L22.7491 16.001Z" fill="#F44336"/>
<defs>
<linearGradient id="paint0_linear_661_1730" x1="18.6788" y1="15.6763" x2="12.2046" y2="19.5608" gradientUnits="userSpaceOnUse">
<stop offset="0.0235" stop-color="#8F4700"/>
<stop offset="1" stop-color="#703E2D"/>
</linearGradient>
</defs>
</svg>
