<svg width="70" height="45" viewBox="0 0 70 45" fill="none" xmlns="http://www.w3.org/2000/svg">
<path d="M7.50012 44.9997L12.4367 34.5611L0.928334 35.5052L7.50012 44.9997ZM8.45258 39.2153C8.58194 37.9629 8.80049 36.7152 9.10259 35.4768L7.15957 35.0028C6.83679 36.326 6.60224 37.6634 6.46317 39.0099L8.45258 39.2153ZM10.2344 31.8453C10.6816 30.6669 11.2021 29.5016 11.7905 28.3539L10.0108 27.4414C9.39012 28.6521 8.83919 29.885 8.3645 31.1357L10.2344 31.8453ZM13.7077 25.04C14.3957 23.9748 15.1413 22.9302 15.9397 21.9102L14.3647 20.6775C13.5305 21.7433 12.7496 22.8371 12.0276 23.9549L13.7077 25.04ZM18.4355 18.9847C19.3029 18.0488 20.2147 17.14 21.1664 16.2618L19.8101 14.792C18.821 15.7047 17.8722 16.6503 16.9686 17.6251L18.4355 18.9847ZM24.0962 13.7547C25.1003 12.9577 26.138 12.1938 27.2049 11.4661L26.0779 9.81381C24.9715 10.5685 23.895 11.361 22.8529 12.1881L24.0962 13.7547ZM30.4704 9.40575C31.5822 8.7586 32.7182 8.15056 33.8741 7.58481L32.9949 5.78844C31.7956 6.37545 30.6173 7.00615 29.4643 7.67724L30.4704 9.40575ZM37.3992 6.01679C38.5955 5.53687 39.8072 5.10292 41.03 4.71809L40.4296 2.81034C39.1571 3.21082 37.8973 3.66204 36.6545 4.16058L37.3992 6.01679ZM44.7467 3.70965C46.0022 3.42335 47.2643 3.19066 48.5284 3.01477L48.2528 1.03385C46.9302 1.21788 45.6117 1.46105 44.302 1.75971L44.7467 3.70965ZM52.3519 2.65923C53.633 2.60021 54.9114 2.60283 56.1826 2.67032L56.2886 0.673137C54.9493 0.602021 53.6048 0.599386 52.2599 0.661354L52.3519 2.65923ZM59.9861 3.07333C61.2428 3.27518 62.4876 3.54569 63.7161 3.88815L64.2532 1.9616C62.9504 1.59843 61.6321 1.31207 60.3033 1.09864L59.9861 3.07333ZM67.3214 5.12375C67.9081 5.36429 68.4899 5.62312 69.0662 5.90066L69.934 4.09871C69.3215 3.80378 68.7034 3.52877 68.0801 3.27324L67.3214 5.12375Z" fill="#545F71"/>
</svg>
