<svg width="27" height="13" viewBox="0 0 27 13" fill="none" xmlns="http://www.w3.org/2000/svg">
<path d="M2.0629 12.2832C2.17814 11.6649 2.33246 11.076 2.52189 10.5166L0.627554 9.87509C0.407118 10.5261 0.229043 11.207 0.0967578 11.9168L2.0629 12.2832ZM4.18993 7.3196C4.91964 6.33953 5.79327 5.50122 6.77443 4.8109L5.62356 3.17519C4.4753 3.9831 3.44681 4.9687 2.58574 6.1252L4.18993 7.3196ZM10.0197 3.18557C11.1626 2.80547 12.3737 2.57627 13.6157 2.50578L13.5024 0.50899C12.0895 0.589178 10.704 0.850287 9.38854 1.28777L10.0197 3.18557ZM17.2847 2.75622C18.4713 2.98578 19.6506 3.36102 20.7916 3.88704L21.6289 2.07077C20.3405 1.47676 19.0074 1.05243 17.6646 0.792629L17.2847 2.75622ZM23.9367 5.81774C24.4141 6.19434 24.8774 6.60405 25.3236 7.04746L26.7334 5.62888C26.2331 5.13162 25.7126 4.67129 25.1754 4.24749L23.9367 5.81774Z" fill="#545F71"/>
</svg>
