<svg width="141" height="251" viewBox="0 0 141 251" fill="none" xmlns="http://www.w3.org/2000/svg">
<g clip-path="url(#clip0_1648_4260)">
<path d="M12.3163 10.2451C37.5858 10.245 47.1416 23.6915 47.1416 23.6915L11.4669 64.8978C11.4669 64.8978 2.97289 48.1222 2.97289 33.2964C2.97289 32.4427 0 32.0158 0 27.5336C0 22.1978 3.60994 21.7839 3.60994 21.7839C3.60994 21.7839 2.54009 19.855 2.33584 17.2887C1.91115 11.9527 8.49398 10.2451 12.3163 10.2451Z" fill="#A47251"/>
<path d="M32.9144 30.9481C14.44 46.3155 10.193 64.0306 10.193 64.0306C10.193 64.0306 3.61014 63.3903 3.39779 68.9396C3.20995 73.8486 8.91888 73.8486 8.91888 73.8486C8.91888 73.8486 2.9731 75.983 4.24719 82.1726C5.22825 86.9386 11.0424 85.801 11.0424 85.801C11.0424 85.801 8.28183 89.1093 8.91888 91.3503C10.193 95.8325 14.44 93.9116 14.44 93.9116C14.44 93.9116 23.9766 131.29 16.5635 153.247C-3.39726 212.368 1.699 243.316 1.699 243.316L135.904 247.372C135.904 247.372 139.938 215.57 123.163 133.611C121.109 123.579 117.005 98.1803 125.711 85.801C127.341 83.4827 130.532 82.8129 130.595 78.9711C130.658 75.1292 125.711 74.0621 125.711 74.0621C125.711 74.0621 130.595 72.1412 130.595 69.1531C130.595 64.6675 125.074 64.6709 125.074 64.6709C125.074 64.6709 131.242 62.3231 130.595 58.9082C129.746 54.426 123.163 56.1335 123.163 56.1335C123.163 56.1335 130.595 47.1692 125.711 22.1973C125.181 19.4884 129.746 20.4898 129.109 16.0077C128.613 12.5229 123.163 13.0196 123.163 13.0196C123.163 13.0196 127.41 9.81798 125.711 4.69558C124.495 1.02844 119.978 -0.000181439 115.731 2.40041e-08C99.635 0.000687794 78.9942 18.7823 78.9942 18.7823C78.9942 18.7823 51.3888 15.5808 32.9144 30.9481Z" fill="#B27F5D"/>
<path d="M102.142 20.4881C96.6192 19.2093 91.4718 23.2625 93.8603 26.4643C96.4077 29.8794 107.026 35.4295 114.883 48.0212C116.793 51.0831 116.118 23.724 102.142 20.4881Z" fill="#D8A482"/>
<path d="M43.7342 70.8114C45.9697 70.5066 47.4066 67.4794 46.9437 64.0499C46.4808 60.6205 44.2933 58.0875 42.0579 58.3924C39.8224 58.6972 38.3855 61.7244 38.8484 65.1539C39.3114 68.5833 41.4988 71.1163 43.7342 70.8114Z" fill="black"/>
<path d="M81.9574 67.3964C84.1928 67.0916 85.6297 64.0643 85.1668 60.6349C84.7039 57.2055 82.5165 54.6725 80.281 54.9773C78.0456 55.2822 76.6087 58.3094 77.0716 61.7388C77.5345 65.1683 79.7219 67.7012 81.9574 67.3964Z" fill="black"/>
<path d="M23.8148 101.347C22.9325 95.0162 28.1028 83.6277 39.5509 87.5835C51.7497 91.7989 61.1877 86.58 64.7939 86.4126C66.2786 86.3439 78.5197 93.6814 89.9386 83.1095C94.3117 79.0606 102.054 77.4505 106.812 83.1095C114.456 92.204 107.33 105.546 109.572 123.579C110.634 132.116 113.858 139.726 115.518 147.057C132.85 223.599 128.684 245.877 128.684 245.877L20.8104 242.676C20.8104 242.676 17.3361 223.239 28.8239 178.033C42.4193 150.054 26.0338 117.269 23.8148 101.347Z" fill="white"/>
<path d="M63.0679 86.285C58.5966 88.8318 56.7955 87.6028 57.8317 89.8426C59.2583 92.9254 61.8719 96.503 65.6844 96.2456C69.4965 95.9878 73.1506 89.8712 71.6357 89.3679C64.4944 86.9966 64.7331 85.3365 63.0679 86.285Z" fill="#FFA3A3" stroke="#FF7474" stroke-width="2" stroke-linecap="round" stroke-linejoin="round"/>
<path d="M72.6366 75.6914C72.3585 73.5127 53.4848 74.8227 53.5987 77.4053C53.8403 82.8748 62.6044 86.7888 64.101 86.6411C65.5981 86.4929 73.2941 80.839 72.6366 75.6914Z" fill="#3C210C"/>
<path fill-rule="evenodd" clip-rule="evenodd" d="M88.9435 83.8239C89.3259 84.4176 89.1572 85.2105 88.5666 85.5949C82.5556 89.5074 72.2913 92.5307 63.695 86.9459C54.1263 93.5028 43.7058 91.329 38.7814 88.9078C38.1493 88.597 37.8876 87.83 38.1968 87.1947C38.506 86.5594 39.269 86.2963 39.9011 86.6071C44.4102 88.8241 54.1673 90.808 62.9275 84.3549L63.6711 83.8072L64.4213 84.3458C71.9238 89.7332 81.3862 87.2172 87.1815 83.4451C87.7721 83.0607 88.561 83.2303 88.9435 83.8239Z" fill="#3C210C"/>
<path fill-rule="evenodd" clip-rule="evenodd" d="M26.955 106.859C21.6686 107.939 18.2548 113.123 19.3303 118.437L20.1033 122.256C18.955 122.693 18.258 123.913 18.5106 125.162L20.8812 136.874C21.1338 138.122 22.25 138.972 23.4766 138.923L31.4371 178.254C32.5125 183.567 37.6699 186.998 42.9565 185.918L48.9885 184.684C63.6181 214.688 93.1032 229.09 102.134 231.075C103.225 231.314 104.461 231.65 105.803 232.014C116.017 234.789 132.348 239.225 136.948 215.493C142.957 184.498 124.01 135.685 124.01 135.685L112.12 106.504C98.1053 118.029 91.3102 150.045 91.3102 150.045C91.3102 150.045 91.6172 139.248 72.4692 128.848L71.306 123.1C71.1731 122.443 70.8006 121.896 70.2986 121.532L69.7181 118.664C70.0391 118.132 70.1695 117.483 70.0362 116.825L69.1897 112.642C69.0568 111.985 68.6839 111.438 68.1819 111.075L67.6714 108.552C66.5961 103.239 61.4385 99.8076 56.1523 100.888L26.955 106.859Z" fill="#AB6C40" fill-opacity="0.18"/>
<path d="M51.693 98.5405L22.4958 104.511C17.2094 105.591 13.7956 110.775 14.8711 116.089L26.9779 175.906C28.0534 181.22 33.2107 184.651 38.4972 183.57L67.6943 177.6C72.9808 176.519 76.3945 171.335 75.3191 166.022L63.2122 106.204C62.1368 100.891 56.9794 97.4596 51.693 98.5405Z" fill="#C92C45"/>
<path d="M16.8729 119.623L16.0405 119.793C14.6614 120.075 13.7709 121.427 14.0514 122.814L16.422 134.526C16.7026 135.912 18.048 136.807 19.427 136.525L20.2594 136.355C21.6385 136.073 22.529 134.721 22.2485 133.335L19.8779 121.622C19.5973 120.236 18.2519 119.341 16.8729 119.623Z" fill="#C92C45"/>
<path d="M62.6448 108.086L61.8125 108.256C60.4334 108.538 59.5429 109.89 59.8234 111.276L60.67 115.459C60.9506 116.846 62.296 117.741 63.6751 117.459L64.5074 117.288C65.8865 117.007 66.777 115.654 66.4965 114.268L65.6499 110.085C65.3693 108.699 64.0239 107.804 62.6448 108.086Z" fill="#C92C45"/>
<path d="M64.761 118.544L63.9287 118.714C62.5496 118.996 61.6591 120.348 61.9396 121.734L63.8869 131.355C64.1674 132.742 65.5128 133.637 66.8919 133.355L67.7243 133.184C69.1033 132.902 69.9939 131.55 69.7133 130.164L67.7661 120.543C67.4855 119.157 66.1401 118.262 64.761 118.544Z" fill="#C92C45"/>
<path d="M34.4929 108.179L22.4238 110.647C20.3552 111.07 19.0194 113.099 19.4402 115.178L21.8954 127.309C22.3163 129.388 24.3343 130.73 26.403 130.307L38.472 127.84C40.5407 127.417 41.8765 125.388 41.4556 123.309L39.0004 111.178C38.5796 109.099 36.5615 107.756 34.4929 108.179Z" fill="#B61C35"/>
<path d="M41.6153 138.306C36.4601 141.411 41.6047 147.703 41.6153 147.911C44.4216 202.994 94.6524 225.151 106.811 227.095C116.154 228.589 136.54 236.486 140.145 209.807C144.307 179.008 122.945 132.116 122.945 132.116L110.846 105.864C96.1941 134.465 98.7418 150.899 98.7418 150.899C98.7418 150.899 91.3083 137.252 71.3488 128.062C71.0927 127.943 67.5273 120.805 62.0007 124.646C59.5664 126.338 60.5143 132.116 60.5143 132.116C60.5143 132.116 57.1222 127.208 51.8135 129.556C46.5808 131.87 48.8351 138.946 48.8351 138.946C48.8351 138.946 45.8673 135.745 41.6153 138.306Z" fill="#B27F5D"/>
<path fill-rule="evenodd" clip-rule="evenodd" d="M98.2992 150.57C98.5974 150.206 99.1327 150.154 99.4949 150.454C101.421 152.048 104.191 155.788 106.794 160.086C109.414 164.413 111.944 169.436 113.351 173.68C113.499 174.127 113.259 174.611 112.814 174.76C112.369 174.909 111.888 174.667 111.739 174.22C110.386 170.14 107.925 165.238 105.343 160.974C102.744 156.682 100.099 153.166 98.4149 151.772C98.0528 151.472 98.001 150.934 98.2992 150.57Z" fill="#3C210C"/>
</g>
<defs>
<clipPath id="clip0_1648_4260">
<rect width="141" height="251" fill="white"/>
</clipPath>
</defs>
</svg>
