<svg width="120" height="140" viewBox="0 0 120 140" fill="none" xmlns="http://www.w3.org/2000/svg">
<g clip-path="url(#clip0_720_240)">
<path d="M18.12 11.6C20.18 7.52001 23.34 6.61001 28.11 7.84001C34.22 9.42001 39.87 12.14 45.6 14.66C46.17 14.91 46.64 15.53 47.22 15.63C50.13 16.1 50.9 21.08 55.35 18.88C57.96 17.59 61.42 18.06 64.49 17.68C66.73 17.4 68.98 17.16 71.17 16.63C72.98 16.19 74.88 15.64 76.41 14.64C77.94 12.39 80.61 11.49 82.47 9.65001C86.22 5.94001 90.73 3.74001 95.75 2.46001C97.13 2.11001 98.51 1.37001 99.9 1.49001C103.95 1.84001 104.88 1.40001 105.41 5.35001C105.53 6.25001 104.96 7.27001 105.49 8.01001C108.32 9.23001 108.77 10.25 106.57 12.44C106.44 12.57 107.45 14.05 108.12 14.71C111.89 18.43 113.28 23.25 113.47 28.2C113.66 32.94 114.51 37.82 112.62 42.51C111.96 44.15 113.42 45.15 114.24 46.4C114.94 47.46 116.05 48.82 114.13 50.33C112.89 51.3 112.31 53.1 114.31 54.51C115.86 55.61 116.5 57.1 114.76 58.65C113.46 59.81 113.44 60.83 114.12 62.53C115.09 64.96 115.66 67.75 111.85 68.75C111.33 68.89 110.64 69.68 110.6 70.2C110.29 75.44 106.3 79.32 105.48 84.34C104.68 89.19 102.44 93.74 101.64 98.44C100 108.11 99.58 117.82 102.02 127.73C104.45 137.57 108.71 146.68 111.63 156.29C113.23 161.55 114.61 166.78 114.61 172.31C114.61 176.03 114.44 179.77 114.65 183.48C114.97 188.98 113.02 193.87 110.79 198.65C109 202.49 106.77 206.12 104.74 209.85C104.29 210.68 103.45 211.56 103.51 212.35C103.84 216.24 103.27 219.62 99.77 222.07C99.35 222.36 99.54 223.88 99.8 224.72C100.54 227.21 102.32 229.39 100.54 232.35C99.94 233.34 101.33 235.36 101.36 236.92C101.47 243.01 102.27 249.27 101.13 255.14C100.26 259.63 101.68 264.35 99.42 268.59C99.14 269.12 99.49 269.94 99.36 270.6C98.94 272.77 100.54 273.15 101.71 272.52C106.94 269.69 112.64 268.43 118.37 267.4C123.15 266.54 127.73 265.3 132.96 266.21C138.18 267.11 143.44 267.52 148.4 269.56C152.45 271.23 156.68 272.32 159.13 276.79C160.83 279.9 164.75 280.39 166.85 283.33C168.49 285.63 167.11 288.95 164.4 290.27C162.52 291.19 160.97 292.04 161.25 294.54C161.3 294.95 160.46 295.68 159.89 295.92C153.78 298.45 147.23 298.72 140.98 297.77C135.64 296.96 130.4 297.26 125.12 296.98C121.02 296.76 117.04 297.13 113.19 298.8C112.05 299.29 110.55 298.95 109.21 299C103.86 299.2 101.87 302 103.44 307.08C105.47 313.68 107.67 320.25 109.43 326.93C110.25 330.05 110.21 333.39 110.55 336.63C110.89 339.87 111.4 343.11 111.52 346.36C111.69 350.91 111.6 355.38 110.57 359.89C109.55 364.37 107.79 368.78 106.47 373.19C106.07 374.54 105.53 375.84 105 377.15C103.77 380.2 105.35 381.26 108.57 381.51C111.45 381.74 113.1 383.37 113.37 385.92C113.62 388.24 112.41 391.06 109.92 392.46C108.86 393.06 107.03 393.79 106.35 393.32C103.64 391.42 101.87 393.03 99.9 394.42C99.13 394.96 98.26 395.36 97.46 395.87C95.68 397.01 93.94 397.02 92.64 395.29C90.76 392.78 89.36 393.54 87.59 395.46C86.68 396.44 85.22 397.06 83.89 397.46C79.99 398.65 77.01 396.55 77.08 392.56C77.12 389.81 76.36 387.62 74.68 385.39C71.02 380.54 70.53 374.28 67.96 368.9C67.5 367.94 67.52 366.39 67.96 365.41C69.63 361.72 68.59 357.88 68.91 354.12C69.23 350.37 69.64 346.62 69.91 342.86C70.48 334.8 68.33 327.2 65.85 319.67C64.79 316.45 63.29 316.07 60.12 317.37C55.36 319.32 53.62 322.88 53.65 327.76C53.68 332.66 54.44 337.43 55.66 342.16C55.95 343.27 55.7 344.52 55.7 345.7C55.7 352.81 55.66 359.92 55.71 367.02C55.76 374.06 53.32 380.2 48.82 385.47C47.53 386.98 47.33 388.38 47.73 390C48.99 395.1 48.36 396.62 43.48 397.94C41.3 398.53 38.87 398.64 36.61 398.41C34.74 398.22 33.68 396.71 33.32 394.68C32.66 391.01 32.34 390.94 29.28 392.94C24.82 395.86 20.02 395.02 16.88 390.6C15.42 388.54 13.11 387.77 11.08 387.49C7.71 387.02 6.88 384.53 6.06 382.25C5.43 380.49 10.05 375.31 12.14 375.22C14.19 375.13 15.99 374.67 18.87 375.69C19.27 376.2 19.54 375.97 20.46 376.08C20.43 375.16 21.01 375.08 20.71 374.26C20.34 373.24 19.75 372.16 18.94 371.46C14.47 367.6 13.24 361.94 11.16 356.89C9.07999 351.83 8.14 346.29 6.79 340.94C6.36 339.23 6.11 337.46 5.96 335.7C5.62999 331.81 4.36 330.4 0.549995 330.49C-8.64 330.71 -17.18 328.38 -25.26 324.14C-30.82 321.22 -34.05 316.59 -34.6 310.36C-34.78 308.35 -34.18 306.2 -33.63 304.2C-31.78 297.39 -29.14 291.16 -24.17 285.72C-17 277.87 -8.89 271.37 0.0499954 265.78C1.13 265.1 2.07 264.06 3.24 263.69C6.3 262.7 6.7 260.57 7.09 257.67C7.91 251.64 8.34999 245.54 9.89 239.59C11.02 235.25 11.38 230.71 12.03 226.25C13.07 219.06 13.94 211.84 15.16 204.68C15.55 202.4 16.97 200.47 16.5 197.83C17.61 186.95 15.89 188.19 14.35 183.32C12.53 177.54 11.94 171.39 12.74 164.83C14.35 151.56 20.23 140.17 25.65 128.46C28.38 122.57 30.36 116.43 31.32 110C31.7 107.44 32.16 104.88 32.31 102.3C32.77 94.79 30.02 88.2 26.05 82.07C25.1 80.6 23.79 79.46 21.51 79.54C18.53 79.65 17.25 78.14 17.18 74.95C17.15 73.39 16.84 72.59 15.3 72.18C14.79 72.05 14.05 70.85 14.12 70.77C16.46 68.11 13.29 65.27 14.25 63.01C15.01 61.2 13.97 60.47 13.55 59.41C9.89999 55.12 9.69 49.15 10.06 43.63C10.47 37.59 11.93 31.54 15.29 26.58C17.01 24.04 17.17 22.21 16.01 20.12C14.79 17.93 15.34 16.68 16.99 15.16C17.7 14.51 17.76 13.15 18.12 11.61M3.27999 303.18C3.62 302.14 4.21 301.11 4.25 300.06C4.38 296.69 4.17 293.31 4.34 289.95C4.45 287.72 4.4 285.56 4.54 283.33C4.59 282.5 4.71 281.01 4.15 280.86C3.36 280.65 2 281.11 1.43999 281.76C-1.10001 284.7 -3.69001 287.64 -5.79001 290.89C-7.91001 294.18 -7.46001 299.17 -5.11001 300.78C-2.78001 302.37 -0.380005 304.15 3.27999 303.17V303.18Z" fill="#B27F5D"/>
<path d="M36.7701 25.42C32.3501 32.64 20.6101 55.25 19.7401 54.45C18.1501 53 20.5001 25.13 27.7401 20.38C34.9801 15.63 38.1601 23.15 36.7801 25.42H36.7701Z" fill="#D29F82"/>
<path d="M86.83 18.39C86.65 21.29 104.32 37.96 105.08 37.07C107.11 34.7 100.44 15.55 94.36 13.24C88.28 10.93 86.98 15.95 86.83 18.39Z" fill="#D29F82"/>
<path d="M53.29 72.85C44.34 72.11 41.84 73.11 37.34 73.16C35.59 73.18 29.73 75.61 33.7 80.84C38.3 86.89 37.59 87.65 38.66 89.76C43.11 98.47 45.55 103.94 47.98 111.96C50.95 121.77 51.03 135.07 49.06 153.69C48.57 158.36 52.12 166.6 54.69 171.93C62.61 188.38 63.98 194.13 60.72 203.55C60.24 204.94 61.86 207.82 62.4 209.2C63.17 211.17 65.95 212.88 63.58 218.35C62.97 219.75 58.96 219.14 57.68 219.97C52.61 223.25 51.27 219.97 49.55 221.2C45.72 223.96 42.53 226.49 40.66 223.91C39.14 221.81 39.37 233.85 39.37 233.85C39.37 233.85 37.32 267.95 42.17 277.84C55.16 304.31 79.02 291.67 83.67 277.63C85.45 272.26 86.39 258.19 86.45 251.56C86.51 245.5 84.89 238.16 88.09 227.36C88.45 226.14 90.38 221.3 88.94 221.43C83.99 221.86 87.2 216.39 85.62 215.71C84.3 215.14 80.79 216.01 79.93 214.76C78.89 213.23 79.38 208.91 80.25 207.28C83.1 201.94 81.96 192 80.84 186.47C79.82 181.47 81.23 171.27 82.32 166.1C83.92 158.52 83.79 142.8 82.02 135.1C80.04 126.44 88.81 109.7 91.85 101.39C94.15 95.08 98.76 85.46 102.73 77.24C104.52 73.52 105.77 65.82 96.49 69.56C94.22 70.48 89.21 70.35 86.85 70.28C80.22 70.09 77.4 69.47 74.23 68.91C71.65 68.46 70.7 68.04 64.04 71.36C61.45 72.65 57.43 73.22 53.29 72.88V72.85Z" fill="white"/>
<path d="M114.6 388.34C112.39 394.12 111.95 394.4 106.42 394.44C103.97 394.46 101.79 394.46 99.51 396.3C97.37 398.02 94.04 398.84 91.48 396.16C90.22 394.84 89.61 395.7 88.61 396.46C87.11 397.61 85.52 399.01 83.77 399.41C79.28 400.44 75.18 397.16 75.12 391.94C75.08 388.46 73.4 386.22 71.81 383.59C68.91 378.78 66.67 373.71 66.81 367.88C66.91 363.82 66.33 359.68 66.94 355.71C67.91 349.41 68.05 343.11 67.76 336.82C67.5 331.32 66.51 325.86 65.8 320.39C65.55 318.48 64.12 317.89 62.53 318.28C60.72 318.72 58.87 319.34 57.3 320.32C55.64 321.36 54.39 322.77 54.57 325.22C55.08 332.18 54.63 339.27 55.82 346.1C57.25 354.31 56.52 362.45 56.53 370.6C56.53 376.23 53.52 381.16 50.48 385.81C49.44 387.41 48.89 388.67 49.44 390.71C50.32 393.94 48.09 397.77 43.64 399.83C40.47 401.3 36.02 400.65 33.66 398.36C33.18 397.89 32.33 397.39 32.33 396.91C32.4 392.35 30.33 394.05 27.94 395.12C22.52 397.54 19.84 396.51 15.74 391.8C14.62 390.51 12.46 390.03 10.7 389.39C7.29998 388.15 4.88998 385.19 4.82998 381.9C4.75998 378.63 6.70998 375.59 10.07 374.57C11.92 374.01 14.02 374.03 15.98 374.17C18.21 374.33 17.99 373.65 17.03 372.23C12.39 365.37 9.78998 357.61 7.49998 349.78C6.19998 345.35 4.57998 340.94 4.77998 336.14C4.91998 332.86 4.39998 332.81 1.02998 332.41C-6.44002 331.52 -14.07 331.46 -21.17 328.4C-26.19 326.24 -30.4 323.2 -33.2 318.35C-34.3 316.46 -34.66 314.56 -34.86 312.41C-35.98 300.07 -30.36 290.43 -22.34 282.06C-17.09 276.59 -11.11 271.81 -5.26002 266.95C-3.10002 265.16 -0.510017 263.78 2.07998 262.66C3.99998 261.83 4.61998 260.45 4.79998 258.74C5.93998 248.39 8.20998 238.3 10.8 228.22C12.16 222.92 12.27 217.3 12.96 211.82C13.28 209.25 13.56 206.67 13.99 204.12C14.6 200.49 15.55 196.91 15.91 193.27C16.09 191.44 15.75 189.26 14.88 187.66C10.32 179.33 10.31 170.26 11.1 161.37C11.85 152.87 15.85 145.17 19.4 137.43C23.05 129.47 26.46 121.38 29.44 113.15C32.78 103.93 32.18 94.82 27.3 86.07C25.75 83.29 24.23 81.27 20.62 81.39C17.77 81.48 15.23 79.15 15.27 76.89C15.31 74.18 12.89 72.85 13.04 70.62C13.19 68.51 12.9 66.43 12.97 64.35C13.05 62.04 12.67 60.01 11.38 57.88C9.55998 54.87 8.78998 51.45 8.80998 47.75C8.83998 41.52 8.85998 35.37 11.95 29.71C12.18 29.3 12.35 28.84 12.64 28.47C14.92 25.58 16.8 22.74 14.09 18.95C13.57 18.22 14.35 16.48 14.69 15.25C15.02 14.05 15.69 12.94 15.99 11.73C16.87 8.1 18.91 6.45 22.8 6.27C28.4 6.01 33.5 8.05 38.5 10.07C42.27 11.59 46 13.48 49.25 15.88C50.94 17.13 52.43 17.66 54.22 17.42C57.87 16.93 61.5 16.21 65.13 15.6C65.78 15.49 66.46 15.35 67.09 15.45C71.66 16.2 74.78 14.01 78.02 11.02C82.1 7.26 86.61 3.79 92 1.99C95.89 0.690001 99.87 -1.32 104.03 1.22C104.92 1.76 106.36 2.61 106.32 3.24C106.14 5.83 106.84 7.83 108.97 9.32C109.11 9.42 109.34 9.61 109.31 9.67C107.23 14.67 112.37 17.31 113.22 21.48C114.57 28.06 114.52 34.6 114.57 41.2C112.4 42.96 114.24 43.93 115.28 45.16C115.87 45.86 116.65 46.91 116.5 47.63C116.16 49.29 114.56 51 114.86 52.39C115.19 53.92 117.27 55.05 116.59 57.14C116.14 58.5 115.2 59.83 115.19 61.17C115.19 62.48 116.47 63.79 116.5 65.11C116.53 66.44 116.03 68.67 115.2 68.98C109.94 70.93 109.81 76.17 108.77 80.03C107.24 85.66 104.86 91.05 103.84 96.82C102.61 103.71 100.5 110.58 101.46 117.63C102.42 124.67 104.47 131.51 106.77 138.26C109.5 146.28 112.5 154.27 114.44 162.49C116.48 171.13 116.19 180.17 115.39 188.94C114.72 196.3 111.33 203.09 107.21 209.37C106.29 210.77 105.55 212.58 105.53 214.21C105.5 217.07 104.48 219.23 102.5 221.13C101.12 222.45 100.25 223.36 101.12 225.99C102.42 229.93 102.18 234.43 102.35 238.69C102.52 242.92 102.35 247.15 102.4 251.39C102.45 256.79 101.85 262.1 100.4 267.32C100.14 268.26 100.19 269.39 100.44 270.34C100.56 270.8 101.7 271.5 101.96 271.36C108.01 267.99 114.85 266.86 121.4 265.71C126.79 264.77 132.6 265.07 138.31 266.07C143.4 266.96 147.98 268.92 152.79 270.45C155.25 271.23 157.03 272.73 158.74 274.5C160.72 276.55 162.55 278.84 164.82 280.49C169.81 284.12 169.85 288.1 164.72 291.06C163.49 291.77 161.86 292.35 162.23 294.55C162.34 295.22 161.06 296.72 160.29 296.81C158.03 297.09 156.55 297.95 154.75 299.5C153.3 300.74 149.98 299.86 147.49 299.79C146.93 299.78 146.39 299.01 145.82 298.98C137.16 298.59 128.48 297.83 119.83 298.11C115.37 298.25 110.97 300.27 106.53 301.41C104.22 302 104.04 303.79 104.47 305.53C105.77 310.73 107.45 315.83 108.67 321.04C109.83 326.02 110.74 331.07 111.49 336.12C112.06 340.01 112.41 343.95 112.51 347.88C112.78 358.15 110.97 368.05 106.72 377.47C106.04 378.98 105.97 380.06 108.42 380.34C113.28 380.89 114.54 382.72 114.58 388.37M4.84998 305.52C5.21998 312.15 4.67998 318.75 5.63998 325.44C6.46998 331.21 6.51998 337.16 7.95998 342.84C10.6 353.21 13.56 363.52 19.88 372.44C20.49 373.31 20.83 374.43 21.07 375.49C21.33 376.65 20.71 377.82 19.53 377C17.15 375.34 14.63 376.21 12.24 376.25C9.43998 376.3 7.03998 379.01 6.86998 381.5C6.71998 383.68 8.82998 386.47 11.25 387.33C14.1 388.33 14.68 388.19 14.93 385.52C15.25 382.17 17.93 380.98 20.04 379.27C20.35 379.02 21.4 379.68 22.11 379.92C21.77 380.36 21.53 380.97 21.08 381.21C17.97 382.87 16.53 385.26 16.98 388.91C17.36 392.04 21.17 394.32 24.44 393.74C29.23 392.89 31.65 390.54 31.29 385.57C31.26 385.16 31.61 384.72 31.79 384.29C31.95 384.73 32.12 385.17 32.28 385.61C32.88 387.28 32.84 387.23 34.34 385.93C34.73 385.59 35.42 385.58 35.98 385.43C35.98 386.01 36.21 386.71 35.97 387.14C35.18 388.52 33.73 389.7 33.41 391.15C32.86 393.66 33.71 396.05 36.06 397.47C38.59 398.99 41.35 399.07 43.81 397.45C46.21 395.86 48.34 393.35 47.35 390.53C46.43 387.89 47.42 386.5 48.63 384.65C50.1 382.41 51.51 380.1 52.55 377.65C54.28 373.57 54.83 369.26 54.67 364.8C54.49 359.73 55.48 354.46 54.44 349.6C52.66 341.24 52.33 332.89 52.71 324.5C52.92 319.94 54.85 315.74 59.61 313.8C60.45 313.46 61.93 312.98 62.27 313.35C64.26 315.49 66.92 317.61 67.63 320.2C68.99 325.15 69.73 330.42 69.75 335.56C69.78 346.42 69.15 357.29 68.89 368.16C68.86 369.57 69.38 370.99 69.65 372.4C70.66 377.66 73.14 382.19 76.42 386.38C77.2 387.37 78.02 389.25 77.59 390.1C75.97 393.32 78.01 395 79.85 396.78C81.85 398.72 83.79 396.9 85.68 396.38C88.26 395.68 88.47 393.66 88.17 391.42C88.08 390.75 88.17 390.07 88.15 389.39C88.12 388.5 86.48 387.41 88.3 386.83C88.65 386.72 89.61 387.98 90.02 388.75C90.53 389.7 90.87 390.78 91.11 391.85C91.37 393.01 90.94 394.09 92.83 394.72C96.08 395.8 98.02 395.79 99.81 393.47C101.52 391.25 101.4 389.32 99.32 386.84C98.78 386.19 98.06 385.69 97.57 385.01C97.34 384.69 97.47 384.12 97.43 383.66C97.79 383.76 98.15 383.86 98.51 383.98C101.63 385.03 102.99 387.4 103.41 390.5C103.49 391.13 103.48 392 103.87 392.31C105.33 393.45 110.41 391.82 111.56 390.14C112.9 388.17 113 386.2 111.91 384.2C110.62 381.82 108.27 382.2 106.12 382.3C105.27 382.34 104.45 382.75 103.61 382.99C103.58 381.85 103.32 380.66 103.59 379.6C103.94 378.26 104.84 377.07 105.31 375.75C108.05 368.05 110.14 360.17 110.45 351.99C110.78 343.31 109.48 334.77 107.48 326.33C105.57 318.3 104.14 310.14 101.96 302.19C99.89 294.67 98.03 287.2 98.29 279.33C98.43 274.93 97.76 270.43 98.47 266.15C99.24 261.52 100.3 256.92 100.29 252.24C100.29 243.91 100.88 235.56 99.41 227.25C98.72 223.32 95.76 220.93 91.52 221.69C90.37 221.9 89.15 221.69 87.97 221.73C86.14 221.79 84.96 220.92 85.16 219.13C85.45 216.55 84.04 216.42 82.21 216.65C79.94 216.94 78.91 215.31 78.04 213.75C77.23 212.29 76.62 211.04 77.84 208.95C81.28 203.06 80.88 196.17 79.76 189.94C78.64 183.71 79.06 177.62 79.18 171.52C79.27 167.01 81.73 162.56 81.89 158.04C82.14 150.75 82.15 143.27 80.76 136.17C79.82 131.39 81.02 127.27 81.84 123.03C82.75 118.3 84.4 113.6 86.48 109.25C88.24 105.58 89.41 101.4 92.82 98.66C93.16 98.39 93.54 98.16 93.9 97.91C93.9 98.49 94.07 99.16 93.84 99.63C92.1 103.15 90.07 106.53 88.53 110.13C85.65 116.87 82.46 123.55 83.04 131.24C83.48 137.02 82.97 142.78 83.9 148.63C85.17 156.6 82.68 164.44 81.37 172.32C80.52 177.48 81.31 182.94 81.65 188.24C81.88 191.95 83.17 195.67 82.89 199.31C82.64 202.65 81.04 205.93 79.83 209.16C78.84 211.81 79.75 214.24 82.32 214.55C83.56 214.7 84.87 214.24 86.15 214.06C86.73 213.98 87.31 213.91 87.88 213.84C87.69 214.54 87.55 215.25 87.31 215.93C87.02 216.76 86.2 218.12 86.41 218.29C87.22 218.96 88.31 219.46 89.36 219.62C90.03 219.72 90.8 219.11 91.54 218.84C92.92 218.35 94.04 217.69 95.51 219.28C97.64 221.59 99.95 221.33 101.65 218.79C102.58 217.4 103.19 215.6 103.31 213.94C103.47 211.75 104.16 209.99 105.24 208.1C108.45 202.51 111.59 197.03 112.74 190.34C114.32 181.17 113.95 172.11 112.25 163.28C110.66 155.03 107.19 147.14 104.58 139.08C102.39 132.3 100.3 125.46 99.4 118.39C98.43 110.81 100.06 103.32 101.74 96.01C103.5 88.37 106.07 80.9 108.55 73.45C109.29 71.22 109.52 68.51 112.66 67.53C114.55 66.94 114.97 65.17 113.61 63.22C112.75 61.99 111.49 60.45 113.31 58.92C115.46 57.11 114.87 55.47 112.96 54.03C111.57 52.98 111.43 52.21 112.94 51.11C115.22 49.45 115.25 47.58 112.96 45.88C111.14 44.53 111.28 42.88 111.87 41.01C112.2 39.95 112.58 38.81 112.51 37.74C112.29 34.32 112.37 30.93 111.8 27.45C111.03 22.72 109.9 18.46 107.15 14.56C106.65 13.85 106.24 12.28 106.6 11.92C108.47 10.05 107.05 9.74 105.64 8.97C104.58 8.39 102.11 8.39 104.23 5.74C105.45 4.22 103.81 2.1 101.58 2.33C98.44 2.65 95.21 3.22 92.28 4.35C86.68 6.52 81.92 10.16 77.65 14.35C75.39 16.56 72.97 17.46 69.79 17.59C65.96 17.75 62.19 18.89 58.36 19.29C54.77 19.66 51.5 20.78 47.77 17.68C41.7 12.64 33.91 10.43 26.31 8.38C22.81 7.44 20.29 8.45 19.05 10.6C18.4 11.73 17.26 12.74 19.01 13.86C18.02 14.95 16.62 15.9 16.15 17.19C15.79 18.2 16.18 20.04 16.94 20.78C18.76 22.52 18.03 23.94 17.04 25.54C16.37 26.62 15.64 27.66 15.02 28.77C11.73 34.55 10.38 40.75 10.92 47.4C11.14 50.14 10.8 52.8 12.55 55.41C13.47 56.78 13.72 58.68 15.2 59.87C17.45 61.69 13.92 63.3 14.97 65.22C15.56 66.29 16.36 68.22 15.9 68.73C13.33 71.63 17.7 71.96 17.48 73.42C17.17 75.53 16.59 77.39 18.82 78.68C19.49 79.07 20.32 79.51 21.02 79.43C25.5 78.89 27.44 81.79 29.3 85.09C34.57 94.47 34.82 104.35 31.48 114.18C28.52 122.9 24.8 131.39 21.05 139.82C18.09 146.45 15.07 152.89 13.81 160.24C12.55 167.54 12.97 174.4 14.78 181.45C16.13 186.74 18.63 191.48 21.44 195.95C24.21 200.35 27.52 204.71 31.52 207.93C35.11 210.82 37.69 213.15 37.54 218.24C37.41 222.93 42.17 225.23 45.67 222.72C46.36 222.23 46.63 221.19 47.25 220.55C48.15 219.61 48.79 217.99 50.6 219.96C51.26 220.68 54.02 220.56 54.82 219.79C56.08 218.58 56.37 217.16 58.66 218.57C60.36 219.61 61.47 217.34 62.63 216.24C62.9 215.99 62.74 215.29 62.78 214.8C63.01 212.36 62.12 210.38 60.4 208.66C59.73 207.99 58.62 206.68 58.81 206.39C60.33 204.06 58.94 201.31 59.84 199.17C61.79 194.52 60.17 190.07 58.85 186.09C56.64 179.45 53.14 173.23 50.06 166.89C48.49 163.66 47.28 160.44 47.51 156.76C47.81 151.99 48.07 147.18 48.29 142.44C48.67 134.17 49.21 125.82 47.7 117.44C46.28 109.55 44.21 102.05 40.43 95.02C39.76 93.77 39.02 92.56 38.44 91.27C38.28 90.91 38.58 90.35 38.67 89.88C39.03 90.08 39.53 90.19 39.73 90.5C41.35 93.04 43.39 95.44 44.4 98.21C46.71 104.55 48.81 111 50.41 117.55C51.37 121.49 51.96 125.79 51.39 129.74C50.92 133.01 50.69 136.24 50.6 139.51C50.55 141.37 50.92 143.31 50.49 145.06C48.32 153.79 49.32 162.07 53.66 169.9C57.34 176.54 61.57 182.79 62.1 190.86C62.32 194.25 62.79 197.37 62.06 200.83C61.39 204.01 60.58 207.71 64.09 210.52C65.48 211.64 65.21 213.86 64.93 215.92C64.12 221.97 57.62 219.33 55.12 222.69C54.73 223.21 53.55 223.29 52.73 223.31C52.16 223.31 51.47 223 51.02 222.62C49.79 221.57 49.32 221.06 48.35 223.19C47.74 224.52 45.25 225.47 43.48 225.7C39.14 226.26 35.38 222.65 35.42 218.05C35.44 215.38 35.16 213.02 32.74 211.52C26.42 207.63 22.78 201.51 19.08 195.41C18.81 194.96 18.28 194.66 17.88 194.29C17.61 194.8 17.15 195.28 17.1 195.81C16.71 199.9 16.42 204 16.05 208.09C15.75 211.34 15.63 214.63 14.99 217.82C13.83 223.56 11.89 229.18 11.09 234.96C9.91998 243.41 7.44998 251.6 6.75998 260.17C6.22998 266.83 4.95998 273.45 4.89998 280.17C4.82998 288.3 4.87998 296.43 4.87998 305.57M107.99 298.92C111.63 297.9 115.22 296.29 118.91 296C125.13 295.51 131.41 295.69 137.66 295.94C141.18 296.08 144.95 296.26 148.1 297.59C152.62 299.5 154.7 294.66 158.37 294.85C158.54 294.85 158.77 294.92 158.87 294.84C159.37 294.4 160.32 293.82 160.25 293.48C159.59 290.48 162.06 289.93 163.77 288.91C166.77 287.13 167.71 284.9 165.1 283.15C160.94 280.36 158.04 276.31 153.98 273.56C152.59 272.61 150.87 272.11 149.27 271.49C145.43 270.01 141.55 268.88 137.41 268.19C131.97 267.28 126.78 267.32 121.37 268.16C115.38 269.09 109.7 271.06 103.84 272.34C101.01 272.96 100.53 273.98 100.3 276.48C99.66 283.47 101.6 290.14 102.44 296.94C102.75 299.47 104.11 299.96 107.99 298.93M-0.740021 283.67C2.33998 281.56 3.31998 278.63 2.86998 274.99C2.68998 273.56 3.09998 272.06 3.18998 270.59C3.28998 268.88 3.32998 267.17 3.39998 265.45C1.78998 266 0.169983 266.54 -1.44002 267.1C-1.58002 267.15 -1.67002 267.36 -1.80002 267.45C-9.36002 272.24 -16.06 278.1 -22.01 284.72C-28.59 292.04 -33.28 300.26 -32.84 310.69C-32.66 314.88 -31.32 318.2 -28.4 321.07C-24.15 325.26 -18.88 327.32 -13.16 328.37C-8.89002 329.15 -4.59002 329.72 -0.31002 330.43C2.59998 330.91 4.69998 329.26 3.72998 326.6C2.03998 321.99 3.20998 317.37 2.83998 312.78C2.63998 310.29 3.47998 307.24 2.31998 305.44C1.31998 303.89 -1.86002 303.74 -4.09002 302.99C-9.18002 301.27 -10.25 298.3 -8.52002 293.36C-7.10002 289.32 -3.79002 287.14 -0.740021 283.68M2.81998 284.18C-1.19002 286.44 -4.48002 290.09 -6.44002 294.45C-7.91002 297.73 -7.68002 298.94 -5.04002 300.66C-4.15002 301.25 -3.09002 301.67 -2.05002 301.93C2.59998 303.07 2.78998 302.92 2.80998 298.3C2.82998 293.93 2.80998 289.56 2.80998 284.18M61.76 316.7C61.49 316.19 61.04 315.22 60.99 315.24C59.86 315.71 58.77 316.26 57.71 316.88C57.59 316.95 57.76 317.49 57.79 317.82C58.94 317.62 60.09 317.41 61.75 316.7H61.76Z" fill="#8A593B"/>
<path d="M67.4199 68.99C66.2999 68.15 64.9799 67.22 64.0799 66.19C63.2899 65.28 62.4399 63.95 62.5099 62.87C62.6099 61.49 63.9799 61.05 65.5099 60.98C68.0799 60.86 70.6399 60.13 73.2099 60.08C76.6399 60.02 77.3799 61.65 75.5199 64.65C75.2599 65.07 74.8399 65.4 74.4499 65.73C72.2699 67.6 72.8699 67.86 74.0499 68.48" fill="#65381A"/>
<path d="M24.03 45.03C26.82 40.6 29.39 36.45 31.89 32.25C33.33 29.83 34.62 27.3 36.09 24.9C36.41 24.37 37.4 23.71 37.81 23.86C39.44 24.46 38.44 25.58 37.98 26.4C35.9 30.1 33.8 33.78 31.62 37.42C28.37 42.82 25.05 48.19 21.72 53.54C21.38 54.09 20.78 54.47 20.3 54.93C20.1 54.18 19.52 53.26 19.78 52.72C20.99 50.18 22.42 47.74 24.03 45.02V45.03Z" fill="#8A593B"/>
<path d="M103.8 38.94C98.4001 33.54 93.2601 28.4 88.1101 23.25C87.3901 22.53 86.4801 21.92 86.0201 21.06C85.6801 20.44 85.9401 19.5 85.9201 18.7C86.5201 19.07 87.2101 19.34 87.7001 19.82C92.8701 24.94 98.0301 30.07 103.13 35.26C104.13 36.28 104.85 37.57 105.64 38.78C105.75 38.95 105.47 39.38 105.37 39.69C104.93 39.52 104.5 39.35 103.8 38.93V38.94Z" fill="#8A593B"/>
<path d="M72.8899 67.97C74.3099 68.29 75.6899 68.87 77.1199 69.1C79.0799 69.42 81.0699 69.52 83.3399 69.72C85.7399 69.88 87.6399 69.08 89.5899 68.46C89.9299 68.35 90.2199 68.02 90.5599 67.98C90.8899 67.95 91.2399 68.16 91.5799 68.27C91.4199 68.56 91.3199 68.98 91.0799 69.1C89.0899 70.08 87.1199 71.03 84.7599 70.92C81.4999 70.77 78.2199 71.11 74.9999 70.31C74.7299 70.24 74.3499 70.36 74.1599 70.22C71.4899 68.17 69.0499 69.27 66.8299 70.93C64.7799 72.47 62.3599 73.38 60.0599 73.68C56.6099 74.16 54.7099 74.28 51.3899 73.53C51.3099 73.49 50.8799 73.38 50.8399 73.32C50.1099 72.82 49.3999 72.82 48.6799 72.31C49.5299 72.23 50.4899 71.87 51.2099 72.13C53.4599 72.96 55.5599 72.43 57.8199 72.24C60.4299 72.02 62.6599 71.07 65.0099 70.28C65.8599 70 66.6199 69.42 67.3699 68.9" fill="#65381A"/>
<path d="M51.2499 60.07C53.2492 60.07 54.8699 57.8404 54.8699 55.09C54.8699 52.3396 53.2492 50.11 51.2499 50.11C49.2506 50.11 47.6299 52.3396 47.6299 55.09C47.6299 57.8404 49.2506 60.07 51.2499 60.07Z" fill="black"/>
<path d="M83.7599 57.24C85.7592 57.24 87.3799 55.0104 87.3799 52.26C87.3799 49.5096 85.7592 47.28 83.7599 47.28C81.7606 47.28 80.1399 49.5096 80.1399 52.26C80.1399 55.0104 81.7606 57.24 83.7599 57.24Z" fill="black"/>
</g>
<defs>
<clipPath id="clip0_720_240">
<rect width="120" height="140" fill="white"/>
</clipPath>
</defs>
</svg>
