<svg width="254" height="252" viewBox="0 0 254 252" fill="none" xmlns="http://www.w3.org/2000/svg">
<path d="M117.263 2.90325C122.009 -0.967752 128.823 -0.967752 133.569 2.90325L143.802 11.2498C147.024 13.876 151.311 14.7904 155.322 13.7061L168.036 10.2697C173.941 8.67384 180.153 11.4433 182.914 16.9011L188.921 28.7814C190.792 32.4786 194.323 35.0526 198.415 35.7009L211.481 37.7709C217.501 38.7248 222.033 43.763 222.345 49.8509L223.033 63.2541C223.244 67.3751 225.416 71.1465 228.873 73.3998L240.052 80.6867C245.142 84.0054 247.227 90.4278 245.055 96.1041L240.245 108.673C238.773 112.518 239.226 116.834 241.462 120.29L248.763 131.573C252.062 136.673 251.357 143.382 247.071 147.685L237.615 157.178C234.707 160.098 233.368 164.23 234.013 168.3L236.117 181.585C237.068 187.595 233.69 193.453 228.011 195.641L215.614 200.414C211.756 201.9 208.843 205.145 207.781 209.141L204.349 222.064C202.781 227.967 197.29 231.961 191.192 231.635L178.022 230.93C173.877 230.708 169.88 232.494 167.279 235.728L158.974 246.058C155.138 250.83 148.476 252.248 143.028 249.451L131.307 243.433C127.609 241.535 123.223 241.535 119.525 243.433L107.803 249.451C102.356 252.248 95.6946 250.83 91.8582 246.058L83.5529 235.728C80.9524 232.494 76.9546 230.708 72.8102 230.93L59.6404 231.635C53.5424 231.961 48.051 227.967 46.4834 222.064L43.0504 209.141C41.989 205.145 39.0766 201.9 35.2182 200.414L22.8212 195.641C17.142 193.453 13.7636 187.595 14.7153 181.585L16.8189 168.3C17.4633 164.23 16.1248 160.098 13.217 157.178L3.76087 147.685C-0.525205 143.382 -1.2296 136.673 2.06944 131.573L9.36957 120.29C11.606 116.834 12.0582 112.518 10.5868 108.673L5.77706 96.1041C3.6049 90.4278 5.68928 84.0054 10.7807 80.6867L21.9598 73.3998C25.4168 71.1465 27.5871 67.3751 27.7985 63.2541L28.4863 49.8509C28.7988 43.763 33.33 38.7248 39.3508 37.7709L52.4173 35.7009C56.5091 35.0526 60.0406 32.4786 61.9104 28.7814L67.9185 16.9011C70.6786 11.4433 76.8919 8.67382 82.7961 10.2697L95.5098 13.7061C99.5211 14.7904 103.809 13.876 107.029 11.2498L117.263 2.90325Z" fill="#FBD46C"/>
<mask id="mask0_1497_2741" style="mask-type:alpha" maskUnits="userSpaceOnUse" x="3" y="1" width="251" height="251">
<path d="M120.263 3.90325C125.009 0.0322484 131.823 0.0322484 136.569 3.90325L146.802 12.2498C150.024 14.876 154.311 15.7904 158.322 14.7061L171.036 11.2697C176.941 9.67384 183.153 12.4433 185.914 17.9011L191.921 29.7814C193.792 33.4786 197.323 36.0526 201.415 36.7009L214.481 38.7709C220.501 39.7248 225.033 44.763 225.345 50.8509L226.033 64.2541C226.244 68.3751 228.416 72.1465 231.873 74.3998L243.052 81.6867C248.142 85.0054 250.227 91.4278 248.055 97.1041L243.245 109.673C241.773 113.518 242.226 117.834 244.462 121.29L251.763 132.573C255.062 137.673 254.357 144.382 250.071 148.685L240.615 158.178C237.707 161.098 236.368 165.23 237.013 169.3L239.117 182.585C240.068 188.595 236.69 194.453 231.011 196.641L218.614 201.414C214.756 202.9 211.843 206.145 210.781 210.141L207.349 223.064C205.781 228.967 200.29 232.961 194.192 232.635L181.022 231.93C176.877 231.708 172.88 233.494 170.279 236.728L161.974 247.058C158.138 251.83 151.476 253.248 146.028 250.451L134.307 244.433C130.609 242.535 126.223 242.535 122.525 244.433L110.803 250.451C105.356 253.248 98.6946 251.83 94.8582 247.058L86.5529 236.728C83.9524 233.494 79.9546 231.708 75.8102 231.93L62.6404 232.635C56.5424 232.961 51.051 228.967 49.4834 223.064L46.0504 210.141C44.989 206.145 42.0766 202.9 38.2182 201.414L25.8212 196.641C20.142 194.453 16.7636 188.595 17.7153 182.585L19.8189 169.3C20.4633 165.23 19.1248 161.098 16.217 158.178L6.76087 148.685C2.4748 144.382 1.7704 137.673 5.06944 132.573L12.3696 121.29C14.606 117.834 15.0582 113.518 13.5868 109.673L8.77706 97.1041C6.6049 91.4278 8.68928 85.0054 13.7807 81.6867L24.9598 74.3998C28.4168 72.1465 30.5871 68.3751 30.7985 64.2541L31.4863 50.8509C31.7988 44.763 36.33 39.7248 42.3508 38.7709L55.4173 36.7009C59.5091 36.0526 63.0406 33.4786 64.9104 29.7814L70.9185 17.9011C73.6786 12.4433 79.8919 9.67382 85.7961 11.2697L98.5098 14.7061C102.521 15.7904 106.809 14.876 110.029 12.2498L120.263 3.90325Z" fill="#FBD46C"/>
</mask>
<g mask="url(#mask0_1497_2741)">
<g filter="url(#filter0_ddd_1497_2741)">
<path d="M75.674 40.6216C95.7112 38.7707 104.467 51.9031 104.467 51.9031L78.1997 84.4005C78.1997 84.4005 71.9697 72.5233 71.9697 60.8272C71.9697 60.1537 68.6021 59.6486 68.6021 56.1126C68.6021 51.9031 71.9697 50.3877 71.9697 50.3877C71.9697 50.3877 69.6059 47.866 69.444 45.8414C69.1072 41.6319 72.656 40.9004 75.674 40.6216Z" fill="#A47251"/>
<path d="M101.941 51.5672C79.2101 62.1754 74.6639 86.5902 74.6639 86.5902C74.6639 86.5902 68.8941 85.58 68.4338 91.1364C68.0293 96.0195 74.6639 96.5246 74.6639 96.5246C74.6639 96.5246 68.4338 97.3666 69.4441 102.25C70.2105 105.954 74.6639 105.112 74.6639 105.112C74.6639 105.112 72.5176 109.26 73.4852 111.679C75.169 115.888 80.7255 114.204 80.7255 114.204C80.7255 114.204 86.9559 143.489 84.5983 152.258C66.5816 219.274 69.1073 225.335 69.1073 225.335L184.448 239.984C184.448 239.984 187.848 216.834 187.479 201.931C187.197 190.562 185.386 184.302 184.448 172.969C180.885 129.914 194.046 104.336 184.616 62.1754C183.133 55.5449 179.565 46.0109 179.565 46.0109C179.565 46.0109 181.721 39.4441 180.07 36.918C177.837 33.5024 174.008 33.382 174.008 33.382C174.008 33.382 175.692 29.8464 172.998 27.3203C171.16 25.5973 165.62 26.2342 162.222 27.3203C145.889 32.5406 132.418 48.3678 132.418 48.3678C132.418 48.3678 112.684 46.554 101.941 51.5672Z" fill="#B27F5D"/>
<path d="M87.4158 114.254C86.9472 109.232 90.6595 100.061 99.5837 103.597C109.093 107.364 116.758 103.597 119.621 103.597C120.8 103.597 130.229 109.827 139.658 101.913C143.27 98.8819 153.888 97.323 157.507 101.913C164.41 110.669 152.455 121.109 153.97 135.253C155.568 150.16 156.121 145.105 157.507 151.416C168.114 199.742 163.737 236.112 163.737 236.112L81.9161 228.754C81.9161 228.754 81.6599 197.523 90.4158 165.254C96.8484 141.546 88.5943 126.883 87.4158 114.254Z" fill="white"/>
<path d="M106.656 85.4118C106.656 88.1087 105.073 90.2949 103.12 90.2949C101.168 90.2949 99.5845 88.1087 99.5845 85.4118C99.5845 82.715 101.168 80.5288 103.12 80.5288C105.073 80.5288 106.656 82.715 106.656 85.4118Z" fill="black"/>
<path fill-rule="evenodd" clip-rule="evenodd" d="M135.494 85.5405C133.81 85.9358 132.371 86.8014 131.535 87.7033C131.092 88.1807 130.347 88.209 129.869 87.7665C129.392 87.324 129.363 86.5783 129.806 86.1008C130.995 84.8178 132.866 83.736 134.955 83.2455C137.061 82.7512 139.481 82.8372 141.721 84.0283C142.296 84.334 142.514 85.0477 142.208 85.6224C141.902 86.1971 141.189 86.4152 140.614 86.1096C138.977 85.2389 137.162 85.149 135.494 85.5405Z" fill="black"/>
<path d="M127.185 94.4256C127.041 92.6985 112.045 93.0664 112.045 95.1055C112.044 99.4248 118.849 102.818 120.04 102.754C121.231 102.691 127.526 98.5057 127.185 94.4256Z" fill="#3C210C"/>
<path fill-rule="evenodd" clip-rule="evenodd" d="M119.838 101.341L120.414 101.792C126.168 106.302 133.752 104.652 138.475 101.884C138.956 101.602 139.575 101.763 139.857 102.244C140.14 102.726 139.978 103.345 139.497 103.627C134.598 106.499 126.361 108.52 119.747 103.815C111.937 108.646 103.759 106.566 99.943 104.484C99.4531 104.217 99.2726 103.603 99.5398 103.113C99.807 102.624 100.421 102.443 100.911 102.71C104.405 104.616 112.064 106.523 119.23 101.746L119.838 101.341Z" fill="#3C210C"/>
<path d="M151.794 45.9663C147.015 44.8608 142.561 48.3649 144.628 51.1329C146.832 54.0855 156.02 58.8838 162.818 69.7698C164.471 72.417 163.886 48.7639 151.794 45.9663Z" fill="#D8A482"/>
<path d="M62.6995 172.262L70.4256 163.656C70.4256 163.656 72.6185 166.548 69.4091 170.195C66.1032 173.952 62.6995 172.262 62.6995 172.262Z" fill="#F2F2F2"/>
<path d="M48.3238 141.025L38.2428 150.312L62.6993 172.262L70.4255 163.656L48.3238 141.025Z" fill="white"/>
<mask id="mask1_1497_2741" style="mask-type:alpha" maskUnits="userSpaceOnUse" x="38" y="141" width="33" height="32">
<path d="M48.3285 141.018L38.2528 150.311L62.6932 172.268L70.4154 163.658L48.3285 141.018Z" fill="white"/>
</mask>
<g mask="url(#mask1_1497_2741)">
<path d="M45.5246 151.104L66.2021 170.661L61.5911 176.051L38.0157 158.599L45.5246 151.104Z" fill="#E9EDEE"/>
</g>
<mask id="mask2_1497_2741" style="mask-type:alpha" maskUnits="userSpaceOnUse" x="62" y="163" width="10" height="10">
<path d="M62.7009 172.264L70.4243 163.653C70.4243 163.653 72.6159 166.546 69.4077 170.196C66.103 173.956 62.7009 172.264 62.7009 172.264Z" fill="#F2F2F2"/>
</mask>
<g mask="url(#mask2_1497_2741)">
<path d="M69.5433 170.977C69.544 170.65 67.4142 171.912 65.1588 169.692C62.8603 167.429 57.9066 173.611 57.9066 173.611L67.9808 175.204C67.9808 175.204 69.5394 172.738 69.5433 170.977Z" fill="#DEE2E3"/>
</g>
<path d="M25.6604 145.161C28.8635 153.637 37.7631 156.584 47.1627 153.115C56.5625 149.645 61.8836 140.609 59.0477 132.933C56.212 125.256 46.2931 121.846 36.8935 125.315C27.4938 128.785 22.8735 136.552 25.6604 145.161Z" fill="#E4E4E4"/>
<path d="M47.2649 136.765C49.9839 142.728 56.5634 145.566 61.9606 143.104C67.3578 140.641 69.529 133.811 66.81 127.848C64.091 121.885 57.5115 119.047 52.1143 121.509C46.7172 123.971 44.546 130.801 47.2649 136.765Z" fill="white"/>
<path d="M59.7746 130.492C60.9371 133.042 63.0062 134.595 64.396 133.961C65.7857 133.327 65.97 130.746 64.8074 128.196C63.6449 125.647 61.5759 124.094 60.1861 124.728C58.7963 125.362 58.6121 127.943 59.7746 130.492Z" fill="#3D3D3D"/>
<path d="M152.284 71.6002C149.228 72.8595 148.891 77.8595 151.026 80.6385C152.09 82.0241 154.261 84.2161 154.261 84.2161C135.8 124.948 142.836 154.096 149.282 167.503C155.728 180.91 165.337 217.254 165.337 217.254L176.013 198.802V171.962C176.013 171.962 188.416 132.523 188.416 106.435C188.416 101.035 188.416 88.7953 179.788 68.9641C177.801 64.3978 174.395 59.9259 169.721 61.6206C165.616 63.1092 167.384 70.0939 167.384 70.0939C167.384 70.0939 165.047 64.6744 160.553 66.5163C156.419 68.2109 158.396 74.0481 158.396 74.0481C158.396 74.0481 155.94 70.0939 152.284 71.6002Z" fill="#B27F5D" fill-opacity="0.18"/>
<path fill-rule="evenodd" clip-rule="evenodd" d="M176.275 64.0356C176.098 60.9762 175.901 57.5736 176.416 54.2535C176.85 50.2937 178.222 47.5287 179.21 45.5379C180.875 42.1822 181.449 41.0257 174.599 40.0538C171.18 39.5687 167.852 39.8739 164.848 40.8162C163.854 40.2482 162.767 39.8212 161.603 39.563C154.753 38.0426 147.839 42.9455 146.161 50.5138C144.483 58.0822 148.676 65.45 155.527 66.9704C155.587 66.9837 155.647 66.9965 155.706 67.0088C156.434 67.9435 157.259 68.8194 158.171 69.6232L154.075 76.1085L143.778 92.3889L143.776 92.388C143.776 92.388 143.633 92.6943 143.528 93.2109C143.259 94.5327 143.242 97.2383 146.562 99.7075C146.633 99.7602 146.703 99.8116 146.774 99.8615C149.257 101.627 151.389 101.672 152.835 101.332L157.048 104.558L180.028 78.5649L173.745 74.4944L173.798 74.4227C175.139 73.8363 175.835 72.6973 176.167 71.1711L177.725 69.0332L176.435 68.2688C176.445 66.9758 176.363 65.5476 176.275 64.0356Z" fill="#995B32" fill-opacity="0.18"/>
<path d="M157.533 102.356L146.686 94.4546C146.686 94.4546 144.896 98.2664 149.419 101.631C154.078 105.097 157.533 102.356 157.533 102.356Z" fill="#F2F2F2"/>
<path d="M166.306 63.4335L179.99 71.5402L157.533 102.356L146.686 94.4547L166.306 63.4335Z" fill="white"/>
<mask id="mask3_1497_2741" style="mask-type:alpha" maskUnits="userSpaceOnUse" x="146" y="63" width="34" height="40">
<path d="M166.299 63.4267L179.978 71.5405L157.541 102.362L146.698 94.4545L166.299 63.4267Z" fill="white"/>
</mask>
<g mask="url(#mask3_1497_2741)">
<path d="M171.917 74.1963L153.171 101.385L159.706 106.389L182.248 80.8903L171.917 74.1963Z" fill="#E9EDEE"/>
</g>
<mask id="mask4_1497_2741" style="mask-type:alpha" maskUnits="userSpaceOnUse" x="146" y="94" width="12" height="10">
<path d="M157.532 102.36L146.687 94.4507C146.687 94.4507 144.898 98.2641 149.421 101.632C154.079 105.101 157.532 102.36 157.532 102.36Z" fill="#F2F2F2"/>
</mask>
<g mask="url(#mask4_1497_2741)">
<path d="M149.455 102.55C149.375 102.179 152.097 103.098 154.121 100.033C156.183 96.9098 163.298 102.73 163.298 102.73L152.249 106.971C152.249 106.971 149.885 104.549 149.455 102.55Z" fill="#DEE2E3"/>
</g>
<path d="M173.362 58.7743C171.716 66.1986 164.934 71.0081 158.214 69.5168C151.494 68.0253 147.381 60.7977 149.027 53.3733C150.673 45.949 157.455 41.1394 164.175 42.6309C170.895 44.1223 175.008 51.35 173.362 58.7743Z" fill="white"/>
<path d="M193.027 62.6557C191.415 73.0449 182.592 78.6438 171.885 77.1245C161.179 75.6054 153.627 66.76 155.018 57.3677C156.41 47.9755 166.217 41.5931 176.923 43.1123C187.629 44.6314 194.17 52.2238 193.027 62.6557Z" fill="#E4E4E4"/>
<path d="M158.19 65.5059C155.327 66.632 155.011 71.1031 157.011 73.5882C158.008 74.8272 160.042 76.7874 160.042 76.7874C142.749 113.211 153.694 142.341 155.378 151.265C157.062 160.189 163.915 181.52 163.915 181.52L180.416 179.254V155.252C180.416 155.252 192.034 119.985 192.034 96.6562C192.034 91.827 192.034 80.8822 183.952 63.1486C182.091 59.0653 178.9 55.0663 174.523 56.5818C170.677 57.9129 172.334 64.1589 172.334 64.1589C172.334 64.1589 170.145 59.3126 165.935 60.9596C162.062 62.4751 163.915 67.6949 163.915 67.6949C163.915 67.6949 161.614 64.1589 158.19 65.5059Z" fill="#B27F5D"/>
</g>
</g>
<defs>
<filter id="filter0_ddd_1497_2741" x="9.41602" y="24.2537" width="197.468" height="241.731" filterUnits="userSpaceOnUse" color-interpolation-filters="sRGB">
<feFlood flood-opacity="0" result="BackgroundImageFix"/>
<feColorMatrix in="SourceAlpha" type="matrix" values="0 0 0 0 0 0 0 0 0 0 0 0 0 0 0 0 0 0 127 0" result="hardAlpha"/>
<feOffset dy="2"/>
<feGaussianBlur stdDeviation="2"/>
<feColorMatrix type="matrix" values="0 0 0 0 0 0 0 0 0 0 0 0 0 0 0 0 0 0 0.01 0"/>
<feBlend mode="normal" in2="BackgroundImageFix" result="effect1_dropShadow_1497_2741"/>
<feColorMatrix in="SourceAlpha" type="matrix" values="0 0 0 0 0 0 0 0 0 0 0 0 0 0 0 0 0 0 127 0" result="hardAlpha"/>
<feOffset dy="7"/>
<feGaussianBlur stdDeviation="3.5"/>
<feColorMatrix type="matrix" values="0 0 0 0 0 0 0 0 0 0 0 0 0 0 0 0 0 0 0.01 0"/>
<feBlend mode="normal" in2="effect1_dropShadow_1497_2741" result="effect2_dropShadow_1497_2741"/>
<feColorMatrix in="SourceAlpha" type="matrix" values="0 0 0 0 0 0 0 0 0 0 0 0 0 0 0 0 0 0 127 0" result="hardAlpha"/>
<feOffset dy="16"/>
<feGaussianBlur stdDeviation="5"/>
<feColorMatrix type="matrix" values="0 0 0 0 0 0 0 0 0 0 0 0 0 0 0 0 0 0 0.01 0"/>
<feBlend mode="normal" in2="effect2_dropShadow_1497_2741" result="effect3_dropShadow_1497_2741"/>
<feBlend mode="normal" in="SourceGraphic" in2="effect3_dropShadow_1497_2741" result="shape"/>
</filter>
</defs>
</svg>
