<svg width="235" height="259" viewBox="0 0 235 259" fill="none" xmlns="http://www.w3.org/2000/svg">
<g clip-path="url(#clip0_2136_6664)">
<path d="M81.4376 7.51863C82.7733 4.88112 84.8223 4.29285 87.9153 5.08798C91.8772 6.10937 95.5408 7.86771 99.2563 9.49677C99.6259 9.65838 99.9306 10.0592 100.307 10.1238C102.194 10.4277 102.693 13.647 105.578 12.2248C107.271 11.3909 109.514 11.6947 111.505 11.449C112.958 11.268 114.416 11.1129 115.837 10.7703C117.01 10.4858 118.242 10.1303 119.234 9.48384C120.226 8.02933 121.958 7.44752 123.164 6.25805C125.595 3.85973 128.52 2.43754 131.775 1.61008C132.67 1.38382 133.564 0.905451 134.466 0.983025C137.092 1.20928 137.695 0.924845 138.039 3.47832C138.116 4.06013 137.747 4.7195 138.09 5.19788C139.926 5.98654 140.217 6.64592 138.791 8.06165C138.706 8.14569 139.361 9.10243 139.796 9.52909C142.24 11.9339 143.142 15.0498 143.265 18.2497C143.388 21.3139 143.939 24.4685 142.714 27.5004C142.286 28.5606 143.233 29.207 143.764 30.0151C144.218 30.7003 144.938 31.5795 143.693 32.5556C142.889 33.1827 142.513 34.3463 143.81 35.2578C144.815 35.9689 145.23 36.9321 144.101 37.9341C143.258 38.684 143.245 39.3433 143.686 40.4423C144.315 42.0132 144.685 43.8168 142.214 44.4632C141.877 44.5537 141.43 45.0644 141.404 45.4006C141.203 48.788 138.616 51.2962 138.084 54.5414C137.565 57.6767 136.113 60.618 135.594 63.6563C134.531 69.9075 134.258 76.1845 135.84 82.5908C137.416 88.9519 140.178 94.841 142.072 101.053C143.109 104.454 144.004 107.835 144.004 111.41C144.004 113.814 143.894 116.232 144.03 118.63C144.238 122.186 142.973 125.347 141.527 128.437C140.366 130.919 138.92 133.266 137.604 135.677C137.312 136.214 136.768 136.783 136.807 137.293C137.021 139.808 136.651 141.993 134.381 143.577C134.109 143.764 134.232 144.747 134.401 145.29C134.881 146.9 136.035 148.309 134.881 150.222C134.492 150.862 135.393 152.168 135.412 153.177C135.484 157.114 136.003 161.16 135.263 164.955C134.699 167.858 135.62 170.909 134.155 173.65C133.973 173.992 134.2 174.522 134.116 174.949C133.843 176.352 134.881 176.598 135.639 176.19C139.031 174.361 142.727 173.546 146.442 172.88C149.542 172.324 152.511 171.523 155.903 172.111C159.288 172.693 162.698 172.958 165.914 174.277C168.541 175.356 171.283 176.061 172.872 178.951C173.974 180.961 176.516 181.278 177.878 183.178C178.941 184.665 178.046 186.811 176.289 187.665C175.07 188.259 174.065 188.809 174.247 190.425C174.279 190.69 173.734 191.162 173.365 191.317C169.403 192.953 165.156 193.127 161.103 192.513C157.641 191.989 154.243 192.183 150.819 192.002C148.161 191.86 145.58 192.099 143.083 193.179C142.344 193.496 141.372 193.276 140.503 193.308C137.034 193.438 135.743 195.248 136.761 198.532C138.078 202.798 139.504 207.045 140.645 211.364C141.177 213.38 141.151 215.54 141.372 217.634C141.592 219.729 141.923 221.823 142 223.924C142.111 226.865 142.052 229.755 141.384 232.671C140.723 235.567 139.582 238.417 138.726 241.268C138.467 242.141 138.116 242.981 137.773 243.828C136.975 245.8 138 246.485 140.088 246.647C141.955 246.795 143.025 247.849 143.2 249.498C143.362 250.997 142.578 252.82 140.963 253.725C140.276 254.113 139.089 254.585 138.648 254.281C136.891 253.053 135.743 254.094 134.466 254.992C133.967 255.342 133.402 255.6 132.884 255.93C131.729 256.667 130.601 256.673 129.758 255.555C128.539 253.932 127.631 254.424 126.484 255.665C125.894 256.298 124.947 256.699 124.084 256.958C121.556 257.727 119.623 256.369 119.669 253.79C119.695 252.012 119.202 250.597 118.112 249.155C115.739 246.02 115.422 241.973 113.755 238.495C113.457 237.874 113.47 236.872 113.755 236.239C114.838 233.854 114.164 231.371 114.371 228.941C114.579 226.516 114.844 224.092 115.02 221.662C115.389 216.451 113.995 211.538 112.387 206.67C111.7 204.589 110.727 204.343 108.671 205.184C105.585 206.444 104.457 208.745 104.476 211.9C104.496 215.068 104.988 218.151 105.779 221.209C105.967 221.927 105.805 222.735 105.805 223.497C105.805 228.094 105.779 232.69 105.812 237.28C105.844 241.831 104.262 245.8 101.344 249.207C100.508 250.183 100.378 251.088 100.637 252.135C101.454 255.432 101.046 256.415 97.8816 257.268C96.4681 257.649 94.8924 257.72 93.4269 257.572C92.2144 257.449 91.5271 256.473 91.2936 255.161C90.8657 252.788 90.6582 252.743 88.674 254.036C85.782 255.923 82.6696 255.38 80.6335 252.523C79.6868 251.191 78.1889 250.694 76.8726 250.513C74.6874 250.209 74.1492 248.599 73.6175 247.125C73.209 245.987 76.2048 242.639 77.56 242.581C78.8892 242.522 80.0564 242.225 81.9239 242.884C82.1832 243.214 82.3583 243.065 82.9549 243.137C82.9354 242.542 83.3115 242.49 83.117 241.96C82.8771 241.301 82.4945 240.602 81.9693 240.15C79.0708 237.655 78.2732 233.996 76.9245 230.731C75.5758 227.46 74.9663 223.879 74.0909 220.42C73.8121 219.315 73.65 218.171 73.5527 217.033C73.3387 214.518 72.5152 213.607 70.0447 213.665C64.0857 213.807 58.5481 212.301 53.3089 209.56C49.7036 207.672 47.6092 204.679 47.2526 200.652C47.1358 199.353 47.5249 197.963 47.8815 196.67C49.0811 192.267 50.793 188.24 54.0156 184.723C58.6648 179.649 63.9236 175.447 69.7205 171.833C70.4208 171.394 71.0303 170.721 71.789 170.482C73.7732 169.842 74.0325 168.465 74.2854 166.59C74.8171 162.692 75.1024 158.749 76.101 154.903C76.8337 152.097 77.0672 149.162 77.4886 146.279C78.163 141.631 78.7271 136.964 79.5182 132.335C79.7711 130.861 80.6919 129.614 80.3871 127.907C81.1069 120.874 79.9916 121.675 78.993 118.527C77.8129 114.79 77.4303 110.815 77.949 106.574C78.993 97.9957 82.8057 90.6327 86.3202 83.0627C88.0904 79.2551 89.3743 75.2859 89.9968 71.1293C90.2432 69.4744 90.5414 67.8194 90.6387 66.1516C90.937 61.2968 89.1538 57.0367 86.5796 53.0739C85.9636 52.1236 85.1141 51.3867 83.6357 51.4384C81.7034 51.5095 80.8734 50.5334 80.828 48.4712C80.8086 47.4628 80.6076 46.9456 79.609 46.6805C79.2783 46.5965 78.7985 45.8208 78.8439 45.7691C80.3612 44.0495 78.3057 42.2136 78.9281 40.7526C79.421 39.5825 78.7466 39.1106 78.4742 38.4254C76.1075 35.6521 75.9713 31.7928 76.2112 28.2244C76.4771 24.3199 77.4238 20.4088 79.6025 17.2024C80.7178 15.5605 80.8215 14.3775 80.0694 13.0264C79.2783 11.6107 79.6349 10.8026 80.7048 9.81999C81.1652 9.3998 81.2041 8.52063 81.4376 7.5251M71.8149 196.01C72.0354 195.338 72.418 194.672 72.4439 193.993C72.5282 191.815 72.392 189.63 72.5023 187.458C72.5736 186.016 72.5412 184.62 72.6319 183.178C72.6644 182.642 72.7422 181.679 72.379 181.582C71.8668 181.446 70.9849 181.743 70.6218 182.163C68.9748 184.064 67.2954 185.965 65.9337 188.066C64.559 190.192 64.8508 193.418 66.3746 194.459C67.8855 195.487 69.4417 196.637 71.8149 196.004V196.01Z" fill="#B27F5D"/>
<path d="M143.253 173.714C143.772 178.258 145.866 186.623 145.542 191.187C145.341 194.019 149.951 190.25 164.794 192.784C165.773 192.952 167.77 193.198 168.755 193.049C169.974 192.868 172.575 191.666 173.437 190.787C173.975 190.244 174.572 189.183 174.76 188.446C175.181 186.824 181.16 186.022 175.408 181.206C172.069 178.407 169.417 175.395 164.56 173.901C159.703 172.408 143 171.548 143.253 173.714Z" fill="#2B2623"/>
<path d="M93.5315 16.4532C90.6655 21.1205 83.0529 35.7368 82.4888 35.2196C81.4578 34.2823 82.9816 16.2657 87.6762 13.1951C92.3708 10.1244 94.4328 14.9857 93.538 16.4532H93.5315Z" fill="#D29F82"/>
<path d="M125.991 11.9077C125.874 13.7824 137.332 24.5587 137.825 23.9834C139.141 22.4513 134.816 10.0718 130.874 8.57848C126.931 7.08518 126.088 10.3304 125.991 11.9077Z" fill="#D29F82"/>
<path d="M104.243 47.1143C98.4395 46.6359 96.8185 47.2824 93.9006 47.3147C92.7658 47.3276 88.966 48.8985 91.5403 52.2795C94.5231 56.1905 94.0627 56.6818 94.7565 58.0458C97.642 63.6764 99.2241 67.2124 100.8 72.397C102.726 78.7386 102.778 87.3364 101.5 99.3733C101.182 102.392 103.484 107.719 105.151 111.165C110.286 121.799 111.175 125.516 109.061 131.605C108.75 132.504 109.8 134.366 110.15 135.258C110.649 136.531 112.452 137.637 110.915 141.173C110.52 142.078 107.92 141.683 107.09 142.22C103.802 144.34 102.933 142.22 101.818 143.015C99.3344 144.799 97.2659 146.435 96.0533 144.767C95.0677 143.409 95.2169 151.193 95.2169 151.193C95.2169 151.193 93.8876 173.237 97.0325 179.63C105.456 196.742 120.927 188.57 123.942 179.494C125.096 176.023 125.706 166.927 125.745 162.641C125.784 158.724 124.733 153.979 126.808 146.997C127.042 146.209 128.293 143.08 127.359 143.164C124.15 143.442 126.231 139.906 125.207 139.466C124.351 139.098 122.075 139.66 121.517 138.852C120.843 137.863 121.16 135.07 121.725 134.017C123.573 130.564 122.833 124.139 122.107 120.564C121.446 117.332 122.36 110.738 123.067 107.396C124.104 102.496 124.02 92.3335 122.872 87.3558C121.588 81.7576 127.275 70.936 129.246 65.564C130.738 61.4849 133.727 55.266 136.301 49.9522C137.462 47.5474 138.272 42.5698 132.255 44.9875C130.783 45.5822 127.534 45.4982 126.004 45.4529C121.705 45.3301 119.876 44.9293 117.821 44.5673C116.148 44.2764 115.532 44.0049 111.214 46.1511C109.534 46.985 106.927 47.3535 104.243 47.1337V47.1143Z" fill="white"/>
<path d="M143.998 251.062C142.565 254.798 142.28 254.979 138.694 255.005C137.105 255.018 135.692 255.018 134.213 256.208C132.826 257.32 130.666 257.85 129.006 256.117C128.189 255.264 127.794 255.82 127.145 256.311C126.173 257.055 125.142 257.96 124.007 258.218C121.096 258.884 118.437 256.764 118.398 253.389C118.372 251.14 117.283 249.692 116.252 247.991C114.372 244.882 112.919 241.604 113.01 237.836C113.075 235.211 112.699 232.535 113.094 229.968C113.723 225.896 113.814 221.823 113.626 217.757C113.457 214.201 112.815 210.672 112.355 207.136C112.193 205.901 111.266 205.52 110.235 205.772C109.061 206.056 107.861 206.457 106.843 207.09C105.767 207.763 104.956 208.674 105.073 210.258C105.404 214.757 105.112 219.341 105.884 223.756C106.811 229.063 106.338 234.325 106.344 239.594C106.344 243.233 104.392 246.42 102.421 249.426C101.747 250.461 101.39 251.275 101.747 252.594C102.317 254.682 100.871 257.158 97.9858 258.49C95.9303 259.44 93.0448 259.02 91.5145 257.539C91.2033 257.236 90.6521 256.912 90.6521 256.602C90.6975 253.654 89.3552 254.753 87.8055 255.445C84.291 257.009 82.5533 256.343 79.8947 253.299C79.1685 252.465 77.7679 252.154 76.6266 251.741C74.422 250.939 72.8593 249.026 72.8204 246.899C72.775 244.785 74.0394 242.82 76.2181 242.16C77.4177 241.798 78.7794 241.811 80.0503 241.902C81.4963 242.005 81.3537 241.566 80.7312 240.648C77.7225 236.213 76.0366 231.197 74.5517 226.135C73.7087 223.271 72.6583 220.42 72.788 217.317C72.8788 215.197 72.5416 215.165 70.3564 214.906C65.5126 214.331 60.5651 214.292 55.9613 212.314C52.7062 210.917 49.9764 208.952 48.1608 205.817C47.4475 204.595 47.2141 203.367 47.0844 201.977C46.3581 194 50.0023 187.768 55.2027 182.357C58.6069 178.821 62.4845 175.731 66.2778 172.589C67.6784 171.432 69.3578 170.54 71.0372 169.816C72.2822 169.28 72.6842 168.388 72.8009 167.282C73.5401 160.591 75.0121 154.069 76.6915 147.552C77.5734 144.126 77.6447 140.493 78.0921 136.951C78.2996 135.289 78.4811 133.622 78.76 131.973C79.1555 129.626 79.7715 127.312 80.0049 124.959C80.1217 123.776 79.9012 122.367 79.3371 121.333C76.3802 115.948 76.3738 110.084 76.886 104.337C77.3723 98.8425 79.966 93.8649 82.268 88.8613C84.6347 83.7156 86.8458 78.4858 88.7781 73.1656C90.9439 67.2053 90.5548 61.3161 87.3905 55.6597C86.3855 53.8626 85.3998 52.5567 83.059 52.6343C81.211 52.6925 79.564 51.1863 79.59 49.7253C79.6159 47.9734 78.0467 47.1136 78.144 45.6721C78.2412 44.308 78.0532 42.9634 78.0986 41.6188C78.1504 40.1255 77.904 38.8132 77.0676 37.4363C75.8874 35.4905 75.3882 33.2796 75.4011 30.8878C75.4206 26.8604 75.4335 22.8847 77.4372 19.2258C77.5863 18.9608 77.6966 18.6634 77.8846 18.4242C79.363 16.556 80.582 14.72 78.8248 12.27C78.4876 11.7981 78.9934 10.6733 79.2139 9.87814C79.4278 9.1024 79.8623 8.38485 80.0568 7.60264C80.6274 5.25603 81.9502 4.18939 84.4726 4.07303C88.1038 3.90495 91.4107 5.22371 94.6529 6.52954C97.0974 7.51214 99.5161 8.73393 101.623 10.2854C102.719 11.0935 103.685 11.4361 104.846 11.2809C107.213 10.9642 109.567 10.4987 111.92 10.1044C112.342 10.0333 112.783 9.94279 113.191 10.0074C116.155 10.4923 118.178 9.07655 120.279 7.14366C122.924 4.71301 125.849 2.46983 129.344 1.30622C131.866 0.465838 134.447 -0.833525 137.144 0.808457C137.721 1.15754 138.655 1.70702 138.629 2.11428C138.512 3.78859 138.966 5.08149 140.347 6.0447C140.438 6.10934 140.587 6.23217 140.568 6.27096C139.219 9.5032 142.552 11.2098 143.103 13.9055C143.979 18.1592 143.946 22.3869 143.979 26.6535C142.572 27.7913 143.765 28.4183 144.439 29.2134C144.822 29.666 145.327 30.3447 145.23 30.8102C145.01 31.8833 143.972 32.9887 144.167 33.8873C144.381 34.8763 145.729 35.6068 145.288 36.9579C144.997 37.8371 144.387 38.6969 144.381 39.5631C144.381 40.41 145.211 41.2568 145.23 42.1101C145.25 42.9699 144.925 44.4115 144.387 44.6119C140.976 45.8725 140.892 49.2598 140.218 51.7551C139.226 55.3947 137.682 58.879 137.021 62.609C136.223 67.0631 134.855 71.5042 135.478 76.0616C136.1 80.6127 137.43 85.0344 138.921 89.3979C140.691 94.5824 142.636 99.7476 143.894 105.061C145.217 110.647 145.029 116.491 144.51 122.16C144.076 126.918 141.878 131.307 139.206 135.367C138.61 136.272 138.13 137.442 138.117 138.496C138.097 140.345 137.436 141.741 136.152 142.969C135.257 143.822 134.693 144.411 135.257 146.111C136.1 148.658 135.945 151.567 136.055 154.321C136.165 157.055 136.055 159.79 136.087 162.531C136.12 166.022 135.731 169.454 134.79 172.829C134.622 173.436 134.654 174.167 134.816 174.781C134.894 175.078 135.633 175.531 135.802 175.44C139.725 173.262 144.16 172.531 148.407 171.788C151.902 171.18 155.67 171.374 159.372 172.021C162.673 172.596 165.643 173.863 168.761 174.852C170.357 175.356 171.511 176.326 172.62 177.47C173.903 178.795 175.09 180.276 176.562 181.342C179.798 183.689 179.824 186.262 176.497 188.175C175.7 188.634 174.643 189.009 174.883 190.431C174.954 190.865 174.124 191.834 173.625 191.892C172.159 192.073 171.2 192.629 170.032 193.631C169.092 194.433 166.939 193.864 165.325 193.819C164.962 193.812 164.612 193.315 164.242 193.295C158.627 193.043 152.998 192.552 147.389 192.733C144.497 192.823 141.644 194.129 138.765 194.866C137.267 195.248 137.151 196.405 137.43 197.53C138.272 200.891 139.362 204.188 140.153 207.556C140.905 210.775 141.495 214.04 141.981 217.304C142.351 219.819 142.578 222.366 142.643 224.907C142.818 231.546 141.644 237.946 138.888 244.035C138.448 245.011 138.402 245.709 139.991 245.89C143.142 246.246 143.959 247.429 143.985 251.081M72.8334 197.523C73.0733 201.809 72.7231 206.076 73.3456 210.4C73.8838 214.13 73.9162 217.977 74.85 221.649C76.5618 228.352 78.4811 235.017 82.5792 240.783C82.9747 241.346 83.1952 242.07 83.3508 242.755C83.5194 243.505 83.1174 244.261 82.3522 243.731C80.809 242.658 79.175 243.221 77.6252 243.246C75.8096 243.279 74.2534 245.031 74.1432 246.64C74.0459 248.05 75.4141 249.853 76.9833 250.409C78.8313 251.056 79.2074 250.965 79.3695 249.239C79.577 247.073 81.3148 246.304 82.6829 245.199C82.884 245.037 83.5648 245.464 84.0252 245.619C83.8047 245.903 83.6491 246.298 83.3573 246.453C81.3407 247.526 80.407 249.071 80.6988 251.43C80.9452 253.454 83.4157 254.928 85.536 254.553C88.642 254.003 90.2112 252.484 89.9777 249.271C89.9583 249.006 90.1852 248.722 90.3019 248.444C90.4057 248.728 90.5159 249.013 90.6197 249.297C91.0087 250.377 90.9828 250.344 91.9554 249.504C92.2083 249.284 92.6557 249.278 93.0188 249.181C93.0188 249.556 93.168 250.008 93.0124 250.286C92.5001 251.178 91.5599 251.941 91.3524 252.879C90.9958 254.501 91.5469 256.046 93.0707 256.964C94.7112 257.947 96.5009 257.998 98.096 256.951C99.6522 255.923 101.033 254.301 100.391 252.478C99.7949 250.771 100.437 249.873 101.221 248.677C102.175 247.229 103.089 245.735 103.763 244.151C104.885 241.514 105.242 238.728 105.138 235.845C105.021 232.567 105.663 229.16 104.989 226.019C103.835 220.614 103.621 215.216 103.867 209.793C104.003 206.845 105.255 204.13 108.341 202.876C108.886 202.656 109.845 202.346 110.066 202.585C111.356 203.968 113.081 205.339 113.542 207.013C114.423 210.213 114.903 213.62 114.916 216.942C114.936 223.963 114.527 230.99 114.359 238.017C114.339 238.928 114.676 239.846 114.851 240.758C115.506 244.158 117.114 247.086 119.241 249.795C119.747 250.435 120.279 251.65 120 252.2C118.949 254.281 120.272 255.367 121.465 256.518C122.762 257.772 124.02 256.596 125.246 256.259C126.919 255.807 127.055 254.501 126.86 253.053C126.802 252.62 126.86 252.18 126.847 251.741C126.828 251.165 125.764 250.461 126.944 250.086C127.171 250.015 127.794 250.829 128.06 251.327C128.39 251.941 128.611 252.639 128.767 253.331C128.935 254.081 128.656 254.779 129.882 255.186C131.989 255.885 133.247 255.878 134.408 254.378C135.517 252.943 135.439 251.696 134.09 250.092C133.74 249.672 133.273 249.349 132.955 248.909C132.806 248.702 132.891 248.334 132.865 248.037C133.098 248.101 133.331 248.166 133.565 248.243C135.588 248.922 136.47 250.454 136.742 252.458C136.794 252.866 136.788 253.428 137.04 253.628C137.987 254.365 141.281 253.312 142.027 252.226C142.896 250.952 142.961 249.679 142.254 248.386C141.417 246.847 139.894 247.093 138.499 247.157C137.948 247.183 137.417 247.448 136.872 247.603C136.852 246.867 136.684 246.097 136.859 245.412C137.086 244.546 137.669 243.777 137.974 242.923C139.751 237.946 141.106 232.852 141.307 227.564C141.521 221.952 140.678 216.432 139.381 210.976C138.143 205.785 137.216 200.51 135.802 195.37C134.46 190.509 133.254 185.68 133.422 180.593C133.513 177.748 133.079 174.839 133.539 172.072C134.038 169.079 134.726 166.106 134.719 163.08C134.719 157.695 135.102 152.297 134.148 146.925C133.701 144.385 131.782 142.84 129.032 143.331C128.287 143.467 127.496 143.331 126.73 143.357C125.544 143.396 124.779 142.833 124.908 141.676C125.096 140.008 124.182 139.924 122.996 140.073C121.524 140.261 120.856 139.207 120.292 138.198C119.766 137.255 119.371 136.446 120.162 135.095C122.393 131.288 122.133 126.834 121.407 122.806C120.681 118.779 120.953 114.842 121.031 110.899C121.089 107.983 122.684 105.107 122.788 102.185C122.95 97.4721 122.957 92.6366 122.055 88.0468C121.446 84.9568 122.224 82.2934 122.756 79.5525C123.346 76.4948 124.416 73.4565 125.764 70.6444C126.906 68.2719 127.664 65.5698 129.875 63.7985C130.096 63.624 130.342 63.4753 130.576 63.3137C130.576 63.6886 130.686 64.1217 130.537 64.4256C129.408 66.7011 128.092 68.8861 127.094 71.2133C125.226 75.5703 123.158 79.8886 123.534 84.8598C123.819 88.5963 123.488 92.3199 124.091 96.1016C124.915 101.254 123.3 106.322 122.451 111.416C121.9 114.752 122.412 118.281 122.632 121.707C122.782 124.106 123.618 126.511 123.436 128.864C123.274 131.023 122.237 133.143 121.452 135.231C120.81 136.944 121.4 138.515 123.067 138.716C123.871 138.812 124.72 138.515 125.55 138.399C125.926 138.347 126.303 138.302 126.672 138.257C126.549 138.709 126.458 139.168 126.303 139.608C126.114 140.144 125.583 141.023 125.719 141.133C126.244 141.566 126.951 141.89 127.632 141.993C128.066 142.058 128.566 141.663 129.045 141.489C129.94 141.172 130.666 140.745 131.62 141.773C133.001 143.267 134.499 143.098 135.601 141.456C136.204 140.558 136.6 139.394 136.677 138.321C136.781 136.905 137.228 135.768 137.929 134.546C140.01 130.932 142.046 127.39 142.792 123.065C143.817 117.137 143.577 111.28 142.474 105.572C141.443 100.239 139.193 95.1384 137.501 89.928C136.081 85.5451 134.726 81.1233 134.142 76.5529C133.513 71.6529 134.57 66.811 135.659 62.0854C136.801 57.1465 138.467 52.3176 140.075 47.5015C140.555 46.0599 140.704 44.308 142.74 43.6745C143.966 43.2931 144.238 42.1489 143.356 40.8883C142.798 40.0932 141.981 39.0977 143.162 38.1086C144.556 36.9385 144.173 35.8783 142.935 34.9475C142.033 34.2687 141.943 33.7709 142.922 33.0598C144.4 31.9867 144.42 30.7779 142.935 29.6789C141.755 28.8062 141.845 27.7395 142.228 26.5307C142.442 25.8454 142.688 25.1085 142.643 24.4168C142.5 22.2059 142.552 20.0145 142.182 17.7648C141.683 14.7071 140.95 11.9532 139.167 9.43209C138.843 8.97311 138.577 7.95819 138.811 7.72547C140.023 6.51661 139.102 6.31621 138.188 5.81844C137.501 5.4435 135.899 5.4435 137.274 3.73041C138.065 2.74781 137.002 1.37733 135.556 1.52602C133.52 1.73288 131.425 2.10136 129.525 2.83184C125.894 4.23464 122.808 6.58772 120.039 9.29634C118.573 10.725 117.004 11.3068 114.942 11.3908C112.459 11.4943 110.014 12.2312 107.531 12.4898C105.203 12.729 103.082 13.453 100.664 11.449C96.7278 8.19091 91.6766 6.76226 86.7486 5.43704C84.4791 4.82937 82.8451 5.48229 82.041 6.87215C81.6195 7.60264 80.8803 8.25556 82.0151 8.97958C81.3731 9.68421 80.4653 10.2983 80.1606 11.1323C79.9271 11.7852 80.18 12.9746 80.6728 13.453C81.853 14.5778 81.3796 15.4958 80.7377 16.5301C80.3032 17.2283 79.8299 17.9006 79.4278 18.6181C77.2945 22.3546 76.4192 26.3626 76.7693 30.6615C76.912 32.4328 76.6915 34.1523 77.8262 35.8396C78.4228 36.7252 78.5849 37.9534 79.5446 38.7227C81.0035 39.8993 78.7146 40.94 79.3954 42.1812C79.778 42.8729 80.2967 44.1206 79.9985 44.4503C78.332 46.325 81.1656 46.5383 81.023 47.4821C80.822 48.8461 80.4459 50.0485 81.8919 50.8824C82.3263 51.1346 82.8645 51.419 83.3184 51.3673C86.2233 51.0182 87.4813 52.8929 88.6874 55.0262C92.1046 61.0899 92.2667 67.4768 90.1009 73.8314C88.1816 79.4684 85.7695 84.9568 83.3379 90.4064C81.4185 94.6923 79.4603 98.8555 78.6433 103.607C77.8262 108.326 78.0986 112.761 79.2722 117.318C80.1476 120.738 81.7687 123.802 83.5907 126.692C85.3869 129.536 87.5332 132.354 90.1269 134.436C92.4547 136.304 94.1277 137.811 94.0304 141.101C93.9461 144.133 97.0326 145.62 99.3021 143.997C99.7495 143.68 99.9246 143.008 100.327 142.594C100.91 141.987 101.325 140.939 102.499 142.213C102.927 142.678 104.716 142.601 105.235 142.103C106.052 141.321 106.24 140.403 107.725 141.314C108.827 141.987 109.547 140.519 110.299 139.808C110.474 139.646 110.371 139.194 110.397 138.877C110.546 137.3 109.969 136.02 108.853 134.908C108.419 134.475 107.699 133.628 107.822 133.441C108.808 131.934 107.907 130.157 108.49 128.773C109.755 125.767 108.704 122.89 107.848 120.318C106.415 116.025 104.146 112.004 102.149 107.906C101.131 105.818 100.346 103.736 100.495 101.357C100.69 98.2736 100.858 95.1642 101.001 92.1001C101.247 86.7539 101.598 81.3561 100.618 75.9388C99.6976 70.8383 98.3554 65.99 95.9043 61.4454C95.4699 60.6374 94.9901 59.8552 94.614 59.0212C94.5102 58.7885 94.7048 58.4265 94.7631 58.1227C94.9965 58.252 95.3208 58.3231 95.4504 58.5235C96.5009 60.1654 97.8237 61.7169 98.4786 63.5076C99.9765 67.6061 101.338 71.7757 102.376 76.0099C102.998 78.5569 103.381 81.3367 103.011 83.8902C102.706 86.004 102.557 88.0921 102.499 90.206C102.466 91.4084 102.706 92.6625 102.428 93.7938C101.02 99.4373 101.669 104.79 104.483 109.852C106.869 114.144 109.612 118.184 109.956 123.401C110.098 125.593 110.403 127.61 109.93 129.846C109.495 131.902 108.97 134.294 111.246 136.11C112.147 136.834 111.972 138.269 111.791 139.601C111.266 143.512 107.051 141.806 105.43 143.978C105.177 144.314 104.412 144.365 103.88 144.378C103.51 144.385 103.063 144.178 102.771 143.932C101.974 143.254 101.669 142.924 101.04 144.301C100.644 145.161 99.0298 145.775 97.882 145.923C95.0679 146.285 92.6298 143.952 92.6557 140.978C92.6687 139.252 92.4871 137.726 90.9179 136.757C86.8199 134.242 84.4596 130.286 82.0605 126.342C81.8854 126.052 81.5417 125.858 81.2823 125.618C81.1073 125.948 80.809 126.258 80.7766 126.601C80.5237 129.245 80.3356 131.895 80.0957 134.539C79.9012 136.64 79.8234 138.767 79.4084 140.829C78.6562 144.54 77.3983 148.173 76.8795 151.91C76.1209 157.372 74.5193 162.666 74.0719 168.207C73.7282 172.512 72.9047 176.791 72.8658 181.136C72.8204 186.391 72.8528 191.647 72.8528 197.555M139.712 193.256C142.072 192.597 144.4 191.556 146.793 191.369C150.826 191.052 154.898 191.168 158.951 191.33C161.233 191.421 163.678 191.537 165.72 192.397C168.651 193.631 170 190.503 172.38 190.625C172.49 190.625 172.639 190.671 172.704 190.619C173.028 190.335 173.644 189.96 173.599 189.74C173.171 187.8 174.772 187.445 175.881 186.786C177.826 185.635 178.436 184.193 176.744 183.062C174.046 181.258 172.166 178.64 169.533 176.863C168.632 176.248 167.516 175.925 166.479 175.524C163.989 174.568 161.473 173.837 158.789 173.391C155.261 172.803 151.896 172.829 148.388 173.372C144.504 173.973 140.821 175.246 137.021 176.074C135.186 176.475 134.875 177.134 134.726 178.75C134.311 183.269 135.569 187.581 136.113 191.977C136.314 193.612 137.196 193.929 139.712 193.263M69.2087 183.398C71.2058 182.034 71.8413 180.14 71.5495 177.787C71.4328 176.863 71.6986 175.893 71.757 174.943C71.8218 173.837 71.8478 172.732 71.8931 171.62C70.8492 171.975 69.7987 172.324 68.7548 172.686C68.664 172.719 68.6056 172.855 68.5213 172.913C63.6192 176.009 59.2748 179.797 55.4166 184.077C51.15 188.809 48.1089 194.123 48.3942 200.865C48.5109 203.574 49.3798 205.72 51.2732 207.575C54.029 210.284 57.4462 211.616 61.1552 212.294C63.924 212.799 66.7122 213.167 69.4875 213.626C71.3744 213.936 72.7361 212.87 72.1071 211.15C71.0113 208.17 71.7699 205.183 71.53 202.216C71.4003 200.607 71.945 198.635 71.1928 197.471C70.5444 196.469 68.4824 196.372 67.0364 195.888C63.7359 194.776 63.0421 192.856 64.1639 189.662C65.0847 187.051 67.231 185.641 69.2087 183.405M71.5171 183.728C68.9169 185.189 66.7835 187.548 65.5126 190.367C64.5594 192.487 64.7086 193.269 66.4204 194.381C66.9975 194.763 67.6849 195.034 68.3592 195.202C71.3744 195.939 71.4976 195.842 71.5106 192.856C71.5235 190.031 71.5106 187.206 71.5106 183.728M109.735 204.75C109.56 204.421 109.268 203.794 109.236 203.807C108.503 204.11 107.796 204.466 107.109 204.867C107.031 204.912 107.142 205.261 107.161 205.474C107.907 205.345 108.652 205.209 109.729 204.75H109.735Z" fill="#8A593B"/>
<path d="M110.494 46.8684L112.66 45.8276L114.417 44.5605H116.129L118.742 45.0842L120.214 45.569L119.968 47.9092L117.776 50.5143L115.999 51.0832L112.9 50.4691L111.214 48.7366L110.494 46.8684Z" fill="#FFBDE2"/>
<path d="M113.405 44.6164C112.679 44.0733 111.823 43.4722 111.239 42.8063C110.727 42.218 110.176 41.3583 110.221 40.6601C110.286 39.768 111.175 39.4836 112.167 39.4383C113.833 39.3607 115.493 38.8888 117.16 38.8565C119.384 38.8177 119.863 39.8714 118.657 41.8108C118.489 42.0823 118.216 42.2956 117.964 42.5089C116.55 43.7178 116.939 43.8859 117.704 44.2867" fill="#65381A"/>
<path d="M85.2702 29.129C87.0793 26.2652 88.7458 23.5825 90.3668 20.8674C91.3006 19.303 92.137 17.6675 93.0902 16.116C93.2977 15.7734 93.9397 15.3467 94.2055 15.4437C95.2624 15.8316 94.614 16.5556 94.3157 17.0857C92.967 19.4775 91.6053 21.8565 90.1918 24.2095C88.0844 27.7004 85.9316 31.1718 83.7723 34.6303C83.5519 34.9858 83.1628 35.2315 82.8516 35.5289C82.7219 35.044 82.3458 34.4493 82.5144 34.1002C83.299 32.4582 84.2262 30.8809 85.2702 29.1226V29.129Z" fill="#8A593B"/>
<path d="M136.995 25.1916C133.493 21.7007 130.16 18.378 126.821 15.0488C126.354 14.5833 125.764 14.189 125.466 13.633C125.245 13.2322 125.414 12.6246 125.401 12.1074C125.79 12.3466 126.238 12.5212 126.555 12.8314C129.908 16.1413 133.253 19.4576 136.56 22.8126C137.209 23.472 137.676 24.3059 138.188 25.0881C138.259 25.198 138.078 25.476 138.013 25.6764C137.728 25.5665 137.449 25.4566 136.995 25.1851V25.1916Z" fill="#8A593B"/>
<path d="M116.952 43.959C117.873 44.1658 118.768 44.5408 119.695 44.6895C120.966 44.8963 122.256 44.961 123.728 45.0903C125.285 45.1937 126.517 44.6765 127.781 44.2757C128.001 44.2046 128.19 43.9913 128.41 43.9655C128.624 43.9461 128.851 44.0818 129.071 44.1529C128.968 44.3404 128.903 44.6119 128.747 44.6895C127.457 45.323 126.179 45.9371 124.649 45.866C122.535 45.769 120.408 45.9888 118.32 45.4717C118.145 45.4264 117.899 45.504 117.776 45.4135C116.044 44.0883 114.462 44.7994 113.023 45.8725C111.694 46.868 110.124 47.4563 108.633 47.6502C106.396 47.9605 105.164 48.0381 103.011 47.5532C102.959 47.5274 102.68 47.4563 102.655 47.4175C102.181 47.0943 101.721 47.0943 101.254 46.7646C101.805 46.7129 102.428 46.4801 102.894 46.6482C104.353 47.1848 105.715 46.8421 107.181 46.7193C108.873 46.5771 110.319 45.963 111.843 45.4523C112.394 45.2713 112.887 44.8963 113.373 44.5602" fill="#65381A"/>
<path d="M102.921 38.8507C104.217 38.8507 105.268 37.4094 105.268 35.6314C105.268 33.8534 104.217 32.4121 102.921 32.4121C101.624 32.4121 100.573 33.8534 100.573 35.6314C100.573 37.4094 101.624 38.8507 102.921 38.8507Z" fill="black"/>
<path d="M124.001 37.0226C125.297 37.0226 126.348 35.5813 126.348 33.8033C126.348 32.0253 125.297 30.584 124.001 30.584C122.704 30.584 121.653 32.0253 121.653 33.8033C121.653 35.5813 122.704 37.0226 124.001 37.0226Z" fill="black"/>
<path d="M110.922 46.4868C110.922 46.4868 111.804 48.4844 112.588 49.2795C113.139 49.8419 114.747 50.3203 115.61 50.3267C116.135 50.3267 116.887 50.0423 117.38 49.7126C118.002 49.3054 119.468 47.644 119.611 46.92C119.747 46.2347 119.565 45 119.565 45L120.706 45.2133C120.706 45.2133 120.369 47.1979 120.142 47.8314C119.844 48.6589 118.625 50.191 118.074 50.6758C117.523 51.1607 116.245 51.3093 116.245 51.3093C116.245 51.3093 114.352 51.3352 113.762 51.1477C112.964 50.8956 111.615 49.7967 111.103 49.1955C110.824 48.8722 110.221 47.7603 110.221 47.7603L109.495 46.823L110.915 46.4868H110.922Z" fill="#65381A"/>
</g>
<path d="M220.428 73.0621L220.716 74.645C219.853 74.0067 218.609 73.7191 216.98 73.7823L211.995 74.5983L209.453 75.3184L222.587 80.4461L227.427 82.3634L226.419 89.8409C224.789 87.6687 220.924 87.0444 214.819 87.9704C217.471 89.0249 220.3 91.8845 223.304 96.5515L211.896 96.8859L211.129 96.5024L208.541 95.1603L208.686 94.3466C204.435 90.4793 199.85 89.5533 194.928 91.5665L192.868 97.2693C196.927 100.019 199.513 102.589 200.633 104.985L202.932 110.066L203.126 110.45L199.05 112.559C202.885 115.977 205.375 119.19 206.528 122.192L203.173 123.151L205.331 129.765L206.095 131.636L207.056 137.58L200.346 140.409C200.124 139.004 199.294 136.111 197.853 131.734C197.598 129.85 197.135 127.916 196.464 125.933L196.848 125.55C195.153 118.647 194.369 114.941 194.498 114.429L194.402 112.129L192.101 112.991L192.197 115.484L193.588 124.208L189.945 126.555L189.036 124.303L188.51 116.396L188.844 116.157L188.461 115.823L188.171 111.556L189.705 112.994L194.065 109.542C192.595 105.645 190.357 102.322 187.355 99.5725C185.629 98.0059 183.663 96.6146 181.458 95.4011L179.445 94.3957L179.349 94.1572L175.802 87.8301L176.04 87.7342C178.245 88.3421 180.321 88.6929 182.272 88.7887L186.728 89.8433L186.873 92.0973L189.415 90.5143L189.749 90.6593L189.941 90.18L191.858 90.2267L194.014 89.8433L195.644 82.4616C195.164 83.1654 194.507 83.6938 193.677 84.0446L194.061 80.7851L198.709 82.174L205.083 87.7342L207.143 89.9391L212.032 83.8505L209.109 81.2621L209.638 79.5365L208.871 78.5779C205.836 75.1267 200.21 72.9709 191.998 72.1081L191.952 71.6288C195.595 71.2781 199.621 71.3576 204.031 71.8696L204.176 67.4598L218.506 66.9805C218.955 66.9805 219.594 69.01 220.424 73.0668" fill="#E15858"/>
<path d="M222.586 80.4441L209.452 75.3165L211.994 74.5963L216.979 73.7803C218.609 73.7171 219.852 74.0047 220.715 74.6431L220.428 73.0601L224.692 72.0547C226.579 75.3773 227.155 77.678 226.418 78.957C226.067 79.4667 224.788 79.9624 222.583 80.4418M205.33 129.766L203.172 123.151L206.527 122.192C206.847 122.992 207.053 123.789 207.149 124.589L210.266 121.858C211.384 124.638 213.093 127.418 215.396 130.198L211.37 135.088C209.868 134.257 207.855 132.483 205.33 129.768M156.2 122.817C154.923 127.449 154.107 130.023 153.757 130.533L156.488 131.875L155.912 133.551L148.435 128.375L150.401 126.983L150.974 126.121L152.557 126.934L152.987 122.237L154.954 117.876C155.337 119.824 155.751 121.47 156.2 122.812M158.117 132.834C159.873 133.918 160.738 134.814 160.706 135.518L162.24 130.82L162.097 136.14L163.582 136.811L162.623 140.692C158.309 139.128 156.326 138.008 156.679 137.337L158.117 132.831M219.565 106.566L218.272 104.602L225.364 104.745L225.843 98.3242L230.302 99.1379L234.999 98.7053L234.663 106.52L224.742 106.95L219.565 106.566ZM145.463 107.717L147.717 107.38V108.339C147.429 109.681 147.27 110.943 147.238 112.124L147.717 112.65L147.668 118.882L144.313 124.009L140.19 119.169C140.957 117.956 142.716 114.137 145.463 107.712M178.534 141.316L179.734 141.171L177.817 128.47L184.048 137.482L184.001 138.008L184.385 137.961L184.96 138.824L185.294 145.343L177.912 146.685C177.688 146.047 177.831 144.639 178.343 142.467L178.534 141.316Z" fill="#FD3C22"/>
<path d="M204.181 67.4544L204.036 71.8643C199.626 71.3522 195.6 71.2727 191.957 71.6234L192.004 72.1028C200.216 72.9655 205.841 75.1237 208.876 78.5725L209.643 79.5312L209.115 81.2568L207.918 84.9488L201.637 83.0314L198.714 82.1687L194.066 80.7798L193.683 84.0392L193.589 84.7103C191.672 86.6907 189.355 87.9533 186.638 88.4958L185.487 88.6875L182.277 88.7834C180.327 88.6875 178.251 88.3368 176.046 87.7289V87.1069L176.287 87.011L176.095 86.5317L176.287 82.8888C180.025 82.634 183.317 82.185 186.161 81.5467L191.146 79.9637L187.36 79.0051L187.407 78.5258L195.651 78.7666C198.336 79.5008 200.253 79.8702 201.403 79.8702L201.642 78.5281L189.371 76.8984L187.407 77.0901L187.454 76.4191C184.802 76.7066 182.118 77.345 179.403 78.3364L176.432 75.893L177.294 75.8462C178.061 75.7831 180.425 74.6327 184.388 72.395L184.101 70.6227L187.599 70.431L187.648 66.8348L182.95 65.0134C181.641 66.6758 179.817 68.4482 177.486 70.3328L172.597 70.6671L166.702 71.4831L164.928 71.7216L165.215 70.6671L165.503 69.3741C166.588 64.6767 166.829 60.9543 166.221 58.2046L165.79 55.9061L173.794 56.4813C174.273 59.3246 174.402 61.962 174.178 64.3891L174.035 65.7803C176.976 62.1047 178.987 58.6395 180.074 55.3777L183.619 61.1296C188.478 57.1033 193.063 54.9638 197.377 54.709L199.582 54.7557L200.349 57.8234L201.116 60.8912C199.168 61.1156 196.451 62.1865 192.967 64.1038L204.183 64.8216H204.23L204.183 67.4591M179.448 94.3927L181.461 95.3981C183.666 96.6116 185.632 98.0029 187.358 99.5694C190.36 102.317 192.598 105.639 194.068 109.539L189.708 112.991L188.174 111.553L183.958 107.671C183.893 110.194 185.396 112.911 188.464 115.82L188.847 116.154L188.513 116.393L184.007 119.173C182.794 118.373 181.737 117.51 180.844 116.584C177.552 113.262 176.114 109.058 176.53 103.977L177.248 101.148L178.157 97.4581L183.86 105.703L184.819 103.451L180.409 96.0692L179.163 94.2477L179.45 94.3904M189.034 124.3L189.944 126.552L193.587 124.205L193.634 124.588C193.697 125.514 194.017 126.634 194.59 127.943L196.46 125.93C197.131 127.911 197.594 129.844 197.849 131.731C198.2 134.703 198.057 137.563 197.417 140.31L192.864 139.686L191.857 139.543L191.952 137.722C191.985 135.58 191.744 133.695 191.232 132.066C191.394 133.504 191.424 134.991 191.33 136.524V137.004L184.379 137.962L183.996 138.009L184.042 137.483C184.105 131.603 181.999 126.395 177.718 121.857L186.584 120.227C187.543 121.537 188.359 122.895 189.03 124.3M202.933 110.066L200.634 104.985C199.514 102.588 196.928 100.016 192.869 97.2687L194.929 91.5658C199.851 89.5527 204.436 90.4786 208.687 94.3459L208.542 95.1596L207.057 94.3927C206.641 94.4558 205.635 93.6585 204.036 91.9961L203.173 92.6204L205.425 94.8253L208.207 96.6467L207.391 100.624C206.72 99.186 204.899 97.8275 201.929 96.5508C204.964 99.2351 206.772 102.478 207.345 106.28L202.935 110.068M211.897 96.8852L223.305 96.5508L225.989 96.5017L225.844 98.3232L225.365 104.744L218.273 104.601L209.021 104.456L208.974 97.1237L212.138 99.2327L213.192 97.3154L211.897 96.8852ZM175.183 74.787L174.465 74.2118C177.341 72.2618 180.535 71.0646 184.052 70.6157L181.274 72.2922L175.185 74.7847M187.643 73.2555C192.053 71.2423 194.945 70.3 196.32 70.4286L200.968 70.2369L200.632 68.7989L194.4 69.3741L186.923 71.724L187.641 73.2578M163.534 85.9074L170.436 86.1459C170.182 91.5775 170.595 96.6584 171.683 101.389C172.225 103.818 172.959 106.165 173.888 108.436L168.758 110.161L167.752 110.496L166.602 108.962C166.506 111.967 165.947 114.922 164.925 117.828L164.684 118.404L163.679 117.924C163.838 122.271 163.361 126.568 162.241 130.819L160.707 135.517C160.74 134.813 159.875 133.917 158.119 132.832L156.489 131.874L153.758 130.532C154.109 130.02 154.925 127.448 156.202 122.816L158.502 114.043L159.749 114.38C160.099 112.974 160.228 111.008 160.132 108.483L159.604 102.492L164.156 99.663C163.901 97.4277 163.726 94.8861 163.63 92.0428L160.899 96.3077L160.085 95.8774L161.236 92.4263L159.704 92.1878L158.313 94.9188L157.209 94.3436L150.69 94.3904L151.696 92.9524L153.23 90.9883L152.701 90.0296L150.496 92.3304C149.346 93.1301 148.404 93.8175 147.669 94.3904L145.226 94.5821C142.383 94.9656 139.411 95.8283 136.311 97.1705L136.357 94.7738L136.549 88.7343C137.22 87.9346 140.751 86.8801 147.141 85.5707C154.235 84.0696 159.636 84.3408 163.342 86.3867H163.389L163.534 86.4826V85.9074ZM147.094 79.917L144.985 75.6498C153.389 71.8152 160.691 72.7738 166.889 78.5258L158.982 82.7438C158.374 82.0401 157.464 81.4976 156.248 81.1141C159.604 79.8351 162.384 79.3394 164.589 79.6294L164.684 77.1369C158.645 78.1259 154.301 79.1992 151.649 80.3495C150.34 80.2537 148.885 80.2373 147.288 80.3004L147.143 80.0596L147.097 79.917M154.046 104.554C153.63 105.864 153.503 106.759 153.662 107.239H154.046C152.799 109.219 152.063 111.345 151.841 113.613C151.712 114.7 151.712 115.834 151.841 117.017L147.719 112.654L147.239 112.128C147.272 110.945 147.431 109.684 147.719 108.342C148.165 106.233 148.948 103.933 150.066 101.44L154.046 104.554Z" fill="#FF9298"/>
<path d="M203.126 110.45L202.932 110.066L207.342 106.279C206.769 102.477 204.961 99.2336 201.926 96.5494C204.898 97.8284 206.72 99.1845 207.388 100.622L208.204 96.6452L208.971 97.1246L209.018 104.457L218.27 104.602L219.563 106.566C221.834 109.697 224.836 112.606 228.575 115.29L224.502 121.234L218.317 116.249C219.979 118.262 221.415 122.255 222.631 128.232L219.61 129.67C218.558 129.607 215.551 126.906 210.601 121.57L212.806 119.604C210.697 114.556 208.092 111.168 204.994 109.442L203.126 110.448M200.346 57.822L210.507 55.1868C210.73 56.9756 211.529 59.0542 212.904 61.4181C210.762 60.9715 207.856 62.1055 204.18 64.8202L192.964 64.1023C196.448 62.185 199.165 61.1141 201.113 60.8897L200.346 57.822ZM197.374 54.7052C193.06 54.96 188.475 57.1018 183.616 61.1258L180.071 55.3739C178.984 58.6333 176.973 62.1009 174.032 65.7765L174.174 64.3853L174.415 62.7556C174.16 60.6465 174.845 56.8446 176.477 51.3475L183.522 52.0186C182.66 52.7528 182.452 55.2149 182.898 59.4003C184.911 57.6747 187.549 54.2071 190.806 49L197.374 54.7052ZM176.043 87.1078V87.7297L175.804 87.2504C175.9 87.1873 175.979 87.1382 176.043 87.1078ZM163.533 85.9083V86.4835L163.388 86.3876L163.533 85.9083ZM145.223 94.5853L147.666 94.3936C146.453 95.3522 145.814 96.0233 145.749 96.4067L145.415 97.9406L147.475 99.1401L147.715 98.7566L147.573 99.4744L150.065 101.441C148.948 103.933 148.164 106.234 147.718 108.343V107.385L145.464 107.721L143.93 108.535C142.716 109.269 140.942 111.186 138.611 114.287L134.921 110.597C135.304 108.329 138.739 102.991 145.225 94.5876M160.084 95.8783L160.898 96.3085L163.629 92.0437C163.725 94.8869 163.903 97.4285 164.155 99.6638L159.603 102.493L160.131 108.483C160.227 111.009 160.098 112.973 159.748 114.38L158.502 114.044L156.201 122.817C155.754 121.474 155.338 119.828 154.954 117.881L154.043 112.274L153.947 111.507L152.988 122.244L152.558 126.941L150.975 126.127L147.669 124.449V118.888L147.718 112.657L151.84 117.02C151.711 115.837 151.711 114.703 151.84 113.616C152.062 111.348 152.799 109.222 154.045 107.242L156.152 107.338L160.082 95.8807M184.385 137.963L191.337 137.005V136.525L191.959 137.723L191.863 139.544L192.871 139.687L193.301 140.596L190.712 142.034L187.741 142.848L184.963 138.821L184.388 137.959" fill="#FD3C22"/>
<path d="M189.945 90.1753L189.754 90.6546L189.419 90.5097L186.878 92.0926L186.733 89.8386L188.409 90.0771L189.943 90.173M176.042 87.7295L175.804 87.8254L175.516 87.3461L175.804 87.2502L176.042 87.7295ZM179.351 94.1525L179.447 94.391L179.159 94.2484L179.351 94.1525ZM188.171 111.553L188.461 115.821C185.393 112.912 183.889 110.195 183.955 107.672L188.171 111.553ZM188.507 116.393L189.033 124.301C188.362 122.896 187.546 121.537 186.588 120.228L177.721 121.858C182.002 126.396 184.111 131.603 184.046 137.484L177.815 128.472L179.732 141.173L178.533 141.318L172.827 141.99C171.389 141.157 170.737 135.742 170.863 125.741C170.767 127.977 170.047 132.436 168.705 139.114L163.578 136.813L162.093 136.142L162.235 130.822C163.355 126.572 163.835 122.274 163.673 117.927L164.679 118.407L164.92 117.831L169.234 118.215L168.754 110.162L173.884 108.437C172.956 106.168 172.222 103.819 171.679 101.389L178.1 97.4587H178.149L177.24 101.148L175.18 102.778C175.626 111.694 176.456 116.358 177.672 116.775L180.836 116.583C181.729 117.509 182.786 118.371 183.999 119.171L188.505 116.391M166.697 71.4815L172.591 70.6655L177.48 70.3311C179.812 68.4465 181.635 66.6718 182.945 65.0117L187.642 66.8332L187.593 70.4293L184.095 70.621H184.046C180.529 71.0676 177.338 72.2671 174.459 74.2172L175.177 74.7924L174.745 74.9841L175.177 75.9427L176.424 75.896L179.395 78.3394C182.11 77.3503 184.794 76.7097 187.446 76.4221L187.399 77.0931L186.44 77.2358L186.681 78.6737L187.399 78.5288L187.352 79.0081L191.138 79.9668L186.153 81.5497C183.309 82.188 180.017 82.6346 176.279 82.8918L176.087 86.5347C174.361 81.7111 173.594 78.8982 173.786 78.0986C173.882 77.3316 173.594 77.4111 172.923 78.3371C172.795 79.9995 172.762 81.4048 172.825 82.5551L166.692 71.4838M163.39 86.3874H163.344L163.535 85.9081L163.39 86.3874Z" fill="#B54708"/>
<path d="M193.588 124.206L192.197 115.482L192.101 112.99L194.402 112.127L194.498 114.428C194.369 114.94 195.153 118.646 196.848 125.548L196.464 125.932L194.594 127.945C194.019 126.635 193.701 125.515 193.637 124.59L193.591 124.206M206.528 122.193C205.375 119.191 202.885 115.978 199.05 112.56L203.126 110.451L204.994 109.445C208.092 111.171 210.697 114.559 212.806 119.607L210.601 121.573L210.264 121.861L207.147 124.592C207.052 123.792 206.846 122.995 206.526 122.195M208.541 95.1588L211.129 96.5009L211.896 96.8844L213.192 97.3146L212.137 99.2319L208.974 97.1229L208.207 96.6435L205.424 94.8221L203.173 92.6172L204.035 91.9929C205.635 93.6553 206.64 94.4527 207.056 94.3895L208.541 95.1565M184.095 70.6195L184.383 72.3919C180.42 74.6295 178.056 75.7799 177.289 75.843L176.426 75.8898L175.18 75.9366L174.747 74.9779L175.18 74.7862L181.268 72.2937L184.046 70.6172H184.095M176.092 86.5332L176.283 87.0126L176.043 87.1084C175.979 87.1412 175.898 87.1879 175.804 87.2511L175.516 87.3469L174.558 87.7795L173.167 84.52C173.008 84.0103 172.898 83.3533 172.83 82.556C172.767 81.4056 172.8 79.998 172.928 78.3379C173.599 77.412 173.887 77.3325 173.791 78.0994C173.599 78.899 174.366 81.7095 176.092 86.5356M147.669 94.3942C148.403 93.819 149.345 93.1316 150.496 92.3343L152.7 90.0335L153.229 90.9921L151.695 92.9562L150.69 94.3942L147.718 98.7549L147.477 99.1384L145.417 97.9389L145.751 96.4051C145.817 96.0216 146.455 95.3505 147.669 94.3919M158.31 94.9203L159.701 92.1893L161.232 92.4278L160.082 95.879L156.152 107.336L154.045 107.24H153.661C153.502 106.761 153.629 105.865 154.045 104.556L154.571 103.118C155.338 101.072 156.584 98.3411 158.31 94.9203Z" fill="white"/>
<path d="M187.404 77.0904L189.368 76.8987L201.638 78.5284L201.4 79.8705C200.25 79.8705 198.332 79.5034 195.648 78.7669L187.404 78.5261L186.686 78.671L186.445 77.2331L187.404 77.0904ZM187.642 73.2558L186.924 71.7219L194.402 69.3721L200.633 68.7969L200.97 70.2349L196.321 70.4266C194.947 70.298 192.054 71.2426 187.644 73.2535M178.105 97.4607L174.56 92.7142C175.296 91.6597 176.157 91.4212 177.148 91.9964C177.595 92.2512 178.266 93.0018 179.161 94.2504L180.408 96.0718L184.818 103.453L183.859 105.705L178.156 97.4607H178.107M156.247 81.1144C154.234 81.8814 152.029 82.9359 149.633 84.278L148.674 82.3607C149.088 81.6569 150.079 80.9858 151.646 80.3475C154.297 79.1971 158.644 78.1262 164.681 77.1349L164.585 79.6274C162.38 79.3398 159.6 79.8331 156.245 81.1121" fill="white"/>
<path d="M209.117 81.2598L212.04 83.8481L207.151 89.9368L205.091 87.7319L198.717 82.1717L201.639 83.0344L207.92 84.9518L209.117 81.2598ZM193.683 84.0399C194.515 83.6891 195.17 83.1607 195.649 82.4569L194.019 89.8386L191.863 90.222L189.946 90.1753L188.412 90.0794L186.736 89.8409L182.279 88.7864L185.49 88.6905L186.64 88.4988C189.357 87.9563 191.674 86.6937 193.591 84.7133L193.685 84.0422M177.243 101.151L176.525 103.98C176.109 109.061 177.547 113.263 180.839 116.587L177.675 116.779C176.462 116.363 175.632 111.698 175.183 102.783L177.243 101.153M164.925 117.831C165.949 114.923 166.508 111.97 166.602 108.965L167.752 110.499L168.757 110.164L169.237 118.217L164.923 117.834" fill="#DC0303"/>
<path d="M175.804 87.8257L179.351 94.1528L179.159 94.2487C178.264 93.0024 177.593 92.2518 177.146 91.9946C176.155 91.4194 175.294 91.6603 174.558 92.7125L178.102 97.459L171.682 101.389C170.594 96.6617 170.181 91.5784 170.436 86.1468L163.533 85.9083L163.341 86.3877C159.633 84.3418 154.232 84.0705 147.14 85.5716C140.75 86.8834 137.219 87.9355 136.548 88.7352L136.356 94.7747L134.921 95.0156L132.33 87.5381L147.14 80.0605L147.285 80.3014C148.882 80.2382 150.336 80.2546 151.646 80.3505C150.079 80.9888 149.088 81.6599 148.674 82.3636L149.633 84.281C152.029 82.9388 154.232 81.8843 156.247 81.1174C157.461 81.5009 158.373 82.0433 158.981 82.7471L166.888 78.529C160.69 72.7771 153.388 71.8184 144.984 75.6531L147.093 79.9202L141.87 78.3373L141.629 74.982L141.966 69.6626C145.354 68.4491 152.144 68.7835 162.336 70.668C162.783 71.276 163.741 71.276 165.212 70.668L164.924 71.7226L166.699 71.4841L172.832 82.5554C172.898 83.3527 173.008 84.0097 173.169 84.5195L174.56 87.7789L175.519 87.3463L175.806 87.8257" fill="#E15858"/>
<path d="M150.687 94.3925L157.206 94.3457L158.309 94.9209C156.584 98.3417 155.337 101.073 154.57 103.119L154.044 104.557L150.065 101.442L147.572 99.4757L147.715 98.7579L150.687 94.3971" fill="#E15858"/>
<path d="M25.5907 87.7378L25.0705 86.0317L25.8288 85.0839C28.8295 81.6717 34.3915 79.5403 42.5081 78.6872L42.5567 78.2133C38.9549 77.8666 34.9741 77.9452 30.6141 78.4491L30.4708 74.0891L16.302 73.6152C15.8582 73.6152 15.2271 75.6218 14.4064 79.6327L14.1221 81.1978C14.9751 80.5667 16.2073 80.2823 17.8185 80.3448L22.7472 81.1493L25.2578 81.8613L12.275 86.9333L7.4873 88.8289L8.48368 96.2219C10.095 94.0743 13.9163 93.457 19.9523 94.3748C17.3308 95.4174 14.5335 98.2447 11.5652 102.857L22.8443 103.187L23.6026 102.808L26.1617 101.481L26.0184 100.677C30.2211 96.853 34.7545 95.9376 39.6184 97.928L41.6574 103.569C37.6465 106.285 35.0851 108.828 33.98 111.197L31.7053 116.221L31.5157 116.6L35.5451 118.685C31.7538 122.065 29.2895 125.239 28.1521 128.21L31.4695 129.158L29.3357 135.697L28.5775 137.547L27.6296 143.423L34.2644 146.221C34.484 144.831 35.307 141.972 36.7287 137.644C36.9807 135.781 37.4384 133.869 38.1019 131.911L37.7228 131.532C39.3965 124.707 40.1709 121.043 40.0438 120.539L40.1386 118.265L42.4133 119.118L42.3186 121.582L40.9454 130.207L44.5471 132.53L45.4487 130.304L45.9688 122.483L45.6359 122.248L46.0151 121.915L46.2994 117.698L44.7829 119.12L40.4715 115.708C41.9256 111.854 44.1356 108.567 47.1062 105.853C48.8123 104.304 50.7542 102.928 52.9341 101.729L54.9246 100.734L55.0193 100.496L58.5263 94.2407L58.2905 94.146C56.1105 94.747 54.0577 95.0938 52.1296 95.1886L47.7211 96.2312L47.5801 98.4597L45.0695 96.8969L44.739 97.038L44.5494 96.564L42.6538 96.6126L40.52 96.2335L38.9087 88.9352C39.3826 89.6311 40.0299 90.1512 40.8506 90.5003L40.4715 87.2777L35.8734 88.6532L29.5715 94.1506L27.5326 96.3306L22.6987 90.3131L25.5907 87.7539" fill="#E15858"/>
<path d="M29.3339 135.693L31.4676 129.153L28.1503 128.205C27.8336 128.996 27.6278 129.784 27.533 130.575L24.4515 127.875C23.3464 130.624 21.6565 133.372 19.3818 136.121L23.3626 140.955C24.8468 140.132 26.8395 138.379 29.3339 135.693ZM12.2754 86.9313L25.2583 81.8593L22.7477 81.1473L17.819 80.3428C16.2077 80.2804 14.9756 80.5647 14.1225 81.1958L14.4069 79.6308L10.1902 78.6367C8.32695 81.9217 7.75595 84.1965 8.48415 85.461C8.83092 85.9673 10.0954 86.4551 12.2754 86.9313ZM77.9085 128.823C79.1731 133.402 79.9776 135.948 80.3243 136.451L77.6219 137.776L78.1906 139.436L85.5836 134.32L83.6394 132.945L83.0707 132.091L81.5056 132.898L81.078 128.254L79.1361 123.943L77.9039 128.825M76.0129 138.726C74.2745 139.801 73.4237 140.687 73.4538 141.38C72.8527 139.831 72.3464 138.285 71.935 136.736L72.0783 141.995L70.6103 142.659L71.5581 146.496C75.8233 144.949 77.7814 143.842 77.4346 143.179L76.0129 138.724M15.2599 112.758L16.5406 110.816L9.52675 110.957L9.05284 104.607L4.64432 105.414L0 104.986L0.332894 112.712L10.1417 113.137L15.2599 112.758ZM88.5241 113.896L86.2979 113.563V114.511C86.5823 115.838 86.7394 117.086 86.7718 118.256L86.2979 118.778L86.3441 124.939L89.6615 130.011L93.7371 125.223C92.9789 124.023 91.2404 120.248 88.5241 113.898M55.8243 147.116L54.6407 146.972L56.5363 134.412L50.3755 143.322L50.4241 143.844L50.0449 143.796L49.4762 144.649L49.1433 151.094L56.4416 152.421C56.6635 151.79 56.5202 150.401 56.0162 148.251L55.8266 147.113" fill="#FD3C22"/>
<path d="M42.5083 78.6865C34.3894 79.5396 28.8296 81.6733 25.8289 85.0832L25.0707 86.031L25.5908 87.7371L26.7744 91.3873L32.9815 89.4917L35.8712 88.6386L40.4693 87.2631L40.8484 90.4857L40.9432 91.1492C42.8388 93.1073 45.1298 94.3556 47.8161 94.8919L48.9534 95.0815L52.1298 95.1763C54.0578 95.0815 56.1106 94.7347 58.2906 94.1337V93.5188L58.0525 93.424L58.2421 92.9501L58.0525 89.3483C54.356 89.0964 51.1011 88.6525 48.29 88.0214L43.3613 86.4587L47.1063 85.5108L47.0578 85.0369L38.9089 85.2727C36.255 85.9986 34.3593 86.3616 33.2219 86.3616L32.9838 85.0346L45.1159 83.4233L47.0578 83.6129L47.0116 82.9494C49.6331 83.2338 52.287 83.8649 54.9733 84.845L57.9115 82.4269L57.0585 82.3807C56.3002 82.316 53.9607 81.1809 50.0446 78.9686L50.3289 77.2162L46.8705 77.0267L46.822 73.4712L51.4663 71.6703C52.7609 73.314 54.5618 75.0663 56.8689 76.9319L61.7028 77.2625L67.533 78.067L69.2854 78.3051L69.001 77.2625L68.7167 75.9841C67.644 71.3398 67.4059 67.6594 68.007 64.9431L68.4346 62.6684L60.5192 63.237C60.0453 66.0481 59.9204 68.6558 60.14 71.0554L60.2811 72.4286C57.3752 68.7945 55.3848 65.3685 54.3098 62.1459L50.8028 67.8328C46.0013 63.852 41.468 61.7344 37.2028 61.4824L35.0228 61.531L34.2645 64.564L33.5063 67.597C35.4343 67.819 38.1182 68.8777 41.5628 70.7734L30.4733 71.4854H30.427L30.4733 74.0907L30.6166 78.4507C34.9766 77.9444 38.9574 77.8658 42.5591 78.2149L42.5106 78.6888M54.9247 100.722L52.9343 101.716C50.7543 102.916 48.8124 104.292 47.1063 105.84C44.1357 108.557 41.9257 111.842 40.4716 115.695L44.783 119.108L46.2995 117.686L50.47 113.846C50.5324 116.343 49.0482 119.027 46.0152 121.903L45.6361 122.235L45.969 122.471L50.4237 125.22C51.6235 124.429 52.6661 123.576 53.5492 122.661C56.8042 119.376 58.2236 115.219 57.8144 110.198L57.1024 107.403L56.2031 103.755L50.5647 111.906L49.6169 109.68L53.9769 102.382L55.2091 100.581L54.9247 100.725M45.4465 130.294L44.5449 132.52L40.9432 130.197L40.8947 130.576C40.8322 131.492 40.5155 132.599 39.9468 133.894L38.0997 131.903C37.4363 133.861 36.9785 135.773 36.7266 137.636C36.3775 140.575 36.5208 143.402 37.1542 146.118L41.6552 145.503L42.6516 145.36L42.5568 143.559C42.5244 141.441 42.7626 139.578 43.2665 137.967C43.1093 139.389 43.077 140.857 43.1717 142.375V142.849L50.0423 143.797L50.4214 143.846L50.3729 143.323C50.3104 137.509 52.3956 132.361 56.6285 127.874L47.8623 126.262C46.9145 127.557 46.1077 128.9 45.4465 130.292M31.7031 116.218L33.9779 111.194C35.0852 108.825 37.6443 106.282 41.6552 103.566L39.6163 97.925C34.75 95.9345 30.2167 96.8523 26.0162 100.674L26.1595 101.478L27.6275 100.72C28.039 100.782 29.033 99.994 30.6143 98.3503L31.4673 98.9676L29.2388 101.148L26.4901 102.948L27.2946 106.883C27.9581 105.461 29.7589 104.118 32.6972 102.854C29.6965 105.508 27.9095 108.714 27.3408 112.473L31.7008 116.216M22.8421 103.187L11.5631 102.856L8.90918 102.807L9.05251 104.608L9.52642 110.959L16.5403 110.818L25.6856 110.674L25.7318 103.422L22.604 105.508L21.5614 103.612L22.8398 103.187M59.1414 81.3404L59.8534 80.7717C57.0099 78.8437 53.8521 77.6601 50.3752 77.2186C51.2606 77.882 52.1783 78.4345 53.1239 78.8761L59.1414 81.3404ZM46.8197 79.8239C42.4597 77.8335 39.6001 76.9018 38.2408 77.029L33.645 76.8394L33.9756 75.4177L40.1364 75.9864L47.5294 78.3074L46.8174 79.8239M70.6585 92.3351L63.8342 92.5709C64.0862 97.9411 63.6747 102.965 62.6021 107.641C62.0657 110.041 61.3398 112.364 60.4221 114.607L65.4918 116.313L66.4858 116.643L67.6232 115.127C67.718 118.095 68.2705 121.019 69.2807 123.893L69.5188 124.462L70.5129 123.988C70.3557 128.283 70.8296 132.534 71.9346 136.737C72.3461 138.286 72.8524 139.833 73.4535 141.381C73.4211 140.686 74.2741 139.802 76.0126 138.727L77.6239 137.78L80.3263 136.455C79.9772 135.949 79.1727 133.406 77.9105 128.826L75.6358 120.153L74.4036 120.485C74.0568 119.096 73.9297 117.152 74.0245 114.655C74.0869 112.949 74.2626 110.975 74.5469 108.732L70.0459 105.938L70.5684 98.4012L73.2685 102.62C73.5529 102.463 73.821 102.32 74.073 102.192L72.9356 98.7803L74.4521 98.5422L75.8253 101.242L76.9165 100.674L83.3616 100.722L82.3653 99.3005L80.8488 97.3563L81.3712 96.4085L83.5512 98.6832L86.3461 100.722L88.7642 100.912C91.5753 101.291 94.5136 102.144 97.579 103.471L97.5304 101.101L97.3408 95.1301C96.6774 94.3417 93.1843 93.2991 86.8663 92.0022C79.8524 90.5181 74.5145 90.7863 70.8481 92.809H70.7995L70.6562 92.9038V92.3351M86.864 86.5534L86.9125 86.4124L88.9977 82.1958C80.6893 78.4045 73.4719 79.3523 67.3412 85.0392L75.1595 89.2096C75.7583 88.5138 76.6599 87.9775 77.8597 87.5983C74.5423 86.3338 71.7936 85.8437 69.6136 86.1281L69.5188 83.6637C75.4901 84.6439 79.7854 85.7027 82.4092 86.8378C83.7038 86.743 85.1417 86.7268 86.7229 86.7892L86.864 86.5534ZM80.042 110.769C80.4535 112.066 80.5806 112.949 80.4211 113.423H80.042C81.2741 115.381 82 117.482 82.222 119.725C82.3468 120.8 82.3468 121.919 82.222 123.088L86.2976 118.777L86.7715 118.255C86.7414 117.085 86.5819 115.836 86.2976 114.51C85.856 112.424 85.0816 110.15 83.9743 107.685L80.042 110.764" fill="#FF9298"/>
<path d="M31.5147 116.597L31.7042 116.218L27.3443 112.475C27.913 108.716 29.6976 105.51 32.7006 102.856C29.7624 104.12 27.9615 105.463 27.298 106.885L26.4935 102.95L25.7353 103.424L25.689 110.676L16.5437 110.82L15.263 112.762C13.0206 115.857 10.05 118.733 6.35352 121.387L10.3829 127.263L16.4952 122.335C14.8515 124.325 13.4298 128.276 12.23 134.182L15.2145 135.604C16.2571 135.542 19.2277 132.872 24.124 127.596L21.944 125.652C24.0292 120.661 26.6045 117.311 29.6699 115.605L31.517 116.601M34.2634 64.5637L24.2165 61.9583C23.9968 63.7268 23.2062 65.782 21.8469 68.1192C23.9645 67.6776 26.838 68.7988 30.4698 71.4851L41.5593 70.7731C38.1147 68.8774 35.4308 67.8187 33.5028 67.5967L34.261 64.5637M60.1389 71.0551C59.9493 70.5488 59.8707 70.0125 59.9031 69.4438C60.155 67.3586 59.4754 63.5997 57.8641 58.1647L50.8988 58.8282C51.7518 59.5541 51.9552 61.9884 51.5137 66.1264C49.5233 64.4204 46.9179 60.992 43.6953 55.8438L37.2039 61.4821C41.4691 61.7341 46.0025 63.8517 50.804 67.8325L54.3109 62.1456C55.3859 65.3682 57.3763 68.7965 60.2822 72.4283L60.1412 71.0551M58.2918 93.5185V94.1334L58.5276 93.6595L58.2918 93.5185ZM70.6597 92.3348V92.9035L70.803 92.8088L70.6597 92.3348ZM88.763 100.911L86.3449 100.722C87.5447 101.67 88.1782 102.333 88.2406 102.712L88.5735 104.229L86.5345 105.415L86.2987 105.036L86.442 105.748L83.9777 107.69C85.085 110.154 85.8572 112.429 86.301 114.514V113.566L88.5272 113.899C89.0659 114.056 89.5698 114.324 90.0461 114.703C91.2459 115.429 92.9982 117.325 95.3053 120.39L98.9533 116.742C98.5741 114.498 95.1782 109.222 88.7653 100.914M74.0695 102.19C73.8175 102.317 73.5494 102.458 73.265 102.618L70.5649 98.3986L70.0424 105.935L74.5434 108.73C74.2591 110.972 74.0857 112.949 74.021 114.653C73.9262 117.147 74.0533 119.091 74.4001 120.483L75.6323 120.15L77.907 128.824L79.1392 123.941L80.0385 118.398L80.1332 117.639L81.0811 128.255L81.5087 132.899L83.0738 132.092L86.3426 130.435V124.938L86.2964 118.777L82.2208 123.088C82.3456 121.918 82.3456 120.8 82.2208 119.725C81.9988 117.482 81.2729 115.381 80.0408 113.423L77.9556 113.517L74.0695 102.19ZM50.0457 143.799L43.1752 142.851V142.377L42.5579 143.563L42.6527 145.364L41.6564 145.508L41.2287 146.409L43.7878 147.831L46.726 148.635L49.4747 144.655L50.0434 143.802" fill="#FD3C22"/>
<path d="M44.548 96.551L44.7375 97.0249L45.0681 96.8839L47.5787 98.4466L47.7197 96.2181L46.0622 96.4562L44.5457 96.551M58.2914 94.1352L58.5272 94.23L58.8115 93.7561L58.5272 93.6613L58.2914 94.1352ZM55.0202 100.483L54.9255 100.721L55.2098 100.578L55.0202 100.483ZM46.3003 117.687L46.0159 121.904C49.049 119.028 50.5331 116.344 50.4707 113.848L46.3003 117.687ZM45.9697 122.473L45.4496 130.293C46.1107 128.902 46.9175 127.561 47.8654 126.264L56.6315 127.875C52.3987 132.362 50.3135 137.511 50.3759 143.325L56.5368 134.415L54.6411 146.975L55.8247 147.118L61.4631 147.782C62.8848 146.959 63.5344 141.605 63.4073 131.715C63.5021 133.928 64.2141 138.334 65.541 144.938L70.613 142.664L72.081 142L71.9377 136.741C70.8327 132.538 70.3588 128.289 70.5159 123.992L69.5219 124.465L69.2838 123.897L65.0186 124.276L65.4925 116.314L60.4228 114.608C61.3406 112.366 62.0665 110.042 62.6028 107.643L56.2524 103.757H56.2062L57.1054 107.405L59.1421 109.016C58.7006 117.831 57.8799 122.443 56.6778 122.854L53.55 122.665C52.6646 123.58 51.6243 124.433 50.4245 125.224L45.9697 122.475M67.5315 78.0685L61.7012 77.264L56.8673 76.9334C54.5602 75.0702 52.7593 73.3155 51.4648 71.6719L46.8204 73.4727L46.869 77.0282L50.3274 77.2178H50.3736C53.8505 77.6593 57.0084 78.8453 59.8518 80.7709L59.1398 81.3396L59.5675 81.5292L59.1398 82.477L57.9076 82.4285L54.9694 84.8466C52.2831 83.8664 49.6292 83.2353 47.0077 82.9509L47.0539 83.6144L48.0017 83.7554L47.766 85.1772L47.0539 85.0361L47.1025 85.5101L43.3574 86.4579L48.2861 88.0206C51.0972 88.6517 54.3521 89.0956 58.0486 89.3476L58.2382 92.9493C59.9443 88.1778 60.7025 85.3991 60.513 84.6085C60.4182 83.8502 60.7025 83.9288 61.366 84.8466L61.4608 89.017L67.5268 78.0685M70.8003 92.8083H70.8488L70.6593 92.3344L70.8026 92.8083" fill="#B54708"/>
<path d="M40.9453 130.196L42.3184 121.571L42.4132 119.106L40.1384 118.253L40.0437 120.528C40.1708 121.032 39.3964 124.698 37.7227 131.52L38.1018 131.899L39.9489 133.89C40.5176 132.595 40.8343 131.488 40.8967 130.573L40.9453 130.193M28.1497 128.208C29.2871 125.237 31.7514 122.063 35.5427 118.683L31.5133 116.598L29.6662 115.602C26.6008 117.308 24.0255 120.657 21.9403 125.648L24.1203 127.593L24.4509 127.877L27.5324 130.577C27.6272 129.787 27.833 128.996 28.1497 128.208ZM26.1593 101.479L23.6001 102.806L22.8419 103.185L21.5635 103.61L22.6061 105.506L25.7339 103.421L26.4921 102.947L29.2408 101.146L31.4694 98.9662L30.6163 98.3489C29.0351 99.9926 28.0433 100.781 27.6295 100.718L26.1616 101.477M50.3287 77.2148L50.0443 78.9672C53.9604 81.1795 56.2999 82.3169 57.0582 82.3793L57.9112 82.4255L59.1434 82.4741L59.5711 81.5263L59.1434 81.3367L53.1259 78.8724C52.1781 78.4308 51.2626 77.8783 50.3772 77.2148H50.331M58.2418 92.9487L58.0523 93.4226L58.2904 93.5174L58.5262 93.6584L58.8105 93.7532L59.7583 94.1785L61.1315 90.9559L61.4621 89.0141L61.3673 84.8436C60.7038 83.9282 60.4195 83.8496 60.5143 84.6055C60.7038 85.3962 59.9456 88.1749 58.2395 92.9464M86.3435 100.721L83.5486 98.6818L81.3686 96.4071L80.8462 97.3549L82.3627 99.2991L83.3591 100.721L86.2973 105.032L86.5331 105.411L88.5721 104.225L88.2392 102.709C88.1768 102.33 87.5433 101.666 86.3435 100.718M75.8227 101.241L74.4496 98.5408L72.933 98.7789L74.0704 102.191L77.9565 113.519L80.0417 113.424H80.4208C80.5803 112.95 80.4532 112.065 80.0417 110.77L79.5192 109.348C78.761 107.328 77.5288 104.625 75.8227 101.246" fill="white"/>
<path d="M47.0584 83.6155L45.1165 83.4259L32.9844 85.0372L33.2225 86.3641C34.3599 86.3641 36.2555 86.0012 38.9094 85.2753L47.0584 85.0395L47.7704 85.1805L48.0062 83.7588L47.0584 83.6178M46.8202 79.8242L47.5323 78.3077L40.1393 75.9867L33.9784 75.418L33.6478 76.8397L38.2436 77.0293C39.6029 76.9021 42.4626 77.8338 46.8226 79.8242M56.2522 103.755L59.7591 99.0649C59.0333 98.0223 58.1802 97.7865 57.2 98.3552C56.7585 98.6072 56.0927 99.3493 55.2096 100.581L53.9775 102.382L49.6175 109.681L50.5653 111.907L56.2037 103.755H56.2499M82.4121 86.8381C79.7882 85.7007 75.493 84.6419 69.5217 83.664L69.6165 86.1283C71.7965 85.844 74.5452 86.3341 77.8625 87.5986C79.853 88.3569 82.0329 89.3995 84.4025 90.7264L85.3503 88.8308C84.9388 88.135 83.9609 87.4715 82.4121 86.8404" fill="white"/>
<path d="M25.5903 87.7367L22.6982 90.2958L27.5321 96.3133L29.5711 94.1333L35.8729 88.636L32.9832 89.489L26.7762 91.3846L25.5926 87.7344M40.8502 90.4854C40.0295 90.1363 39.3822 89.6161 38.9083 88.9203L40.5196 96.2185L42.6533 96.5977L44.549 96.5491L46.0655 96.4543L47.723 96.2162L52.1315 95.1736L48.9552 95.0788L47.8178 94.8893C45.1315 94.3529 42.8429 93.1046 40.9449 91.1465L40.8502 90.4831M53.5486 122.663L56.6765 122.852C57.8763 122.443 58.6969 117.829 59.1408 109.014L57.1041 107.403L57.8162 110.198C58.2253 115.221 56.8036 119.375 53.551 122.66M69.2825 123.895C68.2722 121.019 67.7197 118.097 67.6249 115.129L66.4876 116.645L65.4935 116.315L65.0196 124.276L69.2848 123.897" fill="#DC0303"/>
<path d="M58.5275 94.2305L55.0205 100.486L55.2101 100.581C56.0932 99.3488 56.7567 98.6067 57.2005 98.3547C58.1807 97.786 59.0337 98.0241 59.7596 99.0644L56.2527 103.755L62.6031 107.641C63.6781 102.964 64.0872 97.9409 63.8352 92.5707L70.6596 92.3349L70.8491 92.8088C74.5133 90.786 79.8534 90.5179 86.8673 92.002C93.1853 93.2989 96.6761 94.3392 97.3419 95.1298L97.5314 101.101L98.9532 101.339L101.512 93.9462L86.8696 86.5532L86.7286 86.789C85.1496 86.7266 83.7094 86.7428 82.4148 86.8376C83.9637 87.4687 84.9416 88.1321 85.3531 88.828L84.4053 90.7236C82.0357 89.3967 79.8557 88.3541 77.8653 87.5958C76.6655 87.9749 75.7639 88.5113 75.1652 89.2071L67.3468 85.0367C73.4776 79.3498 80.6949 78.4019 89.0033 82.1932L86.9181 86.4099L92.0826 84.8448L92.3184 81.5274L91.9878 76.2659C88.6381 75.0661 81.9247 75.3967 71.8478 77.2599C71.4039 77.861 70.4584 77.861 69.0043 77.2599L69.2887 78.3025L67.5364 78.0644L61.4703 89.0129L61.1397 90.9548L59.7666 94.1774L58.8187 93.752L58.5344 94.2259" fill="#E15858"/>
<path d="M83.3586 100.722L76.9134 100.674L75.8223 101.243C77.5283 104.622 78.7605 107.325 79.5188 109.345L80.0412 110.767L83.9735 107.688L86.4379 105.746L86.2945 105.034L83.3563 100.722" fill="#E15858"/>
<defs>
<clipPath id="clip0_2136_6664">
<rect width="132" height="259" fill="white" transform="translate(47)"/>
</clipPath>
</defs>
</svg>
