<svg width="141" height="199" viewBox="0 0 141 199" fill="none" xmlns="http://www.w3.org/2000/svg">
<g clip-path="url(#clip0_137_530)">
<path d="M46.0217 3.78615C47.8377 2.62614 48.6164 1.64535 50.5207 0.876351C52.9192 -0.091409 55.6677 0.951295 56.4988 4.10222C56.705 4.88425 57.2743 4.88425 58.2101 4.6529C60.8245 4.00446 62.3591 5.39582 62.8434 7.98303C63.0724 9.21473 62.8466 10.6191 63.8642 11.6944C63.9133 11.7465 63.9035 11.903 63.8642 11.9877C64.2307 13.1868 65.3203 13.5387 66.086 14.2067C67.9249 15.8066 69.8718 17.312 71.5209 19.0878C72.7545 20.4173 73.7263 22.04 74.5737 23.6562C75.5226 25.4646 76.4061 27.361 76.9362 29.3194C77.3452 30.8378 78.2483 30.9453 79.5211 31.4146C82.0111 32.3302 84.4194 34.0897 86.5528 35.6049C88.3819 36.905 89.8249 38.1563 91.6114 39.5118C92.292 40.0266 93.0184 41.0498 93.6368 41.6428C95.8585 43.7706 98.1621 45.8299 100.253 48.0783C102.036 49.9942 103.6 52.1155 105.21 54.1846C106.843 56.2863 108.512 58.3717 109.987 60.581C111.764 63.2464 113.403 66.0095 115.007 68.7857C116.394 71.1905 117.723 73.6376 118.936 76.1335C120.173 78.6751 121.296 81.2721 122.362 83.8887C124.182 88.3462 125.926 92.8331 127.686 97.3135C129.106 100.927 129.846 104.352 131.063 108.031C132.025 110.944 133.095 114.401 133.792 117.399C134.25 119.37 134.96 121.094 135.316 123.085C135.637 124.88 135.853 126.692 136.141 128.494C136.393 130.064 136.717 131.625 136.933 133.202C137.126 134.616 137.195 136.047 137.355 137.467C137.731 140.83 138.032 144.124 138.5 147.565C139.227 150.198 138.975 152.925 139.38 155.646C139.717 157.891 140.022 160.332 140.195 162.59C140.362 164.783 140.506 166.865 140.506 169.071C140.506 170.987 140.65 173.02 140.584 174.933C140.519 176.829 140.526 178.602 140.408 180.498C140.375 181.01 140.398 181.525 140.391 182.04C140.326 187.553 140.277 193.07 140.172 198.583C140.149 199.772 139.956 200.965 139.77 202.144C139.645 202.936 138.448 204.002 137.613 203.972C136.013 203.92 134.413 203.731 132.817 203.607C131.734 203.526 130.65 203.418 129.567 203.396C125.144 203.311 120.716 203.203 116.293 203.2C112.072 203.2 107.847 203.308 103.626 203.392C101.866 203.428 100.099 203.451 98.3519 203.637C97.9003 203.686 97.331 204.233 97.1248 204.689C95.2336 208.857 93.2769 212.985 90.5185 216.677C89.851 217.57 88.8629 218.424 88.6665 219.421C88.3688 220.942 87.6489 221.05 87.1123 222.438C86.8702 223.07 86.2779 224.853 85.6988 225.25C84.884 225.811 83.4279 226.544 82.7048 225.889C81.9653 225.217 81.0361 224.093 80.9052 222.976C80.8136 222.184 80.8954 221.519 80.0119 221.891C79.4655 222.119 78.9256 222.422 78.353 222.516C76.6679 222.8 74.3447 222.77 73.4416 221.278C72.7283 220.102 73.3794 218.847 73.6019 217.811C73.6412 217.629 73.8048 217.642 73.831 217.456C73.6445 217.466 73.9684 217.169 73.7852 217.202C72.5876 217.4 72.5156 218.156 71.3115 218.27C70.4869 218.352 68.3044 218.182 67.8333 217.381C67.2607 216.403 66.9793 214.826 67.5421 213.956C68.4222 212.597 70.0026 211.033 70.9221 209.701C71.1053 209.434 70.9156 209.277 71.1348 209.043C72.2866 207.824 72.0542 206.573 71.7172 205.269C71.1381 203.027 71.8448 202.861 69.4726 202.76C67.3261 202.669 65.1763 202.454 63.0462 202.154C61.5509 201.942 59.5059 200.603 59.46 199.068C59.375 196.341 59.2834 193.63 59.2506 190.903C59.1656 184.112 58.9234 176.901 58.8743 170.111C58.8678 169.166 58.7271 168.136 58.8318 167.194C58.9169 166.432 58.4719 165.744 58.9987 165.943C59.8331 166.259 59.0445 165.089 58.979 164.069C58.7696 160.804 59.9509 159.048 59.8167 155.777C59.7513 154.193 60.1439 153.082 60.2355 151.505C60.4809 147.318 61.1386 143.01 62.4965 138.963C63.1542 136.998 62.9677 134.691 63.3963 132.651C63.969 129.931 64.908 127.457 65.4676 124.733C65.7915 123.15 66.1972 121.534 66.4721 119.94C67.1134 116.216 67.9314 112.635 67.7286 108.855C67.4603 103.915 66.2267 99.1219 64.3191 94.4786C63.3865 92.2107 63.3636 92.9667 63.3636 92.9667L63.2197 92.8331C63.2197 92.8331 63.4716 92.618 62.0744 92.1065C60.1537 91.4059 62.1104 91.2951 59.9476 91.2658C57.8011 91.2365 59.7873 91.3179 57.5917 90.8161C56.6592 90.6043 56.5315 90.9562 55.1704 90.7901C54.8824 90.8976 55.1475 90.8259 54.1953 91.0442C52.4349 91.4417 49.7518 92.7614 48.07 93.4229C44.7096 94.7491 41.4015 96.1209 38.0247 97.4047C34.9195 98.5843 31.7096 99.5716 28.359 99.6596C25.9573 99.7215 23.7127 99.93 21.3372 99.7215C19.1547 99.526 17.4532 99.5488 15.3526 98.8808C12.3848 97.9358 9.72132 96.3816 7.5094 94.143C5.69668 92.3085 3.97884 90.3827 3.10847 87.9161C2.5424 86.3129 2.61439 84.7 3.3277 83.0577C4.20461 81.0375 4.93756 78.9391 5.54943 76.8243C5.88646 75.6611 5.89627 74.3968 5.98135 73.1716C6.08933 71.5913 6.1155 70.0011 6.1973 68.4175C6.24639 67.4693 6.40017 66.5211 6.374 65.5794C6.35109 64.8267 6.27583 64.0088 5.96499 63.3409C4.69542 60.6135 3.85777 57.795 3.75961 54.7744C3.71708 53.4254 3.59928 52.0764 3.57311 50.7241C3.56329 50.1148 3.69744 49.5055 3.76289 48.8929C3.87414 47.8143 3.32116 47.016 2.70273 46.2014C1.70475 44.8882 0.791846 43.4285 0.788574 41.7797C0.788574 40.4405 1.23358 39.0687 2.52277 38.1856C2.76818 38.0162 2.94487 37.4068 2.83362 37.1234C1.56405 33.8682 3.45204 31.9131 5.9748 30.6684C8.32415 29.5116 10.8796 29.2151 13.4875 28.9903C17.1064 28.6775 20.6304 29.0066 24.1119 29.8701C25.5189 30.2187 26.5038 29.7788 27.5116 28.899C28.4245 28.104 29.5075 27.5044 30.4368 26.7224C30.8851 26.3477 31.2221 25.7872 31.4773 25.2496C32.7109 22.6689 33.7318 19.9741 35.1486 17.501C36.6406 14.8942 38.437 12.4504 40.2137 10.0163C41.3099 8.51742 42.5893 7.14561 43.8425 5.76729C44.4838 5.06346 45.2494 4.47694 46.0086 3.78615" fill="#B27F5D"/>
<path d="M57.392 70.7277C59.9835 71.6369 60.9553 73.7092 61.5933 76.039C62.5913 79.6787 63.3603 83.3999 64.6756 86.9223C65.5722 89.3237 67.2573 91.4287 68.5367 93.6933C69.3383 95.114 70.2414 96.5249 70.7551 98.0531C71.7629 101.035 72.5777 104.085 73.3728 107.131C73.6607 108.233 73.7 109.402 73.7883 110.546C73.893 111.875 73.9323 113.211 73.9978 114.547C74.0697 116.046 74.145 117.545 74.1973 119.047C74.3053 122.13 73.5037 125.072 72.7838 128.024C72.2472 130.227 71.7204 132.433 71.2001 134.642C70.778 136.428 70.3559 138.214 69.96 140.006C69.4267 142.41 68.8802 144.815 68.4091 147.233C67.9575 149.55 67.5878 151.879 67.2049 154.206C67.097 154.867 67.025 155.542 67.0053 156.213C66.9235 159.273 66.8156 162.333 66.8123 165.392C66.8123 168.286 66.8777 171.183 67.0119 174.073C67.146 176.983 67.3391 179.889 67.6139 182.789C67.8659 185.415 68.1964 188.038 68.6152 190.642C69.07 193.49 69.6655 196.315 70.1956 199.15C70.2709 199.554 70.3429 199.955 70.3952 200.362C70.5588 201.639 71.2525 203.158 69.9437 203.223C67.1526 203.356 63.4421 202.421 60.7688 201.701C59.8068 201.441 59.2898 200.349 59.8101 199.482C59.9475 199.254 59.8232 198.863 59.7904 198.55C59.5941 196.507 59.2931 194.471 59.2145 192.421C59.0706 188.733 59.0117 185.041 59.0084 181.349C59.0084 178.058 59.0968 174.764 59.2047 171.473C59.2898 168.804 59.3847 166.132 59.617 163.473C59.8559 160.746 60.3107 158.041 60.579 155.317C60.7426 153.629 60.6412 151.912 60.8179 150.224C61.0633 147.862 61.4232 145.509 61.7995 143.163C62.1561 140.931 62.575 138.709 63.0036 136.49C63.3733 134.59 63.7758 132.697 64.2012 130.81C64.9865 127.317 65.8961 123.854 66.5669 120.341C67.1199 117.447 67.5943 114.512 67.7514 111.576C67.9902 107.138 67.0021 102.843 65.5329 98.6657C65.0552 97.3037 64.6102 95.9156 63.9525 94.6415C63.6515 94.055 62.9054 93.6575 62.3034 93.2665C60.4121 92.0413 58.3376 91.3114 56.0603 91.4678C53.7077 91.6274 51.4368 92.2759 49.3133 93.2632C44.7684 95.3747 40.0958 97.1603 35.2466 98.3855C31.1075 99.4314 26.8211 99.4445 22.5903 99.1675C20.097 99.0013 17.6135 98.3985 15.1758 97.7859C13.8506 97.4536 12.6366 96.6943 11.3736 96.1241C11.2035 96.0492 11.0595 95.883 10.8894 95.8569C10.4902 95.7917 9.8423 95.9156 10.0321 95.2932C10.1433 94.9315 10.7323 94.5601 11.1609 94.4753C12.0804 94.2994 13.0424 94.3743 13.9717 94.231C16.8314 93.7813 19.7992 93.7943 22.5019 92.6213C24.0594 91.9468 25.6758 91.2071 26.9454 90.122C29.4878 87.9519 32.341 86.4074 35.3284 84.99C36.814 84.2829 38.2537 83.3445 39.4742 82.2464C41.3294 80.5748 43.5315 79.4571 45.5275 78.0267C47.5365 76.5864 49.4278 74.9702 51.27 73.315C52.4675 72.2429 53.7535 71.3566 55.2455 70.832C55.8672 70.6137 56.6133 70.7538 57.4018 70.731M72.1948 109.679C72.1458 109.513 72.0967 109.347 72.0476 109.181C71.9625 109.311 71.7858 109.477 71.8186 109.568C71.8644 109.699 72.064 109.777 72.1948 109.679Z" fill="white"/>
<path d="M3.3798 58.2871C3.17693 55.8498 2.94789 53.5168 2.79083 51.1804C2.74502 50.5092 2.90208 49.8249 2.97734 49.1504C3.10495 47.9937 2.73848 47.0227 2.00553 46.1201C0.94211 44.8036 0.0422908 43.3113 -0.000246107 41.6299C-0.0296947 40.3233 0.313873 38.9319 1.65542 38.1141C2.09061 37.8501 2.19858 37.5112 1.99572 36.8921C0.912661 33.549 2.5127 31.8578 5.15981 30.4925C7.42735 29.3228 9.93048 29.0393 12.4696 28.8209C16.1801 28.5016 19.8121 28.8209 23.3983 29.6877C24.7562 30.0168 25.7182 29.5639 26.7031 28.7362C27.6324 27.9575 28.7023 27.3416 29.6316 26.5628C30.0832 26.1849 30.5118 25.644 30.6787 25.0965C31.5229 22.291 32.8579 19.7071 34.4023 17.2632C36.3721 14.1514 38.44 11.0819 40.7076 8.18192C42.6512 5.69572 44.7911 3.31705 47.7065 1.84423C48.7405 1.32288 49.709 0.632088 50.7921 0.260624C53.341 -0.615899 56.528 0.707032 57.0221 3.682C57.1072 4.20009 57.3493 4.61391 58.007 4.38582C61.3085 3.23233 63.1605 5.6892 63.2848 8.39372C63.3012 8.76192 63.1965 9.16271 63.3077 9.49507C63.4975 10.0816 63.684 10.7496 64.093 11.1732C66.2591 13.4183 68.5431 15.546 70.6895 17.8106C72.9113 20.1567 74.4491 22.9785 75.9216 25.8232C76.2193 26.3999 76.4451 27.0158 76.7167 27.6121C77.1682 28.6091 77.7376 29.3651 78.8795 29.8246C82.5082 31.2876 85.7901 33.3991 88.807 35.8625C91.3297 37.9218 93.8492 40.0268 96.1102 42.3631C98.8424 45.1816 101.362 48.2153 103.855 51.2489C105.789 53.6015 107.69 56.0062 109.352 58.5543C111.819 62.3439 114.097 66.2573 116.384 70.1609C117.614 72.2594 118.756 74.4165 119.82 76.6029C122.529 82.1651 125.166 87.7598 127.244 93.5957C128.556 97.2875 129.871 100.983 131.076 104.71C132.044 107.711 132.905 110.751 133.706 113.801C134.276 115.965 134.685 118.174 135.139 120.367C135.565 122.413 135.99 124.46 136.347 126.519C136.612 128.07 136.746 129.644 136.972 131.205C137.221 132.945 137.531 134.675 137.77 136.415C137.947 137.699 138.032 138.992 138.186 140.276C138.441 142.384 138.742 144.486 138.984 146.594C139.213 148.592 139.387 150.593 139.599 152.59C139.861 155.034 140.152 157.471 140.401 159.915C140.509 160.958 140.565 162.007 140.604 163.056C140.686 165.109 140.781 167.165 140.803 169.221C140.888 177.054 140.967 184.888 141 192.718C141.01 195.243 140.908 197.768 140.8 200.294C140.722 202.053 140.594 203.816 140.372 205.566C140.316 206.012 139.825 206.407 139.531 206.827C139.282 206.403 138.804 205.97 138.824 205.563C138.948 203.256 139.207 200.958 139.377 198.655C139.41 198.218 139.2 197.772 139.197 197.329C139.18 193.601 139.18 189.87 139.197 186.142C139.197 185.699 139.38 185.256 139.38 184.816C139.393 180.473 139.403 176.126 139.38 171.782C139.374 170.7 139.249 169.622 139.187 168.54C138.984 165.031 138.811 161.515 138.569 158.009C138.421 155.871 138.205 153.737 137.963 151.609C137.656 148.888 137.279 146.177 136.965 143.46C136.736 141.498 136.599 139.524 136.34 137.565C136.052 135.379 135.666 133.209 135.342 131.029C134.992 128.683 134.724 126.327 134.312 123.991C133.939 121.879 133.451 119.787 132.957 117.698C132.227 114.613 131.481 111.527 130.67 108.461C130.208 106.714 129.655 104.987 129.057 103.283C127.45 98.7082 125.929 94.0942 124.122 89.5976C122.63 85.8829 120.791 82.3052 119.077 78.6785C118.079 76.567 117.137 74.423 115.981 72.3995C113.77 68.5284 111.577 64.6313 109.094 60.9362C106.417 56.9544 103.453 53.1616 100.531 49.3492C99.2351 47.6613 97.7953 46.0712 96.3131 44.5397C94.6247 42.7932 92.8774 41.089 91.0451 39.4924C88.1035 36.928 84.9001 34.709 81.4972 32.7832C80.6824 32.3205 79.8415 31.9002 79.0006 31.4831C78.8403 31.4016 78.5785 31.3528 78.4509 31.431C78.3298 31.5027 78.2447 31.7829 78.2807 31.9393C78.6341 33.4708 79.0464 34.9859 79.3769 36.5207C79.6026 37.5829 79.7532 38.6615 79.8677 39.74C79.8939 39.9942 79.6354 40.2744 79.511 40.5449C79.2329 40.32 78.7846 40.1408 78.7061 39.8638C78.4247 38.8602 78.3102 37.811 78.0582 36.7976C77.6067 34.9729 77.2042 33.1286 76.6022 31.3528C75.0905 26.918 72.8622 22.871 69.9206 19.1857C67.8003 16.5301 65.5033 14.083 62.8398 11.9682C62.3327 11.5674 62.0513 11.1015 62.048 10.3683C62.0382 9.21485 61.9106 8.03855 61.6488 6.91438C61.3609 5.67617 60.0357 5.08965 58.7857 5.47089C58.3047 5.61752 57.827 5.80651 57.3329 5.8619C56.5575 5.94988 56.0961 5.5719 56.0045 4.77032C55.7329 2.32322 54.1361 1.13063 51.9308 1.26749C51.3974 1.30007 50.8837 1.64872 50.3602 1.84749C48.1646 2.66536 46.2766 4.04694 44.6864 5.65662C42.7395 7.62798 41.025 9.86328 39.4413 12.1409C37.2457 15.2984 35.1189 18.5242 33.2472 21.8804C32.2329 23.6987 31.7257 25.8232 31.14 27.8532C30.7801 29.1012 30.731 30.4371 30.4856 31.7242C30.4202 32.0664 30.1388 32.3661 29.9555 32.6855C29.733 32.3727 29.3142 32.0501 29.324 31.747C29.36 30.7923 29.5596 29.8408 29.6872 28.8894C29.7101 28.7134 29.6872 28.5309 29.6872 28.3517C29.4582 28.3811 29.1572 28.3257 29.0066 28.4527C27.1219 30.0266 25.2241 31.5841 23.4016 33.2231C21.1766 35.2238 18.9548 37.2343 16.8509 39.3555C13.9453 42.2816 11.4422 45.5564 9.72761 49.3101C8.90633 51.1088 8.43515 53.1094 8.06868 55.0678C7.52878 57.9678 7.20158 60.9069 6.83183 63.833C6.69441 64.905 6.65841 65.9934 6.62242 67.0752C6.53735 69.5646 6.63224 72.0736 6.37374 74.5468C6.09562 77.2285 5.29723 79.8059 4.11929 82.2726C2.9348 84.749 2.82028 87.1309 4.64609 89.5552C6.57334 92.1164 8.6871 94.4559 11.4684 95.9874C13.412 97.0562 15.6075 97.7242 17.7507 98.3726C20.9017 99.3273 24.1934 99.1872 27.4033 98.9493C31.958 98.6105 36.3753 97.4863 40.6061 95.7007C44.1629 94.1985 47.7 92.6247 51.332 91.3311C53.0793 90.7087 55.0294 90.4155 56.8945 90.3959C59.4892 90.3698 62.0873 90.9303 63.8247 93.0678C64.8096 94.28 65.4051 95.8212 66.1086 97.2484C67.1099 99.2817 67.123 101.543 67.5811 103.703C68.0064 105.704 68.4613 107.662 68.3565 109.728C68.1929 112.954 67.8723 116.151 67.1426 119.308C66.4882 122.136 65.9385 124.991 65.3037 127.826C64.5904 131.019 63.7789 134.193 63.1081 137.396C62.6697 139.488 62.4046 141.612 62.0709 143.724C61.7273 145.9 61.3674 148.077 61.0664 150.26C60.8766 151.642 60.8308 153.043 60.641 154.424C60.4316 155.936 60.1142 157.432 59.8753 158.941C59.7608 159.677 59.6659 160.42 59.6496 161.163C59.6168 162.776 59.6528 164.389 59.6365 165.998C59.5743 172.15 59.4794 178.306 59.45 184.458C59.4402 186.611 59.535 188.772 59.6496 190.926C59.8164 194.07 60.0455 197.208 60.2484 200.349C60.2844 200.906 60.2549 201.538 59.5809 201.561C58.8283 201.584 58.8446 200.923 58.8217 200.333C58.7072 197.263 58.6745 194.184 58.4029 191.128C57.7616 183.897 58.0888 176.66 58.0463 169.423C58.0299 166.826 58.2688 164.226 58.4324 161.629C58.6025 158.957 58.753 156.279 59.0541 153.616C59.3616 150.918 59.823 148.233 60.2516 145.548C60.7032 142.717 61.1416 139.882 61.6815 137.067C62.1069 134.841 62.6893 132.648 63.1867 130.436C63.9 127.269 64.6133 124.101 65.3037 120.931C65.7323 118.953 66.1315 116.969 66.5144 114.981C66.6354 114.349 66.6878 113.697 66.7205 113.049C66.8056 111.331 67.0346 109.595 66.8874 107.897C66.6845 105.584 66.2133 103.293 65.7945 101.002C65.3855 98.7799 64.4235 96.7629 63.0623 94.9838C61.796 93.3252 60.3498 91.9697 58.0135 91.6895C55.3599 91.3734 52.9418 92.0447 50.5499 92.8788C48.2889 93.6674 46.0836 94.6384 43.9109 95.642C40.665 97.1441 37.3242 98.3596 33.8493 99.1774C32.1707 99.575 30.4398 99.7802 28.722 99.992C27.1677 100.184 25.5939 100.412 24.0331 100.37C22.1909 100.321 20.3357 100.106 18.5197 99.777C16.082 99.3306 13.7065 98.6496 11.5174 97.3983C9.75379 96.3882 8.04577 95.3422 6.59952 93.8759C5.04528 92.3021 3.72337 90.5588 2.64359 88.6591C1.59652 86.8181 1.79939 84.8696 2.55851 82.9471C3.61212 80.2752 4.73771 77.626 5.19253 74.7619C5.20234 74.6967 5.19253 74.6283 5.19253 74.5598C5.25797 72.7742 5.32668 70.9886 5.3954 69.2029C5.46084 67.5509 5.76514 65.8663 5.52628 64.2566C5.31032 62.787 4.50539 61.4055 3.96223 59.9815C3.75936 59.4504 3.56631 58.916 3.36671 58.2806M3.07877 45.3869C3.4616 46.0353 3.85752 46.6773 4.21418 47.3387C4.3287 47.5538 4.40723 47.8308 4.38105 48.0686C4.27308 49.0918 3.99495 50.1117 4.01458 51.125C4.05385 53.0541 4.16837 54.9896 4.42359 56.899C4.60028 58.2252 5.05837 59.5156 5.41503 60.8157C5.46084 60.9819 5.64734 61.1057 5.76841 61.2523C5.85021 61.0829 5.9811 60.9232 6.00073 60.7473C6.15124 59.4276 6.16433 58.0818 6.43591 56.7882C7.20485 53.1485 7.7611 49.4241 9.92067 46.2439C11.0495 44.5821 12.1719 42.9072 13.4414 41.3562C14.6128 39.9258 15.9609 38.6419 17.2599 37.319C18.716 35.8331 20.195 34.3668 21.6838 32.9168C22.1484 32.4672 22.6916 32.099 23.1889 31.6819C23.3918 31.5124 23.575 31.3137 23.7681 31.1279C23.5259 30.978 23.3002 30.7206 23.0449 30.6913C20.496 30.3948 17.9471 30.0135 15.3883 29.9093C13.5298 29.8343 11.6254 29.9744 9.7996 30.3198C8.22246 30.6196 6.60279 31.1279 5.22852 31.9328C2.92826 33.2818 2.30002 34.6634 3.43543 36.8367C3.92951 37.785 3.68738 38.1988 2.90208 38.7625C1.93682 39.4565 1.18424 40.3005 1.31185 41.7277C1.43946 43.1646 2.32947 44.1454 3.07223 45.3869H3.07877Z" fill="#8A593B"/>
<path d="M67.7448 169.544C67.7448 170.821 67.6696 172.001 67.7579 173.17C67.9837 176.152 68.2749 179.13 68.5563 182.108C68.7461 184.142 68.89 186.185 69.178 188.205C69.5052 190.502 69.9927 192.773 70.3657 195.064C70.67 196.928 70.9024 198.805 71.1838 200.675C71.511 202.855 71.8218 205.038 72.2046 207.208C72.473 208.714 71.6418 209.704 70.6962 210.616C69.5674 211.708 68.6054 212.884 67.9771 214.338C67.5419 215.348 67.6532 216.338 68.4941 216.944C69.4888 217.658 71.0431 217.782 71.7171 217.084C72.0901 216.697 72.4271 216.231 72.8787 215.973C73.1993 215.794 73.8047 215.749 74.0632 215.941C74.2791 216.1 74.3053 216.733 74.1908 217.081C73.8178 218.199 73.1994 219.206 73.5756 220.509C73.8832 221.581 74.5933 222.21 75.4996 222.464C76.37 222.705 77.3941 222.816 78.1598 221.966C78.6506 221.421 79.1742 220.9 79.7271 220.418C79.9693 220.206 80.4993 219.923 80.591 220.004C80.9018 220.291 81.1996 220.701 81.2748 221.105C81.4286 221.936 81.3141 222.826 81.5333 223.631C81.8671 224.859 83.0188 225.68 83.9808 225.583C84.897 225.491 85.8688 224.234 85.9473 222.937C86.0193 221.747 86.3662 220.861 87.3347 219.958C88.5846 218.785 89.5041 217.215 90.3875 215.709C91.7585 213.367 93.0772 210.985 94.242 208.534C96.1987 204.425 97.8707 200.202 98.9244 195.751C99.8144 191.998 100.868 188.28 101.729 184.52C102.808 179.814 103.823 175.09 104.762 170.355C105.311 167.576 106.195 164.858 106.221 161.974C106.234 160.384 106.516 158.797 106.594 157.204C106.705 154.917 106.774 152.626 106.8 150.335C106.833 147.435 106.859 144.535 106.79 141.635C106.745 139.605 106.617 137.572 106.385 135.555C106.054 132.691 105.642 129.833 105.174 126.988C104.811 124.773 104.291 122.583 103.904 120.367C103.852 120.064 104.176 119.699 104.327 119.36C104.621 119.533 105.095 119.647 105.174 119.891C105.573 121.11 105.94 122.348 106.185 123.606C106.643 125.949 107.046 128.301 107.402 130.661C107.615 132.072 107.736 133.502 107.811 134.926C107.978 138.093 108.106 141.264 108.22 144.431C108.309 146.855 108.443 149.279 108.407 151.704C108.368 154.438 108.217 157.171 108.008 159.899C107.818 162.346 107.605 164.803 107.186 167.22C106.555 170.863 105.789 174.487 104.984 178.097C104.474 180.385 103.751 182.626 103.175 184.904C102.403 187.951 101.689 191.01 100.94 194.06C99.8634 198.456 98.5284 202.77 96.6895 206.918C94.8703 211.017 92.8056 214.983 90.201 218.649C89.5826 219.519 88.7253 220.229 88.1625 221.125C87.747 221.793 87.6095 222.64 87.3838 223.416C87.0304 224.628 86.7654 225.853 85.5056 226.567C84.5567 227.104 82.7767 227.218 81.9521 226.488C81.1374 225.768 80.231 225.077 80.0772 223.843C79.9954 223.171 79.5014 223.051 78.9582 223.393C76.6088 224.869 75.5487 224.491 73.6738 223.236C72.6693 222.562 71.9658 221.389 72.0116 220.033C72.0345 219.336 71.812 219.147 71.1085 219.098C70.1661 219.033 69.1878 218.883 68.3109 218.548C66.292 217.775 65.618 215.833 66.6716 213.686C67.2246 212.558 68.0426 211.552 68.8017 210.535C69.2925 209.877 70.0876 209.382 70.3788 208.665C70.6635 207.961 70.5784 207.055 70.4868 206.26C70.3101 204.741 70.0189 203.236 69.7702 201.724C69.4463 199.776 69.106 197.83 68.7951 195.878C68.5596 194.393 68.3665 192.897 68.1505 191.408C67.8822 189.57 67.591 187.736 67.3489 185.898C67.1755 184.581 67.1133 183.249 66.9301 181.936C66.0761 175.859 66.3345 169.746 66.3509 163.643C66.3575 161.147 66.5603 158.644 66.7468 156.151C66.8875 154.249 67.0642 152.342 67.3587 150.459C67.8299 147.445 68.3796 144.444 68.9522 141.446C69.5281 138.432 70.1531 135.431 70.7878 132.43C71.2688 130.149 71.8251 127.881 72.2995 125.6C72.7707 123.336 73.2223 121.064 73.6051 118.784C73.9388 116.789 74.1319 114.772 74.4558 112.775C74.5082 112.452 74.9205 112.188 75.1659 111.898C75.3916 112.241 75.8334 112.599 75.8105 112.925C75.6829 114.763 75.4963 116.597 75.2215 118.419C74.9565 120.172 74.5703 121.905 74.2235 123.645C73.8636 125.444 73.484 127.236 73.111 129.031C72.6038 131.475 72.1097 133.922 71.5895 136.366C71.1085 138.618 70.5784 140.856 70.1138 143.111C69.8193 144.545 69.6099 145.995 69.3678 147.438C69.0929 149.074 68.805 150.707 68.5661 152.346C68.4483 153.15 68.4025 153.968 68.36 154.78C68.2782 156.262 68.216 157.748 68.1538 159.231C68.0164 162.636 67.8822 166.038 67.7481 169.544H67.7448Z" fill="#8A593B"/>
<path d="M65.9223 63.1228C65.5624 65.394 64.6691 66.5898 62.732 67.1275C62.431 67.2122 62.0285 66.9385 61.6751 66.831C61.9173 66.5377 62.107 66.0554 62.4081 65.9772C64.0408 65.5536 65.0748 63.491 64.5251 62.1844C64.1619 61.3242 62.8662 60.3271 61.8747 60.3043C61.3676 60.2945 60.8637 60.3206 60.3565 60.2978C59.5483 60.2652 59.1785 59.5451 59.5941 58.851C59.9769 58.2026 60.3074 57.5183 60.7491 56.9122C61.77 55.5144 60.3074 53.6277 58.7466 53.6505C58.4423 53.6538 58.1315 53.6961 57.837 53.6407C57.284 53.5365 56.8194 53.3768 57.14 52.6013C57.4378 51.8844 57.5556 51.0959 57.8403 50.3725C58.2984 49.2027 57.873 48.3067 57.0419 47.5377C56.2959 46.8469 55.4451 47.0717 54.5649 47.2965C54.0708 47.4236 53.5146 47.3161 52.9878 47.3128C53.351 46.9381 53.6455 46.394 54.0872 46.2213C55.4975 45.6706 56.9535 45.8042 58.0889 46.8045C59.1196 47.7104 59.5777 48.9388 59.0509 50.3595C58.9201 50.7114 58.871 51.1057 58.8481 51.4837C58.8186 51.9333 58.7695 52.2885 59.4632 52.4775C61.0174 52.8978 62.107 53.9177 62.3001 55.6056C62.3557 56.0846 62.2085 56.6059 62.0612 57.0784C61.9336 57.489 61.6293 57.8409 61.4821 58.2482C61.3087 58.7174 61.2301 59.0987 62.0318 59.1117C64.1652 59.1443 65.7783 60.8159 65.9256 63.1196L65.9223 63.1228Z" fill="#8A593B"/>
<path d="M44.3104 23.3307C47.5105 23.0537 50.2165 24.3506 52.9683 25.6442C56.5087 27.3092 59.7906 29.3881 62.9612 31.6332C64.5253 32.7411 65.8832 34.1553 67.264 35.501C68.2129 36.4231 68.0264 37.1824 66.8452 37.7591C65.664 38.3358 64.45 38.2218 63.2557 37.8438C59.434 36.6349 55.6089 35.4391 51.81 34.1585C48.8423 33.1582 45.917 32.0307 42.9656 30.9783C42.6253 30.8577 42.1869 30.7274 41.8826 30.8381C41.1136 31.1184 40.8944 30.6655 40.5737 30.1441C38.9083 27.4266 41.0482 23.8748 44.3137 23.3307H44.3104Z" fill="#D29F82"/>
<path d="M47.625 33.6108C45.3019 32.7864 43.0278 32.0141 40.7537 31.2451C40.7243 31.2353 40.6719 31.2581 40.6555 31.2419C40.3414 30.929 40.0306 30.6162 39.7197 30.3002C40.1516 30.2154 40.6228 29.9808 41.0089 30.0786C42.0625 30.349 43.0736 30.7857 44.1141 31.1115C47.841 32.2846 51.5581 33.4902 55.3079 34.585C58.4131 35.4909 61.5673 36.224 64.6791 37.1071C65.5069 37.3417 66.2693 37.8239 67.0317 38.2443C67.2018 38.3388 67.2509 38.6451 67.3556 38.8569C67.0579 38.9253 66.7307 39.1078 66.4689 39.0426C65.6541 38.8406 64.8656 38.5212 64.0574 38.2866C61.708 37.6089 59.3587 36.9441 57.0028 36.2827C55.0396 35.732 53.0698 35.2041 51.1065 34.6535C49.9613 34.3341 48.8193 33.992 47.6283 33.6108H47.625Z" fill="#8A593B"/>
<path d="M12.0966 83.4035C14.7372 83.0418 16.1834 85.0653 16.118 87.2419C16.0493 89.4512 15.4832 91.4551 14.518 93.3972C14.4165 93.5992 14.4754 93.8762 14.4591 94.1173C14.6685 94.0977 14.8812 94.0977 15.0808 94.0489C17.1716 93.5568 19.2396 93.2179 21.4318 93.5568C22.8846 93.7817 24.2066 94.1922 25.5023 94.8309C26.232 95.1926 26.6737 95.7139 26.2614 96.4112C26.1174 96.6556 25.1587 96.6882 24.7595 96.4731C22.2793 95.1241 19.6747 95.1828 17.0178 95.6194C15.8366 95.8117 14.675 96.1245 13.4873 96.2581C12.8623 96.3298 12.1784 96.232 11.5731 96.043C8.65114 95.1372 5.6572 94.3714 3.33076 92.1883C1.57038 90.533 1.50494 89.6011 3.50418 87.9523C6.03349 85.8701 9.00125 84.5928 12.0966 83.4035Z" fill="#65381A"/>
<path d="M24.4164 60.6528C25.6369 60.6724 25.8496 60.9656 25.4766 62.0507C24.8549 63.8689 24.2005 65.6806 23.6017 67.5054C23.5068 67.7954 23.6311 68.1538 23.6573 68.4829C23.942 68.4568 24.2397 68.4764 24.508 68.3949C26.1572 67.8898 27.7965 67.3424 29.4521 66.8569C29.7957 66.7559 30.2145 66.7657 30.5581 66.8634C30.9082 66.9645 31.206 67.2382 31.5266 67.4337C31.3303 67.6813 31.1896 68.043 30.9344 68.1636C28.5327 69.2942 26.0066 70.0567 23.3759 70.3858C22.0867 70.5487 21.1182 69.5158 21.4814 68.3069C22.2078 65.8761 23.1207 63.4975 23.9747 61.1058C24.0303 60.9494 24.2266 60.8386 24.4164 60.6528Z" fill="black"/>
<path d="M25.3125 53.7383C25.8884 53.6829 26.4119 53.6569 26.9289 53.696C27.1154 53.7122 27.3805 53.8524 27.4426 54.0055C27.4917 54.1261 27.3347 54.4552 27.1972 54.5138C26.5297 54.7908 25.8361 55.2144 25.1587 55.2046C23.3951 55.1753 21.6314 54.9602 19.8743 54.7778C19.7107 54.7615 19.5799 54.4421 19.4326 54.2629C19.678 54.1456 19.9202 53.9306 20.1656 53.924C21.5038 53.8915 22.8454 53.9143 24.1837 53.9045C24.5403 53.9012 24.897 53.8361 25.3093 53.7416L25.3125 53.7383Z" fill="#65381A"/>
</g>
<defs>
<clipPath id="clip0_137_530">
<rect width="141" height="227" fill="white"/>
</clipPath>
</defs>
</svg>
