<svg width="377" height="743" viewBox="0 0 377 743" fill="none" xmlns="http://www.w3.org/2000/svg">
<g clip-path="url(#clip0_79_75)">
<path d="M98.3567 22.0475C102.172 14.4916 108.024 12.8063 116.858 15.0842C128.173 18.0103 138.636 23.0476 149.248 27.7145C150.304 28.1775 151.174 29.3257 152.248 29.5109C157.637 30.3813 159.063 39.604 167.304 35.5297C172.138 33.1407 178.546 34.0111 184.231 33.3074C188.38 32.7888 192.546 32.3443 196.602 31.3628C199.954 30.548 203.473 29.5294 206.306 27.6775C209.14 23.5106 214.085 21.8438 217.529 18.4363C224.474 11.5655 232.826 7.49127 242.123 5.12079C244.679 4.47261 247.234 3.10217 249.809 3.3244C257.309 3.97258 259.031 3.15773 260.013 10.4729C260.235 12.1397 259.179 14.0286 260.161 15.3991C265.402 17.6584 266.235 19.5474 262.161 23.6032C261.92 23.8439 263.791 26.5848 265.032 27.8071C272.013 34.6963 274.588 43.6227 274.939 52.7898C275.291 61.568 276.865 70.6055 273.365 79.2911C272.143 82.3283 274.847 84.1802 276.365 86.4951C277.662 88.4582 279.717 90.9769 276.162 93.7733C273.865 95.5697 272.791 98.9032 276.495 101.514C279.366 103.552 280.551 106.311 277.328 109.181C274.921 111.33 274.884 113.219 276.143 116.367C277.94 120.867 278.995 126.034 271.939 127.886C270.976 128.145 269.698 129.608 269.624 130.571C269.05 140.276 261.661 147.461 260.142 156.758C258.661 165.74 254.512 174.166 253.031 182.87C249.994 200.779 249.216 218.761 253.735 237.114C258.235 255.337 266.124 272.208 271.532 290.005C274.495 299.746 277.051 309.432 277.051 319.673C277.051 326.562 276.736 333.489 277.125 340.359C277.717 350.545 274.106 359.601 269.976 368.453C266.661 375.565 262.531 382.287 258.772 389.195C257.939 390.732 256.383 392.362 256.494 393.825C257.105 401.029 256.05 407.289 249.568 411.826C248.79 412.363 249.142 415.178 249.623 416.734C250.994 421.345 254.29 425.382 250.994 430.864C249.883 432.697 252.457 436.438 252.512 439.327C252.716 450.606 254.198 462.199 252.086 473.07C250.475 481.385 253.105 490.126 248.92 497.978C248.401 498.96 249.049 500.478 248.809 501.701C248.031 505.719 250.994 506.423 253.161 505.256C262.846 500.015 273.402 497.682 284.014 495.774C292.866 494.182 301.348 491.885 311.034 493.571C320.701 495.237 330.442 495.997 339.628 499.775C347.128 502.867 354.962 504.886 359.499 513.164C362.647 518.924 369.907 519.831 373.796 525.276C376.833 529.535 374.278 535.684 369.259 538.128C365.777 539.832 362.907 541.406 363.425 546.036C363.518 546.795 361.962 548.147 360.907 548.592C349.591 553.277 337.461 553.777 325.886 552.018C315.997 550.518 306.293 551.073 296.515 550.555C288.922 550.148 281.551 550.833 274.421 553.925C272.31 554.833 269.532 554.203 267.05 554.296C257.142 554.666 253.457 559.852 256.364 569.26C260.124 581.482 264.198 593.65 267.458 606.021C268.976 611.799 268.902 617.984 269.532 623.984C270.161 629.985 271.106 635.985 271.328 642.004C271.643 650.43 271.476 658.708 269.569 667.061C267.68 675.357 264.42 683.524 261.976 691.691C261.235 694.192 260.235 696.599 259.253 699.025C256.976 704.674 259.902 706.637 265.865 707.1C271.198 707.526 274.254 710.544 274.754 715.267C275.217 719.563 272.976 724.786 268.365 727.378C266.402 728.49 263.013 729.841 261.754 728.971C256.735 725.452 253.457 728.434 249.809 731.008C248.383 732.008 246.771 732.749 245.29 733.694C241.993 735.805 238.771 735.823 236.363 732.619C232.882 727.971 230.289 729.378 227.011 732.934C225.326 734.749 222.622 735.897 220.159 736.638C212.936 738.842 207.418 734.953 207.547 727.564C207.621 722.471 206.214 718.415 203.103 714.285C196.324 705.303 195.417 693.71 190.658 683.747C189.806 681.969 189.843 679.098 190.658 677.283C193.75 670.45 191.824 663.338 192.417 656.375C193.009 649.43 193.769 642.485 194.269 635.522C195.324 620.595 191.343 606.521 186.75 592.576C184.787 586.612 182.009 585.909 176.138 588.316C167.323 591.927 164.101 598.52 164.156 607.558C164.212 616.632 165.619 625.466 167.879 634.226C168.416 636.281 167.953 638.596 167.953 640.782C167.953 653.949 167.879 667.116 167.971 680.265C168.064 693.303 163.545 704.674 155.211 714.433C152.822 717.23 152.452 719.823 153.193 722.823C155.526 732.268 154.359 735.083 145.322 737.527C141.285 738.62 136.784 738.823 132.599 738.397C129.136 738.046 127.173 735.249 126.506 731.49C125.284 724.693 124.691 724.563 119.024 728.267C110.765 733.675 101.875 732.119 96.0603 723.934C93.3564 720.119 89.0784 718.693 85.319 718.174C79.078 717.304 77.5408 712.693 76.0222 708.47C74.8555 705.211 83.4115 695.618 87.2821 695.451C91.0785 695.284 94.412 694.432 99.7456 696.321C100.486 697.266 100.986 696.84 102.69 697.044C102.635 695.34 103.709 695.192 103.153 693.673C102.468 691.784 101.375 689.784 99.8753 688.488C91.5971 681.339 89.3192 670.857 85.4672 661.505C81.6151 652.134 79.8743 641.874 77.3742 631.966C76.5778 628.799 76.1148 625.522 75.8371 622.262C75.2259 615.058 72.8739 612.447 65.818 612.614C48.7987 613.021 32.9831 608.706 18.0194 600.854C7.7226 595.446 1.74083 586.872 0.722262 575.334C0.388912 571.612 1.50008 567.63 2.51865 563.926C5.94474 551.314 10.8339 539.777 20.038 529.702C33.3165 515.164 48.3357 503.127 64.8921 492.774C66.8922 491.515 68.633 489.589 70.7998 488.904C76.4667 487.07 77.2075 483.126 77.9298 477.755C79.4483 466.588 80.2632 455.291 83.1152 444.272C85.2079 436.234 85.8746 427.827 87.0783 419.567C89.0044 406.252 90.6156 392.881 92.8749 379.621C93.5972 375.398 96.2269 371.824 95.3565 366.935C97.4122 346.786 94.2268 349.082 91.3749 340.063C88.0043 329.359 86.9117 317.969 88.3932 305.821C91.3749 281.245 102.264 260.152 112.302 238.466C117.358 227.558 121.024 216.187 122.802 204.279C123.506 199.538 124.358 194.797 124.636 190.019C125.488 176.111 120.395 163.906 113.043 152.554C111.283 149.832 108.857 147.72 104.635 147.869C99.116 148.072 96.7455 145.276 96.6159 139.368C96.5603 136.479 95.9862 134.998 93.1342 134.238C92.1897 133.997 90.8193 131.775 90.9489 131.627C95.2825 126.701 89.4118 121.441 91.1897 117.256C92.5971 113.904 90.6711 112.552 89.8933 110.589C83.1337 102.644 82.7448 91.588 83.43 81.3653C84.1893 70.1795 86.8932 58.9753 93.1157 49.7896C96.301 45.0857 96.5973 41.6967 94.4491 37.8261C92.1897 33.7703 93.2083 31.4554 96.264 28.6405C97.5789 27.4367 97.69 24.9181 98.3567 22.0661M70.8738 562.037C71.5035 560.111 72.5962 558.203 72.6702 556.259C72.911 550.018 72.5221 543.758 72.8369 537.536C73.0406 533.406 72.948 529.406 73.2073 525.276C73.2999 523.739 73.5221 520.979 72.485 520.702C71.022 520.313 68.5034 521.165 67.4663 522.368C62.7623 527.813 57.9658 533.258 54.0767 539.277C50.1506 545.37 50.984 554.611 55.336 557.592C59.6511 560.537 64.0957 563.833 70.8738 562.018V562.037Z" fill="#B27F5D"/>
<path d="M274.902 498.164C276.384 511.183 282.366 535.147 281.44 548.222C280.866 556.333 294.033 545.536 336.424 552.796C339.22 553.278 344.924 553.981 347.739 553.555C351.221 553.037 358.647 549.592 361.11 547.074C362.647 545.518 364.351 542.481 364.888 540.369C366.092 535.721 383.167 533.425 366.74 519.628C357.203 511.609 349.628 502.979 335.757 498.701C321.886 494.423 274.18 491.96 274.902 498.164Z" fill="#2B2623"/>
<path d="M132.895 47.6415C124.71 61.0125 102.968 102.885 101.357 101.403C98.4122 98.7181 102.764 47.1044 116.172 38.3077C129.58 29.511 135.47 43.4376 132.914 47.6415H132.895Z" fill="#D29F82"/>
<path d="M225.604 34.6225C225.27 39.9931 257.994 70.865 259.402 69.2168C263.161 64.8277 250.809 29.363 239.549 25.085C228.289 20.807 225.881 30.1038 225.604 34.6225Z" fill="#D29F82"/>
<path d="M163.49 135.479C146.915 134.109 142.285 135.961 133.951 136.053C130.71 136.09 119.858 140.591 127.21 150.276C135.729 161.481 134.414 162.888 136.396 166.796C144.637 182.926 149.155 193.056 153.656 207.909C159.156 226.076 159.304 250.707 155.656 285.19C154.748 293.839 161.323 309.099 166.082 318.97C180.75 349.434 183.287 360.083 177.249 377.528C176.361 380.102 179.361 385.436 180.361 387.992C181.787 391.64 186.935 394.807 182.546 404.937C181.416 407.53 173.99 406.4 171.62 407.937C162.23 414.012 159.749 407.937 156.563 410.215C149.47 415.326 143.563 420.012 140.099 415.234C137.285 411.345 137.71 433.642 137.71 433.642C137.71 433.642 133.914 496.793 142.896 515.109C166.953 564.13 211.14 540.721 219.752 514.72C223.048 504.775 224.789 478.718 224.9 466.44C225.011 455.217 222.011 441.624 227.937 421.623C228.604 419.364 232.178 410.4 229.511 410.641C220.344 411.437 226.289 401.307 223.363 400.048C220.918 398.992 214.418 400.603 212.825 398.288C210.899 395.455 211.807 387.455 213.418 384.436C218.696 374.547 216.585 356.138 214.511 345.897C212.622 336.637 215.233 317.748 217.251 308.173C220.215 294.135 219.974 265.023 216.696 250.763C213.029 234.725 229.271 203.723 234.9 188.334C239.16 176.648 247.697 158.832 255.05 143.609C258.365 136.72 260.679 122.46 243.493 129.386C239.29 131.09 230.011 130.849 225.641 130.72C213.362 130.368 208.14 129.22 202.269 128.183C197.491 127.349 195.732 126.571 183.398 132.72C178.601 135.109 171.157 136.165 163.49 135.535V135.479Z" fill="white"/>
<path d="M277.032 719.749C272.939 730.453 272.124 730.971 261.883 731.045C257.346 731.083 253.309 731.082 249.086 734.49C245.123 737.675 238.956 739.194 234.215 734.231C231.882 731.786 230.752 733.379 228.9 734.786C226.122 736.916 223.178 739.509 219.937 740.25C211.622 742.157 204.029 736.083 203.917 726.416C203.843 719.971 200.732 715.822 197.787 710.952C192.417 702.044 188.269 692.655 188.528 681.858C188.713 674.339 187.639 666.672 188.769 659.32C190.565 647.652 190.824 635.985 190.287 624.337C189.806 614.151 187.972 604.039 186.657 593.909C186.194 590.372 183.546 589.279 180.601 590.001C177.249 590.816 173.823 591.965 170.916 593.779C167.842 595.706 165.527 598.317 165.86 602.854C166.804 615.744 165.971 628.874 168.175 641.523C170.823 656.727 169.471 671.802 169.49 686.895C169.49 697.322 163.915 706.452 158.286 715.063C156.36 718.026 155.341 720.36 156.36 724.138C157.989 730.119 153.859 737.212 145.618 741.027C139.748 743.75 131.506 742.546 127.136 738.305C126.247 737.435 124.673 736.509 124.673 735.62C124.802 727.175 120.969 730.323 116.543 732.305C106.505 736.786 101.542 734.879 93.9491 726.156C91.8749 723.767 87.8747 722.878 84.6153 721.693C78.3187 719.397 73.8555 713.915 73.7444 707.822C73.6147 701.766 77.226 696.136 83.4485 694.247C86.8746 693.21 90.7637 693.247 94.3935 693.507C98.5234 693.803 98.1159 692.544 96.3381 689.914C87.7451 677.209 82.93 662.838 78.6891 648.338C76.2815 640.134 73.2814 631.967 73.6518 623.077C73.911 617.003 72.948 616.91 66.707 616.169C52.873 614.521 38.7426 614.41 25.5939 608.743C16.2971 604.743 8.50042 599.113 3.31498 590.131C1.27784 586.631 0.611144 583.112 0.240756 579.131C-1.83342 556.278 8.5745 538.425 23.4271 522.924C33.1498 512.794 44.2244 503.942 55.0583 494.941C59.0585 491.626 63.855 489.071 68.6515 486.996C72.2073 485.459 73.3555 482.904 73.6888 479.737C75.8 460.569 80.0039 441.883 84.8005 423.216C87.3191 413.4 87.5228 402.992 88.8007 392.844C89.3933 388.084 89.9118 383.306 90.7082 378.584C91.8378 371.861 93.5972 365.231 94.2639 358.49C94.5972 355.101 93.9676 351.064 92.3564 348.101C83.9115 332.674 83.893 315.877 85.356 299.413C86.745 283.672 94.1528 269.412 100.727 255.078C107.487 240.336 113.802 225.354 119.321 210.113C125.506 193.038 124.395 176.166 115.358 159.962C112.487 154.813 109.672 151.073 102.987 151.295C97.7085 151.461 93.0046 147.146 93.0786 142.961C93.1527 137.942 88.671 135.479 88.9488 131.349C89.2266 127.442 88.6895 123.59 88.8192 119.738C88.9673 115.46 88.2636 111.7 85.8746 107.756C82.5041 102.181 81.0781 95.8476 81.1151 88.9955C81.1707 77.4578 81.2077 66.0684 86.9302 55.5864C87.3561 54.8271 87.671 53.9752 88.208 53.29C92.4305 47.9379 95.9121 42.6784 90.8934 35.6595C89.9304 34.3076 91.3749 31.0852 92.0045 28.8073C92.6157 26.585 93.8565 24.5293 94.412 22.2885C96.0418 15.5659 99.8197 12.5102 107.024 12.1769C117.395 11.6954 126.84 15.4733 136.099 19.2143C143.081 22.0292 149.989 25.5294 156.008 29.974C159.137 32.289 161.897 33.2705 165.212 32.826C171.971 31.9186 178.694 30.5852 185.417 29.4555C186.62 29.2518 187.88 28.9925 189.046 29.1777C197.51 30.5667 203.288 26.5109 209.288 20.9736C216.844 14.0103 225.196 7.58405 235.178 4.25056C242.382 1.84303 249.753 -1.87937 257.457 2.82456C259.105 3.82461 261.772 5.39876 261.698 6.56548C261.365 11.362 262.661 15.0659 266.606 17.8253C266.865 18.0105 267.291 18.3624 267.235 18.4735C263.383 27.7332 272.902 32.6223 274.476 40.3449C276.977 52.5307 276.884 64.6424 276.977 76.8652C272.958 80.1246 276.365 81.921 278.291 84.1989C279.384 85.4953 280.829 87.4398 280.551 88.7732C279.921 91.8474 276.958 95.0143 277.514 97.5885C278.125 100.422 281.977 102.515 280.717 106.385C279.884 108.904 278.143 111.367 278.125 113.849C278.125 116.275 280.495 118.701 280.551 121.145C280.606 123.608 279.68 127.738 278.143 128.312C268.402 131.923 268.161 141.628 266.235 148.776C263.402 159.203 258.994 169.185 257.105 179.87C254.827 192.63 250.92 205.353 252.698 218.409C254.475 231.447 258.272 244.114 262.531 256.615C267.587 271.467 273.143 286.264 276.736 301.487C280.514 317.488 279.977 334.23 278.495 350.471C277.254 364.102 270.976 376.676 263.346 388.306C261.642 390.899 260.272 394.251 260.235 397.27C260.179 402.566 258.29 406.567 254.624 410.085C252.068 412.53 250.457 414.215 252.068 419.086C254.475 426.382 254.031 434.716 254.346 442.605C254.661 450.439 254.346 458.273 254.438 466.125C254.531 476.126 253.42 485.959 250.735 495.627C250.253 497.367 250.346 499.46 250.809 501.219C251.031 502.071 253.142 503.368 253.624 503.108C264.828 496.867 277.495 494.775 289.625 492.645C299.607 490.904 310.367 491.46 320.942 493.312C330.368 494.96 338.85 498.59 347.758 501.423C352.314 502.868 355.61 505.646 358.777 508.923C362.444 512.72 365.833 516.961 370.037 520.017C379.278 526.739 379.352 534.11 369.852 539.592C367.574 540.906 364.555 541.981 365.24 546.055C365.444 547.296 363.073 550.074 361.647 550.24C357.462 550.759 354.721 552.352 351.388 555.222C348.702 557.518 342.554 555.889 337.943 555.759C336.905 555.741 335.905 554.315 334.85 554.259C318.812 553.537 302.737 552.129 286.718 552.648C278.458 552.907 270.31 556.648 262.087 558.759C257.809 559.852 257.476 563.167 258.272 566.389C260.679 576.019 263.791 585.464 266.05 595.113C268.198 604.336 269.884 613.688 271.273 623.04C272.328 630.244 272.976 637.541 273.162 644.819C273.662 663.838 270.31 682.173 262.439 699.618C261.18 702.414 261.05 704.414 265.587 704.933C274.588 705.952 276.921 709.341 276.995 719.804M73.7814 566.371C74.4666 578.649 73.4666 590.872 75.2444 603.261C76.7816 613.947 76.8742 624.966 79.5409 635.485C84.4301 654.69 89.9118 673.783 101.616 690.303C102.746 691.914 103.375 693.988 103.82 695.951C104.301 698.099 103.153 700.266 100.968 698.748C96.5603 695.673 91.8934 697.285 87.4673 697.359C82.2818 697.451 77.8372 702.47 77.5223 707.081C77.2445 711.119 81.1521 716.285 85.6338 717.878C90.9119 719.73 91.986 719.471 92.449 714.526C93.0416 708.322 98.0048 706.118 101.912 702.951C102.487 702.488 104.431 703.711 105.746 704.155C105.116 704.97 104.672 706.1 103.838 706.544C98.0789 709.618 95.4121 714.045 96.2455 720.804C96.9492 726.601 104.005 730.823 110.061 729.749C118.932 728.175 123.413 723.823 122.747 714.619C122.691 713.859 123.339 713.045 123.673 712.248C123.969 713.063 124.284 713.878 124.58 714.693C125.691 717.786 125.617 717.693 128.395 715.285C129.117 714.656 130.395 714.637 131.432 714.359C131.432 715.434 131.858 716.73 131.414 717.526C129.951 720.082 127.266 722.267 126.673 724.953C125.654 729.601 127.228 734.027 131.581 736.657C136.266 739.472 141.377 739.62 145.933 736.62C150.378 733.675 154.322 729.027 152.489 723.804C150.785 718.915 152.619 716.341 154.859 712.915C157.582 708.767 160.193 704.489 162.119 699.951C165.323 692.395 166.342 684.414 166.045 676.154C165.712 666.765 167.545 657.005 165.619 648.004C162.323 632.522 161.712 617.058 162.415 601.521C162.804 593.076 166.379 585.298 175.194 581.705C176.749 581.075 179.49 580.186 180.12 580.871C183.805 584.835 188.731 588.761 190.046 593.557C192.565 602.724 193.935 612.484 193.972 622.003C194.028 642.115 192.861 662.246 192.38 682.376C192.324 684.988 193.287 687.617 193.787 690.229C195.658 699.97 200.251 708.359 206.325 716.119C207.769 717.952 209.288 721.434 208.492 723.008C205.492 728.971 209.27 732.083 212.677 735.379C216.381 738.972 219.974 735.601 223.474 734.638C228.252 733.342 228.641 729.601 228.085 725.453C227.919 724.212 228.085 722.953 228.048 721.693C227.993 720.045 224.955 718.026 228.326 716.952C228.974 716.748 230.752 719.082 231.511 720.508C232.456 722.267 233.086 724.267 233.53 726.249C234.011 728.397 233.215 730.397 236.715 731.564C242.734 733.564 246.327 733.546 249.642 729.249C252.809 725.138 252.586 721.563 248.734 716.971C247.734 715.767 246.401 714.841 245.494 713.582C245.068 712.989 245.308 711.933 245.234 711.082C245.901 711.267 246.568 711.452 247.234 711.674C253.012 713.619 255.531 718.008 256.309 723.749C256.457 724.916 256.439 726.527 257.161 727.101C259.865 729.212 269.272 726.193 271.402 723.082C273.884 719.434 274.069 715.785 272.05 712.082C269.661 707.674 265.309 708.378 261.328 708.563C259.753 708.637 258.235 709.396 256.679 709.841C256.624 707.729 256.142 705.526 256.642 703.563C257.29 701.081 258.957 698.877 259.828 696.433C264.902 682.173 268.772 667.579 269.347 652.43C269.958 636.356 267.55 620.54 263.846 604.91C260.309 590.039 257.661 574.927 253.624 560.204C249.79 546.277 246.345 532.443 246.827 517.868C247.086 509.72 245.845 501.386 247.16 493.46C248.586 484.885 250.549 476.366 250.531 467.699C250.531 452.273 251.623 436.809 248.901 421.419C247.623 414.141 242.142 409.715 234.289 411.122C232.16 411.511 229.9 411.122 227.715 411.196C224.326 411.308 222.141 409.696 222.511 406.381C223.048 401.603 220.437 401.363 217.048 401.789C212.844 402.326 210.936 399.307 209.325 396.418C207.825 393.714 206.695 391.399 208.955 387.529C215.325 376.621 214.585 363.861 212.51 352.323C210.436 340.786 211.214 329.507 211.436 318.21C211.603 309.858 216.159 301.617 216.455 293.246C216.918 279.746 216.937 265.893 214.362 252.744C212.622 243.892 214.844 236.262 216.362 228.41C218.048 219.65 221.103 210.946 224.955 202.89C228.215 196.093 230.382 188.352 236.697 183.278C237.326 182.778 238.03 182.352 238.697 181.889C238.697 182.963 239.012 184.204 238.586 185.074C235.363 191.593 231.604 197.853 228.752 204.52C223.418 217.002 217.511 229.373 218.585 243.614C219.4 254.318 218.455 264.986 220.177 275.819C222.529 290.579 217.918 305.099 215.492 319.692C213.918 329.248 215.381 339.36 216.011 349.175C216.437 356.046 218.826 362.935 218.307 369.676C217.844 375.861 214.881 381.936 212.64 387.918C210.807 392.825 212.492 397.325 217.251 397.9C219.548 398.177 221.974 397.325 224.344 396.992C225.418 396.844 226.493 396.714 227.548 396.585C227.196 397.881 226.937 399.196 226.493 400.455C225.956 401.992 224.437 404.511 224.826 404.826C226.326 406.067 228.345 406.993 230.289 407.289C231.53 407.474 232.956 406.344 234.326 405.844C236.882 404.937 238.956 403.715 241.679 406.659C245.623 410.937 249.901 410.456 253.049 405.752C254.772 403.178 255.901 399.844 256.124 396.77C256.42 392.714 257.698 389.455 259.698 385.954C265.643 375.602 271.458 365.453 273.587 353.064C276.514 336.082 275.828 319.303 272.68 302.95C269.735 287.672 263.309 273.06 258.476 258.133C254.42 245.577 250.549 232.91 248.883 219.817C247.086 205.779 250.105 191.908 253.216 178.37C256.476 164.221 261.235 150.387 265.828 136.59C267.198 132.461 267.624 127.442 273.439 125.627C276.94 124.534 277.717 121.256 275.199 117.645C273.606 115.367 271.273 112.515 274.643 109.682C278.625 106.33 277.532 103.292 273.995 100.626C271.421 98.6811 271.161 97.2551 273.958 95.218C278.18 92.1438 278.236 88.6806 273.995 85.5323C270.624 83.0322 270.884 79.9765 271.976 76.5134C272.587 74.5503 273.291 72.4391 273.162 70.4575C272.754 64.1239 272.902 57.8458 271.847 51.401C270.421 42.6413 268.328 34.7521 263.235 27.5295C262.309 26.2146 261.55 23.307 262.217 22.6403C265.68 19.1772 263.05 18.6031 260.439 17.1771C258.476 16.103 253.901 16.103 257.827 11.1953C260.087 8.38039 257.05 4.45427 252.92 4.88022C247.105 5.47284 241.123 6.52844 235.697 8.62114C225.326 12.6399 216.511 19.3809 208.603 27.1406C204.417 31.2334 199.936 32.9001 194.047 33.1409C186.954 33.4372 179.972 35.5484 172.879 36.2892C166.23 36.9744 160.175 39.0486 153.267 33.3075C142.025 23.9737 127.599 19.881 113.524 16.0845C107.042 14.3436 102.375 16.2141 100.079 20.1958C98.8752 22.2885 96.764 24.1589 100.005 26.2331C98.1715 28.2517 95.5788 30.0111 94.7084 32.4001C94.0417 34.2705 94.7639 37.6781 96.1714 39.0486C99.5419 42.2709 98.19 44.9007 96.3566 47.8638C95.1158 49.8639 93.7639 51.7899 92.6157 53.8456C86.5228 64.5498 84.0227 76.0319 85.0227 88.3473C85.4301 93.4216 84.8005 98.3478 88.0414 103.181C89.7452 105.718 90.2081 109.237 92.949 111.441C97.1159 114.812 90.5785 117.793 92.5231 121.349C93.6157 123.33 95.0973 126.905 94.2454 127.849C89.4859 133.22 97.5789 133.831 97.1714 136.535C96.5973 140.442 95.5232 143.887 99.653 146.276C100.894 146.998 102.431 147.813 103.727 147.665C112.024 146.665 115.617 152.036 119.061 158.147C128.821 175.518 129.284 193.815 123.099 212.02C117.617 228.169 110.728 243.892 103.783 259.504C98.3011 271.782 92.7083 283.709 90.3748 297.32C88.0414 310.84 88.8192 323.544 92.1712 336.6C94.6713 346.397 99.3012 355.175 104.505 363.453C109.635 371.602 115.765 379.676 123.173 385.64C129.821 390.992 134.599 395.307 134.321 404.733C134.081 413.419 142.896 417.678 149.378 413.03C150.656 412.122 151.156 410.196 152.304 409.011C153.971 407.27 155.156 404.27 158.508 407.919C159.73 409.252 164.841 409.03 166.323 407.604C168.656 405.363 169.193 402.733 173.434 405.344C176.583 407.27 178.638 403.066 180.787 401.029C181.287 400.566 180.99 399.27 181.064 398.362C181.49 393.844 179.842 390.177 176.657 386.992C175.416 385.751 173.36 383.325 173.712 382.788C176.527 378.473 173.953 373.38 175.62 369.417C179.231 360.805 176.231 352.564 173.786 345.193C169.694 332.896 163.212 321.377 157.508 309.636C154.6 303.654 152.359 297.691 152.785 290.876C153.341 282.042 153.822 273.134 154.23 264.356C154.934 249.04 155.934 233.577 153.137 218.057C150.507 203.446 146.674 189.556 139.674 176.537C138.433 174.222 137.062 171.981 135.988 169.592C135.692 168.925 136.247 167.888 136.414 167.018C137.081 167.388 138.007 167.592 138.377 168.166C141.377 172.87 145.155 177.315 147.026 182.444C151.304 194.186 155.193 206.131 158.156 218.261C159.934 225.558 161.026 233.521 159.971 240.836C159.1 246.892 158.674 252.874 158.508 258.93C158.415 262.374 159.1 265.967 158.304 269.208C154.285 285.375 156.137 300.71 164.175 315.21C170.99 327.507 178.824 339.082 179.805 354.027C180.213 360.305 181.083 366.083 179.731 372.491C178.49 378.38 176.99 385.232 183.49 390.436C186.065 392.51 185.565 396.622 185.046 400.437C183.546 411.641 171.508 406.752 166.879 412.974C166.156 413.937 163.971 414.085 162.452 414.122C161.397 414.141 160.119 413.548 159.286 412.845C157.008 410.9 156.137 409.956 154.341 413.9C153.211 416.363 148.6 418.123 145.322 418.549C137.285 419.586 130.321 412.9 130.395 404.381C130.432 399.437 129.914 395.066 125.432 392.288C113.728 385.084 106.987 373.75 100.135 362.453C99.6345 361.62 98.653 361.064 97.9122 360.379C97.4122 361.324 96.5603 362.213 96.4677 363.194C95.7454 370.769 95.2084 378.361 94.5232 385.936C93.9676 391.955 93.7453 398.048 92.5601 403.955C90.4118 414.586 86.8191 424.993 85.3375 435.698C83.1708 451.347 78.5965 466.514 77.3186 482.385C76.3371 494.719 73.9851 506.979 73.874 519.424C73.7444 534.48 73.837 549.537 73.837 566.463M264.791 554.148C271.532 552.259 278.18 549.277 285.014 548.74C296.533 547.833 308.163 548.166 319.738 548.629C326.257 548.888 333.239 549.222 339.072 551.685C347.443 555.222 351.295 546.259 358.092 546.61C358.406 546.61 358.832 546.74 359.018 546.592C359.944 545.777 361.703 544.703 361.573 544.073C360.351 538.518 364.925 537.499 368.092 535.61C373.648 532.313 375.389 528.184 370.555 524.943C362.851 519.776 357.48 512.275 349.962 507.183C347.387 505.423 344.202 504.497 341.239 503.349C334.128 500.608 326.942 498.516 319.275 497.238C309.2 495.552 299.589 495.626 289.57 497.182C278.477 498.904 267.958 502.553 257.105 504.923C251.864 506.071 250.975 507.96 250.549 512.59C249.364 525.535 252.957 537.888 254.512 550.481C255.087 555.166 257.605 556.074 264.791 554.166M63.429 525.906C69.133 521.998 70.9479 516.572 70.1146 509.831C69.7812 507.183 70.5405 504.405 70.7072 501.682C70.8924 498.516 70.9665 495.349 71.0961 492.163C68.1145 493.182 65.1143 494.182 62.1327 495.219C61.8734 495.312 61.7067 495.701 61.466 495.867C47.4653 504.738 35.0573 515.59 24.0382 527.85C11.8524 541.406 3.16683 556.63 3.98168 575.945C4.31503 583.705 6.79663 589.853 12.2043 595.168C20.0751 602.928 29.8348 606.743 40.4279 608.688C48.3357 610.132 56.2991 611.188 64.2254 612.503C69.6145 613.392 73.5036 610.336 71.7072 605.41C68.5774 596.872 70.7442 588.316 70.059 579.816C69.6886 575.204 71.2442 569.556 69.096 566.223C67.244 563.352 61.3549 563.074 57.225 561.685C47.7986 558.5 45.8171 553 49.0209 543.851C51.6507 536.369 57.7806 532.332 63.429 525.924M70.022 526.85C62.5957 531.036 56.5028 537.795 52.873 545.87C50.1506 551.944 50.5766 554.185 55.4657 557.37C57.1139 558.463 59.077 559.241 61.003 559.722C69.6145 561.833 69.9664 561.556 70.0034 553C70.0405 544.907 70.0034 536.814 70.0034 526.85M179.175 587.075C178.675 586.131 177.842 584.335 177.749 584.372C175.657 585.242 173.638 586.261 171.675 587.409C171.453 587.538 171.768 588.538 171.823 589.15C173.953 588.779 176.083 588.39 179.157 587.075H179.175Z" fill="#8A593B"/>
<path d="M181.342 134.775L187.528 131.794L192.546 128.164H197.436L204.899 129.664L209.103 131.053L208.399 137.757L202.14 145.22L197.065 146.85L188.213 145.091L183.398 140.128L181.342 134.775Z" fill="#F7C6E2"/>
<path d="M189.657 128.331C187.583 126.775 185.139 125.053 183.472 123.145C182.009 121.46 180.435 118.997 180.564 116.997C180.75 114.441 183.287 113.626 186.12 113.497C190.88 113.274 195.621 111.922 200.38 111.83C206.732 111.719 208.103 114.737 204.658 120.293C204.177 121.071 203.399 121.682 202.677 122.293C198.639 125.756 199.751 126.238 201.936 127.386" fill="#65381A"/>
<path d="M109.302 83.9581C114.469 75.754 119.228 68.0685 123.858 60.2903C126.525 55.8086 128.914 51.1232 131.636 46.6785C132.229 45.697 134.062 44.4747 134.821 44.7525C137.84 45.8637 135.988 47.9378 135.136 49.4564C131.284 56.3086 127.395 63.1238 123.358 69.8648C117.339 79.8653 111.191 89.8103 105.024 99.7182C104.394 100.737 103.283 101.44 102.394 102.292C102.024 100.903 100.949 99.1996 101.431 98.1996C103.672 93.4956 106.32 88.9769 109.302 83.9396V83.9581Z" fill="#8A593B"/>
<path d="M257.031 72.6799C247.031 62.6794 237.512 53.1604 227.974 43.6229C226.641 42.2895 224.955 41.1598 224.104 39.5671C223.474 38.4189 223.955 36.6781 223.918 35.1965C225.03 35.8818 226.307 36.3818 227.215 37.2707C236.789 46.7527 246.345 56.2531 255.79 65.8647C257.642 67.7537 258.976 70.1427 260.439 72.3835C260.642 72.6984 260.124 73.4947 259.939 74.0688C259.124 73.754 258.327 73.4391 257.031 72.6613V72.6799Z" fill="#8A593B"/>
<path d="M199.788 126.442C202.417 127.034 204.973 128.108 207.621 128.534C211.251 129.127 214.936 129.312 219.14 129.683C223.585 129.979 227.104 128.497 230.715 127.349C231.345 127.145 231.882 126.534 232.511 126.46C233.123 126.405 233.771 126.794 234.4 126.997C234.104 127.534 233.919 128.312 233.474 128.534C229.789 130.349 226.141 132.109 221.77 131.905C215.733 131.627 209.658 132.257 203.695 130.775C203.195 130.646 202.491 130.868 202.14 130.609C197.195 126.812 192.676 128.849 188.565 131.923C184.768 134.775 180.287 136.461 176.027 137.016C169.638 137.905 166.119 138.127 159.971 136.738C159.823 136.664 159.026 136.461 158.952 136.35C157.6 135.424 156.285 135.424 154.952 134.479C156.526 134.331 158.304 133.664 159.637 134.146C163.804 135.683 167.693 134.701 171.879 134.349C176.712 133.942 180.842 132.183 185.194 130.72C186.768 130.201 188.176 129.127 189.565 128.164" fill="#65381A"/>
<path d="M159.712 111.811C163.414 111.811 166.416 107.682 166.416 102.589C166.416 97.4951 163.414 93.366 159.712 93.366C156.009 93.366 153.008 97.4951 153.008 102.589C153.008 107.682 156.009 111.811 159.712 111.811Z" fill="black"/>
<path d="M219.918 106.57C223.621 106.57 226.622 102.441 226.622 97.3477C226.622 92.2541 223.621 88.125 219.918 88.125C216.216 88.125 213.214 92.2541 213.214 97.3477C213.214 102.441 216.216 106.57 219.918 106.57Z" fill="black"/>
<path d="M182.565 133.683C182.565 133.683 185.083 139.405 187.324 141.683C188.898 143.294 193.491 144.665 195.954 144.683C197.454 144.683 199.602 143.868 201.01 142.924C202.788 141.757 206.973 136.998 207.381 134.924C207.769 132.961 207.251 129.423 207.251 129.423L210.51 130.034C210.51 130.034 209.547 135.72 208.899 137.535C208.047 139.905 204.566 144.294 202.991 145.683C201.417 147.072 197.769 147.498 197.769 147.498C197.769 147.498 192.361 147.572 190.676 147.035C188.398 146.313 184.546 143.165 183.083 141.442C182.287 140.516 180.564 137.331 180.564 137.331L178.49 134.646L182.546 133.683H182.565Z" fill="#65381A"/>
</g>
<defs>
<clipPath id="clip0_79_75">
<rect width="377" height="741.981" fill="white" transform="translate(0 0.509521)"/>
</clipPath>
</defs>
</svg>
