<svg width="111" height="195" viewBox="0 0 111 195" fill="none" xmlns="http://www.w3.org/2000/svg">
<g id="weasel-side-peaceful" clip-path="url(#clip0_137_768)">
<path id="Vector" d="M36.714 1.56084C38.023 0.216869 39.5 0.07982 41.2513 0.296447C45.4126 0.813698 48.5525 3.20985 51.7189 5.59275C54.2175 7.47607 56.1677 9.88991 58.1224 12.3038C58.3877 12.6309 58.9538 12.8519 59.3916 12.8785C60.7448 12.9536 62.1467 12.7016 63.4601 12.9581C65.114 13.2764 66.2152 12.3701 67.5331 11.7732C70.8763 10.2657 74.2152 8.67857 77.6867 7.52028C81.0123 6.41062 84.4838 5.67674 87.9332 5.00476C89.9188 4.62014 91.9973 4.53614 94.0227 4.58919C95.5882 4.62898 97.2289 4.86771 98.675 5.42917C101.205 6.41504 102.96 9.08088 101.603 12.2109C101.35 12.7901 101.156 13.325 102.009 13.6345C105.216 14.7927 105.021 17.7636 103.54 20.0625C103.522 20.089 103.491 20.1112 103.464 20.1377C101.97 21.5524 102.292 23.25 102.682 24.9742C102.858 25.7479 103.049 26.5436 103.04 27.3261C103.018 29.5455 103.774 31.6852 103.349 33.9797C103.08 35.4386 103.579 37.039 103.752 38.573C103.849 39.4307 104.07 40.284 104.092 41.1416C104.194 44.9083 104.309 48.6793 104.291 52.4504C104.282 54.6565 104.075 56.8669 103.889 59.073C103.65 61.8891 103.349 64.6964 103.062 67.5082C102.792 70.1475 102.505 72.7824 102.226 75.4217C101.947 78.0919 101.66 80.7666 101.39 83.4369C101.169 85.612 100.93 87.7915 100.771 89.971C100.523 93.3663 100.271 96.7616 100.152 100.166C100.006 104.282 99.953 108.402 99.9397 112.518C99.9309 115.033 100.033 117.549 100.143 120.06C100.236 122.235 100.32 124.415 100.585 126.572C100.762 128.018 101.2 129.437 101.607 130.843C102.766 134.853 104.057 138.831 105.118 142.868C105.671 144.968 105.83 147.174 106.206 149.322C106.671 151.984 107.206 154.627 107.652 157.289C107.918 158.867 108.064 160.463 108.293 162.046C108.625 164.309 109.001 166.564 109.328 168.828C109.443 169.628 109.488 170.441 109.541 171.25C109.687 173.355 109.824 175.455 109.961 177.559C110.098 179.663 110.204 181.768 110.39 183.868C110.54 185.53 110.903 187.174 110.973 188.837C111.044 190.442 110.845 192.051 110.801 193.66C110.717 196.768 110.69 199.876 110.575 202.979C110.491 205.256 110.385 207.542 110.146 209.81C109.89 212.255 109.496 214.686 109.085 217.109C109.036 217.387 108.479 217.781 108.152 217.781C99.8159 217.887 91.4799 217.966 83.1438 218.006C81.2555 218.015 79.3671 217.9 77.4788 217.803C75.2677 217.688 73.0609 217.551 70.8542 217.378C70.1245 217.321 69.7177 217.653 69.3772 218.223C68.276 220.071 67.0776 221.861 66.0914 223.767C65.627 224.664 65.6226 225.791 65.2998 226.782C64.6055 228.913 62.9825 229.766 61.1251 229.912C59.48 230.04 57.8526 228.639 57.26 226.76C57.1539 226.428 57.2468 226.035 57.2158 225.672C57.2025 225.526 57.1052 225.261 57.0477 225.261C56.7868 225.261 56.495 225.279 56.265 225.389C55.6547 225.69 55.0754 226.048 54.4784 226.375C53.2446 227.051 50.8256 226.185 50.1313 225.199C49.1407 223.789 48.5083 222.286 49.5387 220.592C49.5873 220.513 49.5785 220.398 49.5962 220.301C49.3573 220.27 49.1185 220.208 48.8842 220.217C47.9113 220.239 46.9339 220.363 45.9654 220.301C44.3425 220.199 43.3519 217.604 44.086 216.269C44.4044 215.69 44.4221 215.508 43.6924 215.5C42.6752 215.482 41.6581 215.345 40.641 215.309C38.1954 215.221 35.7499 215.164 33.3044 215.093C30.9296 215.022 28.5504 214.925 26.1756 214.898C25.1231 214.885 24.075 215.049 23.0225 215.084C22.2353 215.11 21.8064 214.553 21.8904 213.815C22.1203 211.812 22.3193 209.81 22.5228 207.803C22.8058 205.062 23.0933 202.321 23.3542 199.575C23.5178 197.891 23.6107 196.202 23.7831 194.522C24.0396 192.02 24.3448 189.526 24.6101 187.029C24.8312 184.955 24.9904 182.877 25.2513 180.808C25.4592 179.168 25.7997 177.55 26.0341 175.914C26.2242 174.588 26.3083 173.248 26.4984 171.922C26.8124 169.76 27.1927 167.607 27.5156 165.446C27.7544 163.832 27.9224 162.205 28.1745 160.591C28.4398 158.898 28.7627 157.214 29.0766 155.529C29.3906 153.849 29.6338 152.152 30.0717 150.503C30.6023 148.509 31.2789 146.546 31.9379 144.587C32.7074 142.293 33.5255 140.016 34.3215 137.735C35.8958 133.23 37.6338 128.774 39.0047 124.211C40.2474 120.082 42.3922 116.333 43.7145 112.253C44.851 108.751 46.275 105.325 47.1197 101.762C47.783 98.9721 48.0041 96.0145 47.9511 93.1364C47.9113 90.9834 47.3231 88.7729 46.6155 86.7128C45.8062 84.352 43.6835 83.0699 41.6139 81.9028C38.735 80.2759 35.5376 79.5597 32.3668 78.7241C28.6211 77.7383 24.9108 76.6551 21.3509 75.0371C17.9236 73.4809 14.7705 71.5268 11.8562 69.2058C8.4952 66.5267 5.77106 63.2552 3.92695 59.3515C2.8656 57.1057 2.11823 54.7051 2.04305 52.1984C1.98556 50.2311 2.03863 48.2461 2.25532 46.2965C2.53835 43.7721 4.05078 42.07 6.27962 40.8985C7.88935 40.0496 9.50349 39.1655 10.9584 38.0823C12.3028 37.0832 13.4747 35.8365 14.6555 34.6296C15.5532 33.71 16.3271 32.6711 17.185 31.7162C18.127 30.6684 19.2326 29.74 20.0242 28.5905C20.63 27.7152 20.9617 26.6055 21.2359 25.5533C22.0717 22.3393 23.6726 19.532 25.6936 16.9502C26.6576 15.7211 27.8295 14.6469 28.7538 13.3913C29.1695 12.8254 29.3199 11.9987 29.3906 11.2692C29.5587 9.52297 29.6029 7.7767 30.6598 6.24263C31.5222 4.98708 32.6631 4.28414 34.1756 4.34604C34.9141 4.37699 35.2413 4.12941 35.5067 3.45301C35.7632 2.79428 36.2452 2.21956 36.683 1.55642M102.23 46.88L102.023 45.5493L102.23 46.88Z" fill="#B27F5D"/>
<path id="Vector_2" d="M37.7002 133.071C38.8898 129.547 40.0617 126.126 41.2646 122.713C42.6532 118.787 44.201 114.905 45.4348 110.931C46.3414 108.004 46.9871 104.976 47.5089 101.952C47.9732 99.2726 48.2828 96.5361 48.3403 93.8216C48.4155 90.4926 47.4249 87.3361 45.3154 84.7454C44.347 83.5606 42.8345 82.7692 41.468 81.9735C38.9738 80.519 36.1347 80.0061 33.3929 79.2104C28.7318 77.8576 24.0751 76.4163 19.865 73.9494C17.446 72.5303 15.1818 70.8106 13.0016 69.0378C11.3875 67.7292 9.99886 66.1376 8.54834 64.6345C6.64675 62.6672 5.04145 60.5009 4.15699 57.866C4.01547 57.4416 3.74571 57.0526 3.50249 56.6724C3.09563 56.0402 3.39635 55.7793 3.99779 55.7749C4.38253 55.7749 4.82476 55.8324 5.14316 56.0225C7.15974 57.2338 9.17189 58.4628 11.1442 59.7493C12.9883 60.9518 14.8988 61.9775 17.1099 62.3002C18.1713 62.455 19.2415 62.6053 20.3117 62.6627C22.3062 62.7733 24.3183 62.7025 26.2951 62.9192C27.7765 63.0827 29.2138 63.6265 30.6864 63.9183C32.022 64.188 33.3664 64.4532 34.7196 64.5328C37.1651 64.6831 39.6195 64.6699 42.0695 64.7715C44.7007 64.8821 47.332 65.0943 49.9633 65.165C51.5023 65.2048 53.0589 64.8997 54.589 65.0058C57.1849 65.1871 58.6354 66.1774 59.1971 68.4365C59.6083 70.0899 59.3695 71.8981 58.5691 73.5648C56.809 77.2298 54.8411 80.8196 53.8328 84.794C53.3862 86.5447 53.0677 88.3396 52.8112 90.1301C52.6299 91.3768 52.5194 92.6633 52.6078 93.9144C52.798 96.5626 53.1473 99.2019 53.4171 101.846C53.5719 103.393 53.7532 104.94 53.8284 106.492C54.0009 109.993 54.2971 113.504 54.2043 117.001C54.1291 119.83 53.5277 122.646 53.2181 125.471C52.7007 130.224 50.8389 134.596 49.4238 139.092C48.5791 141.771 47.4735 144.371 46.6864 147.068C45.7444 150.29 44.9882 153.566 44.2099 156.833C43.4094 160.193 43.2414 163.628 43.3785 167.064C43.5023 170.087 43.772 173.107 43.9932 176.126C44.1126 177.745 44.2806 179.363 44.4044 180.981C44.6256 183.828 44.8024 186.675 45.0457 189.518C45.2137 191.494 45.4083 193.47 45.6781 195.437C46.0495 198.169 46.6112 200.875 46.8942 203.616C47.1728 206.304 47.332 209.014 47.3011 211.715C47.2789 213.634 45.5321 214.991 43.5907 214.991C42.5073 214.991 41.4238 215.022 40.3448 214.987C36.5593 214.863 32.7782 214.695 28.9927 214.58C27.3741 214.531 25.7556 214.553 24.137 214.58C23.3498 214.593 22.9518 214.266 23.0447 213.479C23.2348 211.852 23.4692 210.23 23.6594 208.603C23.8186 207.232 23.9247 205.853 24.0928 204.487C24.3537 202.329 24.6721 200.181 24.9197 198.023C25.163 195.915 25.3487 193.797 25.5565 191.684C25.8352 188.832 26.1049 185.981 26.3968 183.129C26.5869 181.295 26.7948 179.46 27.0248 177.63C27.2813 175.614 27.6085 173.607 27.8473 171.586C28.0375 169.972 28.0905 168.346 28.2895 166.736C28.5283 164.756 28.8379 162.78 29.1475 160.808C29.3155 159.734 29.5366 158.668 29.7445 157.598C30.2044 155.277 30.5449 152.921 31.1685 150.644C32.1281 147.147 33.2779 143.703 34.357 140.237C34.4321 139.994 34.525 139.627 34.7019 139.561C36.3603 138.955 36.1082 137.297 36.6433 136.086C37.059 135.144 37.3553 134.145 37.7046 133.071H37.7002Z" fill="white"/>
<path id="Vector_3" d="M108.002 160.719C108.21 162.028 108.453 163.226 108.621 164.437C108.926 166.621 109.2 168.81 109.461 170.998C109.567 171.873 109.62 172.753 109.673 173.633C109.819 176.016 109.93 178.403 110.102 180.786C110.279 183.248 110.602 185.702 110.699 188.169C110.806 190.897 110.744 193.633 110.713 196.365C110.704 197.382 110.553 198.399 110.518 199.42C110.43 201.905 110.522 204.403 110.262 206.865C109.979 209.549 110.16 212.298 109.275 214.92C109.068 215.543 109.209 216.282 109.01 216.91C108.891 217.285 108.426 217.555 108.117 217.869C108.099 217.887 108.05 217.869 108.015 217.869C99.7365 217.94 91.4623 218.055 83.1838 218.055C79.9599 218.055 76.736 217.807 73.5166 217.652C72.7073 217.612 71.8803 217.599 71.0932 217.431C69.5365 217.095 69.2225 218.404 68.652 219.257C67.6614 220.742 66.7239 222.285 65.9412 223.89C65.5078 224.779 65.5166 225.871 65.1982 226.826C64.5128 228.89 62.9959 229.801 61.0324 229.991C59.4183 230.146 57.7334 228.727 57.1142 226.874C57.0214 226.596 56.955 226.308 56.9064 226.021C56.8666 225.774 56.8754 225.522 56.8622 225.27C56.5747 225.371 56.2386 225.411 56.0087 225.588C55.0844 226.304 54.0982 226.764 52.8909 226.671C49.7953 226.432 48.0043 223.121 49.3619 220.689C49.4194 220.592 49.415 220.34 49.3973 220.34C49.1895 220.292 48.9728 220.252 48.7605 220.256C47.7566 220.292 46.7395 220.446 45.7445 220.362C44.1922 220.225 43.1972 217.665 43.9269 216.366C44.2763 215.738 44.2144 215.561 43.4714 215.557C42.556 215.557 41.645 215.402 40.7296 215.371C38.2133 215.283 35.6926 215.225 33.1718 215.154C30.7926 215.088 28.4134 214.986 26.0342 214.96C24.9463 214.947 23.8585 215.07 22.7706 215.159C21.9126 215.23 21.7004 214.646 21.7357 214.018C21.7932 213.023 22.0365 212.042 22.1249 211.052C22.293 209.16 22.3814 207.259 22.5583 205.366C22.8059 202.758 23.1199 200.154 23.3853 197.55C23.5445 196.007 23.6462 194.455 23.8142 192.908C24.0751 190.477 24.3803 188.045 24.6412 185.614C24.8048 184.071 24.8844 182.514 25.0746 180.976C25.2869 179.3 25.6008 177.634 25.8397 175.958C26.0254 174.667 26.1359 173.363 26.3261 172.072C26.5826 170.335 26.9054 168.606 27.1487 166.869C27.3919 165.145 27.5334 163.407 27.7943 161.687C28.095 159.729 28.4753 157.788 28.8336 155.838C29.1741 153.991 29.4261 152.125 29.9082 150.312C30.4123 148.411 31.1332 146.568 31.7655 144.702C32.5527 142.377 33.331 140.047 34.1403 137.73C35.7324 133.19 37.5146 128.712 38.8987 124.114C40.2475 119.64 42.4985 115.55 43.9932 111.147C45.143 107.769 46.3459 104.418 47.08 100.908C47.6151 98.3484 48.0618 95.7754 47.8318 93.1936C47.6328 90.9831 47.164 88.7594 46.483 86.6462C45.8683 84.7452 44.2586 83.494 42.5737 82.4684C39.6019 80.6646 36.3647 79.5859 32.9728 78.8388C30.8944 78.3834 28.8601 77.6716 26.8435 76.9731C24.3759 76.1199 21.8375 75.3683 19.5202 74.1968C16.3759 72.6008 13.4351 70.6335 10.7551 68.2771C7.87622 65.7483 5.55009 62.8305 3.83865 59.4219C2.70212 57.154 1.98128 54.7225 1.85746 52.1981C1.75132 50.0937 1.79112 47.954 2.07857 45.8717C2.34391 43.953 3.44065 42.3659 5.1565 41.3181C7.07579 40.1466 9.08352 39.1033 10.9144 37.8079C12.1968 36.9016 13.2847 35.7035 14.3903 34.5674C15.3101 33.6213 16.115 32.5602 16.9995 31.5744C17.9414 30.5266 19.047 29.5938 19.843 28.4443C20.4489 27.569 20.7938 26.4593 21.068 25.4072C21.9126 22.1533 23.5312 19.3151 25.5964 16.7111C26.5472 15.5131 27.6882 14.4565 28.5859 13.223C29.0016 12.6571 29.1564 11.8304 29.2316 11.101C29.4129 9.35467 29.435 7.60398 30.4963 6.06549C31.3631 4.80994 32.4864 4.09374 34.0032 4.15121C34.786 4.18216 35.0513 3.88154 35.3565 3.16976C36.2851 1.01676 38.0275 -0.389102 41.1055 0.0883605C45.3244 0.747082 48.5261 3.09461 51.7323 5.56592C54.1822 7.45367 56.159 9.78351 58.0252 12.2283C58.2552 12.5289 58.8434 12.6704 59.2723 12.6925C60.5946 12.75 61.9434 12.5643 63.2436 12.7544C64.7339 12.9666 65.8129 12.3786 67.0644 11.7199C71.071 9.62435 75.1882 7.71892 79.615 6.65789C82.799 5.89307 86.0008 5.17688 89.2158 4.57121C92.3114 3.99206 95.4159 4.23963 98.4009 5.2034C101.165 6.09201 102.837 9.12479 101.479 12.0603C101.178 12.7146 101.138 13.2009 101.926 13.4706C104.968 14.5183 104.968 17.4229 103.469 19.8412C103.451 19.8721 103.42 19.8898 103.394 19.9163C101.855 21.3531 102.142 23.0685 102.598 24.8368C102.788 25.5707 102.951 26.3488 102.929 27.1004C102.867 29.3241 103.69 31.4639 103.239 33.7627C102.951 35.2217 103.434 36.8397 103.602 38.3782C103.699 39.2668 103.955 40.151 103.982 41.0396C104.088 44.7753 104.238 48.5199 104.176 52.2556C104.123 55.2751 103.827 58.2946 103.571 61.3097C103.345 63.9534 103.022 66.5927 102.744 69.232C102.461 71.9067 102.186 74.5814 101.908 77.2561C101.7 79.2632 101.479 81.2703 101.28 83.2774C101.059 85.4923 100.82 87.7072 100.656 89.9265C100.413 93.2909 100.165 96.6596 100.037 100.028C99.8913 103.835 99.8338 107.646 99.8249 111.452C99.8161 114.286 99.9178 117.115 100.028 119.949C100.117 122.16 100.196 124.383 100.471 126.576C100.656 128.053 101.125 129.498 101.541 130.94C102.686 134.927 103.991 138.875 104.999 142.898C105.645 145.458 105.853 148.128 106.304 150.741C106.684 152.947 107.153 155.136 107.542 157.342C107.732 158.425 107.829 159.53 107.971 160.728M19.7413 30.7211C19.0779 31.4992 18.4234 32.2861 17.7512 33.0554C16.5174 34.4657 15.3499 35.9511 14.0055 37.2509C12.0509 39.1386 9.78224 40.5975 7.28806 41.7293C5.22284 42.6621 3.7679 44.2625 3.36104 46.5172C3.07802 48.0645 2.98957 49.7003 3.14435 51.2609C3.3124 53.0071 3.70599 54.7667 4.25877 56.4378C5.47933 60.1514 7.68164 63.308 10.481 65.9826C12.1128 67.5432 14.0277 68.8076 15.8585 70.156C21.0061 73.9536 27.0027 75.8281 33.0746 77.3401C36.8291 78.2773 40.4731 79.3428 43.7544 81.3985C45.9081 82.7469 47.5488 84.6523 48.3006 87.0838C49.3089 90.3421 49.5653 93.6843 49.2248 97.1282C48.902 100.404 48.1723 103.574 47.1729 106.66C45.8771 110.643 44.2453 114.516 42.7815 118.442C40.9242 123.428 39.0447 128.411 37.2536 133.42C35.8739 137.284 34.556 141.17 33.3222 145.082C32.3095 148.301 31.3543 151.546 30.5759 154.826C30.0364 157.112 29.864 159.486 29.4881 161.816C29.0237 164.689 28.493 167.55 28.0375 170.423C27.7191 172.43 27.4361 174.442 27.2017 176.462C26.8258 179.663 26.4897 182.868 26.1492 186.078C26.0519 186.988 26.0342 187.908 25.9325 188.814C25.6672 191.18 25.3576 193.536 25.1055 195.901C24.9287 197.55 24.8358 199.204 24.6766 200.857C24.4112 203.567 24.1326 206.282 23.8363 208.987C23.7346 209.911 23.5931 210.831 23.4162 211.741C23.173 212.979 23.5489 213.497 24.8314 213.461C25.7114 213.439 26.5914 213.267 27.4671 213.275C28.9397 213.293 30.4123 213.413 31.8805 213.47C35.8341 213.616 39.792 213.771 43.7456 213.881C45.6118 213.934 47.5178 212.029 47.4913 210.168C47.4736 208.872 47.4161 207.568 47.279 206.277C47.0446 204.049 46.7704 201.825 46.4432 199.61C46.0673 197.09 45.5543 194.593 45.2138 192.068C44.9175 189.862 44.7185 187.643 44.5814 185.423C44.3868 182.347 44.1613 179.261 44.1746 176.179C44.2011 170.061 43.834 163.929 44.5637 157.828C44.7848 155.998 44.8379 154.132 45.2226 152.337C46.2265 147.638 47.509 143.009 49.1054 138.46C51.0247 132.987 52.9838 127.491 53.5366 121.673C53.9257 117.588 53.9877 113.477 54.1999 109.379C54.2663 108.083 54.2928 106.779 54.4432 105.493C54.4785 105.174 54.9429 104.909 55.2082 104.622C55.3586 104.949 55.646 105.28 55.6416 105.603C55.6106 108.26 55.5355 110.917 55.447 113.574C55.4072 114.768 55.2569 115.957 55.2524 117.151C55.2392 120.626 54.8191 124.052 53.9655 127.407C53.2226 130.33 52.3647 133.225 51.4669 136.103C50.9318 137.823 50.0606 139.45 49.6184 141.192C48.4509 145.785 46.797 150.272 46.4344 155.06C46.2309 157.739 45.6914 160.41 45.6516 163.089C45.5764 168.186 45.7401 173.288 45.8241 178.385C45.8506 179.822 45.9214 181.259 46.0319 182.696C46.2884 186.003 46.5493 189.305 46.8766 192.608C47.0889 194.765 47.2569 196.949 47.7389 199.058C48.6278 202.966 48.986 206.909 48.9374 210.897C48.933 211.348 48.703 211.892 48.3934 212.223C47.6461 213.023 46.7793 213.709 45.9877 214.469C45.143 215.283 44.9529 216.892 45.3774 218.037C45.687 218.872 46.2088 219.284 47.0225 219.111C47.8672 218.93 48.672 218.559 49.499 218.284C50.1447 218.068 50.7859 217.758 51.4448 217.701C52.201 217.639 52.4708 218.267 52.033 218.881C51.6483 219.421 51.2193 219.933 50.8567 220.49C50.1712 221.538 50.2375 222.794 50.7903 223.705C51.75 225.292 53.6604 225.831 55.2613 224.217C55.7256 223.749 56.0661 223.161 56.4553 222.626C56.8179 222.131 57.3398 221.843 57.8704 222.122C58.4277 222.414 58.8036 222.953 58.5471 223.674C58.1446 224.819 58.3569 225.919 58.8036 226.985C59.091 227.67 60.5504 228.603 61.1651 228.559C62.1734 228.488 63.1905 227.573 63.6327 226.64C64.2872 225.256 63.96 223.722 65.0257 222.285C67.971 218.324 70.1335 213.863 72.0528 209.314C73.5918 205.663 75.0954 201.984 76.4044 198.244C77.6559 194.672 78.7261 191.025 79.7078 187.369C80.4773 184.491 81.0611 181.56 81.6006 178.628C82.0516 176.175 82.317 173.686 82.6708 171.215C83.0157 168.81 83.4049 166.413 83.7056 164.004C83.9665 161.9 84.1788 159.786 84.3336 157.669C84.5193 155.149 84.6962 152.624 84.7448 150.096C84.8156 146.714 84.7802 143.327 84.7537 139.945C84.7404 138.508 84.6785 137.067 84.5414 135.635C84.3026 133.128 84.0196 130.63 83.7056 128.132C83.4977 126.488 83.2014 124.856 82.945 123.216C82.715 121.775 82.4497 120.343 82.2816 118.897C82.2506 118.627 82.6265 118.313 82.8123 118.022C83.113 118.278 83.6127 118.486 83.6835 118.791C84.0373 120.334 84.3114 121.894 84.5458 123.464C84.9261 126.001 85.3286 128.539 85.5807 131.09C85.8769 134.101 86.1644 137.125 86.1954 140.144C86.2484 144.928 86.0892 149.715 86.0185 154.499C86.0185 154.605 86.0273 154.711 86.0185 154.813C85.7399 157.664 85.4612 160.511 85.1826 163.363C85.0411 164.84 84.9615 166.325 84.7493 167.793C84.3026 170.874 83.8073 173.951 83.2899 177.024C82.8344 179.725 82.4497 182.444 81.7996 185.096C80.8797 188.845 79.8759 192.585 78.6553 196.246C77.2711 200.406 75.6702 204.495 74.0384 208.567C73.1407 210.809 71.9953 212.957 70.934 215.132C70.6819 215.65 70.6509 215.95 71.3408 215.99C73.552 216.123 75.7631 216.282 77.9743 216.401C79.7918 216.498 81.6138 216.613 83.4358 216.604C91.2589 216.56 99.082 216.485 106.905 216.392C107.529 216.383 107.989 216.171 108.037 215.318C108.152 213.408 108.466 211.516 108.625 209.611C108.811 207.369 108.944 205.123 109.045 202.877C109.152 200.499 109.258 198.12 109.249 195.742C109.236 192.002 109.134 188.262 109.05 184.526C109.019 183.297 108.948 182.068 108.842 180.843C108.581 177.886 108.285 174.933 108.011 171.979C107.865 170.397 107.807 168.805 107.573 167.236C107.144 164.322 106.609 161.427 106.122 158.526C105.49 154.742 104.981 150.927 104.203 147.173C103.429 143.442 102.536 139.724 101.417 136.081C100.108 131.806 99.1439 127.491 98.7989 123.044C98.6751 121.439 98.5955 119.821 98.5911 118.212C98.569 111.302 98.5646 104.396 98.5911 97.4863C98.5999 95.4792 98.6353 93.4633 98.8122 91.4694C99.0864 88.3969 99.4977 85.3376 99.8338 82.2694C99.9266 81.4294 99.9532 80.5806 100.05 79.7406C100.316 77.4462 100.625 75.1605 100.877 72.8661C101.054 71.2524 101.138 69.6299 101.306 68.0163C101.638 64.8465 102.023 61.6766 102.337 58.5068C102.527 56.5793 102.713 54.6473 102.748 52.7154C102.814 49.1565 102.77 45.5976 102.757 42.0388C102.757 41.8973 102.593 41.7514 102.505 41.6099C102.381 41.716 102.178 41.8089 102.151 41.9371C102.045 42.4588 102.085 43.0246 101.912 43.5154C101.023 46.0751 100.188 48.6614 99.135 51.1548C98.4186 52.848 97.4015 54.4174 96.4595 56.009C96.2826 56.3052 95.7431 56.6633 95.5087 56.5837C95.0532 56.429 94.8012 55.9736 95.2169 55.4475C95.3318 55.3016 95.3318 55.0717 95.4291 54.9126C97.0123 52.3396 98.339 49.6428 99.3385 46.7957C100.895 42.3748 102.018 37.8742 101.718 33.1261C101.612 31.4815 101.66 29.8237 101.479 28.1923C101.275 26.3179 100.864 24.4655 100.617 22.5954C100.55 22.0914 100.621 21.4858 100.855 21.0481C101.275 20.2656 101.983 19.6334 102.359 18.8376C103.181 17.0913 103.544 15.7032 101.355 14.7615C99.1395 13.811 99.1306 13.7756 100.157 11.459C101.037 9.46962 99.9841 7.1663 97.9587 6.65789C97.5076 6.54737 97.0167 6.58274 96.5878 6.428C93.9477 5.49518 91.2279 5.6676 88.5613 6.06549C86.213 6.41474 83.9311 7.17957 81.605 7.68798C77.4657 8.58985 73.605 10.2787 69.762 11.9586C66.6664 13.3114 63.9909 15.3672 61.5808 17.7545C61.3773 17.9578 60.9705 17.9534 60.6565 18.0463C60.6255 17.6705 60.4221 17.1355 60.599 16.941C61.2314 16.2293 61.9876 15.628 62.704 14.9914C62.9119 14.8057 63.1418 14.6421 63.363 14.4697C63.0534 14.3769 62.7394 14.1956 62.4343 14.2045C60.1922 14.2487 57.9501 14.284 55.7168 14.4122C52.9042 14.5714 50.0872 14.7527 47.2879 15.0489C45.0148 15.292 42.7417 15.6413 40.4996 16.0966C37.6251 16.6802 34.9452 17.7899 32.4024 19.293C29.2802 21.1454 26.7904 23.7316 24.1548 26.141C22.6291 27.538 21.2758 29.1252 19.7369 30.73M23.6152 24.7528C23.9602 24.3373 24.2565 23.8642 24.6589 23.5194C26.2465 22.1622 27.9049 20.8845 29.4704 19.5052C31.2481 17.9446 33.3266 16.9233 35.4847 16.0878C38.3283 14.9914 41.2647 14.2045 44.3338 13.948C46.284 13.7845 48.2121 13.3335 50.1624 13.1567C52.0772 12.9843 54.0053 12.9975 55.9291 12.918C56.1148 12.9091 56.3005 12.8384 56.4863 12.7942C56.4067 12.582 56.3713 12.3344 56.2386 12.1664C55.7654 11.5873 55.279 11.017 54.766 10.4732C52.3956 7.99302 49.8882 5.67202 46.9297 3.8948C44.7097 2.56409 42.4145 1.60033 39.7169 1.55612C38.0673 1.52959 36.7097 2.99735 36.5991 4.45626C36.5372 5.24761 36.2365 5.72949 35.3388 5.60571C35.0292 5.5615 34.7108 5.61455 34.3968 5.59687C33.1851 5.52613 32.2785 5.96823 31.6683 7.0602C30.9828 8.28038 30.8103 9.58899 30.7042 10.9595C30.6246 11.9896 30.8369 13.17 29.9701 13.9878C26.8656 16.9366 24.6102 20.4645 22.8281 24.3152C22.6644 24.6733 22.7838 25.1596 22.7706 25.584C23.0182 25.3408 23.2614 25.0977 23.6152 24.7528Z" fill="#8A593B"/>
<path id="Vector_4" d="M72.7736 45.4251C75.3342 47.4631 74.2861 50.4915 72.2518 51.8266C71.4602 52.3439 71.4337 52.8213 71.8184 53.4491C72.5348 54.6295 72.7161 55.7966 72.2253 57.1406C71.8007 58.3077 70.9516 58.8294 69.8859 59.1919C69.5984 59.2892 69.3331 59.4572 69.0589 59.5898C69.2048 59.8418 69.3065 60.1336 69.4967 60.3458C70.6332 61.619 71.2391 63.5421 70.5625 65.032C69.6824 66.9728 67.5155 67.8702 66.0296 67.7465C65.4724 67.6978 64.8975 67.4414 64.4022 67.1585C64.159 67.0214 64.0749 66.6014 63.9202 66.3097C64.3005 66.1991 64.6808 66.0134 65.0655 65.9958C65.8881 65.9648 66.777 66.2257 67.5288 65.9958C69.5719 65.3768 69.709 63.047 68.7095 61.6853C68.3204 61.1592 67.8295 60.6818 67.3077 60.2839C66.264 59.4793 66.2817 59.1123 67.5199 58.5288C68.1302 58.2414 68.7405 57.9054 69.3861 57.7418C70.4121 57.4854 71.0091 56.7294 71.0887 55.8629C71.1683 54.9876 70.8234 54.0725 69.8903 53.5198C68.6697 52.7992 68.7803 52.1759 70.0097 51.3978C70.8809 50.8452 71.7875 50.2174 72.3889 49.4084C73.521 47.8875 72.2872 46.4154 70.8322 45.9644C70.3856 45.8274 69.7001 45.2085 69.7576 44.9432C69.908 44.2226 70.5492 44.1651 71.1904 44.532C71.6946 44.8238 72.212 45.0935 72.7781 45.4251H72.7736Z" fill="#8A593B"/>
<path id="Vector_5" d="M90.4318 46.6369C90.14 47.3663 89.6712 47.5829 88.9548 47.5476C87.3539 47.4724 86.266 46.659 85.4169 45.368C83.3119 42.1628 81.1184 39.0107 79.0621 35.7746C76.9703 32.4765 75.0068 29.0989 72.9681 25.7655C72.7072 25.3367 72.4198 24.7178 72.0306 24.6117C70.5801 24.2226 71.0886 23.2544 71.3717 22.4896C72.5966 19.1827 75.7453 18.2897 78.7039 19.6027C81.6491 20.9113 83.0245 23.533 84.3423 26.1634C86.0007 29.4747 87.376 32.9054 88.4418 36.4775C89.4324 39.7976 90.3301 43.1089 90.4318 46.6369Z" fill="#D29F82"/>
<path id="Vector_6" d="M86.8012 48.5688C85.616 46.8933 84.4972 45.2619 83.3474 43.6571C81.0168 40.4033 78.62 37.1937 76.3469 33.9045C74.5426 31.2917 72.8754 28.5861 71.1507 25.9203C70.9738 25.6462 70.8278 25.35 70.6377 25.0891C70.3237 24.6647 70.191 24.2624 70.7261 23.9308C71.3099 23.5727 71.6946 23.922 71.9821 24.3818C72.557 25.2881 73.0744 26.2342 73.667 27.1316C75.4668 29.8417 77.2667 32.5473 79.1152 35.222C80.7515 37.5872 82.4718 39.8905 84.1257 42.2468C85.2402 43.834 86.3104 45.4476 87.3761 47.0701C87.5486 47.3309 87.6282 47.6669 87.6857 47.9852C87.8095 48.6882 87.553 48.9579 86.8056 48.5732L86.8012 48.5688Z" fill="#8A593B"/>
<path id="Vector_7" d="M26.5693 60.1867C27.6306 60.7615 27.6881 61.04 26.7904 61.4379C23.938 62.7022 21.0281 63.2504 17.8573 62.5961C13.0547 61.6059 9.13654 59.0373 5.32893 56.1725C4.79825 55.7746 4.03319 55.695 3.4804 55.3193C1.66283 54.0814 0.87124 52.1362 0.23885 50.1644C-0.0486005 49.2802 0.00888949 48.2678 4.48703e-05 47.3129C-0.00879975 45.9822 1.29136 45.1334 2.61805 45.3942C4.16144 45.6949 5.74905 45.7833 7.29686 46.0751C9.09674 46.4155 10.9541 46.5083 12.4754 47.839C13.5456 48.7763 13.4218 50.5933 12.6302 51.6897C11.4715 53.2989 9.87949 54.2803 8.15921 55.1336C7.87176 55.2751 7.62853 55.5094 7.36761 55.6995C7.62411 55.9294 7.85849 56.2035 8.14594 56.3847C9.50801 57.2424 10.9099 58.0426 12.2498 58.9312C13.9834 60.0806 15.9602 60.5448 17.9237 61.009C20.6611 61.6501 23.3454 61.208 25.9634 60.2663C26.1182 60.2088 26.2951 60.2133 26.5649 60.1867H26.5693Z" fill="#65381A"/>
<path id="Vector_8" d="M30.6732 38.4401C30.912 38.3826 31.0977 38.4003 31.2791 38.3826C33.2647 38.2058 33.8352 38.6346 34.3614 41.1987C34.7373 43.0158 34.2155 44.6294 33.017 46.0751C32.2652 46.9769 31.2614 47.3129 30.3283 46.9504C29.2625 46.5304 28.5063 45.5666 28.409 44.3022C28.2321 42.0255 28.8866 40.0537 30.6732 38.4445V38.4401Z" fill="black"/>
</g>
<defs>
<clipPath id="clip0_137_768">
<rect width="111" height="230" fill="white"/>
</clipPath>
</defs>
</svg>
