<svg width="363" height="141" viewBox="0 0 363 141" fill="none" xmlns="http://www.w3.org/2000/svg">
<g filter="url(#filter0_ddd_1648_4370)">
<path d="M10 27.6C10 18.6392 10 14.1587 11.7439 10.7362C13.2779 7.72556 15.7256 5.27787 18.7362 3.7439C22.1587 2 26.6392 2 35.6 2H327.4C336.361 2 340.841 2 344.264 3.7439C347.274 5.27787 349.722 7.72556 351.256 10.7362C353 14.1587 353 18.6392 353 27.6V89.4C353 98.3608 353 102.841 351.256 106.264C349.722 109.274 347.274 111.722 344.264 113.256C340.841 115 336.361 115 327.4 115H35.6C26.6392 115 22.1587 115 18.7362 113.256C15.7256 111.722 13.2779 109.274 11.7439 106.264C10 102.841 10 98.3608 10 89.4V27.6Z" fill="#FFF6DE"/>
<path fill-rule="evenodd" clip-rule="evenodd" d="M32.1773 24C31.1989 24 30.3104 24.5708 29.9037 25.4606L27.0786 31.6404C26.574 32.7442 27.3807 34 28.5944 34H39.8225C40.8009 34 41.6894 33.4292 42.0962 32.5394L44.9213 26.3596C45.4259 25.2558 44.6192 24 43.4055 24H32.1773ZM40.0306 26.5678C40.3383 26.7359 40.5773 26.972 40.7389 27.2749C40.899 27.5706 40.9751 27.9006 40.9751 28.2566C40.9751 28.6156 40.8991 28.9478 40.7383 29.2442C40.5747 29.5457 40.3332 29.7809 40.0244 29.9487L40.023 29.9494C39.7068 30.1192 39.3343 30.1951 38.9207 30.1951H38.326V31.5C38.326 31.6841 38.1767 31.8333 37.9926 31.8333H37.1143C36.9302 31.8333 36.781 31.6841 36.781 31.5V26.6515C36.781 26.4674 36.9302 26.3182 37.1143 26.3182H38.9325C39.3452 26.3182 39.7166 26.395 40.0306 26.5678ZM38.326 28.8063V27.7187H38.7976C38.9825 27.7187 39.1026 27.7505 39.1779 27.7907L39.1819 27.7928C39.2652 27.8359 39.3155 27.889 39.3477 27.9526L39.3491 27.9554C39.3887 28.0317 39.4136 28.1291 39.4136 28.2566C39.4136 28.3841 39.3887 28.4829 39.3484 28.5616L39.347 28.5645C39.3132 28.632 39.2611 28.6879 39.1777 28.7334C39.1028 28.7743 38.9843 28.8063 38.8023 28.8063H38.326ZM32.0392 26.3182C31.9181 26.3182 31.8065 26.3839 31.7477 26.4898C31.689 26.5957 31.6923 26.7252 31.7564 26.828L33.1584 29.0747L31.7385 31.3219C31.6736 31.4246 31.6697 31.5545 31.7283 31.6609C31.7869 31.7673 31.8988 31.8333 32.0203 31.8333H33.0335C33.1496 31.8333 33.2572 31.773 33.3178 31.674L34.132 30.3438L34.9462 31.674C35.0068 31.773 35.1145 31.8333 35.2305 31.8333H36.2485C36.3697 31.8333 36.4814 31.7675 36.5401 31.6615C36.5988 31.5554 36.5953 31.4259 36.531 31.3231L35.1234 29.0744L36.5086 26.8264C36.572 26.7235 36.5747 26.5945 36.5158 26.489C36.4569 26.3835 36.3456 26.3182 36.2248 26.3182H35.2234C35.1066 26.3182 34.9984 26.3792 34.9381 26.4792L34.1326 27.8127L33.331 26.4797C33.2707 26.3795 33.1623 26.3182 33.0454 26.3182H32.0392Z" fill="#60C871"/>
<path fill-rule="evenodd" clip-rule="evenodd" d="M29.146 25.1145C29.6884 23.928 30.8731 23.167 32.1776 23.167H43.4057C45.2263 23.167 46.4363 25.0507 45.6794 26.7064L42.8544 32.8862C42.312 34.0727 41.1273 34.8337 39.8228 34.8337H28.5947C26.7741 34.8337 25.5641 32.95 26.321 31.2943L29.146 25.1145ZM32.1776 24.8337C31.5253 24.8337 30.933 25.2142 30.6618 25.8074L27.8368 31.9872C27.5845 32.5391 27.9878 33.167 28.5947 33.167H39.8228C40.4751 33.167 41.0674 32.7865 41.3386 32.1933L44.1636 26.0135C44.4159 25.4616 44.0126 24.8337 43.4057 24.8337H32.1776Z" fill="#1F6F31"/>
<path d="M55.5147 34.1197C55.2647 34.1197 55.0597 34.0547 54.8997 33.9247C54.7397 33.7847 54.6447 33.6147 54.6147 33.4147C54.5947 33.2047 54.6647 32.9947 54.8247 32.7847L58.2597 28.2097V29.0347L54.9897 24.6547C54.8297 24.4347 54.7597 24.2247 54.7797 24.0247C54.7997 23.8147 54.8897 23.6447 55.0497 23.5147C55.2097 23.3747 55.4097 23.3047 55.6497 23.3047C55.8497 23.3047 56.0247 23.3547 56.1747 23.4547C56.3347 23.5447 56.4947 23.6997 56.6547 23.9197L59.3547 27.6397H58.7397L61.4247 23.9197C61.5847 23.6997 61.7397 23.5447 61.8897 23.4547C62.0497 23.3547 62.2347 23.3047 62.4447 23.3047C62.6947 23.3047 62.8997 23.3697 63.0597 23.4997C63.2197 23.6297 63.3097 23.7997 63.3297 24.0097C63.3497 24.2097 63.2747 24.4247 63.1047 24.6547L59.8347 29.0347V28.2097L63.2547 32.7847C63.4147 32.9947 63.4847 33.2047 63.4647 33.4147C63.4447 33.6147 63.3547 33.7847 63.1947 33.9247C63.0347 34.0547 62.8247 34.1197 62.5647 34.1197C62.3747 34.1197 62.1997 34.0697 62.0397 33.9697C61.8897 33.8697 61.7297 33.7097 61.5597 33.4897L58.7097 29.5897H59.3697L56.5347 33.4897C56.3747 33.7097 56.2147 33.8697 56.0547 33.9697C55.8947 34.0697 55.7147 34.1197 55.5147 34.1197ZM66.1928 34.1197C65.8828 34.1197 65.6428 34.0347 65.4728 33.8647C65.3128 33.6847 65.2328 33.4397 65.2328 33.1297V24.3997C65.2328 24.0797 65.3178 23.8397 65.4878 23.6797C65.6578 23.5097 65.8978 23.4247 66.2078 23.4247H69.8228C70.9828 23.4247 71.8778 23.7147 72.5078 24.2947C73.1378 24.8747 73.4528 25.6847 73.4528 26.7247C73.4528 27.7647 73.1378 28.5797 72.5078 29.1697C71.8778 29.7497 70.9828 30.0397 69.8228 30.0397H67.1528V33.1297C67.1528 33.4397 67.0728 33.6847 66.9128 33.8647C66.7528 34.0347 66.5128 34.1197 66.1928 34.1197ZM67.1528 28.5247H69.5228C70.2028 28.5247 70.7178 28.3747 71.0678 28.0747C71.4178 27.7647 71.5928 27.3147 71.5928 26.7247C71.5928 26.1347 71.4178 25.6897 71.0678 25.3897C70.7178 25.0897 70.2028 24.9397 69.5228 24.9397H67.1528V28.5247Z" fill="#201F1D"/>
<path d="M294.652 34.9997C294.357 34.9997 294.125 34.9204 293.955 34.7617C293.796 34.5917 293.717 34.365 293.717 34.0817C293.717 33.787 293.796 33.566 293.955 33.4187C294.125 33.2714 294.357 33.1977 294.652 33.1977H296.556V24.8507H297.61L295.111 26.3637C294.896 26.4884 294.692 26.5394 294.499 26.5167C294.318 26.4827 294.159 26.4034 294.023 26.2787C293.898 26.1427 293.813 25.984 293.768 25.8027C293.723 25.6214 293.734 25.44 293.802 25.2587C293.881 25.066 294.029 24.9074 294.244 24.7827L296.59 23.3717C296.817 23.2357 297.043 23.1224 297.27 23.0317C297.497 22.9297 297.706 22.8787 297.899 22.8787C298.137 22.8787 298.335 22.9467 298.494 23.0827C298.653 23.2074 298.732 23.417 298.732 23.7117V33.1977H300.466C300.761 33.1977 300.987 33.2714 301.146 33.4187C301.316 33.566 301.401 33.787 301.401 34.0817C301.401 34.3764 301.316 34.603 301.146 34.7617C300.987 34.9204 300.761 34.9997 300.466 34.9997H294.652ZM304.59 36.8187C304.443 37 304.284 37.102 304.114 37.1247C303.956 37.1587 303.814 37.1304 303.689 37.0397C303.565 36.949 303.497 36.8187 303.485 36.6487C303.474 36.49 303.548 36.3144 303.706 36.1217C303.933 35.8384 304.086 35.555 304.165 35.2717C304.245 34.9884 304.284 34.7334 304.284 34.5067L304.369 35.0847C303.973 35.0847 303.65 34.9714 303.4 34.7447C303.162 34.5067 303.043 34.195 303.043 33.8097C303.043 33.447 303.157 33.1524 303.383 32.9257C303.61 32.6877 303.916 32.5687 304.301 32.5687C304.698 32.5687 305.01 32.7047 305.236 32.9767C305.463 33.2374 305.576 33.617 305.576 34.1157C305.576 34.3877 305.548 34.671 305.491 34.9657C305.446 35.249 305.35 35.5437 305.202 35.8497C305.066 36.167 304.862 36.49 304.59 36.8187ZM311.952 35.1697C310.966 35.1697 310.122 34.9374 309.419 34.4727C308.728 33.9967 308.201 33.3167 307.838 32.4327C307.475 31.5487 307.294 30.4777 307.294 29.2197C307.294 28.1997 307.407 27.2987 307.634 26.5167C307.872 25.7234 308.212 25.0547 308.654 24.5107C309.096 23.9667 309.634 23.553 310.269 23.2697C310.915 22.9864 311.64 22.8447 312.445 22.8447C312.944 22.8447 313.448 22.924 313.958 23.0827C314.479 23.23 314.967 23.4567 315.42 23.7627C315.601 23.876 315.72 24.0234 315.777 24.2047C315.834 24.386 315.839 24.5674 315.794 24.7487C315.76 24.9187 315.681 25.0717 315.556 25.2077C315.443 25.3324 315.295 25.4117 315.114 25.4457C314.933 25.4684 314.734 25.4174 314.519 25.2927C314.134 25.066 313.771 24.9074 313.431 24.8167C313.091 24.726 312.751 24.6807 312.411 24.6807C311.754 24.6807 311.198 24.8337 310.745 25.1397C310.292 25.4457 309.946 25.9047 309.708 26.5167C309.481 27.1287 309.368 27.8937 309.368 28.8117V30.0867H309.164C309.255 29.5087 309.442 29.0157 309.725 28.6077C310.02 28.1884 310.394 27.871 310.847 27.6557C311.3 27.429 311.805 27.3157 312.36 27.3157C313.051 27.3157 313.663 27.48 314.196 27.8087C314.729 28.1374 315.148 28.5907 315.454 29.1687C315.76 29.7467 315.913 30.4097 315.913 31.1577C315.913 31.9284 315.743 32.6197 315.403 33.2317C315.074 33.8324 314.61 34.3084 314.009 34.6597C313.42 34.9997 312.734 35.1697 311.952 35.1697ZM311.833 33.4357C312.241 33.4357 312.598 33.345 312.904 33.1637C313.221 32.9824 313.465 32.7274 313.635 32.3987C313.805 32.0587 313.89 31.6734 313.89 31.2427C313.89 30.8007 313.805 30.4154 313.635 30.0867C313.465 29.758 313.221 29.503 312.904 29.3217C312.598 29.129 312.241 29.0327 311.833 29.0327C311.425 29.0327 311.068 29.129 310.762 29.3217C310.456 29.503 310.212 29.758 310.031 30.0867C309.861 30.4154 309.776 30.8007 309.776 31.2427C309.776 31.6734 309.861 32.0587 310.031 32.3987C310.212 32.7274 310.456 32.9824 310.762 33.1637C311.068 33.345 311.425 33.4357 311.833 33.4357ZM318.865 34.9997C318.502 34.9997 318.236 34.9204 318.066 34.7617C317.907 34.5917 317.828 34.348 317.828 34.0307C317.828 33.838 317.879 33.651 317.981 33.4697C318.083 33.2884 318.23 33.0957 318.423 32.8917L321.84 29.2537C322.361 28.7097 322.735 28.2167 322.962 27.7747C323.188 27.3214 323.302 26.868 323.302 26.4147C323.302 25.848 323.12 25.4174 322.758 25.1227C322.406 24.828 321.891 24.6807 321.211 24.6807C320.825 24.6807 320.44 24.7374 320.055 24.8507C319.669 24.9527 319.278 25.134 318.882 25.3947C318.678 25.5307 318.485 25.5874 318.304 25.5647C318.134 25.542 317.981 25.4684 317.845 25.3437C317.72 25.219 317.635 25.066 317.59 24.8847C317.544 24.7034 317.55 24.522 317.607 24.3407C317.675 24.148 317.811 23.9837 318.015 23.8477C318.502 23.519 319.046 23.2697 319.647 23.0997C320.259 22.9297 320.871 22.8447 321.483 22.8447C322.344 22.8447 323.069 22.975 323.659 23.2357C324.248 23.4964 324.696 23.876 325.002 24.3747C325.308 24.8734 325.461 25.4797 325.461 26.1937C325.461 26.6697 325.381 27.1344 325.223 27.5877C325.075 28.041 324.843 28.5 324.526 28.9647C324.22 29.4294 323.817 29.9224 323.319 30.4437L320.123 33.7757V33.1977H325.121C325.427 33.1977 325.659 33.2714 325.818 33.4187C325.976 33.566 326.056 33.787 326.056 34.0817C326.056 34.3764 325.976 34.603 325.818 34.7617C325.659 34.9204 325.427 34.9997 325.121 34.9997H318.865ZM331.999 35.1697C331.398 35.1697 330.786 35.0904 330.163 34.9317C329.54 34.773 328.967 34.5294 328.446 34.2007C328.231 34.0647 328.083 33.906 328.004 33.7247C327.936 33.532 327.919 33.345 327.953 33.1637C327.998 32.971 328.083 32.8124 328.208 32.6877C328.344 32.5517 328.503 32.4724 328.684 32.4497C328.877 32.427 329.086 32.478 329.313 32.6027C329.732 32.8407 330.157 33.022 330.588 33.1467C331.019 33.2714 331.478 33.3337 331.965 33.3337C332.441 33.3337 332.849 33.2487 333.189 33.0787C333.529 32.9087 333.79 32.6707 333.971 32.3647C334.152 32.0587 334.243 31.7017 334.243 31.2937C334.243 30.659 334.05 30.149 333.665 29.7637C333.28 29.367 332.753 29.1687 332.084 29.1687C331.721 29.1687 331.37 29.231 331.03 29.3557C330.69 29.469 330.356 29.673 330.027 29.9677C329.925 30.0584 329.795 30.149 329.636 30.2397C329.477 30.319 329.307 30.3587 329.126 30.3587C328.843 30.3587 328.627 30.285 328.48 30.1377C328.333 29.9904 328.259 29.7864 328.259 29.5257V23.9667C328.259 23.6607 328.338 23.4284 328.497 23.2697C328.667 23.0997 328.905 23.0147 329.211 23.0147H334.804C335.11 23.0147 335.342 23.094 335.501 23.2527C335.671 23.4 335.756 23.621 335.756 23.9157C335.756 24.199 335.671 24.42 335.501 24.5787C335.342 24.7374 335.11 24.8167 334.804 24.8167H330.384V28.6247H329.823C330.118 28.228 330.509 27.922 330.996 27.7067C331.483 27.4914 332.016 27.3837 332.594 27.3837C333.353 27.3837 334.011 27.548 334.566 27.8767C335.133 28.194 335.569 28.6417 335.875 29.2197C336.192 29.7864 336.351 30.4494 336.351 31.2087C336.351 31.9907 336.175 32.682 335.824 33.2827C335.473 33.872 334.968 34.3367 334.311 34.6767C333.665 35.0054 332.894 35.1697 331.999 35.1697Z" fill="#201F1D"/>
<path d="M329.5 57.5H33.5C29.0817 57.5 25.5 61.0817 25.5 65.5C25.5 69.9183 29.0817 73.5 33.5 73.5H329.5C333.918 73.5 337.5 69.9183 337.5 65.5C337.5 61.0817 333.918 57.5 329.5 57.5Z" fill="white" stroke="#E7E5E4"/>
<path d="M246.028 58H33.5C29.3579 58 26 61.3579 26 65.5C26 69.6421 29.3579 73 33.5 73H246.028C250.17 73 253.528 69.6421 253.528 65.5C253.528 61.3579 250.17 58 246.028 58Z" fill="#E15858"/>
<path d="M27.7038 93.9999C27.4558 93.9999 27.2638 93.9319 27.1278 93.7959C26.9918 93.6519 26.9238 93.4559 26.9238 93.2079V86.2839C26.9238 86.0279 26.9878 85.8359 27.1158 85.7079C27.2518 85.5719 27.4438 85.5039 27.6918 85.5039C27.9398 85.5039 28.1278 85.5719 28.2558 85.7079C28.3918 85.8359 28.4598 86.0279 28.4598 86.2839V92.6919H31.9398C32.1558 92.6919 32.3198 92.7479 32.4318 92.8599C32.5518 92.9719 32.6118 93.1319 32.6118 93.3399C32.6118 93.5479 32.5518 93.7119 32.4318 93.8319C32.3198 93.9439 32.1558 93.9999 31.9398 93.9999H27.7038ZM36.3515 94.1199C35.6875 94.1199 35.1155 93.9959 34.6355 93.7479C34.1555 93.4999 33.7835 93.1479 33.5195 92.6919C33.2635 92.2359 33.1355 91.6959 33.1355 91.0719C33.1355 90.4639 33.2595 89.9319 33.5075 89.4759C33.7635 89.0199 34.1115 88.6639 34.5515 88.4079C34.9995 88.1439 35.5075 88.0119 36.0755 88.0119C36.4915 88.0119 36.8635 88.0799 37.1915 88.2159C37.5275 88.3519 37.8115 88.5479 38.0435 88.8039C38.2835 89.0599 38.4635 89.3719 38.5835 89.7399C38.7115 90.0999 38.7755 90.5079 38.7755 90.9639C38.7755 91.1079 38.7235 91.2199 38.6195 91.2999C38.5235 91.3719 38.3835 91.4079 38.1995 91.4079H34.3475V90.5439H37.7195L37.5275 90.7239C37.5275 90.3559 37.4715 90.0479 37.3595 89.7999C37.2555 89.5519 37.0995 89.3639 36.8915 89.2359C36.6915 89.0999 36.4395 89.0319 36.1355 89.0319C35.7995 89.0319 35.5115 89.1119 35.2715 89.2719C35.0395 89.4239 34.8595 89.6439 34.7315 89.9319C34.6115 90.2119 34.5515 90.5479 34.5515 90.9399V91.0239C34.5515 91.6799 34.7035 92.1719 35.0075 92.4999C35.3195 92.8199 35.7755 92.9799 36.3755 92.9799C36.5835 92.9799 36.8155 92.9559 37.0715 92.9079C37.3355 92.8519 37.5835 92.7599 37.8155 92.6319C37.9835 92.5359 38.1315 92.4959 38.2595 92.5119C38.3875 92.5199 38.4875 92.5639 38.5595 92.6439C38.6395 92.7239 38.6875 92.8239 38.7035 92.9439C38.7195 93.0559 38.6955 93.1719 38.6315 93.2919C38.5755 93.4119 38.4755 93.5159 38.3315 93.6039C38.0515 93.7799 37.7275 93.9119 37.3595 93.9999C36.9995 94.0799 36.6635 94.1199 36.3515 94.1199ZM42.2456 94.0959C42.0456 94.0959 41.8696 94.0439 41.7176 93.9399C41.5736 93.8359 41.4536 93.6759 41.3576 93.4599L39.4496 89.0319C39.3776 88.8559 39.3496 88.6919 39.3656 88.5399C39.3896 88.3879 39.4616 88.2679 39.5816 88.1799C39.7096 88.0839 39.8816 88.0359 40.0976 88.0359C40.2816 88.0359 40.4296 88.0799 40.5416 88.1679C40.6536 88.2479 40.7536 88.4039 40.8416 88.6359L42.4616 92.6799H42.1016L43.7696 88.6239C43.8576 88.3999 43.9576 88.2479 44.0696 88.1679C44.1896 88.0799 44.3496 88.0359 44.5496 88.0359C44.7256 88.0359 44.8656 88.0839 44.9696 88.1799C45.0736 88.2679 45.1376 88.3879 45.1616 88.5399C45.1856 88.6839 45.1576 88.8439 45.0776 89.0199L43.1336 93.4599C43.0456 93.6759 42.9256 93.8359 42.7736 93.9399C42.6296 94.0439 42.4536 94.0959 42.2456 94.0959ZM48.9726 94.1199C48.3086 94.1199 47.7366 93.9959 47.2566 93.7479C46.7766 93.4999 46.4046 93.1479 46.1406 92.6919C45.8846 92.2359 45.7566 91.6959 45.7566 91.0719C45.7566 90.4639 45.8806 89.9319 46.1286 89.4759C46.3846 89.0199 46.7326 88.6639 47.1726 88.4079C47.6206 88.1439 48.1286 88.0119 48.6966 88.0119C49.1126 88.0119 49.4846 88.0799 49.8126 88.2159C50.1486 88.3519 50.4326 88.5479 50.6646 88.8039C50.9046 89.0599 51.0846 89.3719 51.2046 89.7399C51.3326 90.0999 51.3966 90.5079 51.3966 90.9639C51.3966 91.1079 51.3446 91.2199 51.2406 91.2999C51.1446 91.3719 51.0046 91.4079 50.8206 91.4079H46.9686V90.5439H50.3406L50.1486 90.7239C50.1486 90.3559 50.0926 90.0479 49.9806 89.7999C49.8766 89.5519 49.7206 89.3639 49.5126 89.2359C49.3126 89.0999 49.0606 89.0319 48.7566 89.0319C48.4206 89.0319 48.1326 89.1119 47.8926 89.2719C47.6606 89.4239 47.4806 89.6439 47.3526 89.9319C47.2326 90.2119 47.1726 90.5479 47.1726 90.9399V91.0239C47.1726 91.6799 47.3246 92.1719 47.6286 92.4999C47.9406 92.8199 48.3966 92.9799 48.9966 92.9799C49.2046 92.9799 49.4366 92.9559 49.6926 92.9079C49.9566 92.8519 50.2046 92.7599 50.4366 92.6319C50.6046 92.5359 50.7526 92.4959 50.8806 92.5119C51.0086 92.5199 51.1086 92.5639 51.1806 92.6439C51.2606 92.7239 51.3086 92.8239 51.3246 92.9439C51.3406 93.0559 51.3166 93.1719 51.2526 93.2919C51.1966 93.4119 51.0966 93.5159 50.9526 93.6039C50.6726 93.7799 50.3486 93.9119 49.9806 93.9999C49.6206 94.0799 49.2846 94.1199 48.9726 94.1199ZM54.5885 94.1199C53.9245 94.1199 53.4245 93.9319 53.0885 93.5559C52.7525 93.1719 52.5845 92.6119 52.5845 91.8759V86.1999C52.5845 85.9519 52.6485 85.7639 52.7765 85.6359C52.9045 85.5079 53.0885 85.4439 53.3285 85.4439C53.5685 85.4439 53.7525 85.5079 53.8805 85.6359C54.0165 85.7639 54.0845 85.9519 54.0845 86.1999V91.8039C54.0845 92.1719 54.1605 92.4439 54.3125 92.6199C54.4725 92.7959 54.6965 92.8839 54.9845 92.8839C55.0485 92.8839 55.1085 92.8839 55.1645 92.8839C55.2205 92.8759 55.2765 92.8679 55.3325 92.8599C55.4445 92.8439 55.5205 92.8759 55.5605 92.9559C55.6005 93.0279 55.6205 93.1799 55.6205 93.4119C55.6205 93.6119 55.5805 93.7679 55.5005 93.8799C55.4205 93.9919 55.2885 94.0599 55.1045 94.0839C55.0245 94.0919 54.9405 94.0999 54.8525 94.1079C54.7645 94.1159 54.6765 94.1199 54.5885 94.1199ZM60.4903 93.9999C60.2343 93.9999 60.0463 93.9439 59.9263 93.8319C59.8143 93.7119 59.7583 93.5399 59.7583 93.3159C59.7583 93.1799 59.7943 93.0479 59.8663 92.9199C59.9383 92.7919 60.0423 92.6559 60.1783 92.5119L62.5903 89.9439C62.9583 89.5599 63.2223 89.2119 63.3823 88.8999C63.5423 88.5799 63.6223 88.2599 63.6223 87.9399C63.6223 87.5399 63.4943 87.2359 63.2383 87.0279C62.9903 86.8199 62.6263 86.7159 62.1463 86.7159C61.8743 86.7159 61.6023 86.7559 61.3303 86.8359C61.0583 86.9079 60.7823 87.0359 60.5023 87.2199C60.3583 87.3159 60.2223 87.3559 60.0943 87.3399C59.9743 87.3239 59.8663 87.2719 59.7703 87.1839C59.6823 87.0959 59.6223 86.9879 59.5903 86.8599C59.5583 86.7319 59.5623 86.6039 59.6023 86.4759C59.6503 86.3399 59.7463 86.2239 59.8903 86.1279C60.2343 85.8959 60.6183 85.7199 61.0423 85.5999C61.4743 85.4799 61.9063 85.4199 62.3383 85.4199C62.9463 85.4199 63.4583 85.5119 63.8743 85.6959C64.2903 85.8799 64.6063 86.1479 64.8223 86.4999C65.0383 86.8519 65.1463 87.2799 65.1463 87.7839C65.1463 88.1199 65.0903 88.4479 64.9783 88.7679C64.8743 89.0879 64.7103 89.4119 64.4863 89.7399C64.2703 90.0679 63.9863 90.4159 63.6343 90.7839L61.3783 93.1359V92.7279H64.9063C65.1223 92.7279 65.2863 92.7799 65.3983 92.8839C65.5103 92.9879 65.5663 93.1439 65.5663 93.3519C65.5663 93.5599 65.5103 93.7199 65.3983 93.8319C65.2863 93.9439 65.1223 93.9999 64.9063 93.9999H60.4903Z" fill="#7F7C76"/>
<path d="M297.704 93.9999C297.456 93.9999 297.264 93.9319 297.128 93.7959C296.992 93.6519 296.924 93.4559 296.924 93.2079V86.2839C296.924 86.0279 296.988 85.8359 297.116 85.7079C297.252 85.5719 297.444 85.5039 297.692 85.5039C297.94 85.5039 298.128 85.5719 298.256 85.7079C298.392 85.8359 298.46 86.0279 298.46 86.2839V92.6919H301.94C302.156 92.6919 302.32 92.7479 302.432 92.8599C302.552 92.9719 302.612 93.1319 302.612 93.3399C302.612 93.5479 302.552 93.7119 302.432 93.8319C302.32 93.9439 302.156 93.9999 301.94 93.9999H297.704ZM306.352 94.1199C305.688 94.1199 305.116 93.9959 304.636 93.7479C304.156 93.4999 303.784 93.1479 303.52 92.6919C303.264 92.2359 303.136 91.6959 303.136 91.0719C303.136 90.4639 303.26 89.9319 303.508 89.4759C303.764 89.0199 304.112 88.6639 304.552 88.4079C305 88.1439 305.508 88.0119 306.076 88.0119C306.492 88.0119 306.864 88.0799 307.192 88.2159C307.528 88.3519 307.812 88.5479 308.044 88.8039C308.284 89.0599 308.464 89.3719 308.584 89.7399C308.712 90.0999 308.776 90.5079 308.776 90.9639C308.776 91.1079 308.724 91.2199 308.62 91.2999C308.524 91.3719 308.384 91.4079 308.2 91.4079H304.348V90.5439H307.72L307.528 90.7239C307.528 90.3559 307.472 90.0479 307.36 89.7999C307.256 89.5519 307.1 89.3639 306.892 89.2359C306.692 89.0999 306.44 89.0319 306.136 89.0319C305.8 89.0319 305.512 89.1119 305.272 89.2719C305.04 89.4239 304.86 89.6439 304.732 89.9319C304.612 90.2119 304.552 90.5479 304.552 90.9399V91.0239C304.552 91.6799 304.704 92.1719 305.008 92.4999C305.32 92.8199 305.776 92.9799 306.376 92.9799C306.584 92.9799 306.816 92.9559 307.072 92.9079C307.336 92.8519 307.584 92.7599 307.816 92.6319C307.984 92.5359 308.132 92.4959 308.26 92.5119C308.388 92.5199 308.488 92.5639 308.56 92.6439C308.64 92.7239 308.688 92.8239 308.704 92.9439C308.72 93.0559 308.696 93.1719 308.632 93.2919C308.576 93.4119 308.476 93.5159 308.332 93.6039C308.052 93.7799 307.728 93.9119 307.36 93.9999C307 94.0799 306.664 94.1199 306.352 94.1199ZM312.246 94.0959C312.046 94.0959 311.87 94.0439 311.718 93.9399C311.574 93.8359 311.454 93.6759 311.358 93.4599L309.45 89.0319C309.378 88.8559 309.35 88.6919 309.366 88.5399C309.39 88.3879 309.462 88.2679 309.582 88.1799C309.71 88.0839 309.882 88.0359 310.098 88.0359C310.282 88.0359 310.43 88.0799 310.542 88.1679C310.654 88.2479 310.754 88.4039 310.842 88.6359L312.462 92.6799H312.102L313.77 88.6239C313.858 88.3999 313.958 88.2479 314.07 88.1679C314.19 88.0799 314.35 88.0359 314.55 88.0359C314.726 88.0359 314.866 88.0839 314.97 88.1799C315.074 88.2679 315.138 88.3879 315.162 88.5399C315.186 88.6839 315.158 88.8439 315.078 89.0199L313.134 93.4599C313.046 93.6759 312.926 93.8359 312.774 93.9399C312.63 94.0439 312.454 94.0959 312.246 94.0959ZM318.973 94.1199C318.309 94.1199 317.737 93.9959 317.257 93.7479C316.777 93.4999 316.405 93.1479 316.141 92.6919C315.885 92.2359 315.757 91.6959 315.757 91.0719C315.757 90.4639 315.881 89.9319 316.129 89.4759C316.385 89.0199 316.733 88.6639 317.173 88.4079C317.621 88.1439 318.129 88.0119 318.697 88.0119C319.113 88.0119 319.485 88.0799 319.813 88.2159C320.149 88.3519 320.433 88.5479 320.665 88.8039C320.905 89.0599 321.085 89.3719 321.205 89.7399C321.333 90.0999 321.397 90.5079 321.397 90.9639C321.397 91.1079 321.345 91.2199 321.241 91.2999C321.145 91.3719 321.005 91.4079 320.821 91.4079H316.969V90.5439H320.341L320.149 90.7239C320.149 90.3559 320.093 90.0479 319.981 89.7999C319.877 89.5519 319.721 89.3639 319.513 89.2359C319.313 89.0999 319.061 89.0319 318.757 89.0319C318.421 89.0319 318.133 89.1119 317.893 89.2719C317.661 89.4239 317.481 89.6439 317.353 89.9319C317.233 90.2119 317.173 90.5479 317.173 90.9399V91.0239C317.173 91.6799 317.325 92.1719 317.629 92.4999C317.941 92.8199 318.397 92.9799 318.997 92.9799C319.205 92.9799 319.437 92.9559 319.693 92.9079C319.957 92.8519 320.205 92.7599 320.437 92.6319C320.605 92.5359 320.753 92.4959 320.881 92.5119C321.009 92.5199 321.109 92.5639 321.181 92.6439C321.261 92.7239 321.309 92.8239 321.325 92.9439C321.341 93.0559 321.317 93.1719 321.253 93.2919C321.197 93.4119 321.097 93.5159 320.953 93.6039C320.673 93.7799 320.349 93.9119 319.981 93.9999C319.621 94.0799 319.285 94.1199 318.973 94.1199ZM324.589 94.1199C323.925 94.1199 323.425 93.9319 323.089 93.5559C322.753 93.1719 322.585 92.6119 322.585 91.8759V86.1999C322.585 85.9519 322.649 85.7639 322.777 85.6359C322.905 85.5079 323.089 85.4439 323.329 85.4439C323.569 85.4439 323.753 85.5079 323.881 85.6359C324.017 85.7639 324.085 85.9519 324.085 86.1999V91.8039C324.085 92.1719 324.161 92.4439 324.313 92.6199C324.473 92.7959 324.697 92.8839 324.985 92.8839C325.049 92.8839 325.109 92.8839 325.165 92.8839C325.221 92.8759 325.277 92.8679 325.333 92.8599C325.445 92.8439 325.521 92.8759 325.561 92.9559C325.601 93.0279 325.621 93.1799 325.621 93.4119C325.621 93.6119 325.581 93.7679 325.501 93.8799C325.421 93.9919 325.289 94.0599 325.105 94.0839C325.025 94.0919 324.941 94.0999 324.853 94.1079C324.765 94.1159 324.677 94.1199 324.589 94.1199ZM332.327 94.1199C331.895 94.1199 331.447 94.0639 330.983 93.9519C330.519 93.8399 330.115 93.6719 329.771 93.4479C329.611 93.3439 329.503 93.2239 329.447 93.0879C329.391 92.9519 329.375 92.8239 329.399 92.7039C329.431 92.5759 329.491 92.4679 329.579 92.3799C329.675 92.2919 329.791 92.2399 329.927 92.2239C330.071 92.2079 330.227 92.2439 330.395 92.3319C330.723 92.5079 331.039 92.6359 331.343 92.7159C331.647 92.7879 331.959 92.8239 332.279 92.8239C332.631 92.8239 332.927 92.7759 333.167 92.6799C333.407 92.5839 333.587 92.4399 333.707 92.2479C333.835 92.0559 333.899 91.8239 333.899 91.5519C333.899 91.1519 333.763 90.8559 333.491 90.6639C333.227 90.4639 332.839 90.3639 332.327 90.3639H331.559C331.335 90.3639 331.163 90.3079 331.043 90.1959C330.931 90.0839 330.875 89.9279 330.875 89.7279C330.875 89.5279 330.931 89.3719 331.043 89.2599C331.163 89.1479 331.335 89.0919 331.559 89.0919H332.183C332.487 89.0919 332.747 89.0439 332.963 88.9479C333.179 88.8439 333.347 88.6999 333.467 88.5159C333.587 88.3319 333.647 88.1079 333.647 87.8439C333.647 87.4759 333.523 87.1959 333.275 87.0039C333.035 86.8119 332.683 86.7159 332.219 86.7159C331.923 86.7159 331.643 86.7519 331.379 86.8239C331.123 86.8879 330.839 87.0119 330.527 87.1959C330.383 87.2839 330.243 87.3199 330.107 87.3039C329.979 87.2879 329.871 87.2359 329.783 87.1479C329.695 87.0599 329.635 86.9559 329.603 86.8359C329.571 86.7079 329.579 86.5799 329.627 86.4519C329.675 86.3159 329.775 86.1999 329.927 86.1039C330.271 85.8799 330.651 85.7119 331.067 85.5999C331.483 85.4799 331.911 85.4199 332.351 85.4199C332.935 85.4199 333.435 85.5119 333.851 85.6959C334.267 85.8719 334.583 86.1279 334.799 86.4639C335.023 86.7919 335.135 87.1919 335.135 87.6639C335.135 87.9999 335.071 88.3079 334.943 88.5879C334.815 88.8599 334.635 89.0919 334.403 89.2839C334.171 89.4759 333.891 89.6119 333.563 89.6919V89.5479C334.139 89.6439 334.587 89.8839 334.907 90.2679C335.227 90.6439 335.387 91.1159 335.387 91.6839C335.387 92.1799 335.263 92.6119 335.015 92.9799C334.767 93.3479 334.415 93.6319 333.959 93.8319C333.503 94.0239 332.959 94.1199 332.327 94.1199Z" fill="#7F7C76"/>
</g>
<defs>
<filter id="filter0_ddd_1648_4370" x="0" y="0" width="363" height="141" filterUnits="userSpaceOnUse" color-interpolation-filters="sRGB">
<feFlood flood-opacity="0" result="BackgroundImageFix"/>
<feColorMatrix in="SourceAlpha" type="matrix" values="0 0 0 0 0 0 0 0 0 0 0 0 0 0 0 0 0 0 127 0" result="hardAlpha"/>
<feOffset dy="2"/>
<feGaussianBlur stdDeviation="2"/>
<feColorMatrix type="matrix" values="0 0 0 0 0 0 0 0 0 0 0 0 0 0 0 0 0 0 0.01 0"/>
<feBlend mode="normal" in2="BackgroundImageFix" result="effect1_dropShadow_1648_4370"/>
<feColorMatrix in="SourceAlpha" type="matrix" values="0 0 0 0 0 0 0 0 0 0 0 0 0 0 0 0 0 0 127 0" result="hardAlpha"/>
<feOffset dy="7"/>
<feGaussianBlur stdDeviation="3.5"/>
<feColorMatrix type="matrix" values="0 0 0 0 0 0 0 0 0 0 0 0 0 0 0 0 0 0 0.01 0"/>
<feBlend mode="normal" in2="effect1_dropShadow_1648_4370" result="effect2_dropShadow_1648_4370"/>
<feColorMatrix in="SourceAlpha" type="matrix" values="0 0 0 0 0 0 0 0 0 0 0 0 0 0 0 0 0 0 127 0" result="hardAlpha"/>
<feOffset dy="16"/>
<feGaussianBlur stdDeviation="5"/>
<feColorMatrix type="matrix" values="0 0 0 0 0 0 0 0 0 0 0 0 0 0 0 0 0 0 0.01 0"/>
<feBlend mode="normal" in2="effect2_dropShadow_1648_4370" result="effect3_dropShadow_1648_4370"/>
<feBlend mode="normal" in="SourceGraphic" in2="effect3_dropShadow_1648_4370" result="shape"/>
</filter>
</defs>
</svg>
