<svg width="251" height="251" viewBox="0 0 251 251" fill="none" xmlns="http://www.w3.org/2000/svg">
<path d="M117.263 2.90329C122.009 -0.967721 128.823 -0.967721 133.569 2.90329L143.802 11.2499C147.024 13.876 151.311 14.7904 155.322 13.7061L168.036 10.2697C173.941 8.67387 180.153 11.4434 182.914 16.9011L188.921 28.7815C190.792 32.4786 194.323 35.0527 198.415 35.7009L211.481 37.771C217.501 38.7248 222.033 43.763 222.345 49.8509L223.033 63.2541C223.244 67.3752 225.416 71.1465 228.873 73.3999L240.052 80.6867C245.142 84.0055 247.227 90.4279 245.055 96.1041L240.245 108.673C238.773 112.518 239.226 116.834 241.462 120.29L248.763 131.573C252.062 136.673 251.357 143.382 247.071 147.685L237.615 157.179C234.707 160.098 233.368 164.23 234.013 168.3L236.117 181.585C237.068 187.595 233.69 193.453 228.011 195.641L215.614 200.414C211.756 201.9 208.843 205.145 207.781 209.141L204.349 222.064C202.781 227.967 197.29 231.961 191.192 231.635L178.022 230.93C173.877 230.709 169.88 232.494 167.279 235.728L158.974 246.058C155.138 250.83 148.476 252.248 143.028 249.451L131.307 243.433C127.609 241.535 123.223 241.535 119.525 243.433L107.803 249.451C102.356 252.248 95.6946 250.83 91.8582 246.058L83.5529 235.728C80.9524 232.494 76.9546 230.709 72.8102 230.93L59.6404 231.635C53.5424 231.961 48.051 227.967 46.4834 222.064L43.0504 209.141C41.989 205.145 39.0766 201.9 35.2182 200.414L22.8212 195.641C17.142 193.453 13.7636 187.595 14.7153 181.585L16.8189 168.3C17.4633 164.23 16.1248 160.098 13.217 157.179L3.76087 147.685C-0.525205 143.382 -1.2296 136.673 2.06944 131.573L9.36957 120.29C11.606 116.834 12.0582 112.518 10.5868 108.673L5.77706 96.1041C3.6049 90.4279 5.68928 84.0055 10.7807 80.6867L21.9598 73.3999C25.4168 71.1465 27.5871 67.3752 27.7985 63.2541L28.4863 49.8509C28.7988 43.763 33.33 38.7248 39.3508 37.771L52.4173 35.7009C56.5091 35.0527 60.0406 32.4786 61.9104 28.7815L67.9185 16.9011C70.6786 11.4434 76.8919 8.67386 82.7961 10.2697L95.5098 13.7061C99.5211 14.7904 103.809 13.876 107.029 11.2499L117.263 2.90329Z" fill="#FBD46C"/>
</svg>
