<svg width="74" height="72" viewBox="0 0 74 72" fill="none" xmlns="http://www.w3.org/2000/svg">
<path d="M46.558 19.3673L37.8562 34.4799L25.3366 22.3508C25.6207 21.8713 25.816 21.3385 25.9225 20.7525L28.8705 4.07726C29.1724 2.28364 30.3089 1.05823 31.6941 0.454443C32.5642 0.0637544 33.5233 -0.0605034 34.4467 0.0638064C35.9384 0.25915 37.3591 1.14702 38.1582 2.78081L45.5634 17.9999C45.812 18.5327 46.1495 18.9767 46.558 19.3673Z" fill="#E94E00"/>
<path d="M35.8152 36.363L19.2643 44.9936C18.9802 44.7272 18.6427 44.4964 18.2875 44.301L3.3527 36.3452C1.64788 35.4395 0.81306 33.8413 0.742026 32.243C0.706509 31.3018 0.919586 30.3606 1.38131 29.5437C2.07389 28.3006 3.29928 27.3416 4.98635 27.1107L21.7505 24.7666C22.3188 24.6956 22.8516 24.5003 23.3488 24.2516L35.8152 36.363Z" fill="#E94E00"/>
<path d="M65.4713 64.3331C64.9563 65.1145 64.2103 65.7537 63.3579 66.1444C62.0793 66.7305 60.5167 66.7838 59.0249 65.9847L44.0899 58.0288C43.5927 57.7624 43.0421 57.5848 42.4916 57.496L39.8279 38.4411L57.8706 42.1349C57.8706 42.8453 58.0305 43.5556 58.3679 44.2304L65.7731 59.4495C66.6255 61.2076 66.377 62.9835 65.4713 64.3154V64.3331Z" fill="#E94E00"/>
<path d="M37.0735 38.8487L39.7373 57.9037C39.2401 58.1346 38.7605 58.4364 38.3521 58.8448L26.1698 70.601C24.9622 71.7731 23.4704 72.146 22.103 71.9507C21.1618 71.8264 20.274 71.4179 19.5636 70.8141C18.3205 69.7663 17.5746 68.1326 17.912 66.1969L20.86 49.5216C20.9843 48.7935 20.9487 48.0654 20.7533 47.3728L37.0913 38.8665L37.0735 38.8487Z" fill="#E94E00"/>
<path d="M71.5606 26.8091L59.3783 38.5652C59.0764 38.8493 58.8279 39.1512 58.6148 39.4886L40.3412 35.7416L49.0251 20.6823C49.5579 20.7889 50.1261 20.8244 50.6943 20.7356L67.4585 18.3915C69.1634 18.1607 70.6017 18.7466 71.5962 19.7411C72.2533 20.3982 72.7328 21.2506 72.9459 22.174C73.3188 23.7368 72.9458 25.4772 71.5606 26.8268V26.8091Z" fill="#E94E00"/>
<path d="M58.6159 39.4888C58.1186 40.288 57.8522 41.2292 57.8699 42.1704L39.8272 38.4767L42.491 57.5316C41.5498 57.3895 40.6087 57.5315 39.7385 57.9222L37.0747 38.8673L20.7367 47.3736C20.4881 46.468 19.991 45.6334 19.2806 44.9941L35.8315 36.3634L23.365 24.2521C24.1996 23.8259 24.8922 23.151 25.3539 22.3341L37.8738 34.4633L46.5755 19.3507C47.2504 20.0078 48.1028 20.4695 49.0262 20.647L40.3423 35.7064L58.6159 39.4534V39.4888Z" fill="#FDA100"/>
<path d="M34.4504 0.0642483L37.5404 22.1559C37.6469 22.9195 37.1141 23.6121 36.3505 23.7187C35.6046 23.8252 34.8943 23.2924 34.7877 22.5288L31.6978 0.437109C32.5679 0.0464204 33.527 -0.0778374 34.4504 0.0464724V0.0642483Z" fill="#FDA100"/>
<path d="M25.0714 35.067C24.9648 35.6708 24.4675 36.1147 23.8992 36.2035C23.7572 36.2213 23.6151 36.2213 23.4731 36.2035L0.742026 32.2612C0.706509 31.32 0.919586 30.3788 1.38131 29.5619L23.9348 33.4688C24.6984 33.5931 25.1957 34.3211 25.0714 35.0847V35.067Z" fill="#FDA100"/>
<path d="M32.0856 51.866C32.1211 52.1323 32.0856 52.4343 31.9436 52.6829L22.0697 71.9153C21.1285 71.791 20.2407 71.3826 19.5304 70.7789L29.4751 51.4042C29.8303 50.7294 30.665 50.4453 31.3398 50.8005C31.7661 51.0136 32.0145 51.4042 32.0856 51.8482V51.866Z" fill="#FDA100"/>
<path d="M72.9502 22.1565L52.2258 32.1722C52.1015 32.2433 51.9595 32.2788 51.8174 32.2965C51.2314 32.3853 50.6277 32.0835 50.3613 31.5329C50.0239 30.8404 50.308 30.0057 51.0006 29.6683L71.6005 19.7236C72.2576 20.3806 72.7371 21.233 72.9502 22.1565Z" fill="#FDA100"/>
<path d="M65.4692 64.3325C64.9542 65.1139 64.2082 65.7531 63.3558 66.1438L48.5808 50.3565C48.3854 50.1434 48.261 49.877 48.2255 49.6106C48.1722 49.1666 48.3145 48.7227 48.6519 48.403C49.2024 47.8703 50.0903 47.9059 50.6231 48.4564L65.4692 64.3325Z" fill="#FDA100"/>
<path d="M33.9128 37.5883C33.5753 35.2264 35.2268 33.0243 37.6065 32.7047C39.9683 32.3673 42.1704 34.0187 42.4901 36.3984C42.8275 38.7603 41.176 40.9623 38.7964 41.282C36.4345 41.6194 34.2324 39.9679 33.9128 37.5883Z" fill="#C1C844"/>
</svg>
