<svg width="70" height="68" viewBox="0 0 70 68" fill="none" xmlns="http://www.w3.org/2000/svg">
<path d="M34.1018 23.58L28.0918 26.61C28.0918 26.61 22.1418 23.4 18.9618 15.98C15.7818 8.55002 18.8518 0.800018 18.8518 0.800018C18.8518 0.800018 26.9018 2.95002 30.9918 9.92002C35.0718 16.88 34.1118 23.58 34.1118 23.58H34.1018Z" fill="#FFA913"/>
<path d="M27.4018 27.5L26.0218 34.09C26.0218 34.09 19.8018 36.75 12.0218 34.6C4.23179 32.45 0.0817871 25.22 0.0817871 25.22C0.0817871 25.22 6.78177 20.26 14.7818 21.42C22.7718 22.57 27.4018 27.5 27.4018 27.5Z" fill="#FFA913"/>
<path d="M26.2918 35.18L30.5818 40.37C30.5818 40.37 28.7818 46.89 22.2518 51.63C15.7118 56.38 7.48178 55.12 7.48178 55.12C7.48178 55.12 7.78178 46.79 13.6718 41.26C19.5518 35.73 26.2918 35.18 26.2918 35.18Z" fill="#FFA913"/>
<path d="M31.6118 40.84L38.3418 40.72C38.3418 40.72 42.3118 46.19 41.9518 54.25C41.5918 62.32 35.4718 67.98 35.4718 67.98C35.4718 67.98 29.1518 62.55 28.4918 54.5C27.8418 46.46 31.6118 40.84 31.6118 40.84Z" fill="#FFA913"/>
<path d="M39.3418 40.21L43.4418 34.87C43.4418 34.87 50.2018 35.17 56.2718 40.48C62.3618 45.79 62.9618 54.11 62.9618 54.11C62.9618 54.11 54.7718 55.67 48.0718 51.16C41.3718 46.66 39.3418 40.21 39.3418 40.21Z" fill="#FFA913"/>
<path d="M43.6718 33.77L42.0518 27.23C42.0518 27.23 46.5018 22.14 54.4418 20.7C62.3918 19.26 69.2618 23.97 69.2618 23.97C69.2618 23.97 65.3718 31.34 57.6718 33.77C49.9718 36.2 43.6618 33.77 43.6618 33.77H43.6718Z" fill="#FFA913"/>
<path d="M41.3418 26.37L35.2218 23.56C35.2218 23.56 34.0118 16.91 37.8418 9.80003C41.6718 2.68003 49.6418 0.250031 49.6418 0.250031C49.6418 0.250031 52.9818 7.88003 50.0818 15.42C47.1818 22.95 41.3418 26.37 41.3418 26.37Z" fill="#FFA913"/>
<path d="M37.1918 25.14H30.9718C30.9718 25.14 27.3918 20.02 27.8618 12.58C28.3318 5.13002 34.0818 0.0200195 34.0818 0.0200195C34.0818 0.0200195 39.8318 5.14002 40.3018 12.58C40.7718 20.02 37.1918 25.14 37.1918 25.14Z" fill="#FFC268"/>
<path d="M30.0418 25.59L26.1618 30.45C26.1618 30.45 19.9318 30.06 14.4118 25.05C8.88177 20.04 8.46179 12.36 8.46179 12.36C8.46179 12.36 16.0418 11.06 22.1618 15.33C28.2718 19.6 30.0418 25.59 30.0418 25.59Z" fill="#FFC268"/>
<path d="M25.9318 31.46L27.3118 37.52C27.3118 37.52 23.1218 42.15 15.7618 43.34C8.40178 44.54 2.13177 40.08 2.13177 40.08C2.13177 40.08 5.84177 33.34 13.0018 31.22C20.1518 29.11 25.9318 31.46 25.9318 31.46Z" fill="#FFC268"/>
<path d="M27.9618 38.33L33.5618 41.03C33.5618 41.03 34.5618 47.19 30.9118 53.69C27.2618 60.19 19.8618 62.31 19.8618 62.31C19.8618 62.31 16.9018 55.21 19.7118 48.29C22.5118 41.38 27.9618 38.33 27.9618 38.33Z" fill="#FFC268"/>
<path d="M34.6018 41.03L40.2018 38.33C40.2018 38.33 45.6418 41.39 48.4518 48.29C51.2618 55.2 48.3018 62.31 48.3018 62.31C48.3018 62.31 40.9018 60.19 37.2518 53.69C33.6018 47.19 34.6018 41.03 34.6018 41.03Z" fill="#FFC268"/>
<path d="M40.8518 37.52L42.2318 31.46C42.2318 31.46 48.0218 29.11 55.1618 31.22C62.3118 33.33 66.0318 40.08 66.0318 40.08C66.0318 40.08 59.7618 44.54 52.4018 43.34C45.0418 42.14 40.8518 37.52 40.8518 37.52Z" fill="#FFC268"/>
<path d="M42.0018 30.45L38.1218 25.59C38.1218 25.59 39.8918 19.6 46.0018 15.33C52.1118 11.05 59.7018 12.36 59.7018 12.36C59.7018 12.36 59.2818 20.04 53.7518 25.05C48.2318 30.05 42.0018 30.45 42.0018 30.45Z" fill="#FFC268"/>
<path d="M38.1121 42.578C43.5265 40.3518 46.1111 34.1579 43.885 28.7435C41.6588 23.329 35.4649 20.7444 30.0505 22.9705C24.636 25.1967 22.0514 31.3906 24.2776 36.8051C26.5037 42.2195 32.6976 44.8041 38.1121 42.578Z" fill="#37161D"/>
</svg>
