<svg width="24" height="24" viewBox="0 0 24 24" fill="none" xmlns="http://www.w3.org/2000/svg">
<path fill-rule="evenodd" clip-rule="evenodd" d="M12.0606 5.12121C12.6129 5.12121 13.0606 5.56893 13.0606 6.12121V11.0606H18C18.5523 11.0606 19 11.5083 19 12.0606C19 12.6129 18.5523 13.0606 18 13.0606H13.0606V18C13.0606 18.5523 12.6129 19 12.0606 19C11.5083 19 11.0606 18.5523 11.0606 18V13.0606L6.12121 13.0606C5.56892 13.0606 5.12121 12.6129 5.12121 12.0606C5.12121 11.5083 5.56892 11.0606 6.12121 11.0606L11.0606 11.0606L11.0606 6.12121C11.0606 5.56893 11.5083 5.12121 12.0606 5.12121Z" fill="#333435"/>
</svg>
