<svg width="24" height="24" viewBox="0 0 24 24" fill="none" xmlns="http://www.w3.org/2000/svg">
<path fill-rule="evenodd" clip-rule="evenodd" d="M10.6802 7.23305C11.085 6.8574 11.1087 6.22468 10.7331 5.81983C10.3574 5.41498 9.72469 5.39131 9.31984 5.76696L3.39233 11.267C3.1884 11.4562 3.07251 11.7218 3.07251 12C3.07251 12.2782 3.1884 12.5438 3.39233 12.7331L9.31983 18.2331C9.72469 18.6087 10.3574 18.585 10.7331 18.1802C11.1087 17.7753 11.085 17.1426 10.6802 16.767L6.62044 13H20C20.5523 13 21 12.5523 21 12C21 11.4477 20.5523 11 20 11H6.62045L10.6802 7.23305Z" fill="currentColor"/>
</svg>
