<svg width="24" height="24" viewBox="0 0 24 24" fill="none" xmlns="http://www.w3.org/2000/svg">
<path fill-rule="evenodd" clip-rule="evenodd" d="M13.3198 16.7669C12.915 17.1426 12.8913 17.7753 13.2669 18.1802C13.6426 18.585 14.2753 18.6087 14.6802 18.233L20.6077 12.733C20.8116 12.5438 20.9275 12.2782 20.9275 12C20.9275 11.7218 20.8116 11.4562 20.6077 11.2669L14.6802 5.76695C14.2753 5.3913 13.6426 5.41497 13.2669 5.81982C12.8913 6.22467 12.915 6.85739 13.3198 7.23304L17.3796 11L4 11C3.44772 11 3 11.4477 3 12C3 12.5523 3.44772 13 4 13L17.3796 13L13.3198 16.7669Z" fill="#333435"/>
</svg>
