<svg width="24" height="24" viewBox="0 0 24 24" fill="none" xmlns="http://www.w3.org/2000/svg">
<path d="M10.7506 2.49979C11.4811 1.91544 12.519 1.91544 13.2494 2.49979L14.8267 3.76163C15.1236 3.99913 15.482 4.14709 15.86 4.18818L17.8943 4.40931C18.7964 4.50736 19.5194 5.20046 19.6555 6.0976L19.9782 8.22445C20.0275 8.54916 20.1559 8.85675 20.3523 9.12003L21.6583 10.8715C22.1632 11.5486 22.1884 12.4697 21.7212 13.1733L20.2887 15.3311C20.1335 15.5649 20.0292 15.8289 19.9826 16.1057L19.6704 17.9628C19.5244 18.8313 18.8276 19.502 17.9543 19.6148L16.4015 19.8153C16.0963 19.8548 15.8043 19.9641 15.5483 20.1348L13.2168 21.6891C12.4922 22.1722 11.5381 22.1308 10.858 21.5867L9.17332 20.2389C8.87644 20.0014 8.51801 19.8535 8.14005 19.8124L6.35926 19.6188C5.34432 19.5085 4.57539 18.6514 4.57539 17.6305V16.4107C4.57539 15.9423 4.41104 15.4889 4.11099 15.1293L2.63344 13.3586C1.98625 12.583 2.019 11.4465 2.70979 10.7095L4.03464 9.29597C4.38205 8.9253 4.57539 8.43631 4.57539 7.92828V6.37004C4.57539 5.34912 5.34432 4.49207 6.35926 4.38175L8.14005 4.18818C8.51801 4.14709 8.87644 3.99913 9.17332 3.76163L10.7506 2.49979Z" fill="#333435"/>
<path fill-rule="evenodd" clip-rule="evenodd" d="M12.6247 3.28065C12.2595 2.98848 11.7405 2.98848 11.3753 3.28065L9.79801 4.5425C9.35269 4.89875 8.81506 5.1207 8.24811 5.18232L6.46733 5.37589C5.95986 5.43105 5.57539 5.85958 5.57539 6.37004V7.92828C5.57539 8.69032 5.28539 9.42381 4.76427 9.97982L3.43942 11.3934C3.09402 11.7619 3.07764 12.3301 3.40124 12.7179L4.87879 14.4886C5.32887 15.028 5.57539 15.7082 5.57539 16.4107V17.6305C5.57539 18.141 5.95986 18.5695 6.46733 18.6247L8.24811 18.8182C8.81506 18.8799 9.35269 19.1018 9.79801 19.4581L11.4827 20.8058C11.8228 21.0779 12.2998 21.0986 12.6621 20.857L14.9936 19.3027C15.3776 19.0467 15.8156 18.8827 16.2734 18.8236L17.8262 18.623C18.2629 18.5666 18.6113 18.2313 18.6843 17.7971L18.9965 15.9399C19.0663 15.5247 19.2227 15.1288 19.4556 14.778L20.8881 12.6202C21.1217 12.2684 21.1091 11.8078 20.8567 11.4693L19.5506 9.71782C19.2561 9.32289 19.0634 8.86152 18.9895 8.37445L18.6668 6.2476C18.5988 5.79902 18.2373 5.45248 17.7862 5.40345L15.7519 5.18232C15.185 5.1207 14.6473 4.89875 14.202 4.5425L12.6247 3.28065ZM10.1259 1.71892C11.2216 0.842392 12.7784 0.842392 13.8741 1.71892L15.4514 2.98076C15.5998 3.09951 15.779 3.17349 15.968 3.19403L18.0023 3.41516C19.3555 3.56225 20.4401 4.60189 20.6442 5.94761L20.9669 8.07446C20.9915 8.23682 21.0557 8.39061 21.1539 8.52225L22.46 10.2738C23.2172 11.2893 23.255 12.671 22.5544 13.7264L21.1218 15.8842C21.0442 16.0011 20.9921 16.1331 20.9688 16.2715L20.6566 18.1286C20.4376 19.4312 19.3924 20.4374 18.0824 20.6066L16.5296 20.8071C16.377 20.8268 16.231 20.8815 16.103 20.9668L13.7715 22.5211C12.6845 23.2458 11.2535 23.1837 10.2333 22.3676L8.54862 21.0198C8.40018 20.901 8.22097 20.8271 8.03199 20.8065L6.2512 20.6129C4.72879 20.4475 3.57539 19.1619 3.57539 17.6305V16.4107C3.57539 16.1765 3.49322 15.9498 3.34319 15.77L1.86564 13.9993C0.89485 12.8359 0.943983 11.1312 1.98017 10.0257L3.30501 8.61212C3.47872 8.42679 3.57539 8.18229 3.57539 7.92828V6.37004C3.57539 4.83866 4.72879 3.55309 6.2512 3.3876L8.03199 3.19403C8.22097 3.17349 8.40018 3.09951 8.54862 2.98076L10.1259 1.71892Z" fill="#333435"/>
<path fill-rule="evenodd" clip-rule="evenodd" d="M16.1794 9.26624C16.5847 9.64147 16.609 10.2742 16.2338 10.6794L12.0671 15.1794C11.8783 15.3833 11.6132 15.4995 11.3353 15.5C11.0575 15.5006 10.7919 15.3855 10.6023 15.1823L8.26895 12.6823C7.89211 12.2786 7.91394 11.6458 8.31769 11.2689C8.72144 10.8921 9.35423 10.9139 9.73106 11.3177L11.3304 13.0313L14.7662 9.3206C15.1415 8.91535 15.7742 8.89102 16.1794 9.26624Z" fill="white"/>
</svg>
