<svg width="24" height="24" viewBox="0 0 24 24" fill="none" xmlns="http://www.w3.org/2000/svg">
<g clip-path="url(#clip0_1306_5136)">
<path fill-rule="evenodd" clip-rule="evenodd" d="M4.92892 4.92893C1.02367 8.83418 1.02367 15.1658 4.92892 19.0711C8.83416 22.9763 15.1658 22.9763 19.0711 19.0711C22.9763 15.1658 22.9763 8.83418 19.0711 4.92893C15.1658 1.02369 8.83416 1.02369 4.92892 4.92893ZM14.1213 15.5355C14.5118 15.9261 15.145 15.9261 15.5355 15.5355C15.926 15.145 15.926 14.5118 15.5355 14.1213L13.4142 12L15.5355 9.87868C15.926 9.48816 15.926 8.85499 15.5355 8.46447C15.145 8.07394 14.5118 8.07394 14.1213 8.46447L12 10.5858L9.87866 8.46447C9.48814 8.07394 8.85497 8.07394 8.46445 8.46447C8.07393 8.85499 8.07393 9.48816 8.46445 9.87868L10.5858 12L8.46445 14.1213C8.07393 14.5118 8.07393 15.145 8.46445 15.5355C8.85497 15.9261 9.48814 15.9261 9.87866 15.5355L12 13.4142L14.1213 15.5355Z" fill="currentColor"/>
</g>
<defs>
<clipPath id="clip0_1306_5136">
<rect width="24" height="24" fill="white"/>
</clipPath>
</defs>
</svg>
