<svg width="24" height="24" viewBox="0 0 24 24" fill="none" xmlns="http://www.w3.org/2000/svg">
<path fill-rule="evenodd" clip-rule="evenodd" d="M16.9675 16.9674C16.577 17.358 15.9438 17.358 15.5533 16.9674L12.0606 13.4748L8.56793 16.9674C8.1774 17.358 7.54424 17.358 7.15371 16.9674C6.76319 16.5769 6.76319 15.9438 7.15371 15.5532L10.6464 12.0605L7.15371 8.56787C6.76319 8.17734 6.76319 7.54418 7.15371 7.15365C7.54424 6.76313 8.1774 6.76313 8.56793 7.15365L12.0606 10.6463L15.5533 7.15365C15.9438 6.76313 16.577 6.76313 16.9675 7.15365C17.358 7.54418 17.358 8.17734 16.9675 8.56787L13.4748 12.0605L16.9675 15.5532C17.358 15.9438 17.358 16.5769 16.9675 16.9674Z" fill="#333435"/>
</svg>
