<svg width="24" height="24" viewBox="0 0 24 24" fill="none" xmlns="http://www.w3.org/2000/svg">
<path d="M10.8244 2.85169C11.5254 2.3424 12.4746 2.3424 13.1756 2.85169L20.335 8.05332C21.036 8.56261 21.3293 9.46534 21.0615 10.2894L18.3269 18.7058C18.0591 19.5298 17.2912 20.0878 16.4248 20.0878H7.57525C6.70879 20.0878 5.94088 19.5298 5.67313 18.7058L2.93848 10.2894C2.67073 9.46534 2.96405 8.56261 3.66502 8.05332L10.8244 2.85169Z" fill="#005FD1" fill-opacity="0.5"/>
<path fill-rule="evenodd" clip-rule="evenodd" d="M10.2366 2.04268C11.2881 1.27874 12.7119 1.27874 13.7633 2.04268L20.9228 7.2443C21.9742 8.00823 22.4142 9.36234 22.0126 10.5984L19.2779 19.0148C18.8763 20.2509 17.7244 21.0878 16.4248 21.0878H7.57522C6.27554 21.0878 5.12368 20.2509 4.72205 19.0148L1.9874 10.5984C1.58577 9.36234 2.02575 8.00823 3.07721 7.2443L10.2366 2.04268ZM12.5878 3.66071C12.2373 3.40607 11.7627 3.40607 11.4122 3.66071L4.25278 8.86234C3.90229 9.11698 3.75564 9.56835 3.88951 9.98037L6.62417 18.3968C6.75804 18.8088 7.142 19.0878 7.57522 19.0878H16.4248C16.858 19.0878 17.2419 18.8088 17.3758 18.3968L20.1105 9.98037C20.2443 9.56835 20.0977 9.11698 19.7472 8.86234L12.5878 3.66071Z" fill="#005FD1"/>
<path d="M11.5245 6.96073C11.6741 6.50007 12.3259 6.50007 12.4755 6.96073L13.3471 9.6431C13.414 9.84911 13.606 9.98859 13.8226 9.98859H16.643C17.1274 9.98859 17.3288 10.6084 16.9369 10.8931L14.6552 12.5509C14.4799 12.6782 14.4066 12.9039 14.4735 13.1099L15.3451 15.7923C15.4948 16.2529 14.9675 16.636 14.5757 16.3513L12.2939 14.6935C12.1187 14.5662 11.8814 14.5662 11.7061 14.6935L9.42435 16.3513C9.03249 16.636 8.50525 16.2529 8.65493 15.7923L9.52648 13.1099C9.59342 12.9039 9.52009 12.6782 9.34485 12.5509L7.06308 10.8931C6.67123 10.6084 6.87261 9.98859 7.35698 9.98859H10.1774C10.394 9.98859 10.586 9.84911 10.6529 9.6431L11.5245 6.96073Z" fill="#FFE670"/>
</svg>
