<svg width="24" height="24" viewBox="0 0 24 24" fill="none" xmlns="http://www.w3.org/2000/svg">
<path d="M15.4023 8.52816C15.0429 8.52795 14.684 8.55759 14.3293 8.61679C14.2032 7.28588 13.6703 6.02916 12.8061 5.02441C11.942 4.01967 10.7902 3.31776 9.51387 3.018C9.39924 2.99112 9.27981 2.99439 9.16676 3.02752C9.05371 3.06065 8.95075 3.12255 8.86755 3.20741C8.78434 3.29228 8.7236 3.39732 8.69103 3.51271C8.65847 3.62809 8.65513 3.75003 8.68135 3.86708C8.84493 4.59462 8.84581 5.35044 8.68393 6.07837C8.52206 6.8063 8.20159 7.48764 7.74634 8.07173C7.29108 8.65583 6.71275 9.12767 6.05433 9.4522C5.3959 9.77673 4.6743 9.94559 3.94316 9.94625C3.57537 9.9463 3.20874 9.90409 2.85021 9.82039C2.73549 9.79345 2.61595 9.79672 2.50281 9.82988C2.38967 9.86305 2.28665 9.92504 2.20341 10.01C2.12018 10.095 2.05947 10.2002 2.02698 10.3157C1.99449 10.4312 1.99129 10.5532 2.01768 10.6704C2.20425 11.4917 2.54794 12.2674 3.02899 12.9527C3.51004 13.6381 4.11898 14.2197 4.82083 14.6641C4.32722 15.3506 4.02959 16.1634 3.96098 17.0121C3.89237 17.8609 4.05546 18.7125 4.43214 19.4724C4.80883 20.2323 5.38438 20.8707 6.09492 21.3169C6.80546 21.7631 7.62319 21.9995 8.45737 22H15.4023C17.1521 22 18.8303 21.2903 20.0676 20.0271C21.3049 18.7639 22 17.0506 22 15.2641C22 13.4776 21.3049 11.7643 20.0676 10.5011C18.8303 9.23784 17.1521 8.52816 15.4023 8.52816ZM3.71485 11.3643C3.79038 11.3643 3.86677 11.3643 3.94316 11.3643C5.60032 11.3625 7.18908 10.6895 8.36086 9.4932C9.53265 8.29686 10.1918 6.67482 10.1936 4.98294C10.1936 4.90406 10.1936 4.82518 10.1936 4.7463C10.9939 5.12881 11.6761 5.72813 12.1659 6.47903C12.6557 7.22993 12.9344 8.10362 12.9716 9.00499C12.1236 9.34946 11.3544 9.86887 10.7121 10.5307C10.0698 11.1926 9.56821 11.9827 9.23868 12.8516C8.98068 12.8056 8.71927 12.7825 8.45737 12.7824C7.52379 12.7823 6.6134 13.0794 5.85302 13.6324C4.91897 13.1321 4.16879 12.3364 3.71485 11.3643Z" fill="#2F7973"/>
</svg>
