<svg width="24" height="24" viewBox="0 0 24 24" fill="none" xmlns="http://www.w3.org/2000/svg">
<path fill-rule="evenodd" clip-rule="evenodd" d="M7.41295 6C6.23886 6 5.17267 6.68491 4.68453 7.75272L1.29447 15.1685C0.688937 16.4931 1.65698 18 3.11341 18H16.5872C17.7613 18 18.8274 17.3151 19.3156 16.2473L22.7056 8.83152C23.3112 7.50693 22.3431 6 20.8867 6H7.41295ZM16.8369 9.08133L16.6442 9.43179L16.836 9.08082L16.8365 9.08108L16.8369 9.08133ZM17.6868 9.92993C17.493 9.56653 17.2055 9.28287 16.8365 9.08108C16.4597 8.87397 16.0141 8.78181 15.5192 8.78181H13.3373C13.1164 8.78181 12.9373 8.9609 12.9373 9.18181V15C12.9373 15.2209 13.1164 15.4 13.3373 15.4H14.3913C14.6122 15.4 14.7913 15.2209 14.7913 15V13.4341H15.5049C16.0013 13.4341 16.4483 13.3431 16.8277 13.1393L16.8294 13.1384C17.2 12.9371 17.4898 12.6549 17.6861 12.293C17.879 11.9373 17.9703 11.5388 17.9703 11.108C17.9703 10.6807 17.879 10.2847 17.6868 9.92993ZM14.7913 11.7676V10.4625H15.3572C15.5792 10.4625 15.7233 10.5006 15.8137 10.5488L15.8136 10.5489L15.8184 10.5514C15.9184 10.603 15.9787 10.6668 16.0174 10.7431L16.0173 10.7431L16.0191 10.7465C16.0665 10.8381 16.0964 10.9549 16.0964 11.108C16.0964 11.2609 16.0666 11.3795 16.0182 11.474L16.0182 11.474L16.0165 11.4774C15.976 11.5584 15.9135 11.6255 15.8134 11.6801C15.7235 11.7291 15.5813 11.7676 15.3629 11.7676H14.7913ZM7.24719 8.78181C7.10183 8.78181 6.96791 8.86067 6.8974 8.98778C6.82689 9.1149 6.83089 9.27026 6.90784 9.39358L8.59021 12.0896L6.88631 14.7863C6.80845 14.9096 6.80378 15.0654 6.87413 15.193C6.94448 15.3207 7.0787 15.4 7.22446 15.4H8.44037C8.57962 15.4 8.70884 15.3276 8.78154 15.2088L9.75855 13.6126L10.7356 15.2088C10.8083 15.3276 10.9375 15.4 11.0767 15.4H12.2983C12.4438 15.4 12.5778 15.321 12.6483 15.1938C12.7187 15.0665 12.7146 14.9111 12.6374 14.7878L10.9482 12.0892L12.6105 9.39166C12.6865 9.26825 12.6898 9.11336 12.6192 8.9868C12.5485 8.86024 12.4149 8.78181 12.2699 8.78181H11.0682C10.9281 8.78181 10.7982 8.8551 10.7258 8.97501L9.75926 10.5753L8.79737 8.97568C8.72504 8.85539 8.59494 8.78181 8.45458 8.78181H7.24719Z" fill="#60C871"/>
<path fill-rule="evenodd" clip-rule="evenodd" d="M3.775 7.33696C4.42585 5.91322 5.84744 5 7.41289 5H20.8866C23.0713 5 24.5234 7.26039 23.6151 9.24728L20.225 16.663C19.5742 18.0868 18.1526 19 16.5871 19H3.11336C0.9287 19 -0.523357 16.7396 0.384935 14.7527L3.775 7.33696ZM7.41289 7C6.63017 7 5.91937 7.45661 5.59395 8.16848L2.20388 15.5842C1.90112 16.2465 2.38514 17 3.11336 17H16.5871C17.3698 17 18.0806 16.5434 18.4061 15.8315L21.7961 8.41576C22.0989 7.75346 21.6149 7 20.8866 7H7.41289Z" fill="#1F6F31"/>
</svg>
