<svg width="20" height="20" viewBox="0 0 24 24" fill="none" xmlns="http://www.w3.org/2000/svg">
<path d="M19.807 11.7695L9.62403 22.7681C9.51612 22.8842 9.37368 22.9618 9.21821 22.9891C9.06273 23.0164 8.90266 22.992 8.76214 22.9196C8.62162 22.8472 8.50829 22.7306 8.43923 22.5876C8.37018 22.4445 8.34916 22.2827 8.37934 22.1265L9.71223 15.4055L4.47253 13.422C4.36 13.3796 4.25965 13.3097 4.18044 13.2187C4.10124 13.1276 4.04564 13.0182 4.01863 12.9001C3.99161 12.7821 3.99402 12.6592 4.02562 12.5423C4.05723 12.4255 4.11706 12.3184 4.19977 12.2305L14.3828 1.23188C14.4907 1.11579 14.6331 1.03822 14.7886 1.0109C14.9441 0.983571 15.1041 1.00796 15.2447 1.08039C15.3852 1.15283 15.4985 1.26936 15.5676 1.41243C15.6366 1.55549 15.6576 1.71731 15.6275 1.87347L14.2909 8.60188L19.5306 10.5826C19.6423 10.6253 19.7419 10.6951 19.8205 10.7858C19.8991 10.8765 19.9543 10.9853 19.9812 11.1026C20.0082 11.22 20.0061 11.3422 19.9751 11.4585C19.944 11.5748 19.8851 11.6816 19.8034 11.7695H19.807Z" fill="#F7B602"/>
</svg>
