<svg width="24" height="24" viewBox="0 0 24 24" fill="none" xmlns="http://www.w3.org/2000/svg">
<path d="M21.5 12C21.5 17.2467 17.2467 21.5 12 21.5C6.75329 21.5 2.5 17.2467 2.5 12C2.5 6.75329 6.75329 2.5 12 2.5C17.2467 2.5 21.5 6.75329 21.5 12Z" fill="#FFE37B"/>
<path fill-rule="evenodd" clip-rule="evenodd" d="M12 4.5C7.85786 4.5 4.5 7.85786 4.5 12C4.5 16.1421 7.85786 19.5 12 19.5C16.1421 19.5 19.5 16.1421 19.5 12C19.5 11.8771 19.4892 11.6708 19.4762 11.474C19.47 11.3802 19.4638 11.2956 19.4591 11.2345L19.4535 11.1628L19.452 11.144L19.4516 11.1384C19.4059 10.588 19.815 10.1046 20.3654 10.059C20.9158 10.0133 21.399 10.4225 21.4447 10.9729L21.4454 10.9813L21.4472 11.0032L21.4533 11.082C21.4584 11.1481 21.4651 11.2397 21.4719 11.3421C21.4848 11.5378 21.5 11.8037 21.5 12C21.5 17.2467 17.2467 21.5 12 21.5C6.75329 21.5 2.5 17.2467 2.5 12C2.5 6.75329 6.75329 2.5 12 2.5C12.356 2.5 12.7078 2.51963 13.0543 2.55793C13.6033 2.61861 13.9991 3.11281 13.9384 3.66175C13.8777 4.21069 13.3835 4.6065 12.8346 4.54582C12.5609 4.51557 12.2825 4.5 12 4.5ZM12.024 8.09194C12.1617 8.62679 11.8397 9.17198 11.3048 9.30964C10.1065 9.61806 9.22222 10.707 9.22222 12C9.22222 13.5341 10.4659 14.7777 12 14.7777C13.293 14.7777 14.3819 13.8934 14.6903 12.6951C14.828 12.1603 15.3732 11.8383 15.908 11.976C16.4429 12.1136 16.7649 12.6588 16.6272 13.1937C16.0969 15.2541 14.2276 16.7777 12 16.7777C9.36131 16.7777 7.22222 14.6387 7.22222 12C7.22222 9.77234 8.74582 7.90309 10.8063 7.37276C11.3412 7.2351 11.8863 7.55709 12.024 8.09194Z" fill="#FFBE1B"/>
<path fill-rule="evenodd" clip-rule="evenodd" d="M15.4339 8.29289C15.8245 8.68342 15.8245 9.31658 15.4339 9.70711L13.7071 11.4339C13.3166 11.8245 12.6834 11.8245 12.2929 11.4339C11.9024 11.0434 11.9024 10.4103 12.2929 10.0197L14.0197 8.29289C14.4103 7.90237 15.0434 7.90237 15.4339 8.29289Z" fill="#330D84"/>
<path fill-rule="evenodd" clip-rule="evenodd" d="M18.6533 2.04955C19.0114 2.16663 19.2732 2.47499 19.3308 2.84728L19.5766 4.43741L21.1665 4.68304C21.5388 4.74056 21.8472 5.00243 21.9643 5.3605C22.0814 5.71856 21.9873 6.11204 21.7209 6.37843L18.3818 9.71754C18.1943 9.90508 17.9399 10.0104 17.6747 10.0104H15.0034C14.4511 10.0104 14.0034 9.56272 14.0034 9.01043V6.33914C14.0034 6.07393 14.1088 5.81957 14.2963 5.63204L17.6354 2.29292C17.9018 2.02655 18.2953 1.93247 18.6533 2.04955ZM16.0034 6.75336V8.01043H17.2605L18.9124 6.35852L18.5475 6.30214C18.1166 6.23557 17.7785 5.8975 17.7119 5.46661L17.6554 5.10134L16.0034 6.75336Z" fill="#5D8EF9"/>
</svg>
