<svg width="40" height="40" viewBox="0 0 24 24" fill="none" xmlns="http://www.w3.org/2000/svg">
<path d="M20.2876 11.5538L20.2831 11.5546L21.6323 10.3896C21.7877 10.2554 21.9 10.0784 21.9553 9.8806C22.0105 9.68285 22.0061 9.4732 21.9427 9.27792C21.8793 9.08265 21.7597 8.91042 21.5989 8.78282C21.4382 8.6554 21.2436 8.57815 21.0393 8.5607C21.0391 8.56068 21.0388 8.56065 21.0385 8.56063L15.5092 8.11454L15.2041 8.08993L15.0872 7.80704L12.9544 2.64329L12.954 2.64224C12.8762 2.45257 12.7437 2.29032 12.5734 2.17613C12.4031 2.06195 12.2027 2.00098 11.9977 2.00098C11.7926 2.00098 11.5922 2.06195 11.4219 2.17613C11.2516 2.29032 11.1192 2.45257 11.0413 2.64224L11.0409 2.64336L8.9071 7.80711L8.79024 8.08993L8.48521 8.11454L2.95595 8.56063C2.75237 8.57887 2.55862 8.65652 2.39878 8.78395C2.23851 8.91173 2.11944 9.08388 2.05643 9.27893C1.99342 9.47397 1.98927 9.68325 2.0445 9.88064C2.09969 10.0779 2.21173 10.2545 2.36665 10.3885L20.2876 11.5538ZM20.2876 11.5538L17.4193 14.0289L17.1896 14.227L17.2593 14.5223L18.5446 19.9664L18.5451 19.9681C18.5929 20.1676 18.5806 20.3767 18.5096 20.5691C18.4387 20.7615 18.3123 20.9286 18.1465 21.0493C17.9806 21.1699 17.7827 21.2387 17.5778 21.2469C17.373 21.2551 17.1705 21.2025 16.9956 21.0957C16.9954 21.0957 16.9953 21.0956 16.9951 21.0955L12.2621 18.1825L12.0001 18.0213L11.738 18.1825L7.00313 21.0948C7.00284 21.095 7.00254 21.0952 7.00225 21.0954C6.82749 21.2013 6.62531 21.2533 6.42108 21.2448C6.21652 21.2363 6.01904 21.1674 5.85353 21.0469C5.68802 20.9264 5.56188 20.7596 5.49098 20.5675C5.42008 20.3754 5.4076 20.1666 5.45511 19.9675L5.45528 19.9668L6.74528 14.5227L6.81529 14.2272L6.5854 14.0289L2.36695 10.3888L20.2876 11.5538Z" fill="#FDC630" stroke="#FDD462"/>
</svg>
