<svg width="40" height="40" viewBox="0 0 40 40" fill="none" xmlns="http://www.w3.org/2000/svg">
<g id="Frame">
<path id="star" d="M34.9307 18.7321L34.9224 18.7335L36.2717 17.5684C36.5804 17.3019 36.8035 16.9502 36.9132 16.5575C37.0229 16.1647 37.0142 15.7483 36.8883 15.3604C36.7623 14.9725 36.5247 14.6305 36.2053 14.377C35.886 14.1238 35.4992 13.9703 35.0931 13.9358C35.0928 13.9358 35.0925 13.9357 35.0923 13.9357L25.8754 13.1921L25.5704 13.1675L25.4535 12.8846L21.8988 4.27837L21.8984 4.27733C21.7436 3.90003 21.48 3.57731 21.1413 3.35018L21.4189 2.93624L21.1413 3.35017C20.8026 3.12304 20.4039 3.00177 19.9961 3.00177C19.5883 3.00177 19.1897 3.12304 18.8509 3.35018C18.5122 3.57731 18.2487 3.90003 18.0938 4.27732L18.0934 4.27844L14.5371 12.8847L14.4203 13.1675L14.1152 13.1921L4.90011 13.9356C4.89954 13.9356 4.89896 13.9357 4.89839 13.9357C4.49347 13.9717 4.10807 14.126 3.7902 14.3794C3.47187 14.6332 3.23536 14.9752 3.11021 15.3626C2.98506 15.75 2.97682 16.1656 3.08651 16.5577C3.19616 16.9496 3.41881 17.3006 3.72667 17.5668L34.9307 18.7321ZM34.9307 18.7321L29.2499 23.6339L29.0203 23.8321L29.09 24.1274L31.2321 33.2008L31.2326 33.2026C31.3277 33.599 31.3032 34.0148 31.1622 34.3973C31.0211 34.7799 30.7699 35.112 30.4402 35.3518C30.1105 35.5916 29.7171 35.7283 29.3097 35.7447C28.9023 35.761 28.4993 35.6563 28.1514 35.4437L20.2621 30.5882L20.0001 30.427L19.7381 30.5882L11.845 35.443C11.8446 35.4433 11.8442 35.4435 11.8438 35.4438C11.4963 35.6547 11.0941 35.7582 10.6879 35.7412C10.2813 35.7243 9.88871 35.5874 9.55968 35.3478C9.23066 35.1082 8.97989 34.7766 8.83894 34.3947C8.698 34.0129 8.67319 33.5979 8.76763 33.2019L8.7678 33.2012L10.9178 24.1278L10.9878 23.8323L10.7579 23.6339L3.72697 17.567L34.9307 18.7321Z" fill="#FDC630" stroke="#FDD462"/>
</g>
</svg>
