<svg width="24" height="24" viewBox="0 0 24 24" fill="none" xmlns="http://www.w3.org/2000/svg">
<path fill-rule="evenodd" clip-rule="evenodd" d="M12 1C12.5523 1 13 1.44772 13 2V4C13 4.55228 12.5523 5 12 5C11.4477 5 11 4.55228 11 4V2C11 1.44772 11.4477 1 12 1ZM18 12C18 15.3137 15.3137 18 12 18C8.68629 18 6 15.3137 6 12C6 8.68629 8.68629 6 12 6C15.3137 6 18 8.68629 18 12ZM13 20C13 19.4477 12.5523 19 12 19C11.4477 19 11 19.4477 11 20V22C11 22.5523 11.4477 23 12 23C12.5523 23 13 22.5523 13 22V20ZM1 12C1 11.4477 1.44772 11 2 11H4C4.55228 11 5 11.4477 5 12C5 12.5523 4.55228 13 4 13H2C1.44772 13 1 12.5523 1 12ZM20 11C19.4477 11 19 11.4477 19 12C19 12.5523 19.4477 13 20 13H22C22.5523 13 23 12.5523 23 12C23 11.4477 22.5523 11 22 11H20ZM4.29292 4.29289C4.68345 3.90237 5.31661 3.90237 5.70714 4.29289L7.12135 5.70711C7.51187 6.09763 7.51187 6.7308 7.12135 7.12132C6.73082 7.51184 6.09766 7.51184 5.70714 7.12132L4.29292 5.70711C3.9024 5.31658 3.9024 4.68342 4.29292 4.29289ZM18.7071 17.2929C18.3166 16.9024 17.6834 16.9024 17.2929 17.2929C16.9024 17.6834 16.9024 18.3166 17.2929 18.7071L18.7071 20.1213C19.0977 20.5118 19.7308 20.5118 20.1213 20.1213C20.5119 19.7308 20.5119 19.0976 20.1213 18.7071L18.7071 17.2929ZM20.1213 4.29289C19.7307 3.90237 19.0976 3.90237 18.707 4.29289L17.2928 5.70711C16.9023 6.09763 16.9023 6.7308 17.2928 7.12132C17.6834 7.51184 18.3165 7.51184 18.707 7.12132L20.1213 5.70711C20.5118 5.31658 20.5118 4.68342 20.1213 4.29289ZM5.4142 17.2929C5.80473 16.9024 6.43789 16.9024 6.82842 17.2929C7.21894 17.6834 7.21894 18.3166 6.82842 18.7071L5.4142 20.1213C5.02368 20.5118 4.39051 20.5118 3.99999 20.1213C3.60946 19.7308 3.60946 19.0976 3.99999 18.7071L5.4142 17.2929Z" fill="#F7B602"/>
</svg>
