<svg width="24" height="24" viewBox="0 0 24 24" fill="none" xmlns="http://www.w3.org/2000/svg">
<path d="M12.5 4H17.0316C17.3284 4 17.6099 4.13182 17.7998 4.35982L18.784 5.54084L19.7682 6.72187C19.918 6.90158 20 7.12811 20 7.36205V15C20 15.5523 19.5523 16 19 16H12.5C11.9477 16 11.5 15.5523 11.5 15V5C11.5 4.44772 11.9477 4 12.5 4Z" fill="currentColor" stroke="currentColor" stroke-width="2" stroke-miterlimit="1.30541" stroke-linecap="round" stroke-linejoin="round"/>
<path fill-rule="evenodd" clip-rule="evenodd" d="M5 7C3.89543 7 3 7.89543 3 9L3 19C3 20.1046 3.89543 21 5 21H11.5C12.6046 21 13.5 20.1046 13.5 19V18.5H11.5V19H5L5 9L9 9V7L5 7Z" fill="currentColor"/>
</svg>
