<svg width="24" height="24" viewBox="0 0 24 24" fill="none" xmlns="http://www.w3.org/2000/svg">
<path fill-rule="evenodd" clip-rule="evenodd" d="M3 9C3 7.89543 3.89543 7 5 7H9V9H5L5 19H11.5V18.5H13.5V19C13.5 20.1046 12.6046 21 11.5 21L5 21C3.89543 21 3 20.1046 3 19V9ZM12.5 3C11.3954 3 10.5 3.89543 10.5 5L10.5 15C10.5 16.1046 11.3954 17 12.5 17H19C20.1046 17 21 16.1046 21 15V7.36205C21 6.89418 20.836 6.44111 20.5364 6.08168L19.5523 4.90066L18.5681 3.71963C18.1881 3.26365 17.6252 3 17.0316 3H12.5ZM12.5 5H17.0316L19 7.36205V15H12.5L12.5 5Z" fill="#333435"/>
</svg>
