<svg width="24" height="25" viewBox="0 0 24 25" fill="none" xmlns="http://www.w3.org/2000/svg">
<g id="bi:earbuds">
<path id="Vector" fill-rule="evenodd" clip-rule="evenodd" d="M10.6788 7.59318C11.3492 10.0017 10.2738 11.635 7.99132 12.2245C7.24955 12.4204 6.4724 12.4412 5.72121 12.2853C5.66722 12.274 6.73365 15.4103 7.43335 17.4712L7.89457 18.8267C7.91868 18.9009 7.9277 18.9792 7.9211 19.0569C7.9145 19.1347 7.89242 19.2103 7.85615 19.2794C7.81988 19.3485 7.77016 19.4096 7.70992 19.4592C7.64967 19.5087 7.58012 19.5458 7.50535 19.568L6.83827 19.7818C6.68457 19.8321 6.51726 19.8203 6.37218 19.7488C6.2271 19.6773 6.11578 19.5519 6.06207 19.3993L3.20812 10.8015C2.42517 8.3975 3.95283 5.95416 6.09244 5.40182C8.37492 4.81348 9.92057 5.40182 10.6788 7.59318ZM9.70233 10.0916C10.1861 9.96565 10.3334 8.97459 10.0308 7.87666C9.72821 6.77986 9.09037 5.99241 8.60665 6.1184C8.12293 6.24439 7.97557 7.23658 8.27817 8.33338C8.58078 9.43019 9.21862 10.2176 9.70233 10.0916ZM13.3224 7.59318C12.6519 10.0017 13.7273 11.635 16.0098 12.2245C16.7516 12.4204 17.5287 12.4412 18.2799 12.2853C18.3339 12.274 17.2675 15.4103 16.5678 17.4712L16.1066 18.8267C16.0824 18.9009 16.0734 18.9792 16.08 19.0569C16.0866 19.1347 16.1087 19.2103 16.145 19.2794C16.1812 19.3485 16.231 19.4096 16.2912 19.4592C16.3515 19.5087 16.421 19.5458 16.4958 19.568L17.1629 19.7818C17.488 19.8853 17.8378 19.7143 17.9391 19.3993L20.7919 10.8015C21.5748 8.3975 20.0472 5.95416 17.9076 5.40182C15.6251 4.81348 14.0806 5.40182 13.3224 7.59318ZM14.2988 10.0916C13.8151 9.96565 13.6677 8.97459 13.9703 7.87666C14.2729 6.77986 14.9108 5.99241 15.3945 6.1184C15.8782 6.24439 16.0256 7.23658 15.723 8.33338C15.4203 9.43019 14.7825 10.2176 14.2988 10.0916Z" fill="grey"/>
</g>
</svg>
