<svg width="24" height="24" viewBox="0 0 24 24" fill="none" xmlns="http://www.w3.org/2000/svg">
<path d="M8.91403 8.6517C8.79873 9.95397 8.19371 10.9654 7.56268 10.9109C6.93166 10.8563 6.51358 9.75642 6.62889 8.45415C6.74419 7.15188 7.34921 6.14041 7.98024 6.19496C8.61126 6.24951 9.02934 7.34943 8.91403 8.6517Z" fill="#F7F9FC" fill-opacity="0.3"/>
<path fill-rule="evenodd" clip-rule="evenodd" d="M7.17583 18.508L4.70297 12.1776C4.78291 12.2117 4.86362 12.245 4.94495 12.2771C5.7264 12.586 6.71726 12.8545 7.67413 12.6969C8.17584 12.6143 8.67666 12.4126 9.11001 12.0379C9.54121 11.6651 9.84763 11.1713 10.0432 10.5916C10.6063 8.92222 10.6774 7.32506 10.0957 6.07079C9.47403 4.73011 8.20682 4 6.66122 4C4.64407 4 3.2876 4.92226 2.48646 6.14738C1.72779 7.30757 1.5 8.67644 1.5 9.66656C1.5 9.78837 1.51987 9.90939 1.55886 10.0249L4.99967 19.2248C5.19998 19.8186 5.84951 20.1395 6.45044 19.9415C7.05137 19.7436 7.37614 19.1018 7.17583 18.508ZM7.56268 10.9109C8.19371 10.9654 8.79873 9.95397 8.91403 8.6517C9.02934 7.34943 8.61126 6.24951 7.98024 6.19496C7.34921 6.14041 6.74419 7.15188 6.62889 8.45415C6.51358 9.75642 6.93166 10.8563 7.56268 10.9109Z" fill="#333435"/>
<path d="M15.086 8.6517C15.2013 9.95397 15.8063 10.9654 16.4373 10.9109C17.0683 10.8563 17.4864 9.75642 17.3711 8.45415C17.2558 7.15188 16.6508 6.14041 16.0198 6.19496C15.3887 6.24951 14.9707 7.34943 15.086 8.6517Z" fill="#F7F9FC" fill-opacity="0.3"/>
<path fill-rule="evenodd" clip-rule="evenodd" d="M16.8242 18.508L19.297 12.1776C19.2171 12.2117 19.1364 12.245 19.055 12.2771C18.2736 12.586 17.2827 12.8545 16.3259 12.6969C15.8242 12.6143 15.3233 12.4126 14.89 12.0379C14.4588 11.6651 14.1524 11.1713 13.9568 10.5916C13.3937 8.92222 13.3226 7.32506 13.9043 6.07079C14.526 4.73011 15.7932 4 17.3388 4C19.3559 4 20.7124 4.92226 21.5135 6.14738C22.2722 7.30757 22.5 8.67644 22.5 9.66656C22.5 9.78837 22.4801 9.90939 22.4411 10.0249L19.0003 19.2248C18.8 19.8186 18.1505 20.1395 17.5496 19.9415C16.9486 19.7436 16.6239 19.1018 16.8242 18.508ZM16.4373 10.9109C15.8063 10.9654 15.2013 9.95397 15.086 8.6517C14.9707 7.34943 15.3887 6.24951 16.0198 6.19496C16.6508 6.14041 17.2558 7.15188 17.3711 8.45415C17.4864 9.75642 17.0683 10.8563 16.4373 10.9109Z" fill="#333435"/>
</svg>
