<svg width="24" height="24" viewBox="0 0 24 24" fill="none" xmlns="http://www.w3.org/2000/svg">
<path fill-rule="evenodd" clip-rule="evenodd" d="M18.7958 8.86L15.14 5.20421L14.0192 6.325L17.675 9.98082L18.7958 8.86ZM11.8979 5.61788L11.8977 5.61811L4.44139 13.0744C4.15877 13.357 4 13.7403 4 14.14V18.493C4 19.3253 4.67471 20 5.507 20L9.86 20C10.2597 20 10.643 19.8412 10.9256 19.5586L18.3746 12.1096L18.3821 12.1022L18.3895 12.0947L20.5586 9.92561C21.1471 9.33709 21.1471 8.3829 20.5586 7.79439L16.2056 3.44139C15.6171 2.85287 14.6629 2.85287 14.0744 3.44139L11.8981 5.61767L11.8979 5.61788Z" fill="currentColor"/>
</svg>
