<svg width="24" height="24" viewBox="0 0 24 24" fill="none" xmlns="http://www.w3.org/2000/svg">
<path fill-rule="evenodd" clip-rule="evenodd" d="M12 21C16.9706 21 21 16.9706 21 12C21 7.02944 16.9706 3 12 3C7.02944 3 3 7.02944 3 12C3 16.9706 7.02944 21 12 21ZM14.8511 16.3241C15.1268 16.7377 15.6856 16.8494 16.0991 16.5737C16.5127 16.298 16.6245 15.7392 16.3488 15.3257C14.1925 12.0913 9.80731 12.0913 7.65107 15.3257C7.37535 15.7392 7.48711 16.298 7.90069 16.5737C8.31426 16.8494 8.87304 16.7377 9.14876 16.3241C10.5925 14.1585 13.4073 14.1585 14.8511 16.3241ZM10.2 9.75C10.2 10.4956 9.5956 11.1 8.85001 11.1C8.10443 11.1 7.50001 10.4956 7.50001 9.75C7.50001 9.00442 8.10443 8.4 8.85001 8.4C9.5956 8.4 10.2 9.00442 10.2 9.75ZM15.15 11.1C15.8956 11.1 16.5 10.4956 16.5 9.74998C16.5 9.00439 15.8956 8.39998 15.15 8.39998C14.4044 8.39998 13.8 9.00439 13.8 9.74998C13.8 10.4956 14.4044 11.1 15.15 11.1Z" fill="#333435"/>
</svg>
