<svg width="24" height="24" viewBox="0 0 24 24" fill="none" xmlns="http://www.w3.org/2000/svg">
<path fill-rule="evenodd" clip-rule="evenodd" d="M12 21C16.9706 21 21 16.9706 21 12C21 7.02944 16.9706 3 12 3C7.02944 3 3 7.02944 3 12C3 16.9706 7.02944 21 12 21ZM9.14884 13.3007C8.87313 12.8872 8.31434 12.7754 7.90077 13.0511C7.48719 13.3268 7.37544 13.8856 7.65115 14.2992C9.80739 17.5336 14.1926 17.5336 16.3488 14.2992C16.6246 13.8856 16.5128 13.3268 16.0992 13.0511C15.6857 12.7754 15.1269 12.8872 14.8512 13.3007C13.4074 15.4664 10.5926 15.4664 9.14884 13.3007ZM10.2 9.75C10.2 10.4956 9.5956 11.1 8.85001 11.1C8.10443 11.1 7.50001 10.4956 7.50001 9.75C7.50001 9.00442 8.10443 8.4 8.85001 8.4C9.5956 8.4 10.2 9.00442 10.2 9.75ZM15.15 11.1C15.8956 11.1 16.5 10.4956 16.5 9.74998C16.5 9.00439 15.8956 8.39998 15.15 8.39998C14.4044 8.39998 13.8 9.00439 13.8 9.74998C13.8 10.4956 14.4044 11.1 15.15 11.1Z" fill="#333435"/>
</svg>
