<svg width="24" height="24" viewBox="0 0 24 24" fill="none" xmlns="http://www.w3.org/2000/svg">
<path fill-rule="evenodd" clip-rule="evenodd" d="M5 11L19 11L19 19H5L5 11ZM3 11C3 9.89543 3.89543 9 5 9L19 9C20.1046 9 21 9.89543 21 11V19C21 20.1046 20.1046 21 19 21L5 21C3.89543 21 3 20.1046 3 19V11ZM7 3C6.44771 3 6 3.44772 6 4C6 4.55228 6.44771 5 7 5H17C17.5523 5 18 4.55228 18 4C18 3.44772 17.5523 3 17 3H7ZM5.5 6C4.94772 6 4.5 6.44772 4.5 7C4.5 7.55228 4.94772 8 5.5 8L18.5 8C19.0523 8 19.5 7.55228 19.5 7C19.5 6.44771 19.0523 6 18.5 6L5.5 6Z" fill="currentColor"/>
</svg>
