<svg width="24" height="24" viewBox="0 0 24 24" fill="none" xmlns="http://www.w3.org/2000/svg">
<path fill-rule="evenodd" clip-rule="evenodd" d="M5 9C3.89543 9 3 9.89543 3 11V19C3 20.1046 3.89543 21 5 21L19 21C20.1046 21 21 20.1046 21 19V11C21 9.89543 20.1046 9 19 9L5 9ZM6 4C6 3.44772 6.44771 3 7 3H17C17.5523 3 18 3.44772 18 4C18 4.55228 17.5523 5 17 5H7C6.44771 5 6 4.55228 6 4ZM4.5 7C4.5 6.44772 4.94772 6 5.5 6L18.5 6C19.0523 6 19.5 6.44771 19.5 7C19.5 7.55228 19.0523 8 18.5 8L5.5 8C4.94772 8 4.5 7.55228 4.5 7Z" fill="#333435"/>
</svg>
