<svg width="24" height="24" viewBox="0 0 24 24" fill="none" xmlns="http://www.w3.org/2000/svg">
<path fill-rule="evenodd" clip-rule="evenodd" d="M20 12C20 16.4183 16.4183 20 12 20C7.58172 20 4 16.4183 4 12C4 7.58172 7.58172 4 12 4C16.4183 4 20 7.58172 20 12ZM12.0052 15.6994C11.7486 15.6994 11.5509 15.6266 11.4121 15.4809C11.2803 15.3283 11.2144 15.1167 11.2144 14.8462V11.2878C11.2144 11.0104 11.2803 10.7988 11.4121 10.6532C11.5509 10.5006 11.7486 10.4243 12.0052 10.4243C12.2549 10.4243 12.4457 10.5006 12.5775 10.6532C12.7162 10.7988 12.7855 11.0104 12.7855 11.2878V14.8462C12.7855 15.1167 12.7196 15.3283 12.5879 15.4809C12.4561 15.6266 12.2618 15.6994 12.0052 15.6994ZM11.985 9.77001C12.4186 9.77001 12.77 9.41856 12.77 8.98501C12.77 8.55147 12.4186 8.20001 11.985 8.20001C11.5515 8.20001 11.2 8.55147 11.2 8.98501C11.2 9.41856 11.5515 9.77001 11.985 9.77001Z" fill="#333435"/>
</svg>
