<svg width="24" height="24" viewBox="0 0 24 24" fill="none" xmlns="http://www.w3.org/2000/svg">
<path fill-rule="evenodd" clip-rule="evenodd" d="M12 18C15.3137 18 18 15.3137 18 12C18 8.68629 15.3137 6 12 6C8.68629 6 6 8.68629 6 12C6 15.3137 8.68629 18 12 18ZM12 20C16.4183 20 20 16.4183 20 12C20 7.58172 16.4183 4 12 4C7.58172 4 4 7.58172 4 12C4 16.4183 7.58172 20 12 20Z" fill="currentColor"/>
<path d="M12.0052 15.699C11.7486 15.699 11.5509 15.6261 11.4121 15.4805C11.2803 15.3279 11.2144 15.1163 11.2144 14.8458V11.2874C11.2144 11.01 11.2803 10.7984 11.4121 10.6527C11.5509 10.5001 11.7486 10.4238 12.0052 10.4238C12.2549 10.4238 12.4457 10.5001 12.5775 10.6527C12.7162 10.7984 12.7855 11.01 12.7855 11.2874V14.8458C12.7855 15.1163 12.7196 15.3279 12.5879 15.4805C12.4561 15.6261 12.2618 15.699 12.0052 15.699Z" fill="currentColor"/>
<circle cx="11.985" cy="8.9852" r="0.785" fill="currentColor"/>
</svg>
