<svg width="24" height="24" viewBox="0 0 24 24" fill="none" xmlns="http://www.w3.org/2000/svg">
<path fill-rule="evenodd" clip-rule="evenodd" d="M9.71223 15.4055L8.37934 22.1265C8.34916 22.2827 8.37018 22.4445 8.43924 22.5876C8.50829 22.7306 8.62162 22.8472 8.76214 22.9196C8.90266 22.992 9.06273 23.0164 9.21821 22.9891C9.37368 22.9618 9.51612 22.8842 9.62403 22.7681L19.807 11.7695H19.8034C19.804 11.7689 19.8045 11.7683 19.8051 11.7677C19.8057 11.767 19.8064 11.7663 19.807 11.7655C19.8868 11.6784 19.9445 11.5731 19.9751 11.4585C20.0061 11.3422 20.0082 11.22 19.9812 11.1026C19.9543 10.9853 19.8991 10.8765 19.8205 10.7858C19.8161 10.7807 19.8116 10.7757 19.807 10.7707C19.8058 10.7694 19.8046 10.7681 19.8034 10.7668C19.7277 10.6853 19.6344 10.6222 19.5306 10.5826L14.2909 8.60188L15.6275 1.87347C15.6576 1.71731 15.6366 1.55549 15.5676 1.41243C15.4985 1.26936 15.3852 1.15283 15.2447 1.08039C15.1041 1.00796 14.9441 0.983571 14.7886 1.0109C14.6331 1.03822 14.4907 1.11579 14.3828 1.23188L4.19977 12.2305C4.11706 12.3184 4.05723 12.4255 4.02562 12.5424C3.99402 12.6592 3.99161 12.7821 4.01863 12.9001C4.04564 13.0182 4.10124 13.1276 4.18044 13.2187C4.25965 13.3097 4.36 13.3796 4.47253 13.422L9.71223 15.4055ZM12.7891 5.89703L6.93802 12.2168L10.4203 13.535C11.334 13.8808 11.8641 14.8362 11.674 15.7945L11.2158 18.1049L17.0641 11.7883L13.5838 10.4727C12.6694 10.127 12.1388 9.17103 12.3293 8.21222L12.7891 5.89703Z" fill="#333435"/>
</svg>
