<svg width="20" height="20" viewBox="0 0 20 20" fill="none" xmlns="http://www.w3.org/2000/svg">
<g clip-path="url(#clip0_534_4393)">
<path d="M7.50162 5.83333C7.51171 4.02081 7.59208 3.03922 8.2324 2.3989C8.96464 1.66667 10.1431 1.66667 12.5002 1.66667L13.3335 1.66667C15.6905 1.66667 16.869 1.66667 17.6013 2.3989C18.3335 3.13113 18.3335 4.30964 18.3335 6.66667L18.3335 13.3333C18.3335 15.6904 18.3335 16.8689 17.6013 17.6011C16.869 18.3333 15.6905 18.3333 13.3335 18.3333L12.5002 18.3333C10.1431 18.3333 8.96464 18.3333 8.2324 17.6011C7.59208 16.9608 7.51171 15.9792 7.50162 14.1667" stroke="#E54941" stroke-width="1.5" stroke-linecap="round"/>
<path d="M12.5 10L1.66667 10M1.66667 10L4.58333 7.5M1.66667 10L4.58333 12.5" stroke="#E54941" stroke-width="1.5" stroke-linecap="round" stroke-linejoin="round"/>
</g>
<defs>
<clipPath id="clip0_534_4393">
<rect width="20" height="20" rx="5" fill="white"/>
</clipPath>
</defs>
</svg>
