<svg width="24" height="24" viewBox="0 0 24 24" fill="none" xmlns="http://www.w3.org/2000/svg">
<path fill-rule="evenodd" clip-rule="evenodd" d="M12.5 22C17.7467 22 22 17.7467 22 12.5C22 7.25329 17.7467 3 12.5 3C7.25329 3 3 7.25329 3 12.5C3 17.7467 7.25329 22 12.5 22ZM12.5 17.2494C8.225 17.2494 7.275 13.9244 8.225 13.4494C9.175 12.9744 15.825 12.9744 16.775 13.4494C17.725 13.9244 16.775 17.2494 12.5 17.2494ZM17.25 10.2991C17.25 11.1827 16.7496 11.8989 16.1324 11.8989C15.5151 11.8989 15.0147 11.1827 15.0147 10.2991C15.0147 9.41561 15.5151 8.69936 16.1324 8.69936C16.7496 8.69936 17.25 9.41561 17.25 10.2991ZM9.9853 10.2991C9.9853 11.1827 9.48491 11.8989 8.86765 11.8989C8.25039 11.8989 7.75 11.1827 7.75 10.2991C7.75 9.41561 8.25039 8.69936 8.86765 8.69936C9.48491 8.69936 9.9853 9.41561 9.9853 10.2991Z" fill="#BCBEC0"/>
</svg>
