<svg width="24" height="24" viewBox="0 0 24 24" fill="none" xmlns="http://www.w3.org/2000/svg">
<path fill-rule="evenodd" clip-rule="evenodd" d="M13.1761 3.18667C12.4059 2.97814 11.5941 2.97814 10.8239 3.18667C9.94799 3.42384 9.17941 4.02224 8.06433 4.8904L5.47544 6.90402C4.75155 7.46666 4.25076 7.85589 3.88211 8.35433C3.55662 8.7944 3.31415 9.29016 3.16661 9.81726C2.9995 10.4143 2.99972 11.0485 3.00003 11.9654L3.00005 14.348C3.00004 15.3234 3.00004 16.1102 3.05209 16.7473C3.10568 17.4032 3.21891 17.9794 3.49052 18.5124C3.92195 19.3592 4.61036 20.0476 5.45708 20.479C5.99014 20.7506 6.56631 20.8638 7.22227 20.9174C7.85933 20.9695 8.64602 20.9695 9.62137 20.9695H14.3785C15.3539 20.9695 16.1407 20.9695 16.7777 20.9174C17.4337 20.8638 18.0099 20.7506 18.5429 20.479C19.3896 20.0476 20.0781 19.3592 20.5095 18.5124C20.7811 17.9794 20.8943 17.4032 20.9479 16.7473C21 16.1102 21 15.3235 20.9999 14.3481L21 11.9654C21.0003 11.0485 21.0005 10.4143 20.8334 9.81726C20.6858 9.29016 20.4434 8.7944 20.1179 8.35433C19.7492 7.8559 19.2485 7.46667 18.5246 6.90404L15.9357 4.8904C14.8206 4.02224 14.052 3.42384 13.1761 3.18667ZM9.29996 15.5696C8.80291 15.5696 8.39997 15.9725 8.39997 16.4695C8.39997 16.9666 8.80291 17.3695 9.29996 17.3695H14.6999C15.197 17.3695 15.5999 16.9666 15.5999 16.4695C15.5999 15.9725 15.197 15.5696 14.6999 15.5696H9.29996Z" fill="#F7B602"/>
</svg>
