<svg width="24" height="24" viewBox="0 0 24 24" fill="none" xmlns="http://www.w3.org/2000/svg">
<path d="M22.9942 12.4814C22.9942 13.1494 22.4213 13.6727 21.7719 13.6727H20.5496L20.5763 19.6176C20.5763 19.7178 20.5687 19.818 20.5572 19.9182V20.5156C20.5572 21.3357 19.8735 22 19.0293 22H18.4181C18.3761 22 18.3341 22 18.2921 21.9963C18.2386 22 18.1851 22 18.1317 22H16.8902H15.9735C15.1293 22 14.4456 21.3357 14.4456 20.5156V19.625V17.25C14.4456 16.5932 13.8994 16.0625 13.2233 16.0625H10.7786C10.1025 16.0625 9.55628 16.5932 9.55628 17.25V19.625V20.5156C9.55628 21.3357 8.87255 22 8.02838 22H7.11163H5.89313C5.83583 22 5.77853 21.9963 5.72124 21.9926C5.6754 21.9963 5.62956 22 5.58372 22H4.97256C4.12839 22 3.44465 21.3357 3.44465 20.5156V16.3594C3.44465 16.326 3.44465 16.2889 3.44847 16.2555V13.6727H2.22233C1.53477 13.6727 1 13.1531 1 12.4814C1 12.1475 1.11459 11.8506 1.38198 11.5908L11.1759 3.29688C11.4432 3.03711 11.7488 3 12.0162 3C12.2836 3 12.5892 3.07422 12.8184 3.25977L22.5741 11.5908C22.8796 11.8506 23.0324 12.1475 22.9942 12.4814Z" fill="#F7B602"/>
</svg>
