<svg width="24" height="24" viewBox="0 0 24 24" fill="none" xmlns="http://www.w3.org/2000/svg">
<path d="M14.8132 2.16118V4.8059C14.8132 5.16955 14.5179 5.46708 14.157 5.46708C13.7961 5.46708 13.5008 5.16955 13.5008 4.8059V2.16118C13.5008 1.79753 13.7961 1.5 14.157 1.5C14.5179 1.5 14.8132 1.79753 14.8132 2.16118ZM10.7654 2.45458L12.0777 4.43812C12.2787 4.74391 12.1967 5.15302 11.8973 5.35551C11.5979 5.55799 11.1878 5.47534 10.9868 5.17368L9.67445 3.19014C9.47349 2.88435 9.55552 2.47524 9.8549 2.27275C10.1543 2.07027 10.5644 2.15292 10.7654 2.45458ZM6.56987 6.41753C6.95538 6.02908 7.57876 6.02908 7.96016 6.41753L13.0374 11.5293C13.4516 11.9466 14.157 11.6491 14.157 11.0623V9.43416C14.157 8.70273 14.7435 8.1118 15.4694 8.1118C16.1953 8.1118 16.7818 8.70273 16.7818 9.43416V15.7815C16.7818 18.1411 15.5514 20.3271 13.5459 21.542C10.9212 23.1288 7.56645 22.7115 5.40514 20.5337L1.32038 16.4179C0.934873 16.0294 0.934873 15.4013 1.32038 15.017C1.70589 14.6327 2.32927 14.6286 2.71068 15.017L4.88429 17.2072C5.13446 17.4592 5.54048 17.4592 5.79065 17.2072C6.04082 16.9551 6.04082 16.546 5.79065 16.2939L1.97657 12.4508C1.59106 12.0623 1.59106 11.4342 1.97657 11.0499C2.36208 10.6656 2.98545 10.6615 3.36686 11.0499L7.18094 14.893C7.43111 15.1451 7.83713 15.1451 8.0873 14.893C8.33747 14.641 8.33747 14.2318 8.0873 13.9798L3.28894 9.14489C2.90343 8.75645 2.90343 8.12833 3.28894 7.74402C3.67445 7.35971 4.29783 7.35557 4.67923 7.74402L9.47759 12.5789C9.72776 12.831 10.1338 12.831 10.384 12.5789C10.6341 12.3268 10.6341 11.9177 10.384 11.6656L6.56987 7.82253C6.18436 7.43409 6.18436 6.80597 6.56987 6.42166V6.41753ZM18.7954 21.5379C17.803 22.1371 16.7079 22.4511 15.6088 22.4925C17.5815 20.856 18.7503 18.4014 18.7503 15.7815V11.7276C19.0866 11.7235 19.4065 11.4632 19.4065 11.0664V9.43416C19.4065 8.70273 19.993 8.1118 20.7189 8.1118C21.4448 8.1118 22.0312 8.70273 22.0312 9.43416V15.7815C22.0312 18.1411 20.8009 20.3271 18.7954 21.542V21.5379ZM18.4591 2.27275C18.7626 2.47524 18.8405 2.88435 18.6396 3.19014L17.3272 5.17368C17.1263 5.47948 16.7202 5.55799 16.4168 5.35551C16.1133 5.15302 16.0354 4.74391 16.2363 4.43812L17.5487 2.45458C17.7496 2.14878 18.1557 2.07027 18.4591 2.27275Z" fill="#BCBEC0"/>
</svg>
