<svg width="24" height="24" viewBox="0 0 24 24" fill="none" xmlns="http://www.w3.org/2000/svg">
<path d="M10.0714 5.82143C10.0714 4.81585 10.8873 4 11.8929 4H13.1071C14.1127 4 14.9286 4.81585 14.9286 5.82143V19.1786C14.9286 20.1842 14.1127 21 13.1071 21H11.8929C10.8873 21 10.0714 20.1842 10.0714 19.1786V5.82143ZM4 13.1071C4 12.1016 4.81585 11.2857 5.82143 11.2857H7.03571C8.04129 11.2857 8.85714 12.1016 8.85714 13.1071V19.1786C8.85714 20.1842 8.04129 21 7.03571 21H5.82143C4.81585 21 4 20.1842 4 19.1786V13.1071ZM17.9643 6.42857H19.1786C20.1842 6.42857 21 7.24442 21 8.25V19.1786C21 20.1842 20.1842 21 19.1786 21H17.9643C16.9587 21 16.1429 20.1842 16.1429 19.1786V8.25C16.1429 7.24442 16.9587 6.42857 17.9643 6.42857Z" fill="#BCBEC0"/>
</svg>
