<svg width="24" height="24" viewBox="0 0 24 24" fill="none" xmlns="http://www.w3.org/2000/svg">
<path d="M14.8125 17.1765V17.1765C14.8125 18.7298 13.5533 20 12 20V20C10.4467 20 9.1875 18.7298 9.1875 17.1765V17.1765M6.375 9.625V12.9413C6.375 13.2507 6.3032 13.5559 6.16525 13.8329L4.57201 17.0319C4.5389 17.0984 4.58725 17.1765 4.66152 17.1765H19.3385C19.4127 17.1765 19.4611 17.0984 19.428 17.0319L17.8347 13.8329C17.6968 13.5559 17.625 13.2507 17.625 12.9413V9.625C17.625 6.5184 15.1066 4 12 4V4C8.8934 4 6.375 6.5184 6.375 9.625Z" stroke="currentColor" stroke-width="2" stroke-linejoin="round"/>
</svg>
