<svg width="24" height="24" viewBox="0 0 24 24" fill="none" xmlns="http://www.w3.org/2000/svg">
<path fill-rule="evenodd" clip-rule="evenodd" d="M12 3C8.3411 3 5.37499 5.96612 5.37499 9.625V12.9413C5.37499 13.096 5.33909 13.2486 5.27011 13.3871L3.67687 16.5861C3.31265 17.3174 3.84454 18.1765 4.66151 18.1765H8.3199C8.75848 19.7972 10.2365 21 12 21C13.7634 21 15.2415 19.7972 15.6801 18.1765H19.3385C20.1554 18.1765 20.6873 17.3174 20.3231 16.5861L18.7299 13.3871C18.6609 13.2486 18.625 13.096 18.625 12.9413V9.625C18.625 5.96611 15.6589 3 12 3ZM12 19C11.3694 19 10.8107 18.6723 10.4857 18.1765H13.5143C13.1893 18.6723 12.6306 19 12 19Z" fill="#333435"/>
</svg>
