<svg width="18" height="18" viewBox="0 0 18 18" fill="none" xmlns="http://www.w3.org/2000/svg">
<g clip-path="url(#clip0_1150_690)">
<path d="M5.0625 2.80401V15.1959C5.06434 15.2948 5.09221 15.3914 5.14332 15.4761C5.19443 15.5608 5.26695 15.6305 5.35359 15.6782C5.44023 15.7259 5.53791 15.7499 5.63679 15.7478C5.73567 15.7457 5.83225 15.7176 5.9168 15.6663L16.0474 9.47033C16.1283 9.42136 16.1953 9.35233 16.2417 9.26993C16.2882 9.18752 16.3126 9.09453 16.3126 8.99994C16.3126 8.90535 16.2882 8.81236 16.2417 8.72996C16.1953 8.64756 16.1283 8.57853 16.0474 8.52955L5.9168 2.33362C5.83225 2.28229 5.73567 2.25417 5.63679 2.25208C5.53791 2.24999 5.44023 2.27401 5.35359 2.32171C5.26695 2.36941 5.19443 2.43912 5.14332 2.52379C5.09221 2.60847 5.06434 2.70512 5.0625 2.80401Z" fill="currentColor"/>
<path d="M5.0625 2.80401V15.1959C5.06434 15.2948 5.09221 15.3914 5.14332 15.4761C5.19443 15.5608 5.26695 15.6305 5.35359 15.6782C5.44023 15.7259 5.53791 15.7499 5.63679 15.7478C5.73567 15.7457 5.83225 15.7176 5.9168 15.6663L16.0474 9.47033C16.1283 9.42136 16.1953 9.35233 16.2417 9.26993C16.2882 9.18752 16.3126 9.09453 16.3126 8.99994C16.3126 8.90535 16.2882 8.81236 16.2417 8.72996C16.1953 8.64756 16.1283 8.57853 16.0474 8.52955L5.9168 2.33362C5.83225 2.28229 5.73567 2.25417 5.63679 2.25208C5.53791 2.24999 5.44023 2.27401 5.35359 2.32171C5.26695 2.36941 5.19443 2.43912 5.14332 2.52379C5.09221 2.60847 5.06434 2.70512 5.0625 2.80401Z" stroke="currentColor" stroke-width="2" stroke-linecap="round" stroke-linejoin="round"/>
</g>
<defs>
<clipPath id="clip0_1150_690">
<rect width="18" height="18" fill="white"/>
</clipPath>
</defs>
</svg>
