<svg width="24" height="24" viewBox="0 0 24 24" fill="none" xmlns="http://www.w3.org/2000/svg">
<path fill-rule="evenodd" clip-rule="evenodd" d="M20 12C20 16.4183 16.4183 20 12 20C7.58172 20 4 16.4183 4 12C4 7.58172 7.58172 4 12 4C16.4183 4 20 7.58172 20 12ZM22 12C22 17.5228 17.5228 22 12 22C6.47715 22 2 17.5228 2 12C2 6.47715 6.47715 2 12 2C17.5228 2 22 6.47715 22 12ZM13 8C13 7.44771 12.5523 7 12 7C11.4477 7 11 7.44771 11 8V11H8C7.44771 11 7 11.4477 7 12C7 12.5523 7.44771 13 8 13H11L11 16C11 16.5523 11.4477 17 12 17C12.5523 17 13 16.5523 13 16L13 13L16 13C16.5523 13 17 12.5523 17 12C17 11.4477 16.5523 11 16 11L13 11V8Z" fill="currentColor"/>
</svg>
