<svg width="24" height="24" viewBox="0 0 24 24" fill="none" xmlns="http://www.w3.org/2000/svg">
<path fill-rule="evenodd" clip-rule="evenodd" d="M11 15L19 15C19.4933 15 19.7631 15.0011 19.9582 15.0144L19.9837 15.0163L19.9856 15.0418C19.9989 15.2369 20 15.5067 20 16C20 16.4933 19.9989 16.7631 19.9856 16.9582L19.9837 16.9837L19.9582 16.9856C19.7631 16.9989 19.4933 17 19 17H11V15ZM2 16C2 15.0681 2 14.6022 2.15224 14.2346C2.35523 13.7446 2.74458 13.3552 3.23463 13.1522C3.60217 13 4.06812 13 5 13L19 13C19.9319 13 20.3978 13 20.7654 13.1522C21.2554 13.3552 21.6448 13.7446 21.8478 14.2346C22 14.6022 22 15.0681 22 16C22 16.9319 22 17.3978 21.8478 17.7654C21.6448 18.2554 21.2554 18.6448 20.7654 18.8478C20.3978 19 19.9319 19 19 19L5 19C4.06812 19 3.60217 19 3.23463 18.8478C2.74458 18.6448 2.35523 18.2554 2.15224 17.7654C2 17.3978 2 16.9319 2 16ZM15 7H19C19.4933 7 19.7631 7.00108 19.9582 7.01439L19.9837 7.01626L19.9856 7.04183C19.9989 7.23688 20 7.50669 20 8C20 8.49331 19.9989 8.76312 19.9856 8.95817L19.9837 8.98373L19.9582 8.98561C19.7631 8.99892 19.4933 9 19 9H15L15 7ZM2 8C2 7.06812 2 6.60217 2.15224 6.23463C2.35523 5.74458 2.74458 5.35523 3.23463 5.15224C3.60217 5 4.06812 5 5 5L19 5C19.9319 5 20.3978 5 20.7654 5.15224C21.2554 5.35523 21.6448 5.74458 21.8478 6.23463C22 6.60217 22 7.06812 22 8C22 8.93188 22 9.39782 21.8478 9.76537C21.6448 10.2554 21.2554 10.6448 20.7654 10.8478C20.3978 11 19.9319 11 19 11L5 11C4.06812 11 3.60217 11 3.23463 10.8478C2.74458 10.6448 2.35523 10.2554 2.15224 9.76537C2 9.39783 2 8.93188 2 8Z" fill="currentColor"/>
</svg>
