<svg width="24" height="24" viewBox="0 0 24 24" fill="none" xmlns="http://www.w3.org/2000/svg">
<path fill-rule="evenodd" clip-rule="evenodd" d="M5 15H9V17L5 17C4.50669 17 4.23688 16.9989 4.04183 16.9856L4.01626 16.9837L4.01439 16.9582C4.00108 16.7631 4 16.4933 4 16C4 15.5067 4.00108 15.2369 4.01439 15.0418L4.01626 15.0163L4.04183 15.0144C4.23688 15.0011 4.50669 15 5 15ZM19 17H11V15L19 15C19.4933 15 19.7631 15.0011 19.9582 15.0144L19.9837 15.0163L19.9856 15.0418C19.9989 15.2369 20 15.5067 20 16C20 16.4933 19.9989 16.7631 19.9856 16.9582L19.9837 16.9837L19.9582 16.9856C19.7631 16.9989 19.4933 17 19 17ZM5 19L10 19H19C19.9319 19 20.3978 19 20.7654 18.8478C21.2554 18.6448 21.6448 18.2554 21.8478 17.7654C22 17.3978 22 16.9319 22 16C22 15.0681 22 14.6022 21.8478 14.2346C21.6448 13.7446 21.2554 13.3552 20.7654 13.1522C20.3978 13 19.9319 13 19 13L5 13C4.06812 13 3.60217 13 3.23463 13.1522C2.74458 13.3552 2.35523 13.7446 2.15224 14.2346C2 14.6022 2 15.0681 2 16C2 16.9319 2 17.3978 2.15224 17.7654C2.35523 18.2554 2.74458 18.6448 3.23463 18.8478C3.60217 19 4.06812 19 5 19ZM15 7H19C19.4933 7 19.7631 7.00108 19.9582 7.01439L19.9837 7.01626L19.9856 7.04183C19.9989 7.23688 20 7.50669 20 8C20 8.49331 19.9989 8.76312 19.9856 8.95817L19.9837 8.98373L19.9582 8.98561C19.7631 8.99892 19.4933 9 19 9H15L15 7ZM14 5H5C4.06812 5 3.60217 5 3.23463 5.15224C2.74458 5.35523 2.35523 5.74458 2.15224 6.23463C2 6.60217 2 7.06812 2 8C2 8.93188 2 9.39783 2.15224 9.76537C2.35523 10.2554 2.74458 10.6448 3.23463 10.8478C3.60217 11 4.06812 11 5 11L19 11C19.9319 11 20.3978 11 20.7654 10.8478C21.2554 10.6448 21.6448 10.2554 21.8478 9.76537C22 9.39782 22 8.93188 22 8C22 7.06812 22 6.60217 21.8478 6.23463C21.6448 5.74458 21.2554 5.35523 20.7654 5.15224C20.3978 5 19.9319 5 19 5L14 5ZM13 7V9H5C4.50669 9 4.23688 8.99892 4.04183 8.98561L4.01626 8.98374L4.01439 8.95817C4.00108 8.76312 4 8.49331 4 8C4 7.50669 4.00108 7.23688 4.01439 7.04183L4.01626 7.01626L4.04183 7.01439C4.23688 7.00108 4.50669 7 5 7H13Z" fill="#333435"/>
</svg>
