<svg width="20" height="20" viewBox="0 0 20 20" fill="none" xmlns="http://www.w3.org/2000/svg">
<path d="M13.9226 5.24399L11.4226 2.74399C11.306 2.62748 11.1576 2.54814 10.9959 2.516C10.8343 2.48386 10.6668 2.50037 10.5145 2.56342C10.3623 2.62648 10.2322 2.73327 10.1406 2.87027C10.049 3.00728 10.0001 3.16836 10.0001 3.33316V4.99982H6.66675C5.61734 4.99982 4.59452 5.33001 3.7432 5.94361C2.89187 6.55721 2.25518 7.42312 1.92333 8.41868C1.59148 9.41424 1.58128 10.489 1.89418 11.4907C2.20708 12.4923 2.82722 13.3702 3.66675 13.9998C3.84356 14.1324 4.06581 14.1894 4.2846 14.1581C4.50339 14.1269 4.70081 14.01 4.83341 13.8332C4.96602 13.6563 5.02296 13.4341 4.99171 13.2153C4.96045 12.9965 4.84356 12.7991 4.66675 12.6665C4.10706 12.2467 3.69364 11.6615 3.48504 10.9937C3.27644 10.3259 3.28323 9.60944 3.50447 8.94573C3.72571 8.28202 4.15016 7.70475 4.71771 7.29568C5.28527 6.88661 5.96714 6.66649 6.66675 6.66649H10.0001V8.33316C10.0001 8.49795 10.049 8.65903 10.1406 8.79604C10.2322 8.93305 10.3623 9.03983 10.5145 9.10289C10.6668 9.16595 10.8343 9.18245 10.9959 9.15031C11.1576 9.11817 11.306 9.03883 11.4226 8.92232L13.9226 6.42232C14.0788 6.26605 14.1666 6.05413 14.1666 5.83316C14.1666 5.61219 14.0788 5.40026 13.9226 5.24399Z" fill="#F7B602"/>
<path d="M16.3333 5.99967C16.2458 5.93401 16.1461 5.88624 16.0401 5.85908C15.9341 5.83192 15.8238 5.82591 15.7155 5.84138C15.6071 5.85686 15.5029 5.89352 15.4087 5.94928C15.3146 6.00504 15.2323 6.07879 15.1667 6.16634C15.101 6.25389 15.0532 6.35351 15.0261 6.45952C14.9989 6.56553 14.9929 6.67586 15.0084 6.78419C15.0238 6.89253 15.0605 6.99675 15.1163 7.09092C15.172 7.18509 15.2458 7.26735 15.3333 7.33301C15.893 7.75277 16.3064 8.338 16.515 9.00578C16.7236 9.67357 16.7168 10.3901 16.4956 11.0538C16.2744 11.7175 15.8499 12.2947 15.2824 12.7038C14.7148 13.1129 14.0329 13.333 13.3333 13.333H9.99998V11.6663C9.99995 11.5015 9.95106 11.3405 9.85949 11.2035C9.76792 11.0665 9.63778 10.9597 9.48553 10.8966C9.33328 10.8336 9.16575 10.817 9.00413 10.8492C8.8425 10.8813 8.69403 10.9607 8.57748 11.0772L6.07748 13.5772C5.92126 13.7334 5.8335 13.9454 5.8335 14.1663C5.8335 14.3873 5.92126 14.5992 6.07748 14.7555L8.57748 17.2555C8.69403 17.372 8.8425 17.4514 9.00413 17.4835C9.16575 17.5156 9.33328 17.4991 9.48553 17.4361C9.63778 17.373 9.76792 17.2662 9.85949 17.1292C9.95106 16.9922 9.99995 16.8311 9.99998 16.6663V14.9997H13.3333C14.3827 14.9997 15.4055 14.6695 16.2569 14.0559C17.1082 13.4423 17.7449 12.5764 18.0767 11.5808C18.4086 10.5853 18.4188 9.51052 18.1059 8.50884C17.793 7.50716 17.1728 6.62932 16.3333 5.99967Z" fill="#E46E01"/>
</svg>
