<svg width="24" height="24" viewBox="0 0 24 24" fill="none" xmlns="http://www.w3.org/2000/svg">
<path fill-rule="evenodd" clip-rule="evenodd" d="M19.5 5.26667C19.2239 5.26667 19 5.52037 19 5.83333V6.13044V16.8696V17.1667C19 17.4796 19.2239 17.7333 19.5 17.7333C19.7761 17.7333 20 17.4796 20 17.1667V5.83333C20 5.52037 19.7761 5.26667 19.5 5.26667ZM19.5 3C18.2972 3 17.2928 3.96265 17.0539 5.24521L4.125 9.66664V9.52174C4.125 8.89742 3.6493 8.39131 3.0625 8.39131C2.4757 8.39131 2 8.89742 2 9.52174V14.0435C2 14.6678 2.4757 15.1739 3.0625 15.1739C3.6493 15.1739 4.125 14.6678 4.125 14.0435V13.8465L7.07165 14.7422C7.02462 15.0123 7 15.2912 7 15.5763C7 18.0194 8.80736 20 11.0369 20C12.7777 20 14.2613 18.7924 14.8279 17.1L17.0583 17.778C17.305 19.0489 18.3045 20 19.5 20C20.8807 20 22 18.7315 22 17.1667V5.83333C22 4.26853 20.8807 3 19.5 3ZM12.8694 16.5046L9.03005 15.3375C9.02237 15.416 9.01843 15.4956 9.01843 15.5763C9.01843 16.7979 9.92211 17.7881 11.0369 17.7881C11.8491 17.7881 12.5492 17.2625 12.8694 16.5046Z" fill="#333435"/>
</svg>
