<svg width="25" height="24" viewBox="0 0 25 24" fill="none" xmlns="http://www.w3.org/2000/svg">
<path d="M9.5 12C9.5 13.3807 8.38071 14.5 7 14.5C5.61929 14.5 4.5 13.3807 4.5 12C4.5 10.6193 5.61929 9.5 7 9.5C8.38071 9.5 9.5 10.6193 9.5 12Z" stroke="#201F1D" stroke-width="1.5"/>
<path d="M14.5 6.5L9.5 10" stroke="#201F1D" stroke-width="1.5" stroke-linecap="round"/>
<path d="M14.5 17.5L9.5 14" stroke="#201F1D" stroke-width="1.5" stroke-linecap="round"/>
<path d="M19.5 18.5C19.5 19.8807 18.3807 21 17 21C15.6193 21 14.5 19.8807 14.5 18.5C14.5 17.1193 15.6193 16 17 16C18.3807 16 19.5 17.1193 19.5 18.5Z" stroke="#201F1D" stroke-width="1.5"/>
<path d="M19.5 5.5C19.5 6.88071 18.3807 8 17 8C15.6193 8 14.5 6.88071 14.5 5.5C14.5 4.11929 15.6193 3 17 3C18.3807 3 19.5 4.11929 19.5 5.5Z" stroke="#201F1D" stroke-width="1.5"/>
</svg>
