<svg width="24" height="24" viewBox="0 0 24 24" fill="none" xmlns="http://www.w3.org/2000/svg">
<path d="M7.26168 10.5437L8.15611 10.991L9.96666 7.36986L11.7772 10.991C11.9639 11.3644 12.2746 11.6613 12.6561 11.8308L15.6191 13.1477L12.3259 14.8994L12.7955 15.7823L12.3259 14.8994C12.0005 15.0725 11.7361 15.3412 11.5684 15.6694L9.98654 18.7643L8.48735 15.6978C8.31835 15.3521 8.04301 15.0697 7.70174 14.8919L4.33507 13.1384L7.27719 11.8308C7.6587 11.6613 7.9694 11.3644 8.15611 10.991L7.26168 10.5437Z" fill="#333435" stroke="#333435" stroke-width="2" stroke-miterlimit="1.30541" stroke-linecap="round"/>
<path d="M18.1729 6.89029L19 5.23607L19.8271 6.89029C19.9723 7.18072 20.214 7.41164 20.5107 7.54352L21.7191 8.08058L20.2843 8.84376C20.2843 8.84376 20.2843 8.84376 20.2843 8.84376C20.0313 8.97837 19.8256 9.1874 19.6952 9.44263L19.0199 10.7638L18.3848 9.46477C18.2533 9.1959 18.0392 8.97624 17.7737 8.83799L17.3118 9.7249L17.7737 8.83799L16.3017 8.07132L17.4893 7.54352C17.786 7.41164 18.0277 7.18072 18.1729 6.89029Z" fill="#333435" stroke="#333435" stroke-width="2" stroke-miterlimit="1.30541" stroke-linecap="round"/>
</svg>
