<svg width="24" height="24" viewBox="0 0 24 24" fill="none" xmlns="http://www.w3.org/2000/svg">
<path d="M18.6071 12.3411L18.6106 12.3405L17.0926 13.6503L16.6333 14.0467L16.7727 14.6372L18.058 20.0812L18.0589 20.0848C18.0836 20.1881 18.0773 20.2965 18.0405 20.3962C18.0038 20.4959 17.9383 20.5824 17.8524 20.6449C17.7664 20.7074 17.6639 20.743 17.5578 20.7473C17.452 20.7515 17.3474 20.7245 17.257 20.6695C17.2566 20.6693 17.2562 20.6691 17.2559 20.6689L12.5241 17.7567L12.0002 17.4342L11.4761 17.7566L6.74345 20.6675C6.74289 20.6679 6.74234 20.6682 6.74178 20.6686C6.65152 20.723 6.54724 20.7496 6.44191 20.7453C6.33593 20.7408 6.23362 20.7052 6.14787 20.6427C6.06213 20.5803 5.99678 20.4939 5.96005 20.3943C5.92331 20.2948 5.91685 20.1867 5.94146 20.0835L5.94181 20.082L7.23181 14.638L7.37183 14.047L6.91205 13.6503L2.6939 10.0105C2.69387 10.0105 2.69384 10.0105 2.69382 10.0104C2.61311 9.94066 2.55475 9.84867 2.52601 9.74593C2.49725 9.64315 2.49941 9.53418 2.53222 9.43263C2.56503 9.33108 2.62702 9.24144 2.71047 9.17491C2.79321 9.10895 2.8934 9.0686 2.99872 9.0588L8.52542 8.61292L9.13547 8.5637L9.36921 7.99806L11.503 2.83431L11.5039 2.83208C11.5441 2.73414 11.6125 2.65037 11.7004 2.59141C11.7883 2.53246 11.8918 2.50098 11.9977 2.50098C12.1035 2.50098 12.207 2.53246 12.2949 2.59141C12.3828 2.65037 12.4513 2.73414 12.4914 2.83208L12.4923 2.83416L14.6251 7.99791L14.8588 8.56369L15.469 8.61292L20.9964 9.05885C20.9968 9.05889 20.9973 9.05893 20.9977 9.05897C21.1038 9.06821 21.2047 9.10839 21.2881 9.17454C21.3719 9.24098 21.4342 9.33065 21.4672 9.43233C21.5002 9.534 21.5024 9.64316 21.4737 9.74612C21.4449 9.84909 21.3864 9.94127 21.3055 10.0111L18.6071 12.3411Z" stroke="#333435" stroke-width="2"/>
</svg>
