<svg width="24" height="24" viewBox="0 0 24 24" fill="none" xmlns="http://www.w3.org/2000/svg">
<path d="M21.9647 10.7671L17.7459 14.4074L19.0313 19.8515C19.1022 20.147 19.0839 20.4569 18.9788 20.7421C18.8736 21.0272 18.6864 21.2748 18.4406 21.4536C18.1948 21.6324 17.9015 21.7343 17.5979 21.7465C17.2942 21.7587 16.9937 21.6806 16.7344 21.5221L12 18.6083L7.26282 21.5221C7.00353 21.6797 6.70341 21.757 6.40026 21.7444C6.0971 21.7318 5.80446 21.6297 5.55919 21.4511C5.31392 21.2725 5.12698 21.0253 5.02191 20.7406C4.91685 20.456 4.89835 20.1466 4.96875 19.8515L6.25875 14.4074L2.04 10.7671C1.81059 10.5688 1.64468 10.3074 1.56299 10.0154C1.48129 9.72336 1.48743 9.41376 1.58064 9.12522C1.67385 8.83669 1.85 8.58201 2.08709 8.39299C2.32418 8.20397 2.6117 8.08899 2.91375 8.06241L8.445 7.61616L10.5788 2.45241C10.6942 2.17099 10.8908 1.93027 11.1435 1.76085C11.3961 1.59143 11.6935 1.50098 11.9977 1.50098C12.3019 1.50098 12.5992 1.59143 12.8518 1.76085C13.1045 1.93027 13.3011 2.17099 13.4166 2.45241L15.5494 7.61616L21.0806 8.06241C21.3833 8.088 21.6716 8.20234 21.9096 8.3911C22.1475 8.57986 22.3245 8.83464 22.4183 9.12352C22.5121 9.41241 22.5185 9.72254 22.4368 10.0151C22.3552 10.3076 22.189 10.5695 21.9591 10.768L21.9647 10.7671Z" fill="currentColor"/>
</svg>
