<svg width="24" height="24" viewBox="0 0 24 24" fill="none" xmlns="http://www.w3.org/2000/svg">
<path fill-rule="evenodd" clip-rule="evenodd" d="M9.75 8.5C8.09315 8.5 6.75 9.84315 6.75 11.5C6.75 12.0523 6.30228 12.5 5.75 12.5C5.19772 12.5 4.75 12.0523 4.75 11.5C4.75 8.73858 6.98858 6.5 9.75 6.5H16.75C17.3023 6.5 17.75 6.94772 17.75 7.5C17.75 8.05228 17.3023 8.5 16.75 8.5H9.75Z" fill="black"/>
<path d="M15.25 9.12676V5.87416C15.25 5.71443 15.428 5.61915 15.5609 5.70775L18.0004 7.33405C18.1191 7.41322 18.1191 7.58771 18.0004 7.66687L15.5609 9.29317C15.428 9.38178 15.25 9.2865 15.25 9.12676Z" fill="black"/>
<path fill-rule="evenodd" clip-rule="evenodd" d="M15.75 6.43458V8.56607L17.3486 7.50033L15.75 6.43458ZM14.75 5.87403C14.75 5.31494 15.3731 4.98147 15.8383 5.29159L18.2777 6.91789C18.6933 7.19497 18.6933 7.80568 18.2777 8.08276L15.8383 9.70906C15.3731 10.0192 14.75 9.68571 14.75 9.12662V5.87403Z" fill="black"/>
<path fill-rule="evenodd" clip-rule="evenodd" d="M14.25 15.501C15.9069 15.501 17.25 14.1578 17.25 12.501C17.25 11.9487 17.6977 11.501 18.25 11.501C18.8023 11.501 19.25 11.9487 19.25 12.501C19.25 15.2624 17.0114 17.501 14.25 17.501H7.25C6.69771 17.501 6.25 17.0533 6.25 16.501C6.25 15.9487 6.69771 15.501 7.25 15.501L14.25 15.501Z" fill="black"/>
<path d="M8.75 14.8742V18.1268C8.75 18.2866 8.57197 18.3818 8.43906 18.2932L5.99962 16.6669C5.88087 16.5878 5.88087 16.4133 5.99961 16.3341L8.43906 14.7078C8.57197 14.6192 8.75 14.7145 8.75 14.8742Z" fill="black"/>
<path fill-rule="evenodd" clip-rule="evenodd" d="M8.25 17.5664V15.4349L6.65139 16.5007L8.25 17.5664ZM9.25 18.1269C9.25 18.686 8.6269 19.0195 8.16171 18.7094L5.72227 17.0831C5.30665 16.806 5.30665 16.1953 5.72226 15.9182L8.16171 14.2919C8.6269 13.9818 9.25 14.3153 9.25 14.8744V18.1269Z" fill="black"/>
</svg>
