<svg width="24" height="24" viewBox="0 0 24 24" fill="none" xmlns="http://www.w3.org/2000/svg">
<path d="M12.9444 3.55188C12.6344 3.5176 12.3192 3.5 12 3.5C7.30558 3.5 3.5 7.30558 3.5 12C3.5 16.6944 7.30558 20.5 12 20.5C16.6944 20.5 20.5 16.6944 20.5 12C20.5 11.6808 20.4481 11.0556 20.4481 11.0556M11.0556 8.3412C9.42617 8.76057 8.22222 10.2397 8.22222 12C8.22222 14.0864 9.91359 15.7777 12 15.7777C13.7603 15.7777 15.2394 14.5738 15.6588 12.9444" stroke="currentColor" stroke-width="2" stroke-linecap="round"/>
<path d="M14.7268 9L13 10.7268" stroke="currentColor" stroke-width="2" stroke-linecap="round"/>
<path d="M15.0034 6.33912V9.01041H17.6747L21.0138 5.67129L18.7001 5.31384L18.3425 3C17.0385 4.30401 16.3074 5.03511 15.0034 6.33912Z" stroke="currentColor" stroke-width="2" stroke-linecap="round" stroke-linejoin="round"/>
</svg>
