<svg width="24" height="25" viewBox="0 0 24 25" fill="none" xmlns="http://www.w3.org/2000/svg">
<path d="M10.1497 9.30219L9.70794 9.90825L9.70794 9.90825L10.1497 9.30219ZM12 3.60615L11.4925 4.15833C11.7794 4.4221 12.2206 4.4221 12.5075 4.15833L12 3.60615ZM13.8503 9.3022L14.2921 9.90826L14.2921 9.90826L13.8503 9.3022ZM12 10.176L12 10.926L12 10.926L12 10.176ZM10.5915 8.69612C9.90132 8.19298 9.16512 7.58112 8.60883 6.93627C8.03452 6.27053 7.75 5.68233 7.75 5.21476H6.25C6.25 6.23229 6.82845 7.16885 7.47305 7.91607C8.13569 8.68419 8.97435 9.37349 9.70794 9.90825L10.5915 8.69612ZM7.75 5.21476C7.75 4.15612 8.27002 3.55231 8.8955 3.34182C9.54754 3.12238 10.5199 3.26435 11.4925 4.15833L12.5075 3.05398C11.2302 1.87988 9.70254 1.48756 8.41707 1.92016C7.10502 2.3617 6.25 3.59623 6.25 5.21476H7.75ZM14.2921 9.90826C15.0257 9.3735 15.8643 8.68421 16.527 7.91608C17.1716 7.16886 17.75 6.23229 17.75 5.21475H16.25C16.25 5.68234 15.9655 6.27055 15.3912 6.93629C14.8349 7.58113 14.0987 8.19299 13.4085 8.69613L14.2921 9.90826ZM17.75 5.21475C17.75 3.59622 16.895 2.3617 15.5829 1.92016C14.2975 1.48756 12.7698 1.87988 11.4925 3.05398L12.5075 4.15833C13.4801 3.26435 14.4525 3.12238 15.1045 3.34181C15.73 3.5523 16.25 4.15612 16.25 5.21475H17.75ZM9.70794 9.90825C10.463 10.4587 11.0618 10.926 12 10.926L12 9.42598C11.635 9.42598 11.4347 9.31074 10.5915 8.69612L9.70794 9.90825ZM13.4085 8.69613C12.5653 9.31074 12.365 9.42598 12 9.42598L12 10.926C12.9382 10.926 13.537 10.4587 14.2921 9.90826L13.4085 8.69613Z" fill="white"/>
<path d="M4 21.8884H6.25993C7.27079 21.8884 8.29253 21.9937 9.27633 22.1964C11.0166 22.5549 12.8488 22.5983 14.6069 22.3138C15.4738 22.1734 16.326 21.9589 17.0975 21.5865C17.7939 21.2504 18.6469 20.7766 19.2199 20.2459C19.7921 19.716 20.388 18.8487 20.8109 18.1707C21.1736 17.5894 20.9982 16.8762 20.4245 16.443C19.7873 15.9619 18.8417 15.962 18.2046 16.4433L16.3974 17.8084C15.697 18.3375 14.932 18.8245 14.0206 18.9699C13.911 18.9874 13.7962 19.0033 13.6764 19.0172M13.6764 19.0172C13.6403 19.0214 13.6038 19.0254 13.5668 19.0292M13.6764 19.0172C13.8222 18.986 13.9669 18.896 14.1028 18.7775C14.746 18.2161 14.7866 17.27 14.2285 16.6431C14.0991 16.4977 13.9475 16.3764 13.7791 16.2759C10.9817 14.6074 6.62942 15.8782 4 17.7429M13.6764 19.0172C13.6399 19.025 13.6033 19.0292 13.5668 19.0292M13.5668 19.0292C13.0434 19.0829 12.4312 19.0968 11.7518 19.0326" stroke="white" stroke-width="1.5" stroke-linecap="round"/>
</svg>
