<svg width="24" height="24" viewBox="0 0 24 24" fill="none" xmlns="http://www.w3.org/2000/svg">
<path fill-rule="evenodd" clip-rule="evenodd" d="M14.1059 5.16339C13.3063 4.08616 11.6937 4.08616 10.8941 5.16339L3.17816 15.5579C2.19854 16.8776 3.14052 18.75 4.78407 18.75H20.2159C21.8595 18.75 22.8015 16.8776 21.8218 15.5579L14.1059 5.16339ZM11.6609 8.7044L11.9828 13.5485H13.0172L13.3621 8.73087C13.3851 8.42205 13.3544 8.1794 13.2701 8.00293C13.1935 7.81763 13.0862 7.68969 12.9483 7.6191C12.818 7.53969 12.6724 7.49999 12.5115 7.49999C12.3506 7.49999 12.2011 7.53969 12.0632 7.6191C11.9253 7.69852 11.818 7.82646 11.7414 8.00293C11.6647 8.1794 11.6379 8.41322 11.6609 8.7044ZM11.7874 16.1956C11.9866 16.3985 12.2203 16.5 12.4885 16.5C12.7567 16.5 12.9904 16.3941 13.1897 16.1823C13.3965 15.9706 13.5 15.7235 13.5 15.4412C13.5 15.1676 13.4042 14.9162 13.2126 14.6868C13.0211 14.4573 12.7797 14.3426 12.4885 14.3426C12.2203 14.3426 11.9866 14.4529 11.7874 14.6735C11.5958 14.8941 11.5 15.15 11.5 15.4412C11.5 15.7323 11.5958 15.9838 11.7874 16.1956Z" fill="currentColor"/>
</svg>
