<svg width="24" height="24" viewBox="0 0 24 24" fill="none" xmlns="http://www.w3.org/2000/svg">
<path d="M4.68447 7.75272C5.17261 6.68491 6.2388 6 7.41289 6H20.8866C22.3431 6 23.3111 7.50693 22.7056 8.83152L19.3155 16.2473C18.8274 17.3151 17.7612 18 16.5871 18H3.11336C1.65692 18 0.688881 16.4931 1.29441 15.1685L4.68447 7.75272Z" stroke="currentColor" stroke-width="2"/>
<path d="M13.3373 14.9998V9.18164H15.5191C15.9661 9.18164 16.3411 9.26497 16.6441 9.43164C16.949 9.59831 17.1792 9.82747 17.3345 10.1191C17.4917 10.4089 17.5703 10.7385 17.5703 11.1078C17.5703 11.4809 17.4917 11.8123 17.3345 12.1021C17.1773 12.3919 16.9453 12.6201 16.6384 12.7868C16.3316 12.9515 15.9538 13.0339 15.5049 13.0339H14.0589V12.1674H15.3629C15.6242 12.1674 15.8382 12.122 16.0049 12.0311C16.1716 11.9402 16.2947 11.8152 16.3742 11.6561C16.4557 11.497 16.4964 11.3142 16.4964 11.1078C16.4964 10.9013 16.4557 10.7195 16.3742 10.5623C16.2947 10.4051 16.1706 10.283 16.0021 10.1958C15.8354 10.1068 15.6204 10.0623 15.3572 10.0623H14.3913V14.9998H13.3373Z" fill="currentColor"/>
<path d="M8.45454 9.18164L9.73579 11.3123H9.78124L11.0682 9.18164H12.2699L10.4773 12.0907L12.2983 14.9998H11.0767L9.78124 12.8833H9.73579L8.44034 14.9998H7.22443L9.06249 12.0907L7.24715 9.18164H8.45454Z" fill="currentColor"/>
<path fill-rule="evenodd" clip-rule="evenodd" d="M12.9373 9.18223C12.9373 8.96131 13.1164 8.78223 13.3373 8.78223H15.5191C16.0143 8.78223 16.46 8.87446 16.8369 9.08174L16.6441 9.43223L16.8359 9.08124C17.2052 9.28305 17.4928 9.56679 17.6868 9.93035C17.8789 10.2851 17.9702 10.6811 17.9702 11.1084C17.9702 11.5392 17.879 11.9377 17.686 12.2934C17.4897 12.6553 17.1999 12.9375 16.8293 13.1388L16.8277 13.1397C16.4483 13.3435 16.0012 13.4345 15.5049 13.4345H14.7912V15.0004C14.7912 15.2213 14.6122 15.4004 14.3912 15.4004H13.3373C13.1164 15.4004 12.9373 15.2213 12.9373 15.0004V9.18223ZM14.7912 12.6345V12.568H15.3628C15.6671 12.568 15.953 12.5156 16.1964 12.3828C16.4291 12.2559 16.6125 12.0736 16.7311 11.8372C16.845 11.614 16.8964 11.3677 16.8964 11.1084C16.8964 10.8491 16.845 10.6029 16.7302 10.3805C16.6101 10.1441 16.4235 9.96453 16.188 9.84229C15.9456 9.7135 15.6607 9.66291 15.3572 9.66291H14.3912C14.1703 9.66291 13.9912 9.84199 13.9912 10.0629V11.7737C13.8875 11.7914 13.7974 11.849 13.7373 11.9301V9.58223H15.5191C15.9178 9.58223 16.2221 9.65666 16.4513 9.78271L16.4522 9.78322C16.6924 9.91448 16.8647 10.0886 16.9814 10.3077L16.9814 10.3077L16.9828 10.3105C17.1046 10.5349 17.1702 10.7975 17.1702 11.1084C17.1702 11.4237 17.1043 11.6881 16.9828 11.9119C16.8649 12.1294 16.691 12.3034 16.4484 12.4354C16.2142 12.5609 15.9058 12.6345 15.5049 12.6345H14.7912ZM13.7373 13.2724C13.7974 13.3536 13.8875 13.4111 13.9912 13.4288V14.6004H13.7373V13.2724ZM14.7912 11.768V10.4629H15.3572C15.5791 10.4629 15.7232 10.501 15.8136 10.5493L15.8136 10.5493L15.8184 10.5518C15.9183 10.6034 15.9787 10.6672 16.0173 10.7435L16.0173 10.7435L16.019 10.7469C16.0665 10.8385 16.0964 10.9553 16.0964 11.1084C16.0964 11.2613 16.0665 11.3799 16.0181 11.4744L16.0181 11.4744L16.0164 11.4778C15.9759 11.5588 15.9134 11.6259 15.8133 11.6805C15.7234 11.7296 15.5813 11.768 15.3628 11.768H14.7912Z" fill="currentColor"/>
<path fill-rule="evenodd" clip-rule="evenodd" d="M6.89734 8.9882C6.96785 8.86108 7.10177 8.78223 7.24713 8.78223H8.45452C8.59488 8.78223 8.72498 8.8558 8.79731 8.97609L9.7592 10.5757L10.7258 8.97542C10.7982 8.85551 10.9281 8.78223 11.0682 8.78223H12.2699C12.4148 8.78223 12.5484 8.86065 12.6191 8.98721C12.6898 9.11377 12.6864 9.26866 12.6104 9.39207L10.9481 12.0897L12.6373 14.7882C12.7145 14.9115 12.7187 15.0669 12.6482 15.1942C12.5777 15.3214 12.4437 15.4004 12.2983 15.4004H11.0767C10.9374 15.4004 10.8082 15.328 10.7355 15.2092L9.75849 13.613L8.78148 15.2092C8.70878 15.328 8.57956 15.4004 8.44031 15.4004H7.2244C7.07864 15.4004 6.94442 15.3211 6.87407 15.1935C6.80372 15.0658 6.80839 14.91 6.88625 14.7867L8.59015 12.09L6.90778 9.39399C6.83083 9.27067 6.82683 9.11531 6.89734 8.9882ZM7.96823 9.58223L9.40182 11.8796C9.48312 12.0098 9.48265 12.1752 9.40063 12.305L7.95029 14.6004H8.21616L9.3946 12.6751C9.46729 12.5563 9.59652 12.4839 9.73577 12.4839H9.78122C9.92047 12.4839 10.0497 12.5563 10.1224 12.6751L11.3008 14.6004H11.576L10.1382 12.3036C10.0575 12.1746 10.0569 12.011 10.1367 11.8815L11.5535 9.58223H11.2939L10.1236 11.5197C10.0512 11.6396 9.92131 11.7129 9.78122 11.7129H9.73577C9.5954 11.7129 9.46531 11.6393 9.39297 11.519L8.2283 9.58223H7.96823Z" fill="currentColor"/>
</svg>
